<?xml version="1.0" encoding="UTF-8"?>
<svg id="Capa_2" data-name="Capa 2" xmlns="http://www.w3.org/2000/svg" viewBox="0 0 312.05 208.73">
  <defs>
    <style>
      .cls-1 {
        fill: #6a7624;
      }

      .cls-1, .cls-2, .cls-3, .cls-4, .cls-5, .cls-6, .cls-7, .cls-8, .cls-9, .cls-10, .cls-11 {
        stroke-width: 0px;
      }

      .cls-2 {
        fill: #6d7822;
      }

      .cls-3 {
        fill: #848c30;
      }

      .cls-4 {
        fill: #6e7924;
      }

      .cls-5 {
        fill: #545a2c;
      }

      .cls-6 {
        fill: #414717;
      }

      .cls-7 {
        fill: #939d4e;
      }

      .cls-8 {
        fill: #abb052;
      }

      .cls-9 {
        fill: #a1a150;
      }

      .cls-12 {
        fill: none;
        stroke: #222221;
        stroke-miterlimit: 10;
      }

      .cls-10 {
        fill: #fff;
      }

      .cls-11 {
        fill: #5f6818;
      }
    </style>
  </defs>
  <g id="triangulos">
    <g>
      <g>
        <polygon class="cls-10" points="41.46 46.1 41.11 46.44 35.97 42.38 27.04 50.25 29.78 57.25 34.59 57.14 38.03 55.01 39.2 52.82 42.39 55.13 45.77 54.14 44.88 46.31 41.46 46.1"/>
        <polygon class="cls-10" points="149.43 146.76 144.82 142.47 141.61 141.43 136.24 142.08 135.36 149.81 145.34 153.45 149.43 146.76"/>
        <polygon class="cls-10" points="41.72 69.49 38.72 76.62 41.43 78.7 44.46 79.48 50.22 78.61 50.19 70.7 41.72 69.49"/>
        <polygon class="cls-10" points="42.31 95.55 47.98 98.83 53.22 97.72 56.5 93.2 52.71 86.88 43.76 88.12 42.31 95.55"/>
        <polygon class="cls-10" points="22.31 25.78 31.39 25.38 32.29 17.53 21.74 14.6 17 20.07 18.47 23.39 22.31 25.78"/>
        <path class="cls-10" d="M305.53,163.19l-9.2-3.29-1.37-.23-8.93.05-8.77-2.34,1.04-1.61.63-2.52-.25-2.92,4.21-9.73,12.76-5.2,10.84-3.17,2.54-2.24,1.89-4.35-3.34-1.45h.01s3.38,1.36,3.38,1.36l1.06-2.62-2.81-5.4-3.26-.75h0s-.06-.03-.06-.03l-9.92-2.16-4.66-2.4,6.63-13.79-5.26-5.37-4.79,2.19.22-3.33-7.16-2.7-8.14,10.59-3.96-4.32-6.84,3.64.99,4.13-5.8,3.01.24,5.69,3.69,2.66-3.07,3.1-1.48-1.36-6.17.93-1.06,1.83,2.15,4.44-.6-.15-3.84,3.96.44,1.13-1.91,1.97-7.97-2.06.13-.12-1.07-2.58,12.01-3.09-1.42-7.32,2.63,1.21,5.57-4.51-.49-2.16-4.59-3.06-3.07.53-.98,7.58h.02s-13.75,1.84-13.75,1.84l-1.06,4.28-10.29-2.33-1.87,5.04-50.88-13.13-.49-.77-.8-.91-5.18-4.36-4.84,3.12-54.36-14.02,1.3-6.23,2.01-8.31,6.01,5.2,2.79.97,4.92-.21,3.1-1.69,6.4-9.06.39-.69,4.94-11.2,2.53-4.21,2.73-3.52.83-2.09.41-4.53-1.18-3.22-5.66-5.56-5.31-.26-3.49,2.81-2.17-2.37,1.44-1.17-.49-2.16-4.59-3.06-3.07.53-.98,7.58,1.83.84-1.33.71,1.28,5.33,3.97,3.06h.4s.28,6.43.28,6.43l-5.88,7.06-3.12-3.14v-4.46l-.38-1.69-8.11-17.35,1.93.11,4-2.68,1.71-4.92.1-.35.88-3.56-.3-.07,1.46-1.96-1.47-5.47-.09-2.59-.04-.45-.93-6.22-1.76-2.75-5.57-3.67-2.04-.66-8.82-.35-.94.55-4.48-2.94-5.23,3.97-.13-.23-7.32.84-.87,2.95-5.37-.78,1.89-3.96-2.54-2.34-6.17.93-1.06,1.83,1.25,2.58h-.03s-.82.99-.82.99l-2.72-3.06-2.72-1.33-5.41-.37-1.01,3.39-.09-.08-5.96.69-3.7,5.33.35.33-3.92-.1-2.18,7.42,4.05,2.46,4.67-.37,2.69-2.28-1.1-3.12,1.18,1.12,2.92-2.25.02,2.58.65.19-.79.41.24,5.69,1.18.85-.63,1,2.44,4.16,2.99,1.95,14.19,1.66,2.14-.34,10.62-4.89,1.01-.93.49,1.5.43,3.14-4.06.5-1.16.32-9.8,4.41-10.89,4.98-.05,1.4h-.5s.97-2.5.97-2.5l-4.78-3.28-4.22-.19-1.92,1.08-5.4-4.16-6.23,1.91-.8,2.39,2.68,5.11,6.26,1.81,2.08-4.11,1.03,5.5,4.45.64-2.01.39-3.22,4.22.67,9.18.63.12-.41.93,4.49,12.67,1.85,5.96.09,6.53,4.14,3.94.84-.03,2.85,4.1,8.1-1.58,3.19-3.36.59-4.15-.38-2.35-1.95-3.89,4.55,4.36.29-.06-4.29,8.95.06.03-.05.05-.04-.02-.06.12-3.15,3.41-.91,1.61-1.78,6.22.02,2.26.16.53-10.75-7.59-6.22,4.08.46,2.23,2.01,2.7,3.46,1.87-.94.59v4.31s3.98,4,3.98,4l5.8.02-1.96,2.67-.48.85-3.65,8.98-4.08-6.67-14.78,7.46,1.69,7.57,4.42.12,2.47-.77,10.16-7.44-1.8,4.42,1.26.98-2.02,2.3-7.71,3.1-1.67,1.26-10.17,13.14-.72,1.5-.38,1.55-2.18-8.55-7.81.28-1.78,9.92,3.92,4.71h2.71s-3.05,2.32-3.05,2.32l-6.43,1.73-2.83,4.88.83,3.16-3.13-2.3,1.31-1.61-7.7-8-4.31-.96-3.11,1.19-.71,7.12,8.3,5.23-1.24,1.18,2.55,3.86,2.11,1.6.26.08-2.9,1.04-.62,7.25,7.85,4.44,2.94-2.38,3.89,7.29,1.47,1.54,4.13,2.49,4.57-.31,1.54-1.24,1.35-4.18-1.5-5.44-.38-.92-.1-.17,2.08-9.58,1.17-1.59.62-1.26,1.6-5.51,14.06-12.57.2-.19,7.23-7.41,7.34-3.04,1.78-1.45,2.04-3.01,7.12-9.86,14.38-18.48,2.46.63,4.91,1.37-1.99.13-2.37.98-2.66,2.33,3.59,6.89,7.48-1.85-.63.79-4.97,11.75-2.4,3.28,1.1-2.42-6.37-7.27-6.94,3.35,1.33,7.27,3.93,3.28h3.86l-.5.68-5.85,5.45-.24.72-2.66-1.22-4.93,2.98.33,3.81-2.03,1.51-.67,1.61.61-6.05-7.66-2.62-4.87,2-1.93,3.86,4.09,5.75,9.02-1.17-.16.38.45,3.14,2.74,3.25,2.3.73-3.81-.09-2.7,7.04,7.26,6.22,6.55-3.71-1.04-6.07-2.54-2.19,3.7,1.18,2.33,5.66,1.56,1.86,6.28,3.97,1.52.57,6.77,1.06,4.55-4.67-.53-2.88-.79-1.75-4.45-5.66-2.45-10.58,2.5-4.31,13.23-13.71,7.65-7.72v-.07s.06.01.06.01l11.49-12.09.48-.9,7.59,4.97,5.6-5.44-4.57-7.44,7.01,2.05,4.99,11.28-.83,4.6,12.42,5.33.11.32-6.64-2.02-.11-.14-2.81-1.44-3.4-.23-1.44,7.82,3.14.95,4.68,5.65,4.4,1.19-3.09,1.45-7.6,3.03,4.84-3.54-4.16-6.8-14.78,7.46.85,3.81-.18-.2-23.39-2.78-1.72,7.77,21.31,7.01-2.25,2.85,1.51,3.6,3.59,2.45,6.54.17,2.35-.69,4.21-2.87,6.37-2.18h0s.13-.05.13-.05l2.18-.32-.97,1.77,5.03,3.84,1.24.45-3.04.77-.17,7.71,7.08,2.12,2.37-1.01-1.59,6.38-3.68,1.16-.55,7.41,2.19,1.07,1.47.4,6.14.44,1.88-.32,3.48-1.51,2.3-2.76,1.17-4.99,4.01-6.65,12.88-3.42,1.61-.86,12.81-11.23,1.11-1.6,2.33-6.21,12.28,5.64.59-.63.29.97,15.4,4.24.02-.09,1.17.48,16.58.58,18.27,1.41,3.93,2.22,4.47,3.96,6.63-3.38-.51-5.34-1.19-2.49-3.66-3.56,5.6.85,2.21-.29,3.54-1.55-.5-7.51-5.29-1.51ZM68.21,114.51v.02s0,0,0,0v-.03ZM179.2,181.87l1.08-5.4,3.1.45,5.21.88.52-.04-.07,1.05-1.8-.4-5.47,6.67-2.57-3.22ZM70.86,79.58l-.32-.63-.66-.95-4.59-4.88-1.03-10.69-.1-4.03,6.12-2.07,2.58-.35,2.96,12.93.55,3.45-4.46,1.08-1.06,6.14ZM67.04,111.29l-1.35-.64.77-1.25.58,1.89ZM33.2,165.1l-.76.12-.33.14,1.5-1.92-.41,1.66ZM19.05,184.53l-.39,2.92-1.42-.7,1.58-3.09.23.87ZM112.17,127.13l-2.87,2.09-.47-3.02,3.34.93ZM140.94,119.4l-.34.53-.3-.99-.98-.94,4.91,1.44-3.29-.04ZM177.18,147.09l3.78-.11-3.04,5.3-.59.28-.15-5.47ZM152.16,165.05l-2.73,3.15-.09-2.92,1.92.05.91-.28Z"/>
      </g>
      <g>
        <polygon class="cls-11" points="84.86 51.26 75.96 51.52 89.63 41.71 84.86 51.26"/>
        <polygon class="cls-11" points="75.96 51.52 69.38 52.42 69.38 46.75 75.96 51.52"/>
        <polygon class="cls-4" points="75.96 51.52 89.63 41.71 69.38 46.75 75.96 51.52"/>
        <polygon class="cls-2" points="84.86 51.26 75.96 51.52 83.96 60.42 84.86 51.26"/>
        <polygon class="cls-3" points="84.86 51.26 89.63 41.71 83.96 60.42 84.86 51.26"/>
        <polygon class="cls-1" points="60.35 52.05 69.38 52.42 69.38 46.75 60.35 52.05"/>
        <polygon class="cls-11" points="60.35 52.05 69.38 52.42 60.11 55.56 60.35 52.05"/>
        <polygon class="cls-1" points="78.18 40.05 89.63 41.71 69.38 46.75 78.18 40.05"/>
        <polygon class="cls-3" points="78.18 40.05 70.58 40.4 69.38 46.75 78.18 40.05"/>
        <polygon class="cls-8" points="78.18 40.05 80.35 36 70.58 40.4 78.18 40.05"/>
        <polygon class="cls-7" points="63.06 47.19 70.58 40.4 69.38 46.75 63.06 47.19"/>
        <polygon class="cls-3" points="63.06 47.19 60.35 52.05 69.38 46.75 63.06 47.19"/>
        <polygon class="cls-8" points="63.06 47.19 59.69 45.37 70.58 40.4 63.06 47.19"/>
        <polygon class="cls-7" points="63.06 47.19 60.35 52.05 56.06 47.11 63.06 47.19"/>
        <polygon class="cls-3" points="78.18 40.05 89.63 41.71 80.35 36 78.18 40.05"/>
        <polygon class="cls-7" points="88.11 37.58 89.63 41.71 80.35 36 88.11 37.58"/>
        <polygon class="cls-8" points="88.11 37.58 88.45 35.02 80.35 36 88.11 37.58"/>
        <polygon class="cls-3" points="88.11 37.58 89.63 41.71 88.45 35.02 88.11 37.58"/>
        <polygon class="cls-1" points="90.28 51.04 89.63 41.71 83.96 60.42 90.28 51.04"/>
        <polygon class="cls-11" points="90.28 51.04 95.39 59.11 83.96 60.42 90.28 51.04"/>
        <polygon class="cls-3" points="79.76 68.15 75.96 51.52 83.96 60.42 79.76 68.15"/>
        <polygon class="cls-1" points="60.35 52.05 56.06 50.52 60.11 55.56 60.35 52.05"/>
        <polygon class="cls-3" points="60.35 52.05 56.06 50.52 56.06 47.11 60.35 52.05"/>
        <polygon class="cls-8" points="50.35 51.63 56.06 50.52 51.02 60.82 50.35 51.63"/>
        <polygon class="cls-8" points="53.28 105.39 52.82 103.16 64.81 111.62 53.28 105.39"/>
        <polygon class="cls-8" points="235.01 121.98 233.15 120.66 247.7 118.72 235.01 121.98"/>
        <polygon class="cls-8" points="181.41 126.32 177.56 121.9 194.09 121.81 181.41 126.32"/>
        <polygon class="cls-8" points="67.32 167.12 69.24 163.26 76.91 165.88 67.32 167.12"/>
        <polygon class="cls-8" points="10.43 191.41 16.21 189.34 18.28 195.86 10.43 191.41"/>
        <polygon class="cls-3" points="57.61 67.34 56.06 50.52 54.63 59.31 57.61 67.34"/>
        <polygon class="cls-7" points="57.61 67.34 55.54 73.56 51.02 60.82 57.61 67.34"/>
        <polygon class="cls-3" points="60.28 62.67 56.06 50.52 60.11 55.56 60.28 62.67"/>
        <polygon class="cls-1" points="60.28 62.67 56.06 50.52 57.61 67.34 60.28 62.67"/>
        <polygon class="cls-3" points="60.28 62.67 61.45 74.86 57.61 67.34 60.28 62.67"/>
        <polygon class="cls-1" points="55.54 73.56 61.45 74.86 57.61 67.34 55.54 73.56"/>
        <polygon class="cls-1" points="55.54 73.56 57.59 80.15 59.17 76.69 55.54 73.56"/>
        <polygon class="cls-7" points="61.45 74.86 57.59 80.15 59.17 76.69 61.45 74.86"/>
        <polygon class="cls-8" points="61.45 74.86 57.59 80.15 66.97 80.74 61.45 74.86"/>
        <polygon class="cls-7" points="57.69 87.26 57.59 80.15 63.42 87.07 57.69 87.26"/>
        <polygon class="cls-3" points="66.97 80.74 57.59 80.15 63.42 87.07 66.97 80.74"/>
        <polygon class="cls-8" points="66.97 80.74 68.85 89.83 63.42 87.07 66.97 80.74"/>
        <polygon class="cls-11" points="60.75 91.41 68.85 89.83 63.42 87.07 60.75 91.41"/>
        <polygon class="cls-7" points="66.97 80.74 68.85 89.83 69.44 85.68 66.97 80.74"/>
        <polygon class="cls-5" points="102.87 66.52 95.39 59.11 83.96 60.42 102.87 66.52"/>
        <polygon class="cls-11" points="102.87 66.52 95.39 59.11 109.16 63.11 102.87 66.52"/>
        <polygon class="cls-2" points="109.16 57.01 95.39 59.11 109.16 63.11 109.16 57.01"/>
        <polygon class="cls-3" points="109.16 57.01 95.39 59.11 100.8 46.08 109.16 57.01"/>
        <polygon class="cls-4" points="90.28 51.04 95.39 59.11 89.63 41.71 90.28 51.04"/>
        <polygon class="cls-5" points="85.43 80.95 79.76 68.15 83.96 60.42 85.43 80.95"/>
        <polygon class="cls-2" points="85.43 80.95 79.76 68.15 81.12 76.67 85.43 80.95"/>
        <polygon class="cls-7" points="89.63 41.71 95.39 59.11 100.8 46.08 89.63 41.71"/>
        <polygon class="cls-8" points="89.63 41.71 88.45 35.02 100.8 46.08 89.63 41.71"/>
        <polygon class="cls-7" points="99.4 36.12 88.45 35.02 100.8 46.08 99.4 36.12"/>
        <polygon class="cls-3" points="99.4 36.12 88.45 35.02 87.41 27.5 99.4 36.12"/>
        <polygon class="cls-1" points="99.4 36.12 100.52 33.72 87.41 27.5 99.4 36.12"/>
        <polygon class="cls-5" points="106.83 34.08 100.52 33.72 96.52 28.91 106.83 34.08"/>
        <polygon class="cls-11" points="106.83 34.08 95.79 23.68 96.52 28.91 106.83 34.08"/>
        <polygon class="cls-11" points="87.41 27.5 100.52 33.72 96.52 28.91 87.41 27.5"/>
        <polygon class="cls-1" points="87.41 27.5 95.79 23.68 96.52 28.91 87.41 27.5"/>
        <polygon class="cls-11" points="87.41 27.5 95.79 23.68 84.13 17.38 87.41 27.5"/>
        <polygon class="cls-8" points="97.37 18.07 95.79 23.68 94.43 16.37 97.37 18.07"/>
        <polygon class="cls-3" points="91.88 18.41 95.79 23.68 94.43 16.37 91.88 18.41"/>
        <polygon class="cls-1" points="91.88 18.41 95.79 23.68 84.13 17.38 91.88 18.41"/>
        <polygon class="cls-3" points="106.83 34.08 95.79 23.68 108.54 29.16 106.83 34.08"/>
        <polygon class="cls-7" points="97.37 18.07 95.79 23.68 108.54 29.16 97.37 18.07"/>
        <polygon class="cls-3" points="97.37 18.07 109.42 25.6 108.54 29.16 97.37 18.07"/>
        <polygon class="cls-8" points="109.01 19.67 109.42 25.6 110.6 25.57 109.01 19.67"/>
        <polygon class="cls-7" points="109.01 19.67 109.42 25.6 105.16 19.66 109.01 19.67"/>
        <polygon class="cls-8" points="97.37 18.07 109.42 25.6 105.16 19.66 97.37 18.07"/>
        <polygon class="cls-7" points="97.37 18.07 100.97 14.45 105.16 19.66 97.37 18.07"/>
        <polygon class="cls-3" points="105.48 16.39 100.97 14.45 105.16 19.66 105.48 16.39"/>
        <polygon class="cls-1" points="105.48 16.39 109.01 19.67 105.16 19.66 105.48 16.39"/>
        <polygon class="cls-5" points="105.48 16.39 109.01 19.67 108.9 16.62 105.48 16.39"/>
        <polygon class="cls-7" points="105.48 16.39 100.97 14.45 108.9 16.62 105.48 16.39"/>
        <polygon class="cls-1" points="106.03 12.88 100.97 14.45 108.9 16.62 106.03 12.88"/>
        <polygon class="cls-7" points="106.03 12.88 107.97 10.4 108.9 16.62 106.03 12.88"/>
        <polygon class="cls-3" points="106.03 12.88 107.97 10.4 102.4 6.73 106.03 12.88"/>
        <polygon class="cls-11" points="106.03 12.88 100.97 14.45 102.4 6.73 106.03 12.88"/>
        <polygon class="cls-11" points="97.37 18.07 100.97 14.45 94.43 16.37 97.37 18.07"/>
        <polygon class="cls-11" points="91.88 18.41 84.13 17.38 94.43 16.37 91.88 18.41"/>
        <polygon class="cls-1" points="86.53 10.65 84.13 17.38 94.43 16.37 86.53 10.65"/>
        <polygon class="cls-11" points="94.43 16.37 93.57 6.38 91.67 10.17 94.43 16.37"/>
        <polygon class="cls-1" points="100.97 14.45 93.57 6.38 94.43 16.37 100.97 14.45"/>
        <polygon class="cls-11" points="100.97 14.45 93.57 6.38 99.59 9.68 100.97 14.45"/>
        <polygon class="cls-1" points="100.97 14.45 102.4 6.73 99.59 9.68 100.97 14.45"/>
        <polygon class="cls-8" points="93.57 6.38 102.4 6.73 99.59 9.68 93.57 6.38"/>
        <polygon class="cls-2" points="74.27 14.54 84.13 17.38 75.06 19.27 74.27 14.54"/>
        <polygon class="cls-5" points="74.27 14.54 84.13 17.38 84.86 15.32 74.27 14.54"/>
        <polygon class="cls-11" points="74.27 14.54 78.01 12.05 84.86 15.32 74.27 14.54"/>
        <polygon class="cls-11" points="43.59 13.63 47.29 8.3 48.78 9.63 43.59 13.63"/>
        <polygon class="cls-11" points="41.26 51.29 41.22 50.1 44.64 50.3 41.26 51.29"/>
        <polygon class="cls-11" points="57.89 115.68 57.89 111.37 67.04 115.72 57.89 115.68"/>
        <polygon class="cls-11" points="141.94 125.2 144.29 121.58 149.59 130.21 141.94 125.2"/>
        <polygon class="cls-11" points="26.43 163.11 28.21 153.19 30.74 163.13 26.43 163.11"/>
        <polygon class="cls-11" points="136.72 146.06 142.09 145.4 146.71 149.69 136.72 146.06"/>
        <polygon class="cls-11" points="78.28 181.34 84.5 181.49 85.54 187.56 78.28 181.34"/>
        <polygon class="cls-5" points="74.27 14.54 64.46 16.18 75.06 19.27 74.27 14.54"/>
        <polygon class="cls-7" points="63.15 24.1 66.73 19.18 75.06 19.27 63.15 24.1"/>
        <polygon class="cls-7" points="50.8 6 56.21 6.37 60.95 11.71 50.8 6"/>
        <polygon class="cls-7" points="78.35 9.48 79.47 5.71 82.65 11.34 78.35 9.48"/>
        <polygon class="cls-1" points="63.15 24.1 74.88 25.52 75.06 19.27 63.15 24.1"/>
        <polygon class="cls-11" points="84.13 17.38 74.88 25.52 75.06 19.27 84.13 17.38"/>
        <polygon class="cls-3" points="63.15 24.1 66.73 19.18 60.79 14.2 63.15 24.1"/>
        <polygon class="cls-3" points="58.28 15.66 56.9 11.21 50.08 13.29 58.28 15.66"/>
        <polygon class="cls-3" points="56.19 43.93 51.41 40.65 47.71 42.72 56.19 43.93"/>
        <polygon class="cls-3" points="108.69 127.58 99.46 128.19 96.8 130.52 108.69 127.58"/>
        <polygon class="cls-3" points="49.62 74.66 43.86 75.53 41.15 73.45 49.62 74.66"/>
        <polygon class="cls-3" points="79.81 79.36 75.86 74.13 74.77 80.45 79.81 79.36"/>
        <polygon class="cls-3" points="53.26 90.85 44.31 92.08 49.98 95.37 53.26 90.85"/>
        <polygon class="cls-3" points="124.93 47.04 120.11 41.78 121.39 47.11 124.93 47.04"/>
        <polygon class="cls-3" points="31.22 21.39 20.66 18.45 22.13 21.78 31.22 21.39"/>
        <polygon class="cls-3" points="95.32 148.6 88.95 141.33 90.28 148.6 95.32 148.6"/>
        <polygon class="cls-3" points="179.23 184.56 169.87 186.92 176.94 189.05 179.23 184.56"/>
        <polygon class="cls-3" points="68.56 5.72 66.03 3.38 64.97 5.21 68.56 5.72"/>
        <polygon class="cls-3" points="256.41 121.62 253.87 119.27 252.81 121.1 256.41 121.62"/>
        <polygon class="cls-11" points="69.73 12.08 78.01 12.05 64.46 16.18 69.73 12.08"/>
        <polygon class="cls-1" points="69.73 12.08 62.15 9.73 64.46 16.18 69.73 12.08"/>
        <polygon class="cls-8" points="69.73 12.08 62.15 9.73 78.01 12.05 69.73 12.08"/>
        <polygon class="cls-5" points="84.13 17.38 74.88 25.52 80.33 24.19 84.13 17.38"/>
        <polygon class="cls-6" points="69.71 29.08 74.88 25.52 80.33 24.19 69.71 29.08"/>
        <polygon class="cls-5" points="69.71 29.08 74.88 25.52 63.15 24.1 69.71 29.08"/>
        <polygon class="cls-6" points="69.71 29.08 55.51 27.41 63.5 26.55 69.71 29.08"/>
        <polygon class="cls-11" points="69.71 29.08 63.15 24.1 63.5 26.55 69.71 29.08"/>
        <polygon class="cls-1" points="55.51 27.41 63.15 24.1 63.5 26.55 55.51 27.41"/>
        <polygon class="cls-3" points="55.51 27.41 63.15 24.1 53.07 23.25 55.51 27.41"/>
        <polygon class="cls-9" points="52.83 17.56 58.29 21.76 53.07 23.25 52.83 17.56"/>
        <polygon class="cls-9" points="261.2 106.07 266.66 110.27 261.44 111.76 261.2 106.07"/>
        <polygon class="cls-9" points="39.69 37.25 45.15 41.45 38.89 39.63 39.69 37.25"/>
        <polygon class="cls-9" points="90.73 3.19 90 6.2 84.78 7.7 90.73 3.19"/>
        <polygon class="cls-9" points="120.46 37 120.94 39.16 117.39 37.53 120.46 37"/>
        <polygon class="cls-3" points="270.72 103.42 265.9 98.16 267.18 103.5 270.72 103.42"/>
        <polygon class="cls-9" points="251.09 110.68 251.57 112.84 248.02 111.22 251.09 110.68"/>
        <polygon class="cls-9" points="36.63 15.58 43.37 15.76 40.68 18.04 36.63 15.58"/>
        <polygon class="cls-8" points="109.16 57.01 99.4 36.12 100.8 46.08 109.16 57.01"/>
        <polygon class="cls-5" points="102.87 66.52 103.76 72 109.16 63.11 102.87 66.52"/>
        <polygon class="cls-4" points="102.87 66.52 103.76 72 83.96 60.42 102.87 66.52"/>
        <polygon class="cls-4" points="85.43 80.95 92.35 71.86 83.96 60.42 85.43 80.95"/>
        <polygon class="cls-3" points="103.76 72 92.35 71.86 83.96 60.42 103.76 72"/>
        <polygon class="cls-11" points="103.76 72 92.35 71.86 85.43 80.95 103.76 72"/>
        <polygon class="cls-7" points="85.43 80.95 74.87 95.71 80.71 83.55 85.43 80.95"/>
        <polygon class="cls-3" points="85.43 80.95 74.87 95.71 84.95 96.45 85.43 80.95"/>
        <polygon class="cls-8" points="71.32 99.56 74.87 95.71 84.95 96.45 71.32 99.56"/>
        <polygon class="cls-7" points="71.32 99.56 69.54 105.78 84.95 96.45 71.32 99.56"/>
        <polygon class="cls-2" points="71.61 112.6 69.54 105.78 77.1 113.63 71.61 112.6"/>
        <polygon class="cls-11" points="97.35 118.85 69.54 105.78 77.1 113.63 97.35 118.85"/>
        <polygon class="cls-3" points="89.69 110.97 69.54 105.78 84.95 96.45 89.69 110.97"/>
        <polygon class="cls-2" points="89.69 110.97 69.54 105.78 97.35 118.85 89.69 110.97"/>
        <polygon class="cls-6" points="71.61 112.6 90.89 119.32 77.1 113.63 71.61 112.6"/>
        <polygon class="cls-5" points="71.61 112.6 77.02 118.59 90.89 119.32 71.61 112.6"/>
        <polygon class="cls-6" points="76.24 138.14 77.02 118.59 90.89 119.32 76.24 138.14"/>
        <polygon class="cls-11" points="64.95 124.74 77.02 118.59 70.39 117.31 64.95 124.74"/>
        <polygon class="cls-4" points="64.95 124.74 77.02 118.59 76.24 138.14 64.95 124.74"/>
        <polygon class="cls-7" points="64.95 124.74 59.38 138.43 66.28 133.34 64.95 124.74"/>
        <polygon class="cls-3" points="64.95 124.74 76.24 138.14 66.28 133.34 64.95 124.74"/>
        <polygon class="cls-4" points="69.05 148.1 76.24 138.14 66.28 133.34 69.05 148.1"/>
        <polygon class="cls-11" points="69.05 148.1 57.29 143.56 66.28 133.34 69.05 148.1"/>
        <polygon class="cls-6" points="69.05 148.1 58.87 154.52 66.97 151.16 69.05 148.1"/>
        <polygon class="cls-5" points="69.05 148.1 58.87 154.52 57.29 143.56 69.05 148.1"/>
        <polygon class="cls-7" points="48.7 147.02 47.32 155.71 57.29 143.56 48.7 147.02"/>
        <polygon class="cls-8" points="48.7 147.02 47.32 155.71 38.53 160.15 48.7 147.02"/>
        <polygon class="cls-4" points="58.87 154.52 47.32 155.71 57.29 143.56 58.87 154.52"/>
        <polygon class="cls-11" points="58.87 154.52 47.32 155.71 51.07 162.52 58.87 154.52"/>
        <polygon class="cls-5" points="36.45 168.65 47.32 155.71 51.07 162.52 36.45 168.65"/>
        <polygon class="cls-4" points="36.45 168.65 47.32 155.71 38.53 160.15 36.45 168.65"/>
        <polygon class="cls-7" points="36.45 168.65 27.66 178.03 33.05 169.17 36.45 168.65"/>
        <polygon class="cls-11" points="36.45 168.65 36.16 175.86 51.07 162.52 36.45 168.65"/>
        <polygon class="cls-5" points="36.45 168.65 36.16 175.86 27.66 178.03 36.45 168.65"/>
        <polygon class="cls-6" points="34.24 182.47 36.16 175.86 27.66 178.03 34.24 182.47"/>
        <polygon class="cls-8" points="27.86 173.09 33.05 169.17 27.66 178.03 27.86 173.09"/>
        <polygon class="cls-9" points="27.86 173.09 20.68 175.03 27.66 178.03 27.86 173.09"/>
        <polygon class="cls-11" points="23.12 184.27 20.68 175.03 27.66 178.03 23.12 184.27"/>
        <polygon class="cls-5" points="23.12 184.27 34.24 182.47 27.66 178.03 23.12 184.27"/>
        <polygon class="cls-7" points="27.27 191.92 33.06 182.47 29.64 198.16 27.27 191.92"/>
        <polygon class="cls-11" points="27.27 191.92 34.24 182.47 23.12 184.27 27.27 191.92"/>
        <polygon class="cls-5" points="27.27 191.92 26.76 198.58 23.12 184.27 27.27 191.92"/>
        <polygon class="cls-11" points="27.27 191.92 26.76 198.58 30.83 198.16 27.27 191.92"/>
        <polygon class="cls-5" points="32.33 203.6 26.76 198.58 30.83 198.16 32.33 203.6"/>
        <polygon class="cls-11" points="32.33 203.6 26.76 198.58 30.79 204.85 32.33 203.6"/>
        <polygon class="cls-6" points="26.66 202.36 26.76 198.58 30.79 204.85 26.66 202.36"/>
        <polygon class="cls-5" points="26.66 202.36 26.76 198.58 21.89 193.41 26.66 202.36"/>
        <polygon class="cls-11" points="23.12 184.27 26.76 198.58 21.89 193.41 23.12 184.27"/>
        <polygon class="cls-5" points="17.78 184.27 12.95 182.71 10.39 178.85 17.78 184.27"/>
        <polygon class="cls-3" points="103.76 72 100.25 86.51 85.43 80.95 103.76 72"/>
        <polygon class="cls-4" points="84.95 96.45 93.21 91.08 85.43 80.95 84.95 96.45"/>
        <polygon class="cls-11" points="100.25 86.51 93.21 91.08 85.43 80.95 100.25 86.51"/>
        <polygon class="cls-4" points="100.25 86.51 93.21 91.08 98.15 96.53 100.25 86.51"/>
        <polygon class="cls-3" points="84.95 96.45 93.21 91.08 98.15 96.53 84.95 96.45"/>
        <polygon class="cls-7" points="89.69 110.97 98.15 96.53 84.95 96.45 89.69 110.97"/>
        <polygon class="cls-8" points="89.69 110.97 98.15 96.53 103.5 98.56 89.69 110.97"/>
        <polygon class="cls-7" points="89.69 110.97 116.3 112.35 103.5 98.56 89.69 110.97"/>
        <polygon class="cls-11" points="89.69 110.97 116.3 112.35 97.35 118.85 89.69 110.97"/>
        <polygon class="cls-8" points="120.98 107.78 116.3 112.35 103.5 98.56 120.98 107.78"/>
        <polygon class="cls-2" points="115.05 120.75 116.3 112.35 97.35 118.85 115.05 120.75"/>
        <polygon class="cls-5" points="115.05 120.75 121.19 125.49 97.35 118.85 115.05 120.75"/>
        <polygon class="cls-11" points="115.05 120.75 116.3 112.35 130.43 127.6 115.05 120.75"/>
        <polygon class="cls-6" points="115.05 120.75 121.19 125.49 130.43 127.6 115.05 120.75"/>
        <polygon class="cls-7" points="132.46 119.55 116.3 112.35 130.43 127.6 132.46 119.55"/>
        <polygon class="cls-8" points="132.46 119.55 116.3 112.35 126.14 110.98 132.46 119.55"/>
        <polygon class="cls-7" points="120.98 107.78 116.3 112.35 126.14 110.98 120.98 107.78"/>
        <polygon class="cls-3" points="132.46 119.55 137.53 121.83 130.43 127.6 132.46 119.55"/>
        <polygon class="cls-9" points="132.46 119.55 137.53 121.83 126.14 110.98 132.46 119.55"/>
        <polygon class="cls-2" points="136.44 126.73 137.53 121.83 130.43 127.6 136.44 126.73"/>
        <polygon class="cls-11" points="136.44 126.73 124.95 138.82 130.43 127.6 136.44 126.73"/>
        <polygon class="cls-5" points="121.19 125.49 124.95 138.82 130.43 127.6 121.19 125.49"/>
        <polygon class="cls-6" points="121.19 125.49 108.29 134.91 120.55 129.13 121.19 125.49"/>
        <polygon class="cls-11" points="124.95 138.82 108.29 134.91 120.55 129.13 124.95 138.82"/>
        <polygon class="cls-3" points="124.95 138.82 108.29 134.91 114.11 144.65 124.95 138.82"/>
        <polygon class="cls-6" points="103.14 147.09 108.29 134.91 108.66 142.73 103.14 147.09"/>
        <polygon class="cls-5" points="114.11 144.65 108.29 134.91 108.66 142.73 114.11 144.65"/>
        <polygon class="cls-2" points="124.95 138.82 117.3 146.54 114.11 144.65 124.95 138.82"/>
        <polygon class="cls-5" points="103.14 147.09 117.3 146.54 114.11 144.65 103.14 147.09"/>
        <polygon class="cls-11" points="103.14 147.09 107.41 150.91 96.65 155.94 103.14 147.09"/>
        <polygon class="cls-2" points="103.14 147.09 107.41 150.91 117.3 146.54 103.14 147.09"/>
        <polygon class="cls-5" points="91.41 166.9 107.41 150.91 96.65 155.94 91.41 166.9"/>
        <polygon class="cls-6" points="91.41 166.9 90.53 161.65 96.65 155.94 91.41 166.9"/>
        <polygon class="cls-2" points="87.86 166.9 86.97 161.65 82.04 164.63 87.86 166.9"/>
        <polygon class="cls-11" points="91.41 166.9 107.41 150.91 117.3 146.54 91.41 166.9"/>
        <polygon class="cls-3" points="91.41 166.9 103.7 160.63 117.3 146.54 91.41 166.9"/>
        <polygon class="cls-2" points="91.41 166.9 103.7 160.63 100.16 166.73 91.41 166.9"/>
        <polygon class="cls-11" points="91.41 166.9 92.6 176.56 100.16 166.73 91.41 166.9"/>
        <polygon class="cls-11" points="80.65 169.74 83.12 167.91 92.6 176.56 80.65 169.74"/>
        <polygon class="cls-6" points="80.65 169.74 81.1 172.88 92.6 176.56 80.65 169.74"/>
        <polygon class="cls-2" points="103.17 179.72 92.6 176.56 100.16 166.73 103.17 179.72"/>
        <polygon class="cls-7" points="103.17 179.72 92.6 176.56 108.16 186.08 103.17 179.72"/>
        <polygon class="cls-3" points="108.69 188.96 92.6 176.56 108.16 186.08 108.69 188.96"/>
        <polygon class="cls-2" points="108.69 188.96 92.6 176.56 101.92 187.91 108.69 188.96"/>
        <polygon class="cls-11" points="95.64 183.94 92.6 176.56 101.92 187.91 95.64 183.94"/>
        <polygon class="cls-6" points="107.02 74.52 103.76 72 109.16 63.11 107.02 74.52"/>
        <polygon class="cls-5" points="107.02 74.52 112.42 72.4 114.79 81.25 107.02 74.52"/>
        <polygon class="cls-11" points="107.02 74.52 112.42 72.4 109.16 63.11 107.02 74.52"/>
        <polygon class="cls-3" points="116.54 70.54 112.42 72.4 109.16 63.11 116.54 70.54"/>
        <polygon class="cls-6" points="119.71 81.04 112.42 72.4 114.79 81.25 119.71 81.04"/>
        <polygon class="cls-5" points="119.71 81.04 112.42 72.4 116.54 70.54 119.71 81.04"/>
        <polygon class="cls-6" points="119.71 81.04 126.12 71.98 122.51 69.62 119.71 81.04"/>
        <polygon class="cls-11" points="119.71 81.04 116.54 70.54 122.51 69.62 119.71 81.04"/>
        <polygon class="cls-8" points="126.22 58.91 116.54 70.54 122.51 69.62 126.22 58.91"/>
        <polygon class="cls-3" points="126.22 58.91 131.16 60.56 122.51 69.62 126.22 58.91"/>
        <polygon class="cls-5" points="126.12 71.98 131.16 60.56 122.51 69.62 126.12 71.98"/>
        <polygon class="cls-6" points="126.22 58.91 131.16 60.56 133.94 55.92 126.22 58.91"/>
        <polygon class="cls-5" points="126.22 58.91 129.62 48.31 133.94 55.92 126.22 58.91"/>
        <polygon class="cls-11" points="136.82 52.22 129.62 48.31 133.94 55.92 136.82 52.22"/>
        <polygon class="cls-5" points="136.82 52.22 129.62 48.31 137.23 47.69 136.82 52.22"/>
        <polygon class="cls-3" points="131.57 42.13 129.62 48.31 137.23 47.69 131.57 42.13"/>
        <polygon class="cls-8" points="131.57 42.13 129.62 48.31 127.87 45.11 131.57 42.13"/>
        <polygon class="cls-3" points="125.81 49.54 129.62 48.31 126.22 58.91 125.81 49.54"/>
        <polygon class="cls-1" points="57.61 67.34 51.02 60.82 54.63 59.31 57.61 67.34"/>
        <polygon class="cls-5" points="94.43 16.37 86.53 10.65 91.67 10.17 94.43 16.37"/>
        <polygon class="cls-3" points="34.5 53.14 29.69 53.25 38.61 45.38 34.5 53.14"/>
        <polygon class="cls-3" points="44.95 136.71 40.52 136.59 55.31 129.13 44.95 136.71"/>
        <polygon class="cls-3" points="151.37 161.34 146.94 161.21 161.72 153.76 151.37 161.34"/>
        <polygon class="cls-3" points="5.24 170.08 2.13 171.26 12.95 178.08 5.24 170.08"/>
        <polygon class="cls-9" points="308.34 121.43 307.28 124.06 305.09 120.96 308.34 121.43"/>
        <polygon class="cls-9" points="305.09 120.96 307.28 124.06 306.28 126.36 294.67 118.42 294.67 118.41 305.09 120.96"/>
        <polygon class="cls-9" points="306.28 126.36 305.39 128.4 305.37 128.39 299.49 125.77 306.28 126.36"/>
        <polygon class="cls-9" points="306.28 126.36 299.49 125.77 294.51 125.33 294.5 125.33 294.67 118.42 306.28 126.36"/>
        <polygon class="cls-9" points="305.39 128.4 294.35 131.63 294.5 125.33 294.51 125.33 305.37 128.39 305.39 128.4"/>
        <polygon class="cls-9" points="305.37 128.39 294.51 125.33 299.49 125.77 305.37 128.39"/>
        <polygon class="cls-9" points="309.73 168.55 306.19 170.1 304.31 167 309.73 168.55"/>
        <polygon class="cls-9" points="304.31 167 306.19 170.1 294.97 168.39 304.31 167"/>
        <polygon class="cls-9" points="304.31 167 294.97 168.39 294.99 163.67 304.31 167"/>
        <polygon class="cls-9" points="300.86 179.63 301.37 184.97 296.58 180.73 300.86 179.63"/>
        <polygon class="cls-9" points="300.86 179.63 296.58 180.73 295.42 174.34 300.86 179.63"/>
        <polygon class="cls-9" points="294.67 118.42 294.5 125.33 294.35 131.63 289.01 125.73 294.66 118.42 294.67 118.42"/>
        <polygon class="cls-9" points="286.03 113.97 294.66 118.42 285.64 117.66 279.2 117.12 279.19 117.11 279.17 117.12 265.65 115.98 273.83 114.22 282.78 112.3 286.03 113.97"/>
        <polygon class="cls-9" points="294.66 118.42 289.01 125.73 283.9 132.34 283.88 132.32 280.69 121.99 284.35 121.06 284.35 121.05 294.66 118.42"/>
        <polygon class="cls-9" points="294.66 118.42 284.35 121.05 285.64 117.66 294.66 118.42"/>
        <polygon class="cls-9" points="294.35 96.67 286.03 113.97 283.47 101.68 283.47 101.63 294.35 96.67"/>
        <polygon class="cls-9" points="289.01 125.73 294.35 131.63 279.89 137.52 283.9 132.34 289.01 125.73"/>
        <polygon class="cls-9" points="295.42 174.34 296.58 180.73 291.25 177.72 295.15 174.46 295.17 174.31 295.42 174.34"/>
        <polygon class="cls-9" points="295.17 174.31 295.15 174.46 291.25 177.72 291.11 177.61 285.27 170.99 295.17 174.31"/>
        <polygon class="cls-9" points="294.99 163.67 294.97 168.39 294.71 168.26 285.78 163.85 285.52 163.72 294.99 163.67"/>
        <polygon class="cls-9" points="294.71 168.26 285.96 170.79 285.91 170.63 285.71 164.27 285.64 164.04 285.69 164.03 285.78 163.85 294.71 168.26"/>
        <polygon class="cls-9" points="291.11 177.61 290.94 177.82 272.26 176.38 277.04 171.97 285.27 170.99 291.11 177.61"/>
        <polygon class="cls-9" points="283.47 101.68 286.03 113.97 282.78 112.3 283.47 101.68"/>
        <polygon class="cls-9" points="285.64 117.66 284.35 121.05 284.35 121.06 279.2 117.12 285.64 117.66"/>
        <polygon class="cls-9" points="284.35 121.06 280.69 121.99 279.19 117.12 279.2 117.12 284.35 121.06"/>
        <polygon class="cls-9" points="284.12 91.63 283.47 101.63 283.46 101.64 283.47 101.68 282.78 112.3 273.83 114.22 284.12 91.63"/>
        <polygon class="cls-9" points="284.12 91.63 273.83 114.22 265.65 115.98 265.5 115.86 284.12 91.63"/>
        <polygon class="cls-9" points="285.91 170.63 285.96 170.79 285.46 170.94 269.45 165.68 269.55 165.28 269.57 165.29 285.64 164.04 285.71 164.27 285.91 170.63"/>
        <polygon class="cls-9" points="285.78 163.85 285.69 164.03 285.64 164.04 269.57 165.29 269.55 165.28 270.91 159.82 285.52 163.72 285.78 163.85"/>
        <polygon class="cls-9" points="269.45 165.68 285.46 170.94 285.27 170.99 277.04 171.97 269.3 165.9 269.45 165.68"/>
        <polygon class="cls-9" points="279.45 124.8 279.89 137.52 271.66 142.55 279.45 124.8"/>
        <polygon class="cls-9" points="279.89 137.52 274.63 149.67 271.66 142.55 279.89 137.52"/>
        <polygon class="cls-9" points="279.19 117.12 279.45 124.8 268.31 125.66 268.3 125.66 255.12 126.68 279.17 117.12 279.19 117.12"/>
        <polygon class="cls-9" points="279.45 124.8 271.66 142.55 268.31 125.66 279.45 124.8"/>
        <polygon class="cls-9" points="279.17 117.12 255.12 126.68 254.87 126.78 254.83 126.66 254.83 126.65 265.44 115.94 265.5 115.86 265.65 115.98 279.17 117.12"/>
        <polygon class="cls-9" points="277.04 171.97 272.26 176.38 255.6 175.8 277.04 171.97"/>
        <polygon class="cls-9" points="277.04 171.97 255.6 175.8 269.3 165.9 277.04 171.97"/>
        <polygon class="cls-9" points="274.63 149.67 274.96 153.59 270.63 150.72 247.13 135.16 246.8 134.77 246.96 134.61 258.17 138.21 271.66 142.55 274.63 149.67"/>
        <polygon class="cls-9" points="274.96 153.59 270.91 159.82 270.63 150.72 274.96 153.59"/>
        <polygon class="cls-9" points="268.31 125.66 271.66 142.55 258.17 138.21 258.17 138.21 268.31 125.66"/>
        <polygon class="cls-9" points="270.63 150.72 270.91 159.82 264.88 163.36 267.07 158.54 270.63 150.72"/>
        <polygon class="cls-9" points="270.91 159.82 269.55 165.28 269.45 165.68 264.88 163.36 270.91 159.82"/>
        <polygon class="cls-9" points="270.63 150.72 267.07 158.54 247.13 135.16 270.63 150.72"/>
        <polygon class="cls-9" points="269.45 165.68 269.3 165.9 255.6 175.8 255.33 175.55 263.27 162.54 264.88 163.36 269.45 165.68"/>
        <polygon class="cls-9" points="268.31 125.66 258.17 138.21 256.05 130.92 268.3 125.66 268.31 125.66"/>
        <polygon class="cls-9" points="268.3 125.66 256.05 130.92 254.87 126.78 255.12 126.68 268.3 125.66"/>
        <polygon class="cls-9" points="267.07 158.54 264.88 163.36 263.27 162.54 259.9 160.83 267.07 158.54"/>
        <polygon class="cls-9" points="247.13 135.16 267.07 158.54 253.91 155.6 246.87 134.99 247.13 135.16"/>
        <polygon class="cls-9" points="267.07 158.54 259.9 160.83 253.91 155.6 267.07 158.54"/>
        <polygon class="cls-9" points="263.27 162.54 255.33 175.55 239.93 171.31 263.27 162.54"/>
        <polygon class="cls-9" points="263.27 162.54 239.93 171.31 243.63 167.15 253.91 155.6 259.9 160.83 263.27 162.54"/>
        <polygon class="cls-9" points="246.87 134.99 253.91 155.6 226.14 146.17 246.66 134.85 246.87 134.99"/>
        <polygon class="cls-9" points="253.91 155.6 243.63 167.15 226.14 146.17 253.91 155.6"/>
        <polygon class="cls-9" points="246.62 134.82 246.66 134.85 226.14 146.17 228.31 136.01 240.2 136.69 246.62 134.82"/>
        <polygon class="cls-9" points="234.09 160.88 239.66 171.19 223.48 163.76 234.09 160.88"/>
        <polygon class="cls-9" points="226.14 146.17 234.09 160.88 223.48 163.76 226.01 146.79 225.78 146.59 226.14 146.17"/>
        <polygon class="cls-9" points="228.31 136.01 226.14 146.17 214.71 131.58 228.31 136.01"/>
        <polygon class="cls-9" points="214.71 131.58 226.14 146.17 204 129.71 214.71 131.58"/>
        <polygon class="cls-9" points="226.14 146.17 225.78 146.59 210.46 164.43 204 129.71 226.14 146.17"/>
        <polygon class="cls-9" points="226.01 146.79 223.48 163.76 210.46 164.43 225.78 146.59 226.01 146.79"/>
        <polygon class="cls-9" points="223.48 163.76 219.64 173.99 219.17 173.5 210.46 164.43 223.48 163.76"/>
        <polygon class="cls-9" points="219.17 173.5 219.64 173.99 206.83 185.22 206.5 184.56 199.42 170.51 218.94 173.72 219.17 173.5"/>
        <polygon class="cls-9" points="219.17 173.5 218.94 173.72 199.42 170.51 210.46 164.43 219.17 173.5"/>
        <polygon class="cls-9" points="204 129.71 210.46 164.43 193.16 134.09 204 129.71"/>
        <polygon class="cls-9" points="193.16 134.09 210.46 164.43 190.21 162.3 192.92 134.19 193.16 134.09"/>
        <polygon class="cls-9" points="210.46 164.43 199.42 170.51 193.36 172.52 189.26 173.87 190.21 162.3 210.46 164.43"/>
        <polygon class="cls-9" points="206.5 184.56 206.83 185.22 192.39 189.05 193.45 172.8 206.02 184.8 206.5 184.56"/>
        <polygon class="cls-9" points="199.42 170.51 206.5 184.56 206.02 184.8 193.45 172.8 193.36 172.52 199.42 170.51"/>
        <polygon class="cls-9" points="204 129.71 193.16 134.09 193.11 134.02 198.85 130.3 204 129.71"/>
        <polygon class="cls-9" points="198.85 130.3 193.11 134.02 192.96 133.75 192.92 134.14 192.72 134.27 185.83 129.57 198.85 130.3"/>
        <polygon class="cls-9" points="192.92 134.19 190.21 162.3 180.77 155.37 187.98 142.79 192.72 134.27 192.92 134.19"/>
        <polygon class="cls-9" points="192.72 134.27 187.98 142.79 172.98 143.21 175.85 141.23 192.72 134.27"/>
        <polygon class="cls-9" points="192.72 134.27 175.85 141.23 185.83 129.57 192.72 134.27"/>
        <polygon class="cls-9" points="190.34 180.96 192.39 189.05 182.68 190.3 190.34 180.96"/>
        <polygon class="cls-9" points="192.39 189.05 187.22 197.63 182.68 190.3 192.39 189.05"/>
        <polygon class="cls-9" points="190.21 162.3 189.26 173.87 184.05 172.99 172.58 171.31 190.21 162.3"/>
        <polygon class="cls-9" points="182.68 190.3 187.22 197.63 180.07 200.77 182.68 190.3"/>
        <polygon class="cls-9" points="187.22 197.63 185.91 203.23 179.92 201.39 180.07 200.77 187.22 197.63"/>
        <polygon class="cls-9" points="185.91 203.23 182.43 204.74 179.92 201.39 185.91 203.23"/>
        <polygon class="cls-9" points="185.83 129.57 175.85 141.23 176.15 126.71 185.83 129.57"/>
        <polygon class="cls-9" points="179.92 201.39 182.43 204.74 176.29 204.3 179.92 201.39"/>
        <polygon class="cls-9" points="169.36 119.31 176.15 126.71 163.59 122.17 163.39 121.46 163.62 121.4 169.36 119.31"/>
        <polygon class="cls-9" points="176.15 126.71 175.85 141.23 165.13 134.74 176.15 126.71"/>
        <polygon class="cls-9" points="176.15 126.71 165.13 134.74 163.59 122.17 176.15 126.71"/>
        <polygon class="cls-9" points="175.85 141.23 161.18 134.93 165.13 134.74 175.85 141.23"/>
        <polygon class="cls-9" points="168.42 161.18 172.58 171.31 163.52 172.64 163.04 172.8 162.97 172.61 168.42 161.18"/>
        <polygon class="cls-9" points="164.66 111.94 169.36 119.31 163.62 121.4 164.66 111.94"/>
        <polygon class="cls-9" points="168.42 161.18 162.97 172.61 163.04 172.8 163.04 172.81 156.16 175.16 168.42 161.18"/>
        <polygon class="cls-9" points="168.42 161.18 156.16 175.16 156.81 165.81 168.42 161.18"/>
        <polygon class="cls-9" points="163.59 122.17 165.13 134.74 158.61 120.01 163.59 122.17"/>
        <polygon class="cls-9" points="164.66 111.94 163.62 121.4 163.39 121.46 159.48 107.58 164.66 111.94"/>
        <polygon class="cls-9" points="156.81 165.81 156.16 175.16 151.5 178.33 156.81 165.81"/>
        <polygon class="cls-9" points="156.81 165.81 151.5 178.33 148.5 175.39 156.81 165.81"/>
        <polygon class="cls-9" points="151.5 178.33 144.96 178.16 148.5 175.39 151.5 178.33"/>
        <polyline class="cls-9" points="265.44 115.94 265.5 115.86 284.12 91.63"/>
        <polyline class="cls-9" points="282.78 112.3 283.47 101.68 283.47 101.63 284.12 91.63"/>
        <polyline class="cls-9" points="294.35 96.67 283.47 101.63 283.46 101.64"/>
        <line class="cls-9" x1="294.35" y1="96.67" x2="286.03" y2="113.97"/>
        <polyline class="cls-9" points="282.78 112.3 286.03 113.97 294.66 118.42"/>
        <polyline class="cls-9" points="308.34 121.43 305.09 120.96 294.67 118.41"/>
        <line class="cls-9" x1="294.35" y1="131.63" x2="305.39" y2="128.4"/>
        <polyline class="cls-9" points="306.28 126.36 307.28 124.06 308.34 121.43"/>
        <polyline class="cls-9" points="294.35 131.63 294.5 125.33 294.67 118.42"/>
        <line class="cls-9" x1="294.35" y1="131.63" x2="279.89" y2="137.52"/>
        <polyline class="cls-9" points="279.89 137.52 283.9 132.34 289.01 125.73 294.66 118.42"/>
        <polyline class="cls-9" points="294.66 118.42 285.64 117.66 279.2 117.12 279.19 117.12 279.17 117.12 265.65 115.98"/>
        <polyline class="cls-9" points="265.65 115.98 273.83 114.22 282.78 112.3"/>
        <polyline class="cls-9" points="286.03 113.97 283.47 101.68 283.46 101.64"/>
        <line class="cls-9" x1="284.12" y1="91.63" x2="273.83" y2="114.22"/>
        <polyline class="cls-9" points="279.19 117.12 280.69 121.99 283.88 132.32"/>
        <polyline class="cls-9" points="279.89 137.52 279.45 124.8 279.19 117.12 279.19 117.11"/>
        <line class="cls-9" x1="254.83" y1="126.65" x2="265.44" y2="115.94"/>
        <line class="cls-9" x1="268.31" y1="125.66" x2="279.45" y2="124.8"/>
        <line class="cls-9" x1="255.12" y1="126.68" x2="268.3" y2="125.66"/>
        <line class="cls-9" x1="279.45" y1="124.8" x2="271.66" y2="142.55"/>
        <line class="cls-9" x1="271.66" y1="142.55" x2="279.89" y2="137.52"/>
        <line class="cls-9" x1="279.89" y1="137.52" x2="274.63" y2="149.67"/>
        <line class="cls-9" x1="274.63" y1="149.67" x2="271.66" y2="142.55"/>
        <line class="cls-9" x1="274.63" y1="149.67" x2="274.96" y2="153.59"/>
        <polyline class="cls-9" points="274.96 153.59 270.63 150.72 247.13 135.16 246.87 134.99 246.66 134.85 246.62 134.82 246.44 134.7"/>
        <polyline class="cls-9" points="246.37 134.42 246.96 134.61 258.17 138.21 271.66 142.55"/>
        <line class="cls-9" x1="271.66" y1="142.55" x2="268.31" y2="125.66"/>
        <line class="cls-9" x1="258.17" y1="138.21" x2="268.31" y2="125.66"/>
        <polyline class="cls-9" points="258.17 138.21 256.05 130.92 254.87 126.78 254.83 126.66"/>
        <polyline class="cls-9" points="256.05 130.92 268.3 125.66 268.31 125.66"/>
        <polyline class="cls-9" points="270.63 150.72 267.07 158.54 264.88 163.36"/>
        <line class="cls-9" x1="274.96" y1="153.59" x2="270.91" y2="159.82"/>
        <line class="cls-9" x1="270.91" y1="159.82" x2="285.52" y2="163.72"/>
        <line class="cls-9" x1="294.99" y1="163.67" x2="285.52" y2="163.72"/>
        <line class="cls-9" x1="304.31" y1="167" x2="294.99" y2="163.67"/>
        <line class="cls-9" x1="306.19" y1="170.1" x2="304.31" y2="167"/>
        <line class="cls-9" x1="306.19" y1="170.1" x2="294.97" y2="168.39"/>
        <line class="cls-9" x1="294.97" y1="168.39" x2="304.31" y2="167"/>
        <line class="cls-9" x1="294.97" y1="168.39" x2="294.99" y2="163.67"/>
        <polyline class="cls-9" points="294.97 168.39 294.71 168.26 285.78 163.85 285.52 163.72"/>
        <polyline class="cls-9" points="285.27 170.99 285.46 170.94 285.96 170.79 294.71 168.26"/>
        <polyline class="cls-9" points="285.27 170.99 295.17 174.31 295.42 174.34"/>
        <line class="cls-9" x1="295.42" y1="174.34" x2="300.86" y2="179.63"/>
        <line class="cls-9" x1="300.86" y1="179.63" x2="296.58" y2="180.73"/>
        <line class="cls-9" x1="296.58" y1="180.73" x2="295.42" y2="174.34"/>
        <line class="cls-9" x1="296.58" y1="180.73" x2="291.25" y2="177.72"/>
        <polyline class="cls-9" points="291.25 177.72 291.11 177.61 285.27 170.99"/>
        <line class="cls-9" x1="291.25" y1="177.72" x2="295.15" y2="174.46"/>
        <line class="cls-9" x1="290.94" y1="177.82" x2="272.26" y2="176.38"/>
        <polyline class="cls-9" points="272.26 176.38 277.04 171.97 285.27 170.99"/>
        <polyline class="cls-9" points="285.51 170.95 285.46 170.94 269.45 165.68"/>
        <polyline class="cls-9" points="269.45 165.68 264.88 163.36 263.27 162.54 259.9 160.83"/>
        <line class="cls-9" x1="259.9" y1="160.83" x2="253.91" y2="155.6"/>
        <line class="cls-9" x1="264.88" y1="163.36" x2="270.91" y2="159.82"/>
        <line class="cls-9" x1="270.91" y1="159.82" x2="270.63" y2="150.72"/>
        <polyline class="cls-9" points="269.45 165.68 269.55 165.28 270.91 159.82"/>
        <polyline class="cls-9" points="269.57 165.29 285.64 164.04 285.69 164.03"/>
        <line class="cls-9" x1="285.71" y1="164.27" x2="285.91" y2="170.63"/>
        <line class="cls-9" x1="272.26" y1="176.38" x2="255.6" y2="175.8"/>
        <line class="cls-9" x1="255.6" y1="175.8" x2="277.04" y2="171.97"/>
        <line class="cls-9" x1="277.04" y1="171.97" x2="269.3" y2="165.9"/>
        <line class="cls-9" x1="269.3" y1="165.9" x2="255.6" y2="175.8"/>
        <line class="cls-9" x1="255.33" y1="175.55" x2="263.27" y2="162.54"/>
        <line class="cls-9" x1="255.33" y1="175.55" x2="239.93" y2="171.31"/>
        <line class="cls-9" x1="239.93" y1="171.31" x2="263.27" y2="162.54"/>
        <line class="cls-9" x1="239.66" y1="171.19" x2="223.48" y2="163.76"/>
        <polyline class="cls-9" points="307.29 124.07 307.28 124.06 305.09 120.96 305.06 120.9"/>
        <polyline class="cls-9" points="306.28 126.36 299.49 125.77 294.51 125.33"/>
        <line class="cls-9" x1="294.51" y1="125.33" x2="305.37" y2="128.39"/>
        <line class="cls-9" x1="305.39" y1="128.4" x2="306.28" y2="126.36"/>
        <polyline class="cls-9" points="284.35 121.05 294.66 118.42 294.67 118.42"/>
        <line class="cls-9" x1="280.69" y1="121.99" x2="284.35" y2="121.06"/>
        <line class="cls-9" x1="289.01" y1="125.73" x2="294.35" y2="131.63"/>
        <line class="cls-9" x1="190.34" y1="180.96" x2="182.68" y2="190.3"/>
        <polyline class="cls-9" points="182.68 190.3 180.07 200.77 179.92 201.39"/>
        <line class="cls-9" x1="179.92" y1="201.39" x2="176.29" y2="204.3"/>
        <line class="cls-9" x1="182.43" y1="204.74" x2="185.91" y2="203.23"/>
        <line class="cls-9" x1="185.91" y1="203.23" x2="179.92" y2="201.39"/>
        <line class="cls-9" x1="185.91" y1="203.23" x2="187.22" y2="197.63"/>
        <line class="cls-9" x1="187.22" y1="197.63" x2="192.39" y2="189.05"/>
        <line class="cls-9" x1="192.39" y1="189.05" x2="206.83" y2="185.22"/>
        <line class="cls-9" x1="206.83" y1="185.22" x2="219.64" y2="173.99"/>
        <line class="cls-9" x1="219.64" y1="173.99" x2="223.48" y2="163.76"/>
        <polyline class="cls-9" points="189.26 173.87 193.36 172.52 199.42 170.51"/>
        <line class="cls-9" x1="199.42" y1="170.51" x2="210.46" y2="164.43"/>
        <line class="cls-9" x1="210.46" y1="164.43" x2="223.48" y2="163.76"/>
        <line class="cls-9" x1="148.5" y1="175.39" x2="151.5" y2="178.33"/>
        <line class="cls-9" x1="151.5" y1="178.33" x2="156.16" y2="175.16"/>
        <polyline class="cls-9" points="156.16 175.16 163.04 172.81 163.04 172.8 163.52 172.64"/>
        <line class="cls-9" x1="163.52" y1="172.64" x2="172.58" y2="171.31"/>
        <line class="cls-9" x1="172.58" y1="171.31" x2="184.05" y2="172.99"/>
        <line class="cls-9" x1="184.05" y1="172.99" x2="189.26" y2="173.87"/>
        <line class="cls-9" x1="148.5" y1="175.39" x2="156.81" y2="165.81"/>
        <polyline class="cls-9" points="156.81 165.81 168.42 161.18 169.77 160.64"/>
        <line class="cls-9" x1="169.77" y1="160.64" x2="180.77" y2="155.37"/>
        <line class="cls-9" x1="180.77" y1="155.37" x2="187.98" y2="142.79"/>
        <line class="cls-9" x1="187.98" y1="142.79" x2="172.98" y2="143.21"/>
        <line class="cls-9" x1="172.98" y1="143.21" x2="175.85" y2="141.23"/>
        <line class="cls-9" x1="175.85" y1="141.23" x2="161.18" y2="134.93"/>
        <line class="cls-9" x1="161.18" y1="134.93" x2="165.13" y2="134.74"/>
        <line class="cls-9" x1="165.13" y1="134.74" x2="158.61" y2="120.01"/>
        <line class="cls-9" x1="158.61" y1="120.01" x2="163.59" y2="122.17"/>
        <polyline class="cls-9" points="163.59 122.17 163.39 121.46 159.48 107.58"/>
        <line class="cls-9" x1="159.48" y1="107.58" x2="164.66" y2="111.94"/>
        <line class="cls-9" x1="164.66" y1="111.94" x2="169.36" y2="119.31"/>
        <line class="cls-9" x1="169.36" y1="119.31" x2="176.15" y2="126.71"/>
        <line class="cls-9" x1="176.15" y1="126.71" x2="185.83" y2="129.57"/>
        <line class="cls-9" x1="185.83" y1="129.57" x2="198.85" y2="130.3"/>
        <line class="cls-9" x1="198.85" y1="130.3" x2="204" y2="129.71"/>
        <line class="cls-9" x1="187.98" y1="142.79" x2="192.72" y2="134.27"/>
        <polyline class="cls-9" points="192.72 134.27 192.92 134.19 193.16 134.09 204 129.71"/>
        <line class="cls-9" x1="204" y1="129.71" x2="214.71" y2="131.58"/>
        <line class="cls-9" x1="214.71" y1="131.58" x2="228.31" y2="136.01"/>
        <line class="cls-9" x1="228.31" y1="136.01" x2="240.2" y2="136.69"/>
        <polyline class="cls-9" points="240.2 136.69 246.62 134.82 246.8 134.77"/>
        <polyline class="cls-9" points="246.8 134.77 247.13 135.16 267.07 158.54"/>
        <line class="cls-9" x1="267.07" y1="158.54" x2="259.9" y2="160.83"/>
        <line class="cls-9" x1="253.91" y1="155.6" x2="267.07" y2="158.54"/>
        <polyline class="cls-9" points="239.93 171.31 243.63 167.15 253.91 155.6"/>
        <line class="cls-9" x1="253.91" y1="155.6" x2="226.14" y2="146.17"/>
        <polyline class="cls-9" points="226.14 146.17 246.66 134.85 246.8 134.77"/>
        <polyline class="cls-9" points="246.8 134.77 246.87 134.99 253.91 155.6"/>
        <line class="cls-9" x1="226.14" y1="146.17" x2="228.31" y2="136.01"/>
        <line class="cls-9" x1="226.14" y1="146.17" x2="243.63" y2="167.15"/>
        <polyline class="cls-9" points="239.66 171.19 234.09 160.88 226.14 146.17"/>
        <line class="cls-9" x1="223.48" y1="163.76" x2="234.09" y2="160.88"/>
        <polyline class="cls-9" points="226.14 146.17 225.78 146.59 210.46 164.43"/>
        <line class="cls-9" x1="223.48" y1="163.76" x2="226.01" y2="146.79"/>
        <polyline class="cls-9" points="210.46 164.43 219.17 173.5 219.64 173.99"/>
        <polyline class="cls-9" points="206.83 185.22 206.5 184.56 199.42 170.51"/>
        <line class="cls-9" x1="199.42" y1="170.51" x2="218.94" y2="173.72"/>
        <line class="cls-9" x1="193.45" y1="172.8" x2="206.02" y2="184.8"/>
        <line class="cls-9" x1="192.39" y1="189.05" x2="193.45" y2="172.8"/>
        <line class="cls-9" x1="190.34" y1="180.96" x2="192.39" y2="189.05"/>
        <line class="cls-9" x1="192.39" y1="189.05" x2="182.68" y2="190.3"/>
        <line class="cls-9" x1="182.68" y1="190.3" x2="187.22" y2="197.63"/>
        <line class="cls-9" x1="187.22" y1="197.63" x2="180.07" y2="200.77"/>
        <line class="cls-9" x1="176.29" y1="204.3" x2="182.43" y2="204.74"/>
        <line class="cls-9" x1="182.43" y1="204.74" x2="179.92" y2="201.39"/>
        <line class="cls-9" x1="148.5" y1="175.39" x2="144.96" y2="178.16"/>
        <line class="cls-9" x1="144.96" y1="178.16" x2="151.5" y2="178.33"/>
        <line class="cls-9" x1="151.5" y1="178.33" x2="156.81" y2="165.81"/>
        <line class="cls-9" x1="156.81" y1="165.81" x2="156.16" y2="175.16"/>
        <line class="cls-9" x1="156.16" y1="175.16" x2="168.42" y2="161.18"/>
        <line class="cls-9" x1="162.97" y1="172.61" x2="168.42" y2="161.18"/>
        <line class="cls-9" x1="168.42" y1="161.18" x2="172.58" y2="171.31"/>
        <line class="cls-9" x1="172.58" y1="171.31" x2="190.21" y2="162.3"/>
        <line class="cls-9" x1="190.21" y1="162.3" x2="189.26" y2="173.87"/>
        <line class="cls-9" x1="190.21" y1="162.3" x2="180.77" y2="155.37"/>
        <line class="cls-9" x1="190.21" y1="162.3" x2="210.46" y2="164.43"/>
        <polyline class="cls-9" points="190.21 162.3 192.92 134.19 192.92 134.14 192.96 133.75"/>
        <polyline class="cls-9" points="192.96 133.75 193.11 134.02 193.16 134.09 210.46 164.43"/>
        <line class="cls-9" x1="210.46" y1="164.43" x2="204" y2="129.71"/>
        <line class="cls-9" x1="204" y1="129.71" x2="226.14" y2="146.17"/>
        <line class="cls-9" x1="226.14" y1="146.17" x2="214.71" y2="131.58"/>
        <line class="cls-9" x1="192.72" y1="134.27" x2="185.83" y2="129.57"/>
        <polyline class="cls-9" points="192.72 134.27 192.92 134.14 193.11 134.02 198.85 130.3"/>
        <line class="cls-9" x1="192.72" y1="134.27" x2="175.85" y2="141.23"/>
        <line class="cls-9" x1="175.85" y1="141.23" x2="165.13" y2="134.74"/>
        <line class="cls-9" x1="165.13" y1="134.74" x2="176.15" y2="126.71"/>
        <line class="cls-9" x1="176.15" y1="126.71" x2="175.85" y2="141.23"/>
        <line class="cls-9" x1="175.85" y1="141.23" x2="185.83" y2="129.57"/>
        <line class="cls-9" x1="176.15" y1="126.71" x2="163.59" y2="122.17"/>
        <line class="cls-9" x1="163.59" y1="122.17" x2="165.13" y2="134.74"/>
        <line class="cls-9" x1="163.62" y1="121.4" x2="169.36" y2="119.31"/>
        <line class="cls-9" x1="163.62" y1="121.4" x2="164.66" y2="111.94"/>
        <polyline class="cls-9" points="279.19 117.11 279.2 117.12 284.35 121.06"/>
        <line class="cls-9" x1="294.67" y1="118.42" x2="306.28" y2="126.36"/>
        <polyline class="cls-9" points="284.35 121.06 284.35 121.05 285.64 117.66"/>
        <polyline class="cls-9" points="305.39 128.4 305.37 128.39 299.49 125.77"/>
        <line class="cls-9" x1="304.31" y1="167" x2="309.73" y2="168.55"/>
        <line class="cls-9" x1="309.73" y1="168.55" x2="306.19" y2="170.1"/>
        <line class="cls-9" x1="296.58" y1="180.73" x2="301.37" y2="184.97"/>
        <line class="cls-9" x1="301.37" y1="184.97" x2="300.86" y2="179.63"/>
        <polygon class="cls-6" points="308.34 121.43 307.28 124.06 305.08 120.68 308.34 121.43"/>
        <polygon class="cls-4" points="305.05 120.66 307.28 124.06 306.28 126.36 294.67 118.42 294.67 118.41 305.05 120.66"/>
        <polygon class="cls-11" points="306.28 126.36 305.39 128.4 305.37 128.39 299.49 125.77 306.28 126.36"/>
        <polygon class="cls-3" points="306.28 126.36 299.49 125.77 294.51 125.33 294.5 125.33 294.67 118.42 306.28 126.36"/>
        <polygon class="cls-3" points="305.39 128.4 294.35 131.63 294.5 125.33 294.51 125.33 305.37 128.39 305.39 128.4"/>
        <polygon class="cls-11" points="305.37 128.39 294.51 125.33 299.49 125.77 305.37 128.39"/>
        <polygon class="cls-11" points="309.73 168.55 306.19 170.1 304.31 167 309.73 168.55"/>
        <polygon class="cls-1" points="304.31 167 306.19 170.1 294.97 168.39 304.31 167"/>
        <polygon class="cls-9" points="304.31 167 294.97 168.39 294.99 163.67 304.31 167"/>
        <polygon class="cls-11" points="300.86 179.63 301.37 184.97 296.58 180.73 300.86 179.63"/>
        <polygon class="cls-11" points="300.86 179.63 296.58 180.73 295.42 174.34 300.86 179.63"/>
        <polygon class="cls-9" points="294.67 118.42 294.5 125.33 294.35 131.63 289.01 125.73 294.66 118.42 294.67 118.42"/>
        <polygon class="cls-3" points="286.03 113.97 294.66 118.42 285.64 117.66 279.2 117.12 279.19 117.11 279.17 117.12 265.65 115.98 273.83 114.22 282.78 112.3 286.03 113.97"/>
        <polygon class="cls-4" points="294.66 118.42 289.01 125.73 283.9 132.34 283.88 132.32 280.69 121.99 284.35 121.06 284.35 121.05 294.66 118.42"/>
        <polygon class="cls-9" points="294.66 118.42 284.35 121.05 285.64 117.66 294.66 118.42"/>
        <polygon class="cls-6" points="294.35 96.67 286.03 113.97 283.47 101.68 283.47 101.63 294.35 96.67"/>
        <polygon class="cls-3" points="289.01 125.73 294.35 131.63 279.89 137.52 283.9 132.34 289.01 125.73"/>
        <polygon class="cls-2" points="295.42 174.34 296.58 180.73 291.25 177.72 295.15 174.46 295.17 174.31 295.42 174.34"/>
        <polygon class="cls-1" points="295.17 174.31 295.15 174.46 291.25 177.72 291.11 177.61 285.27 170.99 295.17 174.31"/>
        <polygon class="cls-2" points="294.99 163.67 294.97 168.39 294.71 168.26 285.78 163.85 285.52 163.72 294.99 163.67"/>
        <polygon class="cls-6" points="294.71 168.26 285.96 170.79 285.91 170.63 285.71 164.27 285.64 164.04 285.69 164.03 285.78 163.85 294.71 168.26"/>
        <polygon class="cls-6" points="291.11 177.61 290.94 177.82 272.26 176.38 277.04 171.97 285.27 170.99 291.11 177.61"/>
        <polygon class="cls-9" points="283.47 101.68 286.03 113.97 282.78 112.3 283.47 101.68"/>
        <polygon class="cls-2" points="285.64 117.66 284.35 121.05 284.35 121.06 279.2 117.12 285.64 117.66"/>
        <polygon class="cls-7" points="284.35 121.06 280.69 121.99 279.19 117.12 279.2 117.12 284.35 121.06"/>
        <polygon class="cls-6" points="284.12 91.63 283.47 101.63 283.46 101.64 283.47 101.68 282.78 112.3 273.83 114.22 284.12 91.63"/>
        <polygon class="cls-9" points="284.12 91.63 273.83 114.22 265.65 115.98 265.5 115.86 284.12 91.63"/>
        <polygon class="cls-8" points="232.16 125.2 234.06 129.79 225.53 125.27 220.39 122.54 224.15 123.4 232.14 125.2 232.16 125.2"/>
        <polygon class="cls-4" points="285.91 170.63 285.96 170.79 285.46 170.94 269.45 165.68 269.55 165.28 269.57 165.29 285.64 164.04 285.71 164.27 285.91 170.63"/>
        <polygon class="cls-9" points="285.78 163.85 285.69 164.03 285.64 164.04 269.57 165.29 269.55 165.28 270.91 159.82 285.52 163.72 285.78 163.85"/>
        <polygon class="cls-3" points="269.45 165.68 285.46 170.94 285.27 170.99 277.04 171.97 269.3 165.9 269.45 165.68"/>
        <polygon class="cls-2" points="279.45 124.8 279.89 137.52 271.66 142.55 279.45 124.8"/>
        <polygon class="cls-4" points="279.89 137.52 274.63 149.67 271.66 142.55 279.89 137.52"/>
        <polygon class="cls-11" points="279.19 117.12 279.45 124.8 268.31 125.66 268.3 125.66 255.12 126.68 279.17 117.12 279.19 117.12"/>
        <polygon class="cls-3" points="279.45 124.8 271.66 142.55 268.31 125.66 279.45 124.8"/>
        <polygon class="cls-8" points="279.17 117.12 255.12 126.68 254.87 126.78 254.83 126.66 254.83 126.65 265.44 115.94 265.5 115.86 265.65 115.98 279.17 117.12"/>
        <polygon class="cls-1" points="277.04 171.97 272.26 176.38 255.6 175.8 277.04 171.97"/>
        <polygon class="cls-6" points="277.04 171.97 255.6 175.8 269.3 165.9 277.04 171.97"/>
        <polygon class="cls-3" points="274.63 149.67 274.96 153.59 270.63 150.72 247.13 135.16 246.8 134.77 246.96 134.61 258.17 138.21 271.66 142.55 274.63 149.67"/>
        <polygon class="cls-4" points="274.96 153.59 270.91 159.82 270.63 150.72 274.96 153.59"/>
        <polygon class="cls-11" points="268.31 125.66 271.66 142.55 258.17 138.21 258.17 138.21 268.31 125.66"/>
        <polygon class="cls-2" points="270.63 150.72 270.91 159.82 264.88 163.36 267.07 158.54 270.63 150.72"/>
        <polygon class="cls-6" points="270.91 159.82 269.55 165.28 269.45 165.68 264.88 163.36 270.91 159.82"/>
        <polygon class="cls-4" points="270.63 150.72 267.07 158.54 247.13 135.16 270.63 150.72"/>
        <polygon class="cls-3" points="269.45 165.68 269.3 165.9 255.6 175.8 255.33 175.55 263.27 162.54 264.88 163.36 269.45 165.68"/>
        <polygon class="cls-9" points="268.31 125.66 258.17 138.21 256.05 130.92 268.3 125.66 268.31 125.66"/>
        <polygon class="cls-2" points="268.3 125.66 256.05 130.92 254.87 126.78 255.12 126.68 268.3 125.66"/>
        <polygon class="cls-5" points="267.07 158.54 264.88 163.36 263.27 162.54 259.9 160.83 267.07 158.54"/>
        <polygon class="cls-6" points="247.13 135.16 267.07 158.54 253.91 155.6 246.87 134.99 247.13 135.16"/>
        <polygon class="cls-6" points="158.88 144.42 175.98 149.61 168.62 152.3 162.29 144.65 158.88 144.42"/>
        <polygon class="cls-4" points="267.07 158.54 259.9 160.83 253.91 155.6 267.07 158.54"/>
        <polygon class="cls-4" points="263.27 162.54 255.33 175.55 239.93 171.31 263.27 162.54"/>
        <polygon class="cls-6" points="263.27 162.54 239.93 171.31 243.63 167.15 253.91 155.6 259.9 160.83 263.27 162.54"/>
        <polygon class="cls-4" points="246.87 134.99 253.91 155.6 226.14 146.17 246.66 134.85 246.87 134.99"/>
        <polygon class="cls-11" points="253.91 155.6 243.63 167.15 226.14 146.17 253.91 155.6"/>
        <polygon class="cls-1" points="246.62 134.82 246.66 134.85 226.14 146.17 228.31 136.01 240.2 136.69 246.62 134.82"/>
        <polygon class="cls-11" points="121.95 162.45 145.34 165.23 145.48 170.03 145.24 170.11 135.64 166.95 121.95 162.45"/>
        <polygon class="cls-4" points="234.09 160.88 239.66 171.19 223.48 163.76 234.09 160.88"/>
        <polygon class="cls-6" points="226.14 146.17 234.09 160.88 223.48 163.76 226.01 146.79 225.78 146.59 226.14 146.17"/>
        <polygon class="cls-11" points="228.31 136.01 226.14 146.17 214.71 131.58 228.31 136.01"/>
        <polygon class="cls-11" points="214.71 131.58 226.14 146.17 204 129.71 214.71 131.58"/>
        <polygon class="cls-3" points="226.14 146.17 225.78 146.59 210.46 164.43 204 129.71 226.14 146.17"/>
        <polygon class="cls-8" points="226.01 146.79 223.48 163.76 210.46 164.43 225.78 146.59 226.01 146.79"/>
        <polygon class="cls-6" points="223.48 163.76 219.64 173.99 219.17 173.5 210.46 164.43 223.48 163.76"/>
        <polygon class="cls-3" points="219.17 173.5 219.64 173.99 206.83 185.22 206.5 184.56 199.42 170.51 218.94 173.72 219.17 173.5"/>
        <polygon class="cls-11" points="219.17 173.5 218.94 173.72 199.42 170.51 210.46 164.43 219.17 173.5"/>
        <polygon class="cls-11" points="204 129.71 210.46 164.43 193.16 134.09 204 129.71"/>
        <polygon class="cls-7" points="193.16 134.09 210.46 164.43 190.21 162.3 192.92 134.19 193.16 134.09"/>
        <polygon class="cls-4" points="210.46 164.43 199.42 170.51 193.36 172.52 189.26 173.87 190.21 162.3 210.46 164.43"/>
        <polygon class="cls-2" points="206.5 184.56 206.83 185.22 192.39 189.05 193.45 172.8 206.5 184.56 206.5 184.56"/>
        <polygon class="cls-6" points="199.42 170.51 206.5 184.56 206.83 185.22 193.45 172.8 193.36 172.52 199.42 170.51"/>
        <polygon class="cls-7" points="204 129.71 193.16 134.09 193.11 134.02 198.85 130.3 204 129.71"/>
        <polygon class="cls-7" points="198.85 130.3 193.11 134.02 192.96 133.75 192.92 134.14 192.72 134.27 185.83 129.57 198.85 130.3"/>
        <polygon class="cls-11" points="168.1 174.81 179.16 178.9 173.12 178.65 168.1 174.81"/>
        <polygon class="cls-3" points="192.92 134.19 190.21 162.3 180.77 155.37 187.98 142.79 192.72 134.27 192.92 134.19"/>
        <polygon class="cls-6" points="192.72 134.27 187.98 142.79 172.98 143.21 175.85 141.23 192.72 134.27"/>
        <polygon class="cls-11" points="192.72 134.27 175.85 141.23 185.83 129.57 192.72 134.27"/>
        <polygon class="cls-2" points="190.34 180.96 192.39 189.05 182.68 190.3 190.34 180.96"/>
        <polygon class="cls-11" points="192.39 189.05 187.22 197.63 182.68 190.3 192.39 189.05"/>
        <polygon class="cls-6" points="190.21 162.3 189.26 173.87 184.05 172.99 172.58 171.31 190.21 162.3"/>
        <polygon class="cls-3" points="182.68 190.3 187.22 197.63 180.07 200.77 182.68 190.3"/>
        <polygon class="cls-11" points="187.22 197.63 185.91 203.23 179.92 201.39 180.07 200.77 187.22 197.63"/>
        <polygon class="cls-6" points="185.91 203.23 182.43 204.74 179.92 201.39 185.91 203.23"/>
        <polygon class="cls-7" points="185.83 129.57 175.85 141.23 176.15 126.71 185.83 129.57"/>
        <polygon class="cls-11" points="179.92 201.39 182.43 204.74 176.29 204.3 179.92 201.39"/>
        <polygon class="cls-7" points="169.36 119.31 176.15 126.71 163.59 122.17 163.39 121.46 163.62 121.4 169.36 119.31"/>
        <polygon class="cls-3" points="176.15 126.71 175.85 141.23 165.13 134.74 176.15 126.71"/>
        <polygon class="cls-11" points="176.15 126.71 165.13 134.74 163.59 122.17 176.15 126.71"/>
        <polygon class="cls-6" points="175.85 141.23 161.18 134.93 165.13 134.74 175.85 141.23"/>
        <polygon class="cls-6" points="168.42 161.18 172.58 171.31 163.52 172.64 163.04 172.8 162.97 172.61 168.42 161.18"/>
        <polygon class="cls-11" points="164.66 111.94 169.36 119.31 163.62 121.4 164.66 111.94"/>
        <polygon class="cls-7" points="168.42 161.18 162.97 172.61 163.04 172.8 163.04 172.81 156.16 175.16 168.42 161.18"/>
        <polygon class="cls-2" points="168.42 161.18 156.16 175.16 156.81 165.81 168.42 161.18"/>
        <polygon class="cls-6" points="163.59 122.17 165.13 134.74 158.61 120.01 163.59 122.17"/>
        <polygon class="cls-6" points="164.66 111.94 163.62 121.4 163.39 121.46 159.48 107.58 164.66 111.94"/>
        <polygon class="cls-7" points="156.81 165.81 156.16 175.16 151.5 178.33 156.81 165.81"/>
        <polygon class="cls-6" points="156.81 165.81 151.5 178.33 148.5 175.39 156.81 165.81"/>
        <polygon class="cls-2" points="151.5 178.33 144.96 178.16 148.5 175.39 151.5 178.33"/>
        <polyline class="cls-6" points="144.96 178.16 143.45 174.56 148.5 175.39"/>
        <polyline class="cls-6" points="176.29 204.3 174.1 203.23 179.92 201.39"/>
        <polygon class="cls-9" points="168.42 161.18 190.21 162.3 172.58 171.31 168.42 161.18"/>
        <polygon class="cls-11" points="180.77 155.37 190.21 162.3 168.42 161.18 180.77 155.37"/>
        <line class="cls-8" x1="251.81" y1="132.71" x2="251.7" y2="132.61"/>
        <polygon class="cls-3" points="256.06 130.92 251.81 132.73 247.17 134.69 247.08 134.66 250.99 130.62 256.05 130.9 256.06 130.92"/>
        <polygon class="cls-7" points="254.99 130.41 249.93 130.13 253.77 126.17 254.99 130.41"/>
        <polygon class="cls-5" points="258.17 138.22 251.81 132.73 256.06 130.92 258.17 138.22"/>
        <polygon class="cls-11" points="258.17 138.22 247.17 134.69 251.81 132.73 258.17 138.22"/>
        <g>
          <polyline class="cls-12" points="274.96 153.59 246.66 134.85 98.15 96.53 84.96 95.69 74.89 94.95"/>
          <polyline class="cls-12" points="270.91 159.82 267.07 158.54 246.66 134.85"/>
        </g>
      </g>
    </g>
  </g>
</svg>