<?xml version="1.0" encoding="UTF-8"?>
<svg id="Capa_2" data-name="Capa 2" xmlns="http://www.w3.org/2000/svg" viewBox="0 0 1199.76 428.69">
  <defs>
    <style>
      .cls-1 {
        fill: #6a7624;
      }

      .cls-1, .cls-2, .cls-3, .cls-4, .cls-5, .cls-6, .cls-7, .cls-8, .cls-9, .cls-10, .cls-11, .cls-12 {
        stroke-width: 0px;
      }

      .cls-2 {
        fill: #6d7822;
      }

      .cls-3 {
        fill: #4d4d4d;
      }

      .cls-4 {
        fill: #848c30;
      }

      .cls-5 {
        fill: #6e7924;
      }

      .cls-6 {
        fill: #545a2c;
      }

      .cls-7 {
        fill: #414717;
      }

      .cls-8 {
        fill: #939d4e;
      }

      .cls-9 {
        fill: #abb052;
      }

      .cls-13 {
        fill: none;
        stroke: #222221;
        stroke-miterlimit: 10;
        stroke-width: 2.05px;
      }

      .cls-10 {
        fill: #a1a150;
      }

      .cls-11 {
        fill: #fff;
      }

      .cls-12 {
        fill: #5f6818;
      }
    </style>
  </defs>
  <g id="triangulos">
    <g>
      <g>
        <polygon class="cls-11" points="644.01 94.69 643.3 95.38 632.74 87.04 614.4 103.2 620.02 117.57 629.9 117.35 636.97 112.99 639.36 108.49 645.92 113.23 652.87 111.19 651.04 95.11 644.01 94.69"/>
        <polygon class="cls-11" points="865.77 301.43 856.29 292.61 849.7 290.47 838.67 291.82 836.86 307.7 857.37 315.16 865.77 301.43"/>
        <polygon class="cls-11" points="644.54 142.72 638.38 157.37 643.96 161.64 650.18 163.25 662.01 161.46 661.94 145.21 644.54 142.72"/>
        <polygon class="cls-11" points="645.75 196.24 657.4 202.98 668.16 200.69 674.9 191.41 667.12 178.45 648.74 180.99 645.75 196.24"/>
        <polygon class="cls-11" points="604.67 52.94 623.33 52.13 625.18 36.01 603.5 29.98 593.78 41.21 596.8 48.05 604.67 52.94"/>
        <path class="cls-11" d="M1186.38,335.16l-18.89-6.75-2.81-.48-18.35.1-18-4.81,2.15-3.3,1.3-5.17-.51-5.99,8.65-19.98,26.2-10.67,22.27-6.52,5.22-4.6,3.89-8.93-6.87-2.99.02-.02,6.93,2.8,2.18-5.38-5.78-11.09-6.7-1.54v.02s-.13-.08-.13-.08l-20.38-4.43-9.58-4.94,13.62-28.33-10.81-11.04-9.85,4.49.44-6.83-14.71-5.54-16.72,21.76-8.13-8.88-14.04,7.47,2.04,8.48-11.92,6.19.5,11.69,7.58,5.46-6.31,6.37-3.03-2.8-12.68,1.91-2.18,3.76,4.42,9.11-1.23-.31-7.89,8.13.91,2.32-3.92,4.04-16.37-4.22.27-.25-2.19-5.3,24.66-6.34-2.92-15.04,5.41,2.48,11.44-9.27-1-4.44-9.42-6.29-6.3,1.09-2.02,15.56.04.02-28.24,3.77-2.18,8.78-21.14-4.79-3.84,10.35-104.5-26.96-1.01-1.59-1.63-1.87-10.64-8.96-9.95,6.42-111.65-28.8,2.68-12.79,4.14-17.08,12.34,10.68,5.73,2,10.11-.43,6.36-3.47,13.15-18.6.81-1.42,10.16-23,5.19-8.65,5.62-7.22,1.7-4.3.84-9.3-2.42-6.6-11.63-11.42-10.91-.54-7.17,5.77-4.46-4.87,2.97-2.4-1-4.44-9.42-6.29-6.3,1.09-2.02,15.56,3.75,1.72-2.74,1.46,2.64,10.95,8.16,6.29.82-.02.58,13.22-12.07,14.51-6.41-6.45v-9.16l-.77-3.48-16.65-35.63,3.96.22,8.22-5.51,3.51-10.1.21-.72,1.81-7.31-.62-.15,3-4.03-3.02-11.23-.19-5.32-.08-.92-1.92-12.78-3.61-5.65-11.45-7.53-4.19-1.35-18.12-.73-1.94,1.14-9.2-6.03-10.75,8.15-.27-.47-15.03,1.73-1.78,6.06-11.02-1.61,3.87-8.14-5.21-4.81-12.68,1.91-2.18,3.76,2.57,5.29h-.06s-1.68,2.04-1.68,2.04l-5.58-6.27-5.58-2.74-11.11-.76-2.08,6.97-.19-.17-12.24,1.42-7.61,10.95.72.69-8.05-.21-4.48,15.23,8.31,5.05,9.59-.76,5.52-4.69-2.26-6.42,2.42,2.3,6-4.63.04,5.31,1.34.39-1.62.84.5,11.69,2.42,1.74-1.3,2.06,5.01,8.55,6.13,4.01,29.15,3.42,4.39-.7,21.82-10.04,2.07-1.91,1,3.09.89,6.45-8.35,1.02-2.37.66-20.13,9.05-22.36,10.22-.09,2.87h-1.03s2-5.13,2-5.13l-9.81-6.75-8.67-.4-3.95,2.21-11.1-8.54-12.8,3.91-1.63,4.91,5.51,10.49,12.85,3.72,4.28-8.45,2.11,11.3,9.14,1.31-4.12.8-6.62,8.66,1.37,18.86,1.29.25-.84,1.9,9.23,26.02,3.81,12.25.19,13.42,8.5,8.1,1.73-.06,5.85,8.43,16.63-3.25,6.56-6.9,1.22-8.52-.79-4.84-4-8,9.34,8.95.6-.13-8.82,18.39.12.06-.1.11-.08-.04-.12.25-6.47,7.01-1.86,3.32-3.65,12.78.04,4.65.33,1.08-22.08-15.58-12.78,8.39.95,4.58,4.14,5.55,7.1,3.84-1.93,1.22v8.86s8.18,8.22,8.18,8.22l11.92.05-4.02,5.49-.98,1.76-7.51,18.45-8.38-13.69-30.36,15.32,3.47,15.55,9.09.25,5.08-1.58,20.87-15.28-3.7,9.08,2.6,2.02-4.16,4.72-15.84,6.37-3.43,2.59-20.89,26.98-1.49,3.08-.78,3.18-4.48-17.56-16.05.58-3.65,20.38,8.05,9.67,5.57.02-6.27,4.74-13.21,3.56-5.81,10.03,1.71,6.5-6.42-4.71,2.69-3.31-15.82-16.43-8.84-1.98-6.39,2.43-1.46,14.63,17.04,10.74-2.55,2.42,5.24,7.94,4.33,3.29.53.17-5.96,2.14-1.27,14.88,16.13,9.13,6.03-4.89,7.98,14.97,3.01,3.17,8.47,5.1,9.4-.64,3.16-2.55,2.76-8.58-3.09-11.18-.78-1.88-.2-.35,4.28-19.67,2.41-3.27,1.28-2.59,3.28-11.31,28.87-25.81.41-.39,14.85-15.22,15.08-6.25,3.65-2.98,4.19-6.19,14.62-20.24,29.53-37.95,5.05,1.3,10.09,2.81-4.09.27-4.87,2.01-5.47,4.79,7.38,14.16,15.35-3.79-1.29,1.63-10.22,24.14-4.94,6.74,2.26-4.98-13.07-14.93-14.26,6.89,2.73,14.93,8.08,6.74h7.93l-1.02,1.39-12.01,11.18-.5,1.48-5.46-2.5-10.12,6.13.67,7.83-4.17,3.11-1.38,3.31,1.25-12.42-15.74-5.38-10,4.1-3.96,7.93,8.4,11.82,18.53-2.4-.33.79.92,6.45,5.63,6.67,4.72,1.51-7.82-.19-5.54,14.45,14.91,12.78,13.45-7.62-2.13-12.48-5.21-4.5,7.61,2.43,4.79,11.63,3.21,3.82,12.9,8.15,3.12,1.17,13.9,2.17,9.35-9.59-1.08-5.92-1.62-3.6-9.13-11.62-5.04-21.73,5.14-8.86,27.17-28.15,15.71-15.86.03-.15.09.02,23.59-24.83.99-1.85,15.59,10.21,11.5-11.17-9.39-15.28,14.39,4.22,10.25,23.16-1.7,9.44,25.51,10.96.22.67-13.64-4.14-.24-.29-5.77-2.96-6.99-.48-2.95,16.06,6.44,1.95,9.61,11.61,9.03,2.45-6.34,2.98-15.6,6.22,9.94-7.28-8.55-13.96-30.36,15.32,1.75,7.83-.37-.41-48.04-5.71-3.54,15.96,43.77,14.4-4.62,5.85,3.1,7.39,7.36,5.04,13.43.35,4.83-1.42,8.65-5.89,13.08-4.47h.01s.27-.11.27-.11l4.47-.66-2,3.64,10.32,7.89,2.54.92-6.24,1.58-.35,15.84,14.54,4.36,4.86-2.08-3.27,13.11-7.56,2.39-1.13,15.21,4.5,2.2,3.02.81,12.61.9,3.86-.66,7.15-3.1,4.73-5.67,2.39-10.24,8.23-13.66,26.44-7.01,3.31-1.76,26.31-23.06,2.28-3.29,4.79-12.75,25.21,11.58,1.21-1.29.59,1.99,31.63,8.71.05-.19,2.4.99,34.05,1.19,37.53,2.89,8.08,4.56,9.19,8.13,13.62-6.93-1.05-10.97-2.45-5.11-7.52-7.32,11.5,1.75,4.53-.6,7.27-3.18-1.04-15.42-10.87-3.11ZM698.95,235.18l.03.04-.04.02v-.06ZM926.92,373.54l2.21-11.08,6.37.93,10.7,1.81,1.07-.08-.14,2.16-3.7-.82-11.24,13.71-5.27-6.61ZM704.4,163.46l-.65-1.29-1.36-1.95-9.42-10.03-2.11-21.96-.2-8.27,12.57-4.25,5.29-.73,6.07,26.56,1.13,7.09-9.17,2.23-2.17,12.6ZM696.54,228.58l-2.77-1.32,1.59-2.56,1.18,3.88ZM627.05,339.09l-1.57.24-.67.28,3.07-3.94-.83,3.41ZM597.98,378.99l-.8,6-2.91-1.44,3.25-6.35.47,1.79ZM789.23,261.11l-5.89,4.3-.96-6.21,6.85,1.91ZM848.32,245.23l-.71,1.09-.62-2.04-2.02-1.92,10.09,2.96-6.75-.08ZM922.76,302.1l7.76-.22-6.24,10.89-1.22.57-.31-11.24ZM871.38,339l-5.62,6.48-.18-6,3.93.11,1.86-.58Z"/>
      </g>
      <g>
        <path class="cls-11" d="M648.02,152.48c-.79-1.38-1.72-2.61-2.79-3.71,1.64-1.91,2.59-4.44,2.59-7.34v-9.29c0-6.39-4.64-11.03-11.03-11.03h-21.85c-6.97,0-12.71,1.81-17.07,5.37-.42.34-.84.72-1.27,1.14-1.63-3.94-5.4-6.51-10.15-6.51h-21.85c-6.97,0-12.71,1.81-17.07,5.37-1.13.92-2.32,2.14-3.42,3.66-1.06-1.46-2.34-2.78-3.83-3.97-2.73-2.17-6.16-3.74-10.51-4.82-3.83-.95-8.42-1.41-14.03-1.41s-10.21.46-14.04,1.41c-4.35,1.08-7.79,2.65-10.5,4.82-2.54,2.01-4.43,4.46-5.72,7.23-.19-.48-.36-.96-.58-1.42-1.73-3.6-4.69-6.5-8.56-8.39-3.41-1.67-7.6-2.48-12.82-2.48h-25.99c-2.85,0-5.32.96-7.22,2.56-1.9-1.59-4.37-2.56-7.22-2.56h-19.04c-8.62,0-15.09,1.9-19.78,5.81-.26.22-.54.49-.81.74-1.62-3.96-5.4-6.55-10.17-6.55h-33.25c-3.03,0-5.64,1.07-7.57,2.84-1.93-1.77-4.54-2.84-7.57-2.84h-11.71c-4.82,0-8.64,2.64-10.23,6.68l-1.47-1.68c-2.75-3.22-6.6-4.99-10.86-4.99h-8.12c-6.39,0-11.03,4.64-11.03,11.03v6.08l-3.5-9.13c-1.74-4.93-6.17-7.98-11.62-7.98h-20.99c-5.5,0-9.96,3.05-11.7,7.98l-1.55,4.04v-.99c0-6.39-4.64-11.03-11.02-11.03h-19.04c-8.62,0-15.09,1.9-19.78,5.81-3.48,2.9-7.64,8.45-7.64,18.41v24.27c0,9.89,4.15,15.43,7.64,18.33,4.69,3.91,11.16,5.81,19.78,5.81h19.04c2.56,0,4.82-.77,6.63-2.08,1.81,1.31,4.07,2.08,6.63,2.08h11.47c4.37,0,7.92-2.17,9.73-5.59,1.84,3.42,5.47,5.59,9.94,5.59h11.78c3.05,0,5.67-1.08,7.61-2.87,1.94,1.8,4.56,2.87,7.61,2.87h11.71c4.18,0,7.61-1.99,9.48-5.15,1.87,3.16,5.3,5.15,9.48,5.15h11.71c3.03,0,5.64-1.07,7.57-2.84,1.93,1.77,4.54,2.84,7.57,2.84h33.25c4.76,0,8.55-2.58,10.17-6.54.27.25.54.52.8.73,4.69,3.91,11.16,5.81,19.78,5.81h19.04c2.85,0,5.32-.96,7.22-2.56,1.9,1.59,4.37,2.56,7.22,2.56h12.02c4.39,0,7.96-2.19,9.76-5.64,1.8,3.45,5.36,5.64,9.76,5.64h12.1c4.28,0,7.73-2.11,9.57-5.4.16.13.3.29.46.42,2.75,2.18,6.21,3.75,10.57,4.79,3.82.91,8.39,1.36,13.97,1.36s10.15-.44,13.97-1.36c4.37-1.04,7.82-2.61,10.58-4.8.39-.31.73-.66,1.09-.99,1.74,3.62,5.35,5.98,9.87,5.98h24.66c6.61,0,12.1-1.66,16.37-4.89,1.9,3.01,5.24,4.89,9.31,4.89h24.66c6.98,0,12.74-1.83,17.1-5.44,3.32-2.75,7.27-7.84,7.27-16.52v-8.19c0-4.35-.88-8.09-2.61-11.11ZM423.11,162.4h-12.23v-9.79h12.23c1.22,0,2.34-.22,3.41-.53v10.86c-1.07-.32-2.2-.53-3.41-.53ZM335.95,151.85c1.12.41,2.32.7,3.63.74v9.81c-1.3.05-2.51.33-3.63.74v-11.3ZM373.96,162.42v-9.83c.95-.05,1.84-.23,2.69-.48v10.78c-.85-.25-1.74-.43-2.69-.48ZM211.13,162.4h-12.23v-9.79h12.23c1.45,0,2.79-.27,4.02-.71-.31,1-.58,1.96-.8,2.88-.66,2.69-.98,5.09-.98,7.33v.5c-.72-.13-1.47-.21-2.24-.21Z"/>
        <path class="cls-11" d="M645.23,242.42c1.64-1.91,2.59-4.44,2.59-7.34v-9.29c0-6.39-4.64-11.03-11.03-11.03h-21.85c-6.97,0-12.71,1.81-17.07,5.37-2.42,1.98-5.16,5.23-6.49,10.2l-2.91-7.6c-1.74-4.93-6.17-7.98-11.62-7.98h-20.99c-5.5,0-9.96,3.05-11.7,7.98l-6.55,17.1c0-.08.01-.16.01-.24v-3.59c0-3.83-.75-7.32-2.21-10.38-1.73-3.6-4.69-6.5-8.56-8.39-3.41-1.67-7.6-2.47-12.82-2.47h-25.99c-6.14,0-10.61,4.3-10.96,10.3-1.76-3.33-4.57-6.04-8.22-7.83-3.41-1.66-7.6-2.47-12.82-2.47h-25.99c-2.95,0-5.5,1.02-7.41,2.71-1.92-1.69-4.46-2.71-7.41-2.71h-36.21c-3.05,0-5.67,1.08-7.61,2.87-1.94-1.8-4.56-2.87-7.61-2.87h-33.25c-3.16,0-5.89,1.14-7.84,3.06-1.95-1.92-4.68-3.06-7.84-3.06h-21.85c-6.97,0-12.71,1.81-17.07,5.37-.03.03-.07.06-.1.09-1.83-3.33-5.3-5.46-9.6-5.46h-36.21c-6.14,0-10.61,4.3-10.96,10.3-1.76-3.33-4.57-6.04-8.22-7.82-3.41-1.67-7.6-2.47-12.82-2.47h-25.99c-2.54,0-4.79.76-6.59,2.05-1.81-1.29-4.05-2.05-6.59-2.05h-41.21c-2.54,0-4.79.76-6.59,2.05-1.81-1.29-4.05-2.05-6.59-2.05h-11.71c-4.82,0-8.64,2.64-10.23,6.68l-1.47-1.68c-2.75-3.22-6.6-4.99-10.86-4.99h-8.12c-2.95,0-5.5,1.02-7.41,2.71-1.92-1.69-4.46-2.71-7.41-2.71H11.03c-6.39,0-11.03,4.64-11.03,11.03v50.57c0,6.39,4.64,11.03,11.03,11.03h36.21c2.95,0,5.5-1.02,7.41-2.71,1.92,1.69,4.46,2.71,7.41,2.71h11.71c4.18,0,7.61-1.99,9.48-5.15,1.87,3.16,5.3,5.15,9.48,5.15h11.71c6.39,0,11.03-4.64,11.03-11.03v-30.3c.7.12,1.42.2,2.16.2h3.26v30.11c0,6.39,4.64,11.03,11.03,11.03h12.64c6.39,0,11.03-4.64,11.03-11.03v-30.11h3.26c.75,0,1.47-.08,2.16-.2v30.3c0,6.39,4.64,11.03,11.03,11.03h12.02c4.39,0,7.96-2.19,9.76-5.64,1.8,3.45,5.36,5.64,9.76,5.64h12.1c2.83,0,5.29-.95,7.18-2.52,1.89,1.57,4.35,2.52,7.18,2.52h36.21c2.6,0,4.89-.8,6.71-2.14,1.83,1.34,4.11,2.14,6.71,2.14h24.66c6.81,0,12.44-1.75,16.76-5.19,1.87,3.17,5.27,5.19,9.46,5.19h33.25c3.05,0,5.67-1.08,7.61-2.87,1.94,1.8,4.56,2.87,7.61,2.87h36.21c2.95,0,5.5-1.02,7.41-2.71,1.92,1.69,4.46,2.71,7.41,2.71h12.02c4.39,0,7.96-2.19,9.76-5.64,1.8,3.45,5.36,5.64,9.76,5.64h12.1c2.83,0,5.29-.95,7.18-2.52,1.89,1.57,4.35,2.52,7.18,2.52h12.02c4.39,0,7.96-2.19,9.76-5.64,1.8,3.45,5.36,5.64,9.76,5.64h12.1c2.54,0,4.79-.76,6.59-2.05,1.81,1.29,4.05,2.05,6.59,2.05h11.47c4.37,0,7.92-2.17,9.73-5.59,1.84,3.42,5.47,5.59,9.94,5.59h11.78c2.7,0,5.05-.86,6.91-2.3,1.86,1.44,4.21,2.3,6.91,2.3h24.66c6.98,0,12.74-1.83,17.1-5.44,3.32-2.75,7.27-7.84,7.27-16.52v-8.19c0-4.35-.88-8.09-2.61-11.11-.79-1.38-1.72-2.61-2.79-3.71ZM326.08,246.13c-.22-.38-.47-.72-.71-1.07,1.39.69,2.96,1.13,4.68,1.19v9.81c-.49.02-.95.11-1.42.18-.13-3.92-.96-7.33-2.56-10.11ZM364.44,256.07v-9.83c1.28-.06,2.45-.35,3.55-.77v11.36c-1.1-.42-2.27-.7-3.55-.77ZM270.75,257.08c.09-.51.11-1.05.14-1.58.46.9,1,1.74,1.6,2.52-.55-.36-1.12-.68-1.74-.94Z"/>
      </g>
      <g>
        <path class="cls-3" d="M211.13,185.52h-19.04c-6.56,0-11.39-1.3-14.52-3.9-3.12-2.6-4.68-6.61-4.68-12.02v-24.27c0-5.46,1.56-9.5,4.68-12.1s7.96-3.9,14.52-3.9h19.04c1.87,0,2.81.94,2.81,2.81v9.44c0,1.87-.94,2.81-2.81,2.81h-15.69c-3.17,0-4.76,1.3-4.76,3.9v18.58c0,2.5,1.59,3.75,4.76,3.75h15.69c1.87,0,2.81.94,2.81,2.81v9.29c0,1.87-.94,2.81-2.81,2.81Z"/>
        <path class="cls-3" d="M238.68,182.71c0,1.87-.94,2.81-2.81,2.81h-11.47c-1.87,0-2.81-.94-2.81-2.81v-20.6c0-1.56.25-3.36.74-5.39.49-2.03,1.26-4.39,2.3-7.1l6.79-17.72c.57-1.72,1.9-2.58,3.98-2.58h20.99c2.03,0,3.33.86,3.9,2.58l6.79,17.72c1.04,2.71,1.81,5.07,2.3,7.1.49,2.03.74,3.82.74,5.39v20.6c0,1.87-.94,2.81-2.81,2.81h-11.78c-2.03,0-3.04-.94-3.04-2.81v-10.93h-13.81v10.93ZM243.13,145.72l-3.67,11.86h12.25l-3.67-11.86c-.37-.88-.86-1.33-1.48-1.33h-1.95c-.62,0-1.12.44-1.48,1.33Z"/>
        <path class="cls-3" d="M294.25,185.52h-11.71c-1.87,0-2.81-.94-2.81-2.81v-50.57c0-1.87.94-2.81,2.81-2.81h8.12c1.87,0,3.41.7,4.61,2.11l15.14,17.33v-16.62c0-1.87.94-2.81,2.81-2.81h11.71c1.87,0,2.81.94,2.81,2.81v50.57c0,1.87-.94,2.81-2.81,2.81h-11.71c-1.87,0-2.81-.94-2.81-2.81v-9.6l-13.35-16.16v25.76c0,1.87-.94,2.81-2.81,2.81Z"/>
        <path class="cls-3" d="M340.06,185.52c-1.87,0-2.81-.94-2.81-2.81v-9.29c0-1.87.94-2.81,2.81-2.81h7.73v-26.22h-7.73c-1.87,0-2.81-.94-2.81-2.81v-9.44c0-1.87.94-2.81,2.81-2.81h33.25c1.87,0,2.81.94,2.81,2.81v9.44c0,1.87-.94,2.81-2.81,2.81h-7.57v26.22h7.57c1.87,0,2.81.94,2.81,2.81v9.29c0,1.87-.94,2.81-2.81,2.81h-33.25Z"/>
        <path class="cls-3" d="M423.11,185.52h-19.04c-6.56,0-11.39-1.3-14.52-3.9-3.12-2.6-4.68-6.61-4.68-12.02v-24.27c0-5.46,1.56-9.5,4.68-12.1,3.12-2.6,7.96-3.9,14.52-3.9h19.04c1.87,0,2.81.94,2.81,2.81v9.44c0,1.87-.94,2.81-2.81,2.81h-15.69c-3.17,0-4.76,1.3-4.76,3.9v18.58c0,2.5,1.59,3.75,4.76,3.75h15.69c1.87,0,2.81.94,2.81,2.81v9.29c0,1.87-.94,2.81-2.81,2.81Z"/>
        <path class="cls-3" d="M449.56,185.52h-12.02c-1.87,0-2.81-.94-2.81-2.81v-50.57c0-1.87.94-2.81,2.81-2.81h25.99c3.9,0,6.97.55,9.21,1.64,2.24,1.09,3.82,2.61,4.76,4.56.94,1.95,1.41,4.23,1.41,6.83v3.59c0,2.18-.31,4.03-.94,5.54-.62,1.51-1.77,2.63-3.43,3.36,2.86.31,5.15,1.46,6.87,3.43,1.72,1.98,2.58,4.61,2.58,7.88v16.55c0,1.87-.94,2.81-2.81,2.81h-12.1c-1.87,0-2.81-.94-2.81-2.81v-11.94c0-1.2-.22-2.06-.66-2.58-.44-.52-1.21-.78-2.3-.78h-10.93v15.3c0,1.87-.94,2.81-2.81,2.81ZM452.37,143.38v9.99h5.85c1.35,0,2.26-.35,2.73-1.05.47-.7.7-1.57.7-2.62v-2.65c0-1.04-.23-1.91-.7-2.61-.47-.7-1.38-1.05-2.73-1.05h-5.85Z"/>
        <path class="cls-3" d="M539.94,170.77c0,2.39-.35,4.56-1.05,6.52-.7,1.95-1.94,3.63-3.71,5.03-1.77,1.4-4.23,2.48-7.37,3.24-3.15.75-7.17,1.13-12.06,1.13s-8.91-.38-12.06-1.13c-3.15-.75-5.61-1.83-7.37-3.24-1.77-1.41-3.02-3.08-3.75-5.03-.73-1.95-1.09-4.12-1.09-6.52v-26.61c0-2.39.36-4.57,1.09-6.52.73-1.95,1.98-3.63,3.75-5.03,1.77-1.41,4.23-2.5,7.37-3.28,3.15-.78,7.17-1.17,12.06-1.17s8.91.39,12.06,1.17c3.15.78,5.61,1.87,7.37,3.28,1.77,1.4,3,3.08,3.71,5.03.7,1.95,1.05,4.13,1.05,6.52v26.61ZM509.19,167.96c0,1.04.39,1.91,1.17,2.61.78.7,2.58,1.05,5.39,1.05s4.67-.35,5.42-1.05c.75-.7,1.13-1.57,1.13-2.61v-21c0-1.04-.38-1.9-1.13-2.58-.75-.67-2.56-1.01-5.42-1.01s-4.61.34-5.39,1.01c-.78.68-1.17,1.54-1.17,2.58v21Z"/>
        <path class="cls-3" d="M575.92,185.52h-24.66c-1.87,0-2.81-.94-2.81-2.81v-9.13c0-1.87.94-2.81,2.81-2.81h20.99c.68,0,1.18-.22,1.52-.66.34-.44.51-.98.51-1.6,0-.88-.17-1.53-.51-1.95-.34-.42-.85-.65-1.52-.7l-11.71-1.64c-3.64-.57-6.57-1.78-8.78-3.63-2.21-1.85-3.32-4.96-3.32-9.33v-8.2c0-4.47,1.43-7.88,4.29-10.23,2.86-2.34,6.82-3.51,11.86-3.51h21.85c1.87,0,2.81.94,2.81,2.81v9.29c0,1.87-.94,2.81-2.81,2.81h-18.18c-1.41,0-2.11.78-2.11,2.34s.7,2.34,2.11,2.5l11.63,1.56c2.44.36,4.58,1,6.4,1.91,1.82.91,3.24,2.25,4.25,4.02,1.01,1.77,1.52,4.11,1.52,7.02v8.19c0,4.42-1.43,7.82-4.29,10.19-2.86,2.37-6.82,3.55-11.86,3.55Z"/>
        <path class="cls-3" d="M626.26,185.52h-24.66c-1.87,0-2.81-.94-2.81-2.81v-9.13c0-1.87.94-2.81,2.81-2.81h20.99c.68,0,1.18-.22,1.52-.66.34-.44.51-.98.51-1.6,0-.88-.17-1.53-.51-1.95-.34-.42-.85-.65-1.52-.7l-11.71-1.64c-3.64-.57-6.57-1.78-8.78-3.63-2.21-1.85-3.32-4.96-3.32-9.33v-8.2c0-4.47,1.43-7.88,4.29-10.23,2.86-2.34,6.82-3.51,11.86-3.51h21.85c1.87,0,2.81.94,2.81,2.81v9.29c0,1.87-.94,2.81-2.81,2.81h-18.18c-1.41,0-2.11.78-2.11,2.34s.7,2.34,2.11,2.5l11.63,1.56c2.45.36,4.58,1,6.4,1.91,1.82.91,3.24,2.25,4.25,4.02,1.02,1.77,1.52,4.11,1.52,7.02v8.19c0,4.42-1.43,7.82-4.29,10.19-2.86,2.37-6.82,3.55-11.86,3.55Z"/>
        <path class="cls-3" d="M47.24,279.18H11.03c-1.87,0-2.81-.94-2.81-2.81v-50.57c0-1.87.94-2.81,2.81-2.81h36.21c1.87,0,2.81.94,2.81,2.81v9.13c0,1.87-.94,2.81-2.81,2.81h-21.54v6.01h15.22c1.87,0,2.81.94,2.81,2.81v8.35c0,1.87-.94,2.81-2.81,2.81h-15.22v6.71h21.54c1.87,0,2.81.94,2.81,2.81v9.13c0,1.87-.94,2.81-2.81,2.81Z"/>
        <path class="cls-3" d="M73.77,279.18h-11.71c-1.87,0-2.81-.94-2.81-2.81v-50.57c0-1.87.94-2.81,2.81-2.81h8.12c1.87,0,3.41.7,4.61,2.11l15.14,17.33v-16.62c0-1.87.94-2.81,2.81-2.81h11.71c1.87,0,2.81.94,2.81,2.81v50.57c0,1.87-.94,2.81-2.81,2.81h-11.71c-1.87,0-2.81-.94-2.81-2.81v-9.6l-13.35-16.16v25.76c0,1.87-.94,2.81-2.81,2.81Z"/>
        <path class="cls-3" d="M144.56,279.18h-12.64c-1.87,0-2.81-.94-2.81-2.81v-38.32h-11.47c-1.87,0-2.81-.94-2.81-2.81v-9.45c0-1.87.94-2.81,2.81-2.81h41.21c1.87,0,2.81.94,2.81,2.81v9.45c0,1.87-.94,2.81-2.81,2.81h-11.47v38.32c0,1.87-.94,2.81-2.81,2.81Z"/>
        <path class="cls-3" d="M184.05,279.18h-12.02c-1.87,0-2.81-.94-2.81-2.81v-50.57c0-1.87.94-2.81,2.81-2.81h25.99c3.9,0,6.97.55,9.21,1.64,2.24,1.09,3.82,2.61,4.76,4.57.94,1.95,1.41,4.23,1.41,6.83v3.59c0,2.18-.31,4.03-.94,5.54-.62,1.51-1.77,2.63-3.43,3.36,2.86.31,5.15,1.46,6.87,3.43,1.72,1.98,2.58,4.61,2.58,7.88v16.55c0,1.87-.94,2.81-2.81,2.81h-12.1c-1.87,0-2.81-.94-2.81-2.81v-11.94c0-1.2-.22-2.06-.66-2.58-.44-.52-1.21-.78-2.3-.78h-10.93v15.3c0,1.87-.94,2.81-2.81,2.81ZM186.86,237.03v9.99h5.85c1.35,0,2.26-.35,2.73-1.05.47-.7.7-1.57.7-2.62v-2.65c0-1.04-.23-1.91-.7-2.61-.47-.7-1.38-1.05-2.73-1.05h-5.85Z"/>
        <path class="cls-3" d="M266.24,279.18h-36.21c-1.87,0-2.81-.94-2.81-2.81v-50.57c0-1.87.94-2.81,2.81-2.81h36.21c1.87,0,2.81.94,2.81,2.81v9.13c0,1.87-.94,2.81-2.81,2.81h-21.54v6.01h15.22c1.87,0,2.81.94,2.81,2.81v8.35c0,1.87-.94,2.81-2.81,2.81h-15.22v6.71h21.54c1.87,0,2.81.94,2.81,2.81v9.13c0,1.87-.94,2.81-2.81,2.81Z"/>
        <path class="cls-3" d="M304.32,279.18h-24.66c-1.87,0-2.81-.94-2.81-2.81v-9.13c0-1.87.94-2.81,2.81-2.81h20.99c.68,0,1.18-.22,1.52-.66.34-.44.51-.98.51-1.6,0-.88-.17-1.53-.51-1.95-.34-.42-.85-.65-1.52-.7l-11.71-1.64c-3.64-.57-6.57-1.78-8.78-3.63-2.21-1.85-3.32-4.96-3.32-9.33v-8.2c0-4.47,1.43-7.88,4.29-10.23,2.86-2.34,6.82-3.51,11.86-3.51h21.85c1.87,0,2.81.94,2.81,2.81v9.29c0,1.87-.94,2.81-2.81,2.81h-18.18c-1.41,0-2.11.78-2.11,2.34s.7,2.34,2.11,2.5l11.63,1.56c2.44.36,4.58,1,6.4,1.91,1.82.91,3.24,2.25,4.25,4.02,1.02,1.77,1.52,4.11,1.52,7.02v8.19c0,4.42-1.43,7.82-4.29,10.19-2.86,2.37-6.82,3.55-11.86,3.55Z"/>
        <path class="cls-3" d="M330.54,279.18c-1.87,0-2.81-.94-2.81-2.81v-9.29c0-1.87.94-2.81,2.81-2.81h7.73v-26.22h-7.73c-1.87,0-2.81-.94-2.81-2.81v-9.45c0-1.87.94-2.81,2.81-2.81h33.25c1.87,0,2.81.94,2.81,2.81v9.45c0,1.87-.94,2.81-2.81,2.81h-7.57v26.22h7.57c1.87,0,2.81.94,2.81,2.81v9.29c0,1.87-.94,2.81-2.81,2.81h-33.25Z"/>
        <path class="cls-3" d="M415.22,279.18h-36.21c-1.87,0-2.81-.94-2.81-2.81v-50.57c0-1.87.94-2.81,2.81-2.81h36.21c1.87,0,2.81.94,2.81,2.81v9.13c0,1.87-.94,2.81-2.81,2.81h-21.54v6.01h15.22c1.87,0,2.81.94,2.81,2.81v8.35c0,1.87-.94,2.81-2.81,2.81h-15.22v6.71h21.54c1.87,0,2.81.94,2.81,2.81v9.13c0,1.87-.94,2.81-2.81,2.81Z"/>
        <path class="cls-3" d="M442.07,279.18h-12.02c-1.87,0-2.81-.94-2.81-2.81v-50.57c0-1.87.94-2.81,2.81-2.81h25.99c3.9,0,6.97.55,9.21,1.64,2.24,1.09,3.82,2.61,4.76,4.57.94,1.95,1.41,4.23,1.41,6.83v3.59c0,2.18-.31,4.03-.94,5.54-.62,1.51-1.77,2.63-3.43,3.36,2.86.31,5.15,1.46,6.87,3.43,1.72,1.98,2.58,4.61,2.58,7.88v16.55c0,1.87-.94,2.81-2.81,2.81h-12.1c-1.87,0-2.81-.94-2.81-2.81v-11.94c0-1.2-.22-2.06-.66-2.58-.44-.52-1.21-.78-2.3-.78h-10.93v15.3c0,1.87-.94,2.81-2.81,2.81ZM444.88,237.03v9.99h5.85c1.35,0,2.26-.35,2.73-1.05s.7-1.57.7-2.62v-2.65c0-1.04-.23-1.91-.7-2.61s-1.38-1.05-2.73-1.05h-5.85Z"/>
        <path class="cls-3" d="M500.06,279.18h-12.02c-1.87,0-2.81-.94-2.81-2.81v-50.57c0-1.87.94-2.81,2.81-2.81h25.99c3.9,0,6.97.55,9.21,1.64,2.24,1.09,3.82,2.61,4.76,4.57.94,1.95,1.4,4.23,1.4,6.83v3.59c0,2.18-.31,4.03-.94,5.54-.62,1.51-1.77,2.63-3.43,3.36,2.86.31,5.15,1.46,6.87,3.43,1.72,1.98,2.58,4.61,2.58,7.88v16.55c0,1.87-.94,2.81-2.81,2.81h-12.1c-1.87,0-2.81-.94-2.81-2.81v-11.94c0-1.2-.22-2.06-.66-2.58-.44-.52-1.21-.78-2.3-.78h-10.93v15.3c0,1.87-.94,2.81-2.81,2.81ZM502.87,237.03v9.99h5.85c1.35,0,2.26-.35,2.73-1.05s.7-1.57.7-2.62v-2.65c0-1.04-.23-1.91-.7-2.61s-1.38-1.05-2.73-1.05h-5.85Z"/>
        <path class="cls-3" d="M559.14,276.37c0,1.87-.94,2.81-2.81,2.81h-11.47c-1.87,0-2.81-.94-2.81-2.81v-20.6c0-1.56.25-3.36.74-5.39.49-2.03,1.26-4.39,2.3-7.1l6.79-17.72c.57-1.72,1.9-2.58,3.98-2.58h20.99c2.03,0,3.33.86,3.9,2.58l6.79,17.72c1.04,2.71,1.81,5.07,2.3,7.1.49,2.03.74,3.82.74,5.39v20.6c0,1.87-.94,2.81-2.81,2.81h-11.78c-2.03,0-3.04-.94-3.04-2.81v-10.93h-13.81v10.93ZM563.59,239.37l-3.67,11.86h12.25l-3.67-11.86c-.36-.88-.86-1.33-1.48-1.33h-1.95c-.62,0-1.12.44-1.48,1.33Z"/>
        <path class="cls-3" d="M626.26,279.18h-24.66c-1.87,0-2.81-.94-2.81-2.81v-9.13c0-1.87.94-2.81,2.81-2.81h20.99c.68,0,1.18-.22,1.52-.66.34-.44.51-.98.51-1.6,0-.88-.17-1.53-.51-1.95-.34-.42-.85-.65-1.52-.7l-11.71-1.64c-3.64-.57-6.57-1.78-8.78-3.63-2.21-1.85-3.32-4.96-3.32-9.33v-8.2c0-4.47,1.43-7.88,4.29-10.23,2.86-2.34,6.82-3.51,11.86-3.51h21.85c1.87,0,2.81.94,2.81,2.81v9.29c0,1.87-.94,2.81-2.81,2.81h-18.18c-1.4,0-2.11.78-2.11,2.34s.7,2.34,2.11,2.5l11.63,1.56c2.45.36,4.58,1,6.4,1.91,1.82.91,3.24,2.25,4.25,4.02,1.01,1.77,1.52,4.11,1.52,7.02v8.19c0,4.42-1.43,7.82-4.29,10.19-2.86,2.37-6.82,3.55-11.86,3.55Z"/>
      </g>
      <g>
        <polygon class="cls-12" points="733.15 105.28 714.87 105.81 742.96 85.67 733.15 105.28"/>
        <polygon class="cls-12" points="714.87 105.81 701.35 107.67 701.35 96.01 714.87 105.81"/>
        <polygon class="cls-5" points="714.87 105.81 742.96 85.67 701.35 96.01 714.87 105.81"/>
        <polygon class="cls-2" points="733.15 105.28 714.87 105.81 731.3 124.1 733.15 105.28"/>
        <polygon class="cls-4" points="733.15 105.28 742.96 85.67 731.3 124.1 733.15 105.28"/>
        <polygon class="cls-1" points="682.82 106.91 701.35 107.67 701.35 96.01 682.82 106.91"/>
        <polygon class="cls-12" points="682.82 106.91 701.35 107.67 682.31 114.11 682.82 106.91"/>
        <polygon class="cls-1" points="719.43 82.26 742.96 85.67 701.35 96.01 719.43 82.26"/>
        <polygon class="cls-4" points="719.43 82.26 703.81 82.97 701.35 96.01 719.43 82.26"/>
        <polygon class="cls-9" points="719.43 82.26 723.9 73.95 703.81 82.97 719.43 82.26"/>
        <polygon class="cls-8" points="688.37 96.92 703.81 82.97 701.35 96.01 688.37 96.92"/>
        <polygon class="cls-4" points="688.37 96.92 682.82 106.91 701.35 96.01 688.37 96.92"/>
        <polygon class="cls-9" points="688.37 96.92 681.45 93.19 703.81 82.97 688.37 96.92"/>
        <polygon class="cls-8" points="688.37 96.92 682.82 106.91 674 96.77 688.37 96.92"/>
        <polygon class="cls-4" points="719.43 82.26 742.96 85.67 723.9 73.95 719.43 82.26"/>
        <polygon class="cls-8" points="739.82 77.19 742.96 85.67 723.9 73.95 739.82 77.19"/>
        <polygon class="cls-9" points="739.82 77.19 740.53 71.92 723.9 73.95 739.82 77.19"/>
        <polygon class="cls-4" points="739.82 77.19 742.96 85.67 740.53 71.92 739.82 77.19"/>
        <polygon class="cls-1" points="744.28 104.83 742.96 85.67 731.3 124.1 744.28 104.83"/>
        <polygon class="cls-12" points="744.28 104.83 754.78 121.41 731.3 124.1 744.28 104.83"/>
        <polygon class="cls-4" points="722.68 139.97 714.87 105.81 731.3 124.1 722.68 139.97"/>
        <polygon class="cls-1" points="682.82 106.91 674 103.76 682.31 114.11 682.82 106.91"/>
        <polygon class="cls-4" points="682.82 106.91 674 103.76 674 96.77 682.82 106.91"/>
        <polygon class="cls-9" points="662.28 106.05 674 103.76 663.65 124.91 662.28 106.05"/>
        <polygon class="cls-9" points="668.29 216.45 667.33 211.87 691.97 229.25 668.29 216.45"/>
        <polygon class="cls-9" points="1041.54 250.53 1037.72 247.82 1067.6 243.83 1041.54 250.53"/>
        <polygon class="cls-9" points="931.45 259.45 923.55 250.37 957.5 250.18 931.45 259.45"/>
        <polygon class="cls-9" points="697.12 343.25 701.08 335.32 716.82 340.7 697.12 343.25"/>
        <polygon class="cls-9" points="580.28 393.13 592.14 388.87 596.4 402.26 580.28 393.13"/>
        <polygon class="cls-4" points="677.19 138.3 674 103.76 671.05 121.82 677.19 138.3"/>
        <polygon class="cls-8" points="677.19 138.3 672.93 151.08 663.65 124.91 677.19 138.3"/>
        <polygon class="cls-4" points="682.67 128.72 674 103.76 682.31 114.11 682.67 128.72"/>
        <polygon class="cls-1" points="682.67 128.72 674 103.76 677.19 138.3 682.67 128.72"/>
        <polygon class="cls-4" points="682.67 128.72 685.07 153.76 677.19 138.3 682.67 128.72"/>
        <polygon class="cls-1" points="672.93 151.08 685.07 153.76 677.19 138.3 672.93 151.08"/>
        <polygon class="cls-1" points="672.93 151.08 677.14 164.62 680.38 157.52 672.93 151.08"/>
        <polygon class="cls-8" points="685.07 153.76 677.14 164.62 680.38 157.52 685.07 153.76"/>
        <polygon class="cls-9" points="685.07 153.76 677.14 164.62 696.41 165.84 685.07 153.76"/>
        <polygon class="cls-8" points="677.34 179.23 677.14 164.62 689.11 178.82 677.34 179.23"/>
        <polygon class="cls-4" points="696.41 165.84 677.14 164.62 689.11 178.82 696.41 165.84"/>
        <polygon class="cls-9" points="696.41 165.84 700.26 184.5 689.11 178.82 696.41 165.84"/>
        <polygon class="cls-12" points="683.63 187.74 700.26 184.5 689.11 178.82 683.63 187.74"/>
        <polygon class="cls-8" points="696.41 165.84 700.26 184.5 701.48 175.98 696.41 165.84"/>
        <polygon class="cls-6" points="770.15 136.63 754.78 121.41 731.3 124.1 770.15 136.63"/>
        <polygon class="cls-12" points="770.15 136.63 754.78 121.41 783.06 129.62 770.15 136.63"/>
        <polygon class="cls-2" points="783.06 117.08 754.78 121.41 783.06 129.62 783.06 117.08"/>
        <polygon class="cls-4" points="783.06 117.08 754.78 121.41 765.89 94.64 783.06 117.08"/>
        <polygon class="cls-5" points="744.28 104.83 754.78 121.41 742.96 85.67 744.28 104.83"/>
        <polygon class="cls-6" points="734.31 166.26 722.68 139.97 731.3 124.1 734.31 166.26"/>
        <polygon class="cls-2" points="734.31 166.26 722.68 139.97 725.46 157.47 734.31 166.26"/>
        <polygon class="cls-8" points="742.96 85.67 754.78 121.41 765.89 94.64 742.96 85.67"/>
        <polygon class="cls-9" points="742.96 85.67 740.53 71.92 765.89 94.64 742.96 85.67"/>
        <polygon class="cls-8" points="763.02 74.19 740.53 71.92 765.89 94.64 763.02 74.19"/>
        <polygon class="cls-4" points="763.02 74.19 740.53 71.92 738.39 56.47 763.02 74.19"/>
        <polygon class="cls-1" points="763.02 74.19 765.31 69.26 738.39 56.47 763.02 74.19"/>
        <polygon class="cls-6" points="778.28 69.99 765.31 69.26 757.1 59.38 778.28 69.99"/>
        <polygon class="cls-12" points="778.28 69.99 755.6 48.64 757.1 59.38 778.28 69.99"/>
        <polygon class="cls-12" points="738.39 56.47 765.31 69.26 757.1 59.38 738.39 56.47"/>
        <polygon class="cls-1" points="738.39 56.47 755.6 48.64 757.1 59.38 738.39 56.47"/>
        <polygon class="cls-12" points="738.39 56.47 755.6 48.64 731.64 35.7 738.39 56.47"/>
        <polygon class="cls-9" points="758.85 37.11 755.6 48.64 752.8 33.62 758.85 37.11"/>
        <polygon class="cls-4" points="747.56 37.81 755.6 48.64 752.8 33.62 747.56 37.81"/>
        <polygon class="cls-1" points="747.56 37.81 755.6 48.64 731.64 35.7 747.56 37.81"/>
        <polygon class="cls-4" points="778.28 69.99 755.6 48.64 781.78 59.89 778.28 69.99"/>
        <polygon class="cls-8" points="758.85 37.11 755.6 48.64 781.78 59.89 758.85 37.11"/>
        <polygon class="cls-4" points="758.85 37.11 783.6 52.59 781.78 59.89 758.85 37.11"/>
        <polygon class="cls-9" points="782.76 40.39 783.6 52.59 786.02 52.52 782.76 40.39"/>
        <polygon class="cls-8" points="782.76 40.39 783.6 52.59 774.85 40.39 782.76 40.39"/>
        <polygon class="cls-9" points="758.85 37.11 783.6 52.59 774.85 40.39 758.85 37.11"/>
        <polygon class="cls-8" points="758.85 37.11 766.23 29.68 774.85 40.39 758.85 37.11"/>
        <polygon class="cls-4" points="775.5 33.67 766.23 29.68 774.85 40.39 775.5 33.67"/>
        <polygon class="cls-1" points="775.5 33.67 782.76 40.39 774.85 40.39 775.5 33.67"/>
        <polygon class="cls-6" points="775.5 33.67 782.76 40.39 782.53 34.14 775.5 33.67"/>
        <polygon class="cls-8" points="775.5 33.67 766.23 29.68 782.53 34.14 775.5 33.67"/>
        <polygon class="cls-1" points="776.63 26.45 766.23 29.68 782.53 34.14 776.63 26.45"/>
        <polygon class="cls-8" points="776.63 26.45 780.61 21.36 782.53 34.14 776.63 26.45"/>
        <polygon class="cls-4" points="776.63 26.45 780.61 21.36 769.17 13.82 776.63 26.45"/>
        <polygon class="cls-12" points="776.63 26.45 766.23 29.68 769.17 13.82 776.63 26.45"/>
        <polygon class="cls-12" points="758.85 37.11 766.23 29.68 752.8 33.62 758.85 37.11"/>
        <polygon class="cls-12" points="747.56 37.81 731.64 35.7 752.8 33.62 747.56 37.81"/>
        <polygon class="cls-1" points="736.58 21.87 731.64 35.7 752.8 33.62 736.58 21.87"/>
        <polygon class="cls-12" points="752.8 33.62 751.04 13.1 747.13 20.88 752.8 33.62"/>
        <polygon class="cls-1" points="766.23 29.68 751.04 13.1 752.8 33.62 766.23 29.68"/>
        <polygon class="cls-12" points="766.23 29.68 751.04 13.1 763.41 19.87 766.23 29.68"/>
        <polygon class="cls-1" points="766.23 29.68 769.17 13.82 763.41 19.87 766.23 29.68"/>
        <polygon class="cls-9" points="751.04 13.1 769.17 13.82 763.41 19.87 751.04 13.1"/>
        <polygon class="cls-2" points="711.4 29.86 731.64 35.7 713.02 39.58 711.4 29.86"/>
        <polygon class="cls-6" points="711.4 29.86 731.64 35.7 733.16 31.46 711.4 29.86"/>
        <polygon class="cls-12" points="711.4 29.86 719.08 24.74 733.16 31.46 711.4 29.86"/>
        <polygon class="cls-12" points="648.39 28 655.99 17.05 659.04 19.78 648.39 28"/>
        <polygon class="cls-12" points="643.6 105.35 643.52 102.89 650.55 103.31 643.6 105.35"/>
        <polygon class="cls-12" points="677.76 237.6 677.77 228.74 696.55 237.68 677.76 237.6"/>
        <polygon class="cls-12" points="850.39 257.13 855.21 249.71 866.1 267.43 850.39 257.13"/>
        <polygon class="cls-12" points="613.14 335.01 616.79 314.63 622 335.05 613.14 335.01"/>
        <polygon class="cls-12" points="839.67 299.98 850.7 298.62 860.18 307.45 839.67 299.98"/>
        <polygon class="cls-12" points="719.64 372.44 732.42 372.75 734.55 385.22 719.64 372.44"/>
        <polygon class="cls-6" points="711.4 29.86 691.25 33.23 713.02 39.58 711.4 29.86"/>
        <polygon class="cls-8" points="688.55 49.49 695.91 39.39 713.02 39.58 688.55 49.49"/>
        <polygon class="cls-8" points="663.19 12.33 674.3 13.09 684.04 24.04 663.19 12.33"/>
        <polygon class="cls-8" points="719.79 19.48 722.07 11.72 728.61 23.28 719.79 19.48"/>
        <polygon class="cls-1" points="688.55 49.49 712.65 52.42 713.02 39.58 688.55 49.49"/>
        <polygon class="cls-12" points="731.64 35.7 712.65 52.42 713.02 39.58 731.64 35.7"/>
        <polygon class="cls-4" points="688.55 49.49 695.91 39.39 683.72 29.16 688.55 49.49"/>
        <polygon class="cls-4" points="678.56 32.16 675.72 23.03 661.72 27.29 678.56 32.16"/>
        <polygon class="cls-4" points="674.26 90.23 664.45 83.48 656.85 87.74 674.26 90.23"/>
        <polygon class="cls-4" points="782.09 262.04 763.14 263.29 757.67 268.07 782.09 262.04"/>
        <polygon class="cls-4" points="660.78 153.34 648.95 155.12 643.37 150.85 660.78 153.34"/>
        <polygon class="cls-4" points="722.78 163 714.67 152.25 712.44 165.23 722.78 163"/>
        <polygon class="cls-4" points="668.25 186.59 649.87 189.13 661.51 195.87 668.25 186.59"/>
        <polygon class="cls-4" points="815.44 96.62 805.54 85.81 808.18 96.77 815.44 96.62"/>
        <polygon class="cls-4" points="622.98 43.92 601.3 37.9 604.32 44.73 622.98 43.92"/>
        <polygon class="cls-4" points="754.63 305.2 741.56 290.27 744.28 305.2 754.63 305.2"/>
        <polygon class="cls-4" points="926.98 379.06 907.74 383.92 922.28 388.27 926.98 379.06"/>
        <polygon class="cls-4" points="699.68 11.75 694.47 6.94 692.29 10.69 699.68 11.75"/>
        <polygon class="cls-4" points="1085.48 249.79 1080.27 244.97 1078.09 248.73 1085.48 249.79"/>
        <polygon class="cls-12" points="702.08 24.82 719.08 24.74 691.25 33.23 702.08 24.82"/>
        <polygon class="cls-1" points="702.08 24.82 686.51 19.99 691.25 33.23 702.08 24.82"/>
        <polygon class="cls-9" points="702.08 24.82 686.51 19.99 719.08 24.74 702.08 24.82"/>
        <polygon class="cls-6" points="731.64 35.7 712.65 52.42 723.85 49.68 731.64 35.7"/>
        <polygon class="cls-7" points="702.03 59.72 712.65 52.42 723.85 49.68 702.03 59.72"/>
        <polygon class="cls-6" points="702.03 59.72 712.65 52.42 688.55 49.49 702.03 59.72"/>
        <polygon class="cls-7" points="702.03 59.72 672.88 56.31 689.28 54.52 702.03 59.72"/>
        <polygon class="cls-12" points="702.03 59.72 688.55 49.49 689.28 54.52 702.03 59.72"/>
        <polygon class="cls-1" points="672.88 56.31 688.55 49.49 689.28 54.52 672.88 56.31"/>
        <polygon class="cls-4" points="672.88 56.31 688.55 49.49 667.87 47.75 672.88 56.31"/>
        <polygon class="cls-10" points="667.37 36.06 678.58 44.69 667.87 47.75 667.37 36.06"/>
        <polygon class="cls-10" points="1095.32 217.85 1106.54 226.48 1095.82 229.55 1095.32 217.85"/>
        <polygon class="cls-10" points="640.38 76.5 651.59 85.13 638.74 81.4 640.38 76.5"/>
        <polygon class="cls-10" points="745.2 6.55 743.7 12.74 732.98 15.8 745.2 6.55"/>
        <polygon class="cls-10" points="806.26 76 807.26 80.43 799.97 77.09 806.26 76"/>
        <polygon class="cls-4" points="1114.87 212.42 1104.97 201.61 1107.61 212.56 1114.87 212.42"/>
        <polygon class="cls-10" points="1074.56 227.33 1075.56 231.77 1068.26 228.42 1074.56 227.33"/>
        <polygon class="cls-10" points="634.1 32 647.93 32.36 642.41 37.05 634.1 32"/>
        <polygon class="cls-9" points="783.06 117.08 763.02 74.19 765.89 94.64 783.06 117.08"/>
        <polygon class="cls-6" points="770.15 136.63 771.97 147.88 783.06 129.62 770.15 136.63"/>
        <polygon class="cls-5" points="770.15 136.63 771.97 147.88 731.3 124.1 770.15 136.63"/>
        <polygon class="cls-5" points="734.31 166.26 748.54 147.58 731.3 124.1 734.31 166.26"/>
        <polygon class="cls-4" points="771.97 147.88 748.54 147.58 731.3 124.1 771.97 147.88"/>
        <polygon class="cls-12" points="771.97 147.88 748.54 147.58 734.31 166.26 771.97 147.88"/>
        <polygon class="cls-8" points="734.31 166.26 712.64 196.57 724.62 171.59 734.31 166.26"/>
        <polygon class="cls-4" points="734.31 166.26 712.64 196.57 733.33 198.09 734.31 166.26"/>
        <polygon class="cls-9" points="705.34 204.48 712.64 196.57 733.33 198.09 705.34 204.48"/>
        <polygon class="cls-8" points="705.34 204.48 701.68 217.26 733.33 198.09 705.34 204.48"/>
        <polygon class="cls-2" points="705.94 231.26 701.68 217.26 717.2 233.39 705.94 231.26"/>
        <polygon class="cls-12" points="758.81 244.09 701.68 217.26 717.2 233.39 758.81 244.09"/>
        <polygon class="cls-4" points="743.07 227.91 701.68 217.26 733.33 198.09 743.07 227.91"/>
        <polygon class="cls-2" points="743.07 227.91 701.68 217.26 758.81 244.09 743.07 227.91"/>
        <polygon class="cls-7" points="705.94 231.26 745.53 245.06 717.2 233.39 705.94 231.26"/>
        <polygon class="cls-6" points="705.94 231.26 717.05 243.57 745.53 245.06 705.94 231.26"/>
        <polygon class="cls-7" points="715.44 283.72 717.05 243.57 745.53 245.06 715.44 283.72"/>
        <polygon class="cls-12" points="692.25 256.21 717.05 243.57 703.43 240.94 692.25 256.21"/>
        <polygon class="cls-5" points="692.25 256.21 717.05 243.57 715.44 283.72 692.25 256.21"/>
        <polygon class="cls-8" points="692.25 256.21 680.82 284.31 694.99 273.86 692.25 256.21"/>
        <polygon class="cls-4" points="692.25 256.21 715.44 283.72 694.99 273.86 692.25 256.21"/>
        <polygon class="cls-5" points="700.67 304.18 715.44 283.72 694.99 273.86 700.67 304.18"/>
        <polygon class="cls-12" points="700.67 304.18 676.53 294.85 694.99 273.86 700.67 304.18"/>
        <polygon class="cls-7" points="700.67 304.18 679.78 317.37 696.41 310.47 700.67 304.18"/>
        <polygon class="cls-6" points="700.67 304.18 679.78 317.37 676.53 294.85 700.67 304.18"/>
        <polygon class="cls-8" points="658.88 301.95 656.04 319.8 676.53 294.85 658.88 301.95"/>
        <polygon class="cls-9" points="658.88 301.95 656.04 319.8 637.99 328.93 658.88 301.95"/>
        <polygon class="cls-5" points="679.78 317.37 656.04 319.8 676.53 294.85 679.78 317.37"/>
        <polygon class="cls-12" points="679.78 317.37 656.04 319.8 663.75 333.8 679.78 317.37"/>
        <polygon class="cls-6" points="633.73 346.37 656.04 319.8 663.75 333.8 633.73 346.37"/>
        <polygon class="cls-5" points="633.73 346.37 656.04 319.8 637.99 328.93 633.73 346.37"/>
        <polygon class="cls-8" points="633.73 346.37 615.68 365.65 626.73 347.45 633.73 346.37"/>
        <polygon class="cls-12" points="633.73 346.37 633.12 361.18 663.75 333.8 633.73 346.37"/>
        <polygon class="cls-6" points="633.73 346.37 633.12 361.18 615.68 365.65 633.73 346.37"/>
        <polygon class="cls-7" points="629.19 374.76 633.12 361.18 615.68 365.65 629.19 374.76"/>
        <polygon class="cls-9" points="616.08 355.5 626.73 347.45 615.68 365.65 616.08 355.5"/>
        <polygon class="cls-10" points="616.08 355.5 601.33 359.48 615.68 365.65 616.08 355.5"/>
        <polygon class="cls-12" points="606.34 378.47 601.33 359.48 615.68 365.65 606.34 378.47"/>
        <polygon class="cls-6" points="606.34 378.47 629.19 374.76 615.68 365.65 606.34 378.47"/>
        <polygon class="cls-8" points="614.86 394.18 626.75 374.76 619.74 406.99 614.86 394.18"/>
        <polygon class="cls-12" points="614.86 394.18 629.19 374.76 606.34 378.47 614.86 394.18"/>
        <polygon class="cls-6" points="614.86 394.18 613.82 407.86 606.34 378.47 614.86 394.18"/>
        <polygon class="cls-12" points="614.86 394.18 613.82 407.86 622.17 406.99 614.86 394.18"/>
        <polygon class="cls-6" points="625.26 418.17 613.82 407.86 622.17 406.99 625.26 418.17"/>
        <polygon class="cls-12" points="625.26 418.17 613.82 407.86 622.09 420.72 625.26 418.17"/>
        <polygon class="cls-7" points="613.62 415.62 613.82 407.86 622.09 420.72 613.62 415.62"/>
        <polygon class="cls-6" points="613.62 415.62 613.82 407.86 603.82 397.24 613.62 415.62"/>
        <polygon class="cls-12" points="606.34 378.47 613.82 407.86 603.82 397.24 606.34 378.47"/>
        <polygon class="cls-6" points="595.38 378.47 585.45 375.27 580.21 367.33 595.38 378.47"/>
        <polygon class="cls-4" points="771.97 147.88 764.76 177.67 734.31 166.26 771.97 147.88"/>
        <polygon class="cls-5" points="733.33 198.09 750.3 187.06 734.31 166.26 733.33 198.09"/>
        <polygon class="cls-12" points="764.76 177.67 750.3 187.06 734.31 166.26 764.76 177.67"/>
        <polygon class="cls-5" points="764.76 177.67 750.3 187.06 760.45 198.27 764.76 177.67"/>
        <polygon class="cls-4" points="733.33 198.09 750.3 187.06 760.45 198.27 733.33 198.09"/>
        <polygon class="cls-8" points="743.07 227.91 760.45 198.27 733.33 198.09 743.07 227.91"/>
        <polygon class="cls-9" points="743.07 227.91 760.45 198.27 771.42 202.44 743.07 227.91"/>
        <polygon class="cls-8" points="743.07 227.91 797.72 230.76 771.42 202.44 743.07 227.91"/>
        <polygon class="cls-12" points="743.07 227.91 797.72 230.76 758.81 244.09 743.07 227.91"/>
        <polygon class="cls-9" points="807.33 221.37 797.72 230.76 771.42 202.44 807.33 221.37"/>
        <polygon class="cls-2" points="795.15 248 797.72 230.76 758.81 244.09 795.15 248"/>
        <polygon class="cls-6" points="795.15 248 807.77 257.75 758.81 244.09 795.15 248"/>
        <polygon class="cls-12" points="795.15 248 797.72 230.76 826.73 262.07 795.15 248"/>
        <polygon class="cls-7" points="795.15 248 807.77 257.75 826.73 262.07 795.15 248"/>
        <polygon class="cls-8" points="830.91 245.54 797.72 230.76 826.73 262.07 830.91 245.54"/>
        <polygon class="cls-9" points="830.91 245.54 797.72 230.76 817.94 227.93 830.91 245.54"/>
        <polygon class="cls-8" points="807.33 221.37 797.72 230.76 817.94 227.93 807.33 221.37"/>
        <polygon class="cls-4" points="830.91 245.54 841.33 250.23 826.73 262.07 830.91 245.54"/>
        <polygon class="cls-10" points="830.91 245.54 841.33 250.23 817.94 227.93 830.91 245.54"/>
        <polygon class="cls-2" points="839.08 260.28 841.33 250.23 826.73 262.07 839.08 260.28"/>
        <polygon class="cls-12" points="839.08 260.28 815.48 285.11 826.73 262.07 839.08 260.28"/>
        <polygon class="cls-6" points="807.77 257.75 815.48 285.11 826.73 262.07 807.77 257.75"/>
        <polygon class="cls-7" points="807.77 257.75 781.27 277.09 806.45 265.21 807.77 257.75"/>
        <polygon class="cls-12" points="815.48 285.11 781.27 277.09 806.45 265.21 815.48 285.11"/>
        <polygon class="cls-4" points="815.48 285.11 781.27 277.09 793.23 297.1 815.48 285.11"/>
        <polygon class="cls-7" points="770.68 302.1 781.27 277.09 782.04 293.15 770.68 302.1"/>
        <polygon class="cls-6" points="793.23 297.1 781.27 277.09 782.04 293.15 793.23 297.1"/>
        <polygon class="cls-2" points="815.48 285.11 799.77 300.97 793.23 297.1 815.48 285.11"/>
        <polygon class="cls-6" points="770.68 302.1 799.77 300.97 793.23 297.1 770.68 302.1"/>
        <polygon class="cls-12" points="770.68 302.1 779.46 309.95 757.37 320.28 770.68 302.1"/>
        <polygon class="cls-2" points="770.68 302.1 779.46 309.95 799.77 300.97 770.68 302.1"/>
        <polygon class="cls-6" points="746.61 342.8 779.46 309.95 757.37 320.28 746.61 342.8"/>
        <polygon class="cls-7" points="746.61 342.8 744.79 332 757.37 320.28 746.61 342.8"/>
        <polygon class="cls-2" points="739.31 342.8 737.48 332 727.36 338.13 739.31 342.8"/>
        <polygon class="cls-12" points="746.61 342.8 779.46 309.95 799.77 300.97 746.61 342.8"/>
        <polygon class="cls-4" points="746.61 342.8 771.84 329.92 799.77 300.97 746.61 342.8"/>
        <polygon class="cls-2" points="746.61 342.8 771.84 329.92 764.56 342.45 746.61 342.8"/>
        <polygon class="cls-12" points="746.61 342.8 749.05 362.62 764.56 342.45 746.61 342.8"/>
        <polygon class="cls-12" points="724.51 348.63 729.57 344.86 749.05 362.62 724.51 348.63"/>
        <polygon class="cls-7" points="724.51 348.63 725.42 355.08 749.05 362.62 724.51 348.63"/>
        <polygon class="cls-2" points="770.75 369.13 749.05 362.62 764.56 342.45 770.75 369.13"/>
        <polygon class="cls-8" points="770.75 369.13 749.05 362.62 781.01 382.19 770.75 369.13"/>
        <polygon class="cls-4" points="782.09 388.11 749.05 362.62 781.01 382.19 782.09 388.11"/>
        <polygon class="cls-2" points="782.09 388.11 749.05 362.62 768.19 385.93 782.09 388.11"/>
        <polygon class="cls-12" points="755.29 377.79 749.05 362.62 768.19 385.93 755.29 377.79"/>
        <polygon class="cls-7" points="778.67 153.06 771.97 147.88 783.06 129.62 778.67 153.06"/>
        <polygon class="cls-6" points="778.67 153.06 789.76 148.69 794.63 166.87 778.67 153.06"/>
        <polygon class="cls-12" points="778.67 153.06 789.76 148.69 783.06 129.62 778.67 153.06"/>
        <polygon class="cls-4" points="798.22 144.89 789.76 148.69 783.06 129.62 798.22 144.89"/>
        <polygon class="cls-7" points="804.73 166.45 789.76 148.69 794.63 166.87 804.73 166.45"/>
        <polygon class="cls-6" points="804.73 166.45 789.76 148.69 798.22 144.89 804.73 166.45"/>
        <polygon class="cls-7" points="804.73 166.45 817.88 147.85 810.48 142.98 804.73 166.45"/>
        <polygon class="cls-12" points="804.73 166.45 798.22 144.89 810.48 142.98 804.73 166.45"/>
        <polygon class="cls-9" points="818.1 120.99 798.22 144.89 810.48 142.98 818.1 120.99"/>
        <polygon class="cls-4" points="818.1 120.99 828.24 124.38 810.48 142.98 818.1 120.99"/>
        <polygon class="cls-6" points="817.88 147.85 828.24 124.38 810.48 142.98 817.88 147.85"/>
        <polygon class="cls-7" points="818.1 120.99 828.24 124.38 833.95 114.86 818.1 120.99"/>
        <polygon class="cls-6" points="818.1 120.99 825.07 99.21 833.95 114.86 818.1 120.99"/>
        <polygon class="cls-12" points="839.87 107.25 825.07 99.21 833.95 114.86 839.87 107.25"/>
        <polygon class="cls-6" points="839.87 107.25 825.07 99.21 840.72 97.95 839.87 107.25"/>
        <polygon class="cls-4" points="829.09 86.53 825.07 99.21 840.72 97.95 829.09 86.53"/>
        <polygon class="cls-9" points="829.09 86.53 825.07 99.21 821.48 92.66 829.09 86.53"/>
        <polygon class="cls-4" points="817.25 101.75 825.07 99.21 818.1 120.99 817.25 101.75"/>
        <polygon class="cls-1" points="677.19 138.3 663.65 124.91 671.05 121.82 677.19 138.3"/>
        <polygon class="cls-6" points="752.8 33.62 736.58 21.87 747.13 20.88 752.8 33.62"/>
        <polygon class="cls-4" points="629.71 109.14 619.83 109.36 638.17 93.21 629.71 109.14"/>
        <polygon class="cls-4" points="651.18 280.78 642.09 280.53 672.45 265.21 651.18 280.78"/>
        <polygon class="cls-4" points="869.75 331.36 860.66 331.11 891.02 315.79 869.75 331.36"/>
        <polygon class="cls-4" points="569.63 349.32 563.24 351.75 585.45 365.75 569.63 349.32"/>
        <polygon class="cls-10" points="1192.14 249.41 1189.96 254.79 1185.47 248.44 1192.14 249.41"/>
        <polygon class="cls-10" points="1185.47 248.44 1189.96 254.79 1187.91 259.52 1164.06 243.21 1164.06 243.19 1185.47 248.44"/>
        <polygon class="cls-10" points="1187.91 259.52 1186.08 263.71 1186.04 263.69 1173.96 258.31 1187.91 259.52"/>
        <polygon class="cls-10" points="1187.91 259.52 1173.96 258.31 1163.73 257.4 1163.71 257.4 1164.06 243.21 1187.91 259.52"/>
        <polygon class="cls-10" points="1186.08 263.71 1163.41 270.34 1163.71 257.4 1163.73 257.4 1186.04 263.69 1186.08 263.71"/>
        <polygon class="cls-10" points="1186.04 263.69 1163.73 257.4 1173.96 258.31 1186.04 263.69"/>
        <polygon class="cls-10" points="1194.99 346.17 1187.72 349.35 1183.86 342.99 1194.99 346.17"/>
        <polygon class="cls-10" points="1183.86 342.99 1187.72 349.35 1164.68 345.84 1183.86 342.99"/>
        <polygon class="cls-10" points="1183.86 342.99 1164.68 345.84 1164.72 336.15 1183.86 342.99"/>
        <polygon class="cls-10" points="1176.78 368.93 1177.82 379.89 1167.99 371.19 1176.78 368.93"/>
        <polygon class="cls-10" points="1176.78 368.93 1167.99 371.19 1165.6 358.06 1176.78 368.93"/>
        <polygon class="cls-10" points="1164.06 243.21 1163.71 257.4 1163.41 270.34 1152.44 258.22 1164.04 243.21 1164.06 243.21"/>
        <polygon class="cls-10" points="1146.32 234.07 1164.04 243.21 1145.52 241.65 1132.29 240.54 1132.27 240.52 1132.23 240.54 1104.46 238.2 1121.26 234.58 1139.64 230.64 1146.32 234.07"/>
        <polygon class="cls-10" points="1164.04 243.21 1152.44 258.22 1141.94 271.8 1141.9 271.76 1135.35 250.54 1142.87 248.63 1142.87 248.61 1164.04 243.21"/>
        <polygon class="cls-10" points="1164.04 243.21 1142.87 248.61 1145.52 241.65 1164.04 243.21"/>
        <polygon class="cls-10" points="1163.41 198.54 1146.32 234.07 1141.06 208.83 1141.06 208.73 1163.41 198.54"/>
        <polygon class="cls-10" points="1152.44 258.22 1163.41 270.34 1133.71 282.44 1141.94 271.8 1152.44 258.22"/>
        <polygon class="cls-10" points="1165.6 358.06 1167.99 371.19 1157.04 365 1165.05 358.31 1165.09 358 1165.6 358.06"/>
        <polygon class="cls-10" points="1165.09 358 1165.05 358.31 1157.04 365 1156.75 364.78 1144.76 351.18 1165.09 358"/>
        <polygon class="cls-10" points="1164.72 336.15 1164.68 345.84 1164.15 345.57 1145.8 336.52 1145.27 336.25 1164.72 336.15"/>
        <polygon class="cls-10" points="1164.15 345.57 1146.17 350.77 1146.07 350.44 1145.66 337.38 1145.52 336.91 1145.62 336.89 1145.8 336.52 1164.15 345.57"/>
        <polygon class="cls-10" points="1156.75 364.78 1156.4 365.21 1118.04 362.25 1127.85 353.19 1144.76 351.18 1156.75 364.78"/>
        <polygon class="cls-10" points="1141.06 208.83 1146.32 234.07 1139.64 230.64 1141.06 208.83"/>
        <polygon class="cls-10" points="1145.52 241.65 1142.87 248.61 1142.87 248.63 1132.29 240.54 1145.52 241.65"/>
        <polygon class="cls-10" points="1142.87 248.63 1135.35 250.54 1132.27 240.54 1132.29 240.54 1142.87 248.63"/>
        <polygon class="cls-10" points="1142.39 188.19 1141.06 208.73 1141.04 208.75 1141.06 208.83 1139.64 230.64 1121.26 234.58 1142.39 188.19"/>
        <polygon class="cls-10" points="1142.39 188.19 1121.26 234.58 1104.46 238.2 1104.15 237.95 1142.39 188.19"/>
        <polygon class="cls-10" points="1146.07 350.44 1146.17 350.77 1145.15 351.08 1112.26 340.27 1112.47 339.45 1112.51 339.47 1145.52 336.91 1145.66 337.38 1146.07 350.44"/>
        <polygon class="cls-10" points="1145.8 336.52 1145.62 336.89 1145.52 336.91 1112.51 339.47 1112.47 339.45 1115.26 328.24 1145.27 336.25 1145.8 336.52"/>
        <polygon class="cls-10" points="1112.26 340.27 1145.15 351.08 1144.76 351.18 1127.85 353.19 1111.96 340.73 1112.26 340.27"/>
        <polygon class="cls-10" points="1132.8 256.31 1133.71 282.44 1116.8 292.77 1132.8 256.31"/>
        <polygon class="cls-10" points="1133.71 282.44 1122.9 307.39 1116.8 292.77 1133.71 282.44"/>
        <polygon class="cls-10" points="1132.27 240.54 1132.8 256.31 1109.92 258.08 1109.9 258.08 1082.83 260.17 1132.23 240.54 1132.27 240.54"/>
        <polygon class="cls-10" points="1132.8 256.31 1116.8 292.77 1109.92 258.08 1132.8 256.31"/>
        <polygon class="cls-10" points="1132.23 240.54 1082.83 260.17 1082.32 260.38 1082.24 260.13 1082.24 260.11 1104.03 238.12 1104.15 237.95 1104.46 238.2 1132.23 240.54"/>
        <polygon class="cls-10" points="1127.85 353.19 1118.04 362.25 1083.82 361.06 1127.85 353.19"/>
        <polygon class="cls-10" points="1127.85 353.19 1083.82 361.06 1111.96 340.73 1127.85 353.19"/>
        <polygon class="cls-10" points="1122.9 307.39 1123.58 315.44 1114.69 309.55 1066.42 277.59 1065.74 276.79 1066.07 276.46 1089.1 283.86 1116.8 292.77 1122.9 307.39"/>
        <polygon class="cls-10" points="1123.58 315.44 1115.26 328.24 1114.69 309.55 1123.58 315.44"/>
        <polygon class="cls-10" points="1109.92 258.08 1116.8 292.77 1089.1 283.86 1089.1 283.85 1109.92 258.08"/>
        <polygon class="cls-10" points="1114.69 309.55 1115.26 328.24 1102.88 335.51 1107.38 325.61 1114.69 309.55"/>
        <polygon class="cls-10" points="1115.26 328.24 1112.47 339.45 1112.26 340.27 1102.88 335.51 1115.26 328.24"/>
        <polygon class="cls-10" points="1114.69 309.55 1107.38 325.61 1066.42 277.59 1114.69 309.55"/>
        <polygon class="cls-10" points="1112.26 340.27 1111.96 340.73 1083.82 361.06 1083.26 360.55 1099.57 333.83 1102.88 335.51 1112.26 340.27"/>
        <polygon class="cls-10" points="1109.92 258.08 1089.1 283.85 1084.75 268.88 1109.9 258.08 1109.92 258.08"/>
        <polygon class="cls-10" points="1109.9 258.08 1084.75 268.88 1082.32 260.38 1082.83 260.17 1109.9 258.08"/>
        <polygon class="cls-10" points="1107.38 325.61 1102.88 335.51 1099.57 333.83 1092.65 330.31 1107.38 325.61"/>
        <polygon class="cls-10" points="1066.42 277.59 1107.38 325.61 1080.35 319.57 1065.89 277.24 1066.42 277.59"/>
        <polygon class="cls-10" points="1107.38 325.61 1092.65 330.31 1080.35 319.57 1107.38 325.61"/>
        <polygon class="cls-10" points="1099.57 333.83 1083.26 360.55 1051.63 351.84 1099.57 333.83"/>
        <polygon class="cls-10" points="1099.57 333.83 1051.63 351.84 1059.23 343.29 1080.35 319.57 1092.65 330.31 1099.57 333.83"/>
        <polygon class="cls-10" points="1065.89 277.24 1080.35 319.57 1023.31 300.2 1065.46 276.95 1065.89 277.24"/>
        <polygon class="cls-10" points="1080.35 319.57 1059.23 343.29 1023.31 300.2 1080.35 319.57"/>
        <polygon class="cls-10" points="1065.38 276.89 1065.46 276.95 1023.31 300.2 1027.77 279.34 1052.19 280.73 1065.38 276.89"/>
        <polygon class="cls-10" points="1039.64 330.42 1051.08 351.59 1017.85 336.33 1039.64 330.42"/>
        <polygon class="cls-10" points="1023.31 300.2 1039.64 330.42 1017.85 336.33 1023.05 301.48 1022.57 301.07 1023.31 300.2"/>
        <polygon class="cls-10" points="1027.77 279.34 1023.31 300.2 999.84 270.24 1027.77 279.34"/>
        <polygon class="cls-10" points="999.84 270.24 1023.31 300.2 977.84 266.4 999.84 270.24"/>
        <polygon class="cls-10" points="1023.31 300.2 1022.57 301.07 991.11 337.71 977.84 266.4 1023.31 300.2"/>
        <polygon class="cls-10" points="1023.05 301.48 1017.85 336.33 991.11 337.71 1022.57 301.07 1023.05 301.48"/>
        <polygon class="cls-10" points="1017.85 336.33 1009.96 357.34 1009 356.34 991.11 337.71 1017.85 336.33"/>
        <polygon class="cls-10" points="1009 356.34 1009.96 357.34 983.65 380.41 982.97 379.05 968.43 350.19 1008.52 356.79 1009 356.34"/>
        <polygon class="cls-10" points="1009 356.34 1008.52 356.79 968.43 350.19 991.11 337.71 1009 356.34"/>
        <polygon class="cls-10" points="977.84 266.4 991.11 337.71 955.58 275.39 977.84 266.4"/>
        <polygon class="cls-10" points="955.58 275.39 991.11 337.71 949.52 333.33 955.08 275.6 955.58 275.39"/>
        <polygon class="cls-10" points="991.11 337.71 968.43 350.19 955.99 354.32 947.57 357.1 949.52 333.33 991.11 337.71"/>
        <polygon class="cls-10" points="982.97 379.05 983.65 380.41 953.99 388.27 956.17 354.9 981.99 379.54 982.97 379.05"/>
        <polygon class="cls-10" points="968.43 350.19 982.97 379.05 981.99 379.54 956.17 354.9 955.99 354.32 968.43 350.19"/>
        <polygon class="cls-10" points="977.84 266.4 955.58 275.39 955.47 275.25 967.26 267.61 977.84 266.4"/>
        <polygon class="cls-10" points="967.26 267.61 955.47 275.25 955.17 274.7 955.08 275.5 954.67 275.76 940.52 266.11 967.26 267.61"/>
        <polygon class="cls-10" points="955.08 275.6 949.52 333.33 930.13 319.1 944.94 293.26 954.67 275.76 955.08 275.6"/>
        <polygon class="cls-10" points="954.67 275.76 944.94 293.26 914.13 294.12 920.02 290.06 954.67 275.76"/>
        <polygon class="cls-10" points="954.67 275.76 920.02 290.06 940.52 266.11 954.67 275.76"/>
        <polygon class="cls-10" points="949.78 371.66 953.99 388.27 934.05 390.84 949.78 371.66"/>
        <polygon class="cls-10" points="953.99 388.27 943.38 405.9 934.05 390.84 953.99 388.27"/>
        <polygon class="cls-10" points="949.52 333.33 947.57 357.1 936.87 355.29 913.31 351.84 949.52 333.33"/>
        <polygon class="cls-10" points="934.05 390.84 943.38 405.9 928.69 412.34 934.05 390.84"/>
        <polygon class="cls-10" points="943.38 405.9 940.69 417.4 928.38 413.62 928.69 412.34 943.38 405.9"/>
        <polygon class="cls-10" points="940.69 417.4 933.54 420.5 928.38 413.62 940.69 417.4"/>
        <polygon class="cls-10" points="940.52 266.11 920.02 290.06 920.64 260.24 940.52 266.11"/>
        <polygon class="cls-10" points="928.38 413.62 933.54 420.5 920.93 419.59 928.38 413.62"/>
        <polygon class="cls-10" points="906.69 245.04 920.64 260.24 894.84 250.91 894.43 249.45 894.9 249.33 906.69 245.04"/>
        <polygon class="cls-10" points="920.64 260.24 920.02 290.06 898.01 276.73 920.64 260.24"/>
        <polygon class="cls-10" points="920.64 260.24 898.01 276.73 894.84 250.91 920.64 260.24"/>
        <polygon class="cls-10" points="920.02 290.06 889.89 277.12 898.01 276.73 920.02 290.06"/>
        <polygon class="cls-10" points="904.76 331.03 913.31 351.84 894.7 354.57 893.71 354.9 893.57 354.51 904.76 331.03"/>
        <polygon class="cls-10" points="897.04 229.9 906.69 245.04 894.9 249.33 897.04 229.9"/>
        <polygon class="cls-10" points="904.76 331.03 893.57 354.51 893.71 354.9 893.71 354.92 879.58 359.75 904.76 331.03"/>
        <polygon class="cls-10" points="904.76 331.03 879.58 359.75 880.92 340.54 904.76 331.03"/>
        <polygon class="cls-10" points="894.84 250.91 898.01 276.73 884.62 246.48 894.84 250.91"/>
        <polygon class="cls-10" points="897.04 229.9 894.9 249.33 894.43 249.45 886.4 220.95 897.04 229.9"/>
        <polygon class="cls-10" points="880.92 340.54 879.58 359.75 870.01 366.26 880.92 340.54"/>
        <polygon class="cls-10" points="880.92 340.54 870.01 366.26 863.85 360.22 880.92 340.54"/>
        <polygon class="cls-10" points="870.01 366.26 856.58 365.91 863.85 360.22 870.01 366.26"/>
        <polyline class="cls-10" points="1104.03 238.12 1104.15 237.95 1142.39 188.19"/>
        <polyline class="cls-10" points="1139.64 230.64 1141.06 208.83 1141.06 208.73 1142.39 188.19"/>
        <polyline class="cls-10" points="1163.41 198.54 1141.06 208.73 1141.04 208.75"/>
        <line class="cls-10" x1="1163.41" y1="198.54" x2="1146.32" y2="234.07"/>
        <polyline class="cls-10" points="1139.64 230.64 1146.32 234.07 1164.04 243.21"/>
        <polyline class="cls-10" points="1192.14 249.41 1185.47 248.44 1164.06 243.19"/>
        <line class="cls-10" x1="1163.41" y1="270.34" x2="1186.08" y2="263.71"/>
        <polyline class="cls-10" points="1187.91 259.52 1189.96 254.79 1192.14 249.41"/>
        <polyline class="cls-10" points="1163.41 270.34 1163.71 257.4 1164.06 243.21"/>
        <line class="cls-10" x1="1163.41" y1="270.34" x2="1133.71" y2="282.44"/>
        <polyline class="cls-10" points="1133.71 282.44 1141.94 271.8 1152.44 258.22 1164.04 243.21"/>
        <polyline class="cls-10" points="1164.04 243.21 1145.52 241.65 1132.29 240.54 1132.27 240.54 1132.23 240.54 1104.46 238.2"/>
        <polyline class="cls-10" points="1104.46 238.2 1121.26 234.58 1139.64 230.64"/>
        <polyline class="cls-10" points="1146.32 234.07 1141.06 208.83 1141.04 208.75"/>
        <line class="cls-10" x1="1142.39" y1="188.19" x2="1121.26" y2="234.58"/>
        <polyline class="cls-10" points="1132.27 240.54 1135.35 250.54 1141.9 271.76"/>
        <polyline class="cls-10" points="1133.71 282.44 1132.8 256.31 1132.27 240.54 1132.27 240.52"/>
        <line class="cls-10" x1="1082.24" y1="260.11" x2="1104.03" y2="238.12"/>
        <line class="cls-10" x1="1109.92" y1="258.08" x2="1132.8" y2="256.31"/>
        <line class="cls-10" x1="1082.83" y1="260.17" x2="1109.9" y2="258.08"/>
        <line class="cls-10" x1="1132.8" y1="256.31" x2="1116.8" y2="292.77"/>
        <line class="cls-10" x1="1116.8" y1="292.77" x2="1133.71" y2="282.44"/>
        <line class="cls-10" x1="1133.71" y1="282.44" x2="1122.9" y2="307.39"/>
        <line class="cls-10" x1="1122.9" y1="307.39" x2="1116.8" y2="292.77"/>
        <line class="cls-10" x1="1122.9" y1="307.39" x2="1123.58" y2="315.44"/>
        <polyline class="cls-10" points="1123.58 315.44 1114.69 309.55 1066.42 277.59 1065.89 277.24 1065.46 276.95 1065.38 276.89 1065.01 276.65"/>
        <polyline class="cls-10" points="1064.86 276.07 1066.07 276.46 1089.1 283.86 1116.8 292.77"/>
        <line class="cls-10" x1="1116.8" y1="292.77" x2="1109.92" y2="258.08"/>
        <line class="cls-10" x1="1089.1" y1="283.85" x2="1109.92" y2="258.08"/>
        <polyline class="cls-10" points="1089.1 283.85 1084.75 268.88 1082.32 260.38 1082.24 260.13"/>
        <polyline class="cls-10" points="1084.75 268.88 1109.9 258.08 1109.92 258.08"/>
        <polyline class="cls-10" points="1114.69 309.55 1107.38 325.61 1102.88 335.51"/>
        <line class="cls-10" x1="1123.58" y1="315.44" x2="1115.26" y2="328.24"/>
        <line class="cls-10" x1="1115.26" y1="328.24" x2="1145.27" y2="336.25"/>
        <line class="cls-10" x1="1164.72" y1="336.15" x2="1145.27" y2="336.25"/>
        <line class="cls-10" x1="1183.86" y1="342.99" x2="1164.72" y2="336.15"/>
        <line class="cls-10" x1="1187.72" y1="349.35" x2="1183.86" y2="342.99"/>
        <line class="cls-10" x1="1187.72" y1="349.35" x2="1164.68" y2="345.84"/>
        <line class="cls-10" x1="1164.68" y1="345.84" x2="1183.86" y2="342.99"/>
        <line class="cls-10" x1="1164.68" y1="345.84" x2="1164.72" y2="336.15"/>
        <polyline class="cls-10" points="1164.68 345.84 1164.15 345.57 1145.8 336.52 1145.27 336.25"/>
        <polyline class="cls-10" points="1144.76 351.18 1145.15 351.08 1146.17 350.77 1164.15 345.57"/>
        <polyline class="cls-10" points="1144.76 351.18 1165.09 358 1165.6 358.06"/>
        <line class="cls-10" x1="1165.6" y1="358.06" x2="1176.78" y2="368.93"/>
        <line class="cls-10" x1="1176.78" y1="368.93" x2="1167.99" y2="371.19"/>
        <line class="cls-10" x1="1167.99" y1="371.19" x2="1165.6" y2="358.06"/>
        <line class="cls-10" x1="1167.99" y1="371.19" x2="1157.04" y2="365"/>
        <polyline class="cls-10" points="1157.04 365 1156.75 364.78 1144.76 351.18"/>
        <line class="cls-10" x1="1157.04" y1="365" x2="1165.05" y2="358.31"/>
        <line class="cls-10" x1="1156.4" y1="365.21" x2="1118.04" y2="362.25"/>
        <polyline class="cls-10" points="1118.04 362.25 1127.85 353.19 1144.76 351.18"/>
        <polyline class="cls-10" points="1145.25 351.1 1145.15 351.08 1112.26 340.27"/>
        <polyline class="cls-10" points="1112.26 340.27 1102.88 335.51 1099.57 333.83 1092.65 330.31"/>
        <line class="cls-10" x1="1092.65" y1="330.31" x2="1080.35" y2="319.57"/>
        <line class="cls-10" x1="1102.88" y1="335.51" x2="1115.26" y2="328.24"/>
        <line class="cls-10" x1="1115.26" y1="328.24" x2="1114.69" y2="309.55"/>
        <polyline class="cls-10" points="1112.26 340.27 1112.47 339.45 1115.26 328.24"/>
        <polyline class="cls-10" points="1112.51 339.47 1145.52 336.91 1145.62 336.89"/>
        <line class="cls-10" x1="1145.66" y1="337.38" x2="1146.07" y2="350.44"/>
        <line class="cls-10" x1="1118.04" y1="362.25" x2="1083.82" y2="361.06"/>
        <line class="cls-10" x1="1083.82" y1="361.06" x2="1127.85" y2="353.19"/>
        <line class="cls-10" x1="1127.85" y1="353.19" x2="1111.96" y2="340.73"/>
        <line class="cls-10" x1="1111.96" y1="340.73" x2="1083.82" y2="361.06"/>
        <line class="cls-10" x1="1083.26" y1="360.55" x2="1099.57" y2="333.83"/>
        <line class="cls-10" x1="1083.26" y1="360.55" x2="1051.63" y2="351.84"/>
        <line class="cls-10" x1="1051.63" y1="351.84" x2="1099.57" y2="333.83"/>
        <line class="cls-10" x1="1051.08" y1="351.59" x2="1017.85" y2="336.33"/>
        <polyline class="cls-10" points="1189.98 254.81 1189.96 254.79 1185.47 248.44 1185.41 248.32"/>
        <polyline class="cls-10" points="1187.91 259.52 1173.96 258.31 1163.73 257.4"/>
        <line class="cls-10" x1="1163.73" y1="257.4" x2="1186.04" y2="263.69"/>
        <line class="cls-10" x1="1186.08" y1="263.71" x2="1187.91" y2="259.52"/>
        <polyline class="cls-10" points="1142.87 248.61 1164.04 243.21 1164.06 243.21"/>
        <line class="cls-10" x1="1135.35" y1="250.54" x2="1142.87" y2="248.63"/>
        <line class="cls-10" x1="1152.44" y1="258.22" x2="1163.41" y2="270.34"/>
        <line class="cls-10" x1="949.78" y1="371.66" x2="934.05" y2="390.84"/>
        <polyline class="cls-10" points="934.05 390.84 928.69 412.34 928.38 413.62"/>
        <line class="cls-10" x1="928.38" y1="413.62" x2="920.93" y2="419.59"/>
        <line class="cls-10" x1="933.54" y1="420.5" x2="940.69" y2="417.4"/>
        <line class="cls-10" x1="940.69" y1="417.4" x2="928.38" y2="413.62"/>
        <line class="cls-10" x1="940.69" y1="417.4" x2="943.38" y2="405.9"/>
        <line class="cls-10" x1="943.38" y1="405.9" x2="953.99" y2="388.27"/>
        <line class="cls-10" x1="953.99" y1="388.27" x2="983.65" y2="380.41"/>
        <line class="cls-10" x1="983.65" y1="380.41" x2="1009.96" y2="357.34"/>
        <line class="cls-10" x1="1009.96" y1="357.34" x2="1017.85" y2="336.33"/>
        <polyline class="cls-10" points="947.57 357.1 955.99 354.32 968.43 350.19"/>
        <line class="cls-10" x1="968.43" y1="350.19" x2="991.11" y2="337.71"/>
        <line class="cls-10" x1="991.11" y1="337.71" x2="1017.85" y2="336.33"/>
        <line class="cls-10" x1="863.85" y1="360.22" x2="870.01" y2="366.26"/>
        <line class="cls-10" x1="870.01" y1="366.26" x2="879.58" y2="359.75"/>
        <polyline class="cls-10" points="879.58 359.75 893.71 354.92 893.71 354.9 894.7 354.57"/>
        <line class="cls-10" x1="894.7" y1="354.57" x2="913.31" y2="351.84"/>
        <line class="cls-10" x1="913.31" y1="351.84" x2="936.87" y2="355.29"/>
        <line class="cls-10" x1="936.87" y1="355.29" x2="947.57" y2="357.1"/>
        <line class="cls-10" x1="863.85" y1="360.22" x2="880.92" y2="340.54"/>
        <polyline class="cls-10" points="880.92 340.54 904.76 331.03 907.54 329.92"/>
        <line class="cls-10" x1="907.54" y1="329.92" x2="930.13" y2="319.1"/>
        <line class="cls-10" x1="930.13" y1="319.1" x2="944.94" y2="293.26"/>
        <line class="cls-10" x1="944.94" y1="293.26" x2="914.13" y2="294.12"/>
        <line class="cls-10" x1="914.13" y1="294.12" x2="920.02" y2="290.06"/>
        <line class="cls-10" x1="920.02" y1="290.06" x2="889.89" y2="277.12"/>
        <line class="cls-10" x1="889.89" y1="277.12" x2="898.01" y2="276.73"/>
        <line class="cls-10" x1="898.01" y1="276.73" x2="884.62" y2="246.48"/>
        <line class="cls-10" x1="884.62" y1="246.48" x2="894.84" y2="250.91"/>
        <polyline class="cls-10" points="894.84 250.91 894.43 249.45 886.4 220.95"/>
        <line class="cls-10" x1="886.4" y1="220.95" x2="897.04" y2="229.9"/>
        <line class="cls-10" x1="897.04" y1="229.9" x2="906.69" y2="245.04"/>
        <line class="cls-10" x1="906.69" y1="245.04" x2="920.64" y2="260.24"/>
        <line class="cls-10" x1="920.64" y1="260.24" x2="940.52" y2="266.11"/>
        <line class="cls-10" x1="940.52" y1="266.11" x2="967.26" y2="267.61"/>
        <line class="cls-10" x1="967.26" y1="267.61" x2="977.84" y2="266.4"/>
        <line class="cls-10" x1="944.94" y1="293.26" x2="954.67" y2="275.76"/>
        <polyline class="cls-10" points="954.67 275.76 955.08 275.6 955.58 275.39 977.84 266.4"/>
        <line class="cls-10" x1="977.84" y1="266.4" x2="999.84" y2="270.24"/>
        <line class="cls-10" x1="999.84" y1="270.24" x2="1027.77" y2="279.34"/>
        <line class="cls-10" x1="1027.77" y1="279.34" x2="1052.19" y2="280.73"/>
        <polyline class="cls-10" points="1052.19 280.73 1065.38 276.89 1065.74 276.79"/>
        <polyline class="cls-10" points="1065.74 276.79 1066.42 277.59 1107.38 325.61"/>
        <line class="cls-10" x1="1107.38" y1="325.61" x2="1092.65" y2="330.31"/>
        <line class="cls-10" x1="1080.35" y1="319.57" x2="1107.38" y2="325.61"/>
        <polyline class="cls-10" points="1051.63 351.84 1059.23 343.29 1080.35 319.57"/>
        <line class="cls-10" x1="1080.35" y1="319.57" x2="1023.31" y2="300.2"/>
        <polyline class="cls-10" points="1023.31 300.2 1065.46 276.95 1065.74 276.79"/>
        <polyline class="cls-10" points="1065.74 276.79 1065.89 277.24 1080.35 319.57"/>
        <line class="cls-10" x1="1023.31" y1="300.2" x2="1027.77" y2="279.34"/>
        <line class="cls-10" x1="1023.31" y1="300.2" x2="1059.23" y2="343.29"/>
        <polyline class="cls-10" points="1051.08 351.59 1039.64 330.42 1023.31 300.2"/>
        <line class="cls-10" x1="1017.85" y1="336.33" x2="1039.64" y2="330.42"/>
        <polyline class="cls-10" points="1023.31 300.2 1022.57 301.07 991.11 337.71"/>
        <line class="cls-10" x1="1017.85" y1="336.33" x2="1023.05" y2="301.48"/>
        <polyline class="cls-10" points="991.11 337.71 1009 356.34 1009.96 357.34"/>
        <polyline class="cls-10" points="983.65 380.41 982.97 379.05 968.43 350.19"/>
        <line class="cls-10" x1="968.43" y1="350.19" x2="1008.52" y2="356.79"/>
        <line class="cls-10" x1="956.17" y1="354.9" x2="981.99" y2="379.54"/>
        <line class="cls-10" x1="953.99" y1="388.27" x2="956.17" y2="354.9"/>
        <line class="cls-10" x1="949.78" y1="371.66" x2="953.99" y2="388.27"/>
        <line class="cls-10" x1="953.99" y1="388.27" x2="934.05" y2="390.84"/>
        <line class="cls-10" x1="934.05" y1="390.84" x2="943.38" y2="405.9"/>
        <line class="cls-10" x1="943.38" y1="405.9" x2="928.69" y2="412.34"/>
        <line class="cls-10" x1="920.93" y1="419.59" x2="933.54" y2="420.5"/>
        <line class="cls-10" x1="933.54" y1="420.5" x2="928.38" y2="413.62"/>
        <line class="cls-10" x1="863.85" y1="360.22" x2="856.58" y2="365.91"/>
        <line class="cls-10" x1="856.58" y1="365.91" x2="870.01" y2="366.26"/>
        <line class="cls-10" x1="870.01" y1="366.26" x2="880.92" y2="340.54"/>
        <line class="cls-10" x1="880.92" y1="340.54" x2="879.58" y2="359.75"/>
        <line class="cls-10" x1="879.58" y1="359.75" x2="904.76" y2="331.03"/>
        <line class="cls-10" x1="893.57" y1="354.51" x2="904.76" y2="331.03"/>
        <line class="cls-10" x1="904.76" y1="331.03" x2="913.31" y2="351.84"/>
        <line class="cls-10" x1="913.31" y1="351.84" x2="949.52" y2="333.33"/>
        <line class="cls-10" x1="949.52" y1="333.33" x2="947.57" y2="357.1"/>
        <line class="cls-10" x1="949.52" y1="333.33" x2="930.13" y2="319.1"/>
        <line class="cls-10" x1="949.52" y1="333.33" x2="991.11" y2="337.71"/>
        <polyline class="cls-10" points="949.52 333.33 955.08 275.6 955.08 275.5 955.17 274.7"/>
        <polyline class="cls-10" points="955.17 274.7 955.47 275.25 955.58 275.39 991.11 337.71"/>
        <line class="cls-10" x1="991.11" y1="337.71" x2="977.84" y2="266.4"/>
        <line class="cls-10" x1="977.84" y1="266.4" x2="1023.31" y2="300.2"/>
        <line class="cls-10" x1="1023.31" y1="300.2" x2="999.84" y2="270.24"/>
        <line class="cls-10" x1="954.67" y1="275.76" x2="940.52" y2="266.11"/>
        <polyline class="cls-10" points="954.67 275.76 955.08 275.5 955.47 275.25 967.26 267.61"/>
        <line class="cls-10" x1="954.67" y1="275.76" x2="920.02" y2="290.06"/>
        <line class="cls-10" x1="920.02" y1="290.06" x2="898.01" y2="276.73"/>
        <line class="cls-10" x1="898.01" y1="276.73" x2="920.64" y2="260.24"/>
        <line class="cls-10" x1="920.64" y1="260.24" x2="920.02" y2="290.06"/>
        <line class="cls-10" x1="920.02" y1="290.06" x2="940.52" y2="266.11"/>
        <line class="cls-10" x1="920.64" y1="260.24" x2="894.84" y2="250.91"/>
        <line class="cls-10" x1="894.84" y1="250.91" x2="898.01" y2="276.73"/>
        <line class="cls-10" x1="894.9" y1="249.33" x2="906.69" y2="245.04"/>
        <line class="cls-10" x1="894.9" y1="249.33" x2="897.04" y2="229.9"/>
        <polyline class="cls-10" points="1132.27 240.52 1132.29 240.54 1142.87 248.63"/>
        <line class="cls-10" x1="1164.06" y1="243.21" x2="1187.91" y2="259.52"/>
        <polyline class="cls-10" points="1142.87 248.63 1142.87 248.61 1145.52 241.65"/>
        <polyline class="cls-10" points="1186.08 263.71 1186.04 263.69 1173.96 258.31"/>
        <line class="cls-10" x1="1183.86" y1="342.99" x2="1194.99" y2="346.17"/>
        <line class="cls-10" x1="1194.99" y1="346.17" x2="1187.72" y2="349.35"/>
        <line class="cls-10" x1="1167.99" y1="371.19" x2="1177.82" y2="379.89"/>
        <line class="cls-10" x1="1177.82" y1="379.89" x2="1176.78" y2="368.93"/>
        <polygon class="cls-7" points="1192.14 249.41 1189.96 254.79 1185.44 247.87 1192.14 249.41"/>
        <polygon class="cls-5" points="1185.4 247.83 1189.96 254.79 1187.91 259.52 1164.06 243.21 1164.06 243.19 1185.4 247.83"/>
        <polygon class="cls-12" points="1187.91 259.52 1186.08 263.71 1186.04 263.69 1173.96 258.31 1187.91 259.52"/>
        <polygon class="cls-4" points="1187.91 259.52 1173.96 258.31 1163.73 257.4 1163.71 257.4 1164.06 243.21 1187.91 259.52"/>
        <polygon class="cls-4" points="1186.08 263.71 1163.41 270.34 1163.71 257.4 1163.73 257.4 1186.04 263.69 1186.08 263.71"/>
        <polygon class="cls-12" points="1186.04 263.69 1163.73 257.4 1173.96 258.31 1186.04 263.69"/>
        <polygon class="cls-12" points="1194.99 346.17 1187.72 349.35 1183.86 342.99 1194.99 346.17"/>
        <polygon class="cls-1" points="1183.86 342.99 1187.72 349.35 1164.68 345.84 1183.86 342.99"/>
        <polygon class="cls-10" points="1183.86 342.99 1164.68 345.84 1164.72 336.15 1183.86 342.99"/>
        <polygon class="cls-12" points="1176.78 368.93 1177.82 379.89 1167.99 371.19 1176.78 368.93"/>
        <polygon class="cls-12" points="1176.78 368.93 1167.99 371.19 1165.6 358.06 1176.78 368.93"/>
        <polygon class="cls-10" points="1164.06 243.21 1163.71 257.4 1163.41 270.34 1152.44 258.22 1164.04 243.21 1164.06 243.21"/>
        <polygon class="cls-4" points="1146.32 234.07 1164.04 243.21 1145.52 241.65 1132.29 240.54 1132.27 240.52 1132.23 240.54 1104.46 238.2 1121.26 234.58 1139.64 230.64 1146.32 234.07"/>
        <polygon class="cls-5" points="1164.04 243.21 1152.44 258.22 1141.94 271.8 1141.9 271.76 1135.35 250.54 1142.87 248.63 1142.87 248.61 1164.04 243.21"/>
        <polygon class="cls-10" points="1164.04 243.21 1142.87 248.61 1145.52 241.65 1164.04 243.21"/>
        <polygon class="cls-7" points="1163.41 198.54 1146.32 234.07 1141.06 208.83 1141.06 208.73 1163.41 198.54"/>
        <polygon class="cls-4" points="1152.44 258.22 1163.41 270.34 1133.71 282.44 1141.94 271.8 1152.44 258.22"/>
        <polygon class="cls-2" points="1165.6 358.06 1167.99 371.19 1157.04 365 1165.05 358.31 1165.09 358 1165.6 358.06"/>
        <polygon class="cls-1" points="1165.09 358 1165.05 358.31 1157.04 365 1156.75 364.78 1144.76 351.18 1165.09 358"/>
        <polygon class="cls-2" points="1164.72 336.15 1164.68 345.84 1164.15 345.57 1145.8 336.52 1145.27 336.25 1164.72 336.15"/>
        <polygon class="cls-7" points="1164.15 345.57 1146.17 350.77 1146.07 350.44 1145.66 337.38 1145.52 336.91 1145.62 336.89 1145.8 336.52 1164.15 345.57"/>
        <polygon class="cls-7" points="1156.75 364.78 1156.4 365.21 1118.04 362.25 1127.85 353.19 1144.76 351.18 1156.75 364.78"/>
        <polygon class="cls-10" points="1141.06 208.83 1146.32 234.07 1139.64 230.64 1141.06 208.83"/>
        <polygon class="cls-2" points="1145.52 241.65 1142.87 248.61 1142.87 248.63 1132.29 240.54 1145.52 241.65"/>
        <polygon class="cls-8" points="1142.87 248.63 1135.35 250.54 1132.27 240.54 1132.29 240.54 1142.87 248.63"/>
        <polygon class="cls-7" points="1142.39 188.19 1141.06 208.73 1141.04 208.75 1141.06 208.83 1139.64 230.64 1121.26 234.58 1142.39 188.19"/>
        <polygon class="cls-10" points="1142.39 188.19 1121.26 234.58 1104.46 238.2 1104.15 237.95 1142.39 188.19"/>
        <polygon class="cls-9" points="1035.69 257.14 1039.58 266.57 1022.07 257.29 1011.5 251.69 1019.24 253.44 1035.65 257.15 1035.69 257.14"/>
        <polygon class="cls-5" points="1146.07 350.44 1146.17 350.77 1145.15 351.08 1112.26 340.27 1112.47 339.45 1112.51 339.47 1145.52 336.91 1145.66 337.38 1146.07 350.44"/>
        <polygon class="cls-10" points="1145.8 336.52 1145.62 336.89 1145.52 336.91 1112.51 339.47 1112.47 339.45 1115.26 328.24 1145.27 336.25 1145.8 336.52"/>
        <polygon class="cls-4" points="1112.26 340.27 1145.15 351.08 1144.76 351.18 1127.85 353.19 1111.96 340.73 1112.26 340.27"/>
        <polygon class="cls-2" points="1132.8 256.31 1133.71 282.44 1116.8 292.77 1132.8 256.31"/>
        <polygon class="cls-5" points="1133.71 282.44 1122.9 307.39 1116.8 292.77 1133.71 282.44"/>
        <polygon class="cls-12" points="1132.27 240.54 1132.8 256.31 1109.92 258.08 1109.9 258.08 1082.83 260.17 1132.23 240.54 1132.27 240.54"/>
        <polygon class="cls-4" points="1132.8 256.31 1116.8 292.77 1109.92 258.08 1132.8 256.31"/>
        <polygon class="cls-9" points="1132.23 240.54 1082.83 260.17 1082.32 260.38 1082.24 260.13 1082.24 260.11 1104.03 238.12 1104.15 237.95 1104.46 238.2 1132.23 240.54"/>
        <polygon class="cls-1" points="1127.85 353.19 1118.04 362.25 1083.82 361.06 1127.85 353.19"/>
        <polygon class="cls-7" points="1127.85 353.19 1083.82 361.06 1111.96 340.73 1127.85 353.19"/>
        <polygon class="cls-4" points="1122.9 307.39 1123.58 315.44 1114.69 309.55 1066.42 277.59 1065.74 276.79 1066.07 276.46 1089.1 283.86 1116.8 292.77 1122.9 307.39"/>
        <polygon class="cls-5" points="1123.58 315.44 1115.26 328.24 1114.69 309.55 1123.58 315.44"/>
        <polygon class="cls-12" points="1109.92 258.08 1116.8 292.77 1089.1 283.86 1089.1 283.85 1109.92 258.08"/>
        <polygon class="cls-2" points="1114.69 309.55 1115.26 328.24 1102.88 335.51 1107.38 325.61 1114.69 309.55"/>
        <polygon class="cls-7" points="1115.26 328.24 1112.47 339.45 1112.26 340.27 1102.88 335.51 1115.26 328.24"/>
        <polygon class="cls-5" points="1114.69 309.55 1107.38 325.61 1066.42 277.59 1114.69 309.55"/>
        <polygon class="cls-4" points="1112.26 340.27 1111.96 340.73 1083.82 361.06 1083.26 360.55 1099.57 333.83 1102.88 335.51 1112.26 340.27"/>
        <polygon class="cls-10" points="1109.92 258.08 1089.1 283.85 1084.75 268.88 1109.9 258.08 1109.92 258.08"/>
        <polygon class="cls-2" points="1109.9 258.08 1084.75 268.88 1082.32 260.38 1082.83 260.17 1109.9 258.08"/>
        <polygon class="cls-6" points="1107.38 325.61 1102.88 335.51 1099.57 333.83 1092.65 330.31 1107.38 325.61"/>
        <polygon class="cls-7" points="1066.42 277.59 1107.38 325.61 1080.35 319.57 1065.89 277.24 1066.42 277.59"/>
        <polygon class="cls-7" points="885.18 296.62 920.3 307.28 905.17 312.8 892.17 297.1 885.18 296.62"/>
        <polygon class="cls-5" points="1107.38 325.61 1092.65 330.31 1080.35 319.57 1107.38 325.61"/>
        <polygon class="cls-5" points="1099.57 333.83 1083.26 360.55 1051.63 351.84 1099.57 333.83"/>
        <polygon class="cls-7" points="1099.57 333.83 1051.63 351.84 1059.23 343.29 1080.35 319.57 1092.65 330.31 1099.57 333.83"/>
        <polygon class="cls-5" points="1065.89 277.24 1080.35 319.57 1023.31 300.2 1065.46 276.95 1065.89 277.24"/>
        <polygon class="cls-12" points="1080.35 319.57 1059.23 343.29 1023.31 300.2 1080.35 319.57"/>
        <polygon class="cls-1" points="1065.38 276.89 1065.46 276.95 1023.31 300.2 1027.77 279.34 1052.19 280.73 1065.38 276.89"/>
        <polygon class="cls-12" points="809.32 333.64 857.36 339.36 857.66 349.21 857.17 349.39 837.45 342.9 809.32 333.64"/>
        <polygon class="cls-5" points="1039.64 330.42 1051.08 351.59 1017.85 336.33 1039.64 330.42"/>
        <polygon class="cls-7" points="1023.31 300.2 1039.64 330.42 1017.85 336.33 1023.05 301.48 1022.57 301.07 1023.31 300.2"/>
        <polygon class="cls-12" points="1027.77 279.34 1023.31 300.2 999.84 270.24 1027.77 279.34"/>
        <polygon class="cls-12" points="999.84 270.24 1023.31 300.2 977.84 266.4 999.84 270.24"/>
        <polygon class="cls-4" points="1023.31 300.2 1022.57 301.07 991.11 337.71 977.84 266.4 1023.31 300.2"/>
        <polygon class="cls-9" points="1023.05 301.48 1017.85 336.33 991.11 337.71 1022.57 301.07 1023.05 301.48"/>
        <polygon class="cls-7" points="1017.85 336.33 1009.96 357.34 1009 356.34 991.11 337.71 1017.85 336.33"/>
        <polygon class="cls-4" points="1009 356.34 1009.96 357.34 983.65 380.41 982.97 379.05 968.43 350.19 1008.52 356.79 1009 356.34"/>
        <polygon class="cls-12" points="1009 356.34 1008.52 356.79 968.43 350.19 991.11 337.71 1009 356.34"/>
        <polygon class="cls-12" points="977.84 266.4 991.11 337.71 955.58 275.39 977.84 266.4"/>
        <polygon class="cls-8" points="955.58 275.39 991.11 337.71 949.52 333.33 955.08 275.6 955.58 275.39"/>
        <polygon class="cls-5" points="991.11 337.71 968.43 350.19 955.99 354.32 947.57 357.1 949.52 333.33 991.11 337.71"/>
        <polygon class="cls-2" points="982.97 379.05 983.65 380.41 953.99 388.27 956.17 354.9 982.97 379.05 982.97 379.05"/>
        <polygon class="cls-7" points="968.43 350.19 982.97 379.05 983.65 380.41 956.17 354.9 955.99 354.32 968.43 350.19"/>
        <polygon class="cls-8" points="977.84 266.4 955.58 275.39 955.47 275.25 967.26 267.61 977.84 266.4"/>
        <polygon class="cls-8" points="967.26 267.61 955.47 275.25 955.17 274.7 955.08 275.5 954.67 275.76 940.52 266.11 967.26 267.61"/>
        <polygon class="cls-12" points="904.1 359.04 926.83 367.43 914.42 366.93 904.1 359.04"/>
        <polygon class="cls-4" points="955.08 275.6 949.52 333.33 930.13 319.1 944.94 293.26 954.67 275.76 955.08 275.6"/>
        <polygon class="cls-7" points="954.67 275.76 944.94 293.26 914.13 294.12 920.02 290.06 954.67 275.76"/>
        <polygon class="cls-12" points="954.67 275.76 920.02 290.06 940.52 266.11 954.67 275.76"/>
        <polygon class="cls-2" points="949.78 371.66 953.99 388.27 934.05 390.84 949.78 371.66"/>
        <polygon class="cls-12" points="953.99 388.27 943.38 405.9 934.05 390.84 953.99 388.27"/>
        <polygon class="cls-7" points="949.52 333.33 947.57 357.1 936.87 355.29 913.31 351.84 949.52 333.33"/>
        <polygon class="cls-4" points="934.05 390.84 943.38 405.9 928.69 412.34 934.05 390.84"/>
        <polygon class="cls-12" points="943.38 405.9 940.69 417.4 928.38 413.62 928.69 412.34 943.38 405.9"/>
        <polygon class="cls-7" points="940.69 417.4 933.54 420.5 928.38 413.62 940.69 417.4"/>
        <polygon class="cls-8" points="940.52 266.11 920.02 290.06 920.64 260.24 940.52 266.11"/>
        <polygon class="cls-12" points="928.38 413.62 933.54 420.5 920.93 419.59 928.38 413.62"/>
        <polygon class="cls-8" points="906.69 245.04 920.64 260.24 894.84 250.91 894.43 249.45 894.9 249.33 906.69 245.04"/>
        <polygon class="cls-4" points="920.64 260.24 920.02 290.06 898.01 276.73 920.64 260.24"/>
        <polygon class="cls-12" points="920.64 260.24 898.01 276.73 894.84 250.91 920.64 260.24"/>
        <polygon class="cls-7" points="920.02 290.06 889.89 277.12 898.01 276.73 920.02 290.06"/>
        <polygon class="cls-7" points="904.76 331.03 913.31 351.84 894.7 354.57 893.71 354.9 893.57 354.51 904.76 331.03"/>
        <polygon class="cls-12" points="897.04 229.9 906.69 245.04 894.9 249.33 897.04 229.9"/>
        <polygon class="cls-8" points="904.76 331.03 893.57 354.51 893.71 354.9 893.71 354.92 879.58 359.75 904.76 331.03"/>
        <polygon class="cls-2" points="904.76 331.03 879.58 359.75 880.92 340.54 904.76 331.03"/>
        <polygon class="cls-7" points="894.84 250.91 898.01 276.73 884.62 246.48 894.84 250.91"/>
        <polygon class="cls-7" points="897.04 229.9 894.9 249.33 894.43 249.45 886.4 220.95 897.04 229.9"/>
        <polygon class="cls-8" points="880.92 340.54 879.58 359.75 870.01 366.26 880.92 340.54"/>
        <polygon class="cls-7" points="880.92 340.54 870.01 366.26 863.85 360.22 880.92 340.54"/>
        <polygon class="cls-2" points="870.01 366.26 856.58 365.91 863.85 360.22 870.01 366.26"/>
        <polyline class="cls-7" points="856.58 365.91 853.48 358.52 863.85 360.22"/>
        <polyline class="cls-7" points="920.93 419.59 916.43 417.4 928.38 413.62"/>
        <polygon class="cls-10" points="904.76 331.03 949.52 333.33 913.31 351.84 904.76 331.03"/>
        <polygon class="cls-12" points="930.13 319.1 949.52 333.33 904.76 331.03 930.13 319.1"/>
        <line class="cls-9" x1="1076.04" y1="272.57" x2="1075.82" y2="272.37"/>
        <polygon class="cls-4" points="1084.77 268.88 1076.04 272.6 1066.51 276.63 1066.33 276.56 1074.36 268.27 1084.75 268.84 1084.77 268.88"/>
        <polygon class="cls-8" points="1082.57 267.84 1072.18 267.26 1080.07 259.13 1082.57 267.84"/>
        <polygon class="cls-6" points="1089.11 283.88 1076.04 272.6 1084.77 268.88 1089.11 283.88"/>
        <polygon class="cls-12" points="1089.11 283.88 1066.51 276.63 1076.04 272.6 1089.11 283.88"/>
        <g>
          <polyline class="cls-13" points="1123.58 315.44 1065.46 276.95 760.45 198.27 733.36 196.54 712.67 195.02"/>
          <polyline class="cls-13" points="1115.26 328.24 1107.38 325.61 1065.46 276.95"/>
        </g>
      </g>
    </g>
  </g>
</svg>