<?xml version="1.0" encoding="UTF-8"?>
<svg id="Capa_2" data-name="Capa 2" xmlns="http://www.w3.org/2000/svg" viewBox="0 0 577.83 201.66">
  <defs>
    <style>
      .cls-1 {
        fill: #6a7624;
      }

      .cls-1, .cls-2, .cls-3, .cls-4, .cls-5, .cls-6, .cls-7, .cls-8, .cls-9, .cls-10, .cls-11 {
        stroke-width: 0px;
      }

      .cls-2 {
        fill: #6d7822;
      }

      .cls-3 {
        fill: #4d4d4d;
      }

      .cls-4 {
        fill: #848c30;
      }

      .cls-5 {
        fill: #6e7924;
      }

      .cls-6 {
        fill: #545a2c;
      }

      .cls-7 {
        fill: #414717;
      }

      .cls-8 {
        fill: #939d4e;
      }

      .cls-9 {
        fill: #abb052;
      }

      .cls-10 {
        fill: #a1a150;
      }

      .cls-12 {
        fill: none;
        stroke: #222221;
        stroke-miterlimit: 10;
      }

      .cls-11 {
        fill: #5f6818;
      }
    </style>
  </defs>
  <g id="triangulos">
    <g>
      <g>
        <path class="cls-3" d="M98.8,87.14h-9.27c-3.19,0-5.55-.63-7.07-1.9-1.52-1.27-2.28-3.22-2.28-5.85v-11.82c0-2.66.76-4.62,2.28-5.89s3.88-1.9,7.07-1.9h9.27c.91,0,1.37.46,1.37,1.37v4.6c0,.91-.46,1.37-1.37,1.37h-7.64c-1.55,0-2.32.63-2.32,1.9v9.04c0,1.22.77,1.82,2.32,1.82h7.64c.91,0,1.37.46,1.37,1.37v4.52c0,.91-.46,1.37-1.37,1.37Z"/>
        <path class="cls-3" d="M112.21,85.77c0,.91-.46,1.37-1.37,1.37h-5.59c-.91,0-1.37-.46-1.37-1.37v-10.03c0-.76.12-1.63.36-2.62.24-.99.61-2.14,1.12-3.46l3.31-8.63c.28-.84.92-1.25,1.94-1.25h10.22c.99,0,1.62.42,1.9,1.25l3.31,8.63c.51,1.32.88,2.47,1.12,3.46.24.99.36,1.86.36,2.62v10.03c0,.91-.46,1.37-1.37,1.37h-5.74c-.99,0-1.48-.46-1.48-1.37v-5.32h-6.73v5.32ZM114.38,67.76l-1.79,5.78h5.97l-1.79-5.78c-.18-.43-.42-.65-.72-.65h-.95c-.3,0-.55.22-.72.65Z"/>
        <path class="cls-3" d="M139.27,87.14h-5.7c-.91,0-1.37-.46-1.37-1.37v-24.62c0-.91.46-1.37,1.37-1.37h3.95c.91,0,1.66.34,2.24,1.03l7.37,8.44v-8.09c0-.91.46-1.37,1.37-1.37h5.7c.91,0,1.37.46,1.37,1.37v24.62c0,.91-.46,1.37-1.37,1.37h-5.7c-.91,0-1.37-.46-1.37-1.37v-4.67l-6.5-7.87v12.54c0,.91-.46,1.37-1.37,1.37Z"/>
        <path class="cls-3" d="M161.57,87.14c-.91,0-1.37-.46-1.37-1.37v-4.52c0-.91.46-1.37,1.37-1.37h3.76v-12.77h-3.76c-.91,0-1.37-.46-1.37-1.37v-4.6c0-.91.46-1.37,1.37-1.37h16.19c.91,0,1.37.46,1.37,1.37v4.6c0,.91-.46,1.37-1.37,1.37h-3.69v12.77h3.69c.91,0,1.37.46,1.37,1.37v4.52c0,.91-.46,1.37-1.37,1.37h-16.19Z"/>
        <path class="cls-3" d="M202.01,87.14h-9.27c-3.19,0-5.55-.63-7.07-1.9-1.52-1.27-2.28-3.22-2.28-5.85v-11.82c0-2.66.76-4.62,2.28-5.89s3.88-1.9,7.07-1.9h9.27c.91,0,1.37.46,1.37,1.37v4.6c0,.91-.46,1.37-1.37,1.37h-7.64c-1.55,0-2.32.63-2.32,1.9v9.04c0,1.22.77,1.82,2.32,1.82h7.64c.91,0,1.37.46,1.37,1.37v4.52c0,.91-.46,1.37-1.37,1.37Z"/>
        <path class="cls-3" d="M214.89,87.14h-5.85c-.91,0-1.37-.46-1.37-1.37v-24.62c0-.91.46-1.37,1.37-1.37h12.65c1.9,0,3.39.27,4.48.8,1.09.53,1.86,1.27,2.32,2.22.46.95.68,2.06.68,3.33v1.75c0,1.06-.15,1.96-.46,2.7-.3.74-.86,1.28-1.67,1.63,1.39.15,2.51.71,3.34,1.67.84.96,1.25,2.24,1.25,3.84v8.06c0,.91-.46,1.37-1.37,1.37h-5.89c-.91,0-1.37-.46-1.37-1.37v-5.81c0-.58-.11-1-.32-1.25-.22-.25-.59-.38-1.12-.38h-5.32v7.45c0,.91-.46,1.37-1.37,1.37ZM216.26,66.62v4.86h2.85c.66,0,1.1-.17,1.33-.51s.34-.77.34-1.27v-1.29c0-.51-.11-.93-.34-1.27s-.67-.51-1.33-.51h-2.85Z"/>
        <path class="cls-3" d="M258.89,79.96c0,1.17-.17,2.22-.51,3.17-.34.95-.94,1.77-1.81,2.45-.86.68-2.06,1.21-3.59,1.58-1.53.37-3.49.55-5.87.55s-4.34-.18-5.87-.55c-1.53-.37-2.73-.89-3.59-1.58-.86-.68-1.47-1.5-1.82-2.45-.35-.95-.53-2.01-.53-3.17v-12.96c0-1.17.18-2.22.53-3.17.35-.95.96-1.77,1.82-2.45.86-.68,2.06-1.22,3.59-1.6s3.49-.57,5.87-.57,4.34.19,5.87.57c1.53.38,2.73.91,3.59,1.6.86.68,1.46,1.5,1.81,2.45.34.95.51,2.01.51,3.17v12.96ZM243.92,78.59c0,.51.19.93.57,1.27.38.34,1.25.51,2.62.51s2.27-.17,2.64-.51c.37-.34.55-.77.55-1.27v-10.22c0-.51-.18-.92-.55-1.25-.37-.33-1.25-.49-2.64-.49s-2.24.17-2.62.49c-.38.33-.57.75-.57,1.25v10.22Z"/>
        <path class="cls-3" d="M276.41,87.14h-12.01c-.91,0-1.37-.46-1.37-1.37v-4.45c0-.91.46-1.37,1.37-1.37h10.22c.33,0,.58-.11.74-.32.16-.21.25-.48.25-.78,0-.43-.08-.75-.25-.95-.17-.2-.41-.32-.74-.34l-5.7-.8c-1.77-.28-3.2-.87-4.27-1.77-1.08-.9-1.62-2.41-1.62-4.54v-3.99c0-2.18.7-3.84,2.09-4.98,1.39-1.14,3.32-1.71,5.78-1.71h10.64c.91,0,1.37.46,1.37,1.37v4.52c0,.91-.46,1.37-1.37,1.37h-8.85c-.68,0-1.03.38-1.03,1.14s.34,1.14,1.03,1.22l5.66.76c1.19.18,2.23.49,3.12.93.89.44,1.58,1.1,2.07,1.96s.74,2,.74,3.42v3.99c0,2.15-.7,3.81-2.09,4.96-1.39,1.15-3.32,1.73-5.78,1.73Z"/>
        <path class="cls-3" d="M300.92,87.14h-12.01c-.91,0-1.37-.46-1.37-1.37v-4.45c0-.91.46-1.37,1.37-1.37h10.22c.33,0,.58-.11.74-.32.16-.21.25-.48.25-.78,0-.43-.08-.75-.25-.95-.17-.2-.41-.32-.74-.34l-5.7-.8c-1.77-.28-3.2-.87-4.27-1.77-1.08-.9-1.62-2.41-1.62-4.54v-3.99c0-2.18.7-3.84,2.09-4.98,1.39-1.14,3.32-1.71,5.78-1.71h10.64c.91,0,1.37.46,1.37,1.37v4.52c0,.91-.46,1.37-1.37,1.37h-8.85c-.68,0-1.03.38-1.03,1.14s.34,1.14,1.03,1.22l5.66.76c1.19.18,2.23.49,3.12.93.89.44,1.58,1.1,2.07,1.96s.74,2,.74,3.42v3.99c0,2.15-.7,3.81-2.09,4.96-1.39,1.15-3.32,1.73-5.78,1.73Z"/>
        <path class="cls-3" d="M19,132.74H1.37c-.91,0-1.37-.46-1.37-1.37v-24.62c0-.91.46-1.37,1.37-1.37h17.63c.91,0,1.37.46,1.37,1.37v4.45c0,.91-.46,1.37-1.37,1.37h-10.49v2.93h7.41c.91,0,1.37.46,1.37,1.37v4.07c0,.91-.46,1.37-1.37,1.37h-7.41v3.27h10.49c.91,0,1.37.46,1.37,1.37v4.45c0,.91-.46,1.37-1.37,1.37Z"/>
        <path class="cls-3" d="M31.92,132.74h-5.7c-.91,0-1.37-.46-1.37-1.37v-24.62c0-.91.46-1.37,1.37-1.37h3.95c.91,0,1.66.34,2.24,1.03l7.37,8.44v-8.09c0-.91.46-1.37,1.37-1.37h5.7c.91,0,1.37.46,1.37,1.37v24.62c0,.91-.46,1.37-1.37,1.37h-5.7c-.91,0-1.37-.46-1.37-1.37v-4.67l-6.5-7.87v12.54c0,.91-.46,1.37-1.37,1.37Z"/>
        <path class="cls-3" d="M66.39,132.74h-6.16c-.91,0-1.37-.46-1.37-1.37v-18.66h-5.59c-.91,0-1.37-.46-1.37-1.37v-4.6c0-.91.46-1.37,1.37-1.37h20.06c.91,0,1.37.46,1.37,1.37v4.6c0,.91-.46,1.37-1.37,1.37h-5.59v18.66c0,.91-.46,1.37-1.37,1.37Z"/>
        <path class="cls-3" d="M85.61,132.74h-5.85c-.91,0-1.37-.46-1.37-1.37v-24.62c0-.91.46-1.37,1.37-1.37h12.65c1.9,0,3.39.27,4.48.8,1.09.53,1.86,1.27,2.32,2.22.46.95.68,2.06.68,3.33v1.75c0,1.06-.15,1.96-.46,2.7-.3.74-.86,1.28-1.67,1.63,1.39.15,2.51.71,3.34,1.67.84.96,1.25,2.24,1.25,3.84v8.06c0,.91-.46,1.37-1.37,1.37h-5.89c-.91,0-1.37-.46-1.37-1.37v-5.81c0-.58-.11-1-.32-1.25-.22-.25-.59-.38-1.12-.38h-5.32v7.45c0,.91-.46,1.37-1.37,1.37ZM86.98,112.22v4.86h2.85c.66,0,1.1-.17,1.33-.51s.34-.77.34-1.27v-1.29c0-.51-.11-.93-.34-1.27s-.67-.51-1.33-.51h-2.85Z"/>
        <path class="cls-3" d="M125.63,132.74h-17.63c-.91,0-1.37-.46-1.37-1.37v-24.62c0-.91.46-1.37,1.37-1.37h17.63c.91,0,1.37.46,1.37,1.37v4.45c0,.91-.46,1.37-1.37,1.37h-10.49v2.93h7.41c.91,0,1.37.46,1.37,1.37v4.07c0,.91-.46,1.37-1.37,1.37h-7.41v3.27h10.49c.91,0,1.37.46,1.37,1.37v4.45c0,.91-.46,1.37-1.37,1.37Z"/>
        <path class="cls-3" d="M144.17,132.74h-12.01c-.91,0-1.37-.46-1.37-1.37v-4.45c0-.91.46-1.37,1.37-1.37h10.22c.33,0,.58-.11.74-.32.16-.21.25-.48.25-.78,0-.43-.08-.75-.25-.95-.17-.2-.41-.32-.74-.34l-5.7-.8c-1.77-.28-3.2-.87-4.27-1.77-1.08-.9-1.62-2.41-1.62-4.54v-3.99c0-2.18.7-3.84,2.09-4.98,1.39-1.14,3.32-1.71,5.78-1.71h10.64c.91,0,1.37.46,1.37,1.37v4.52c0,.91-.46,1.37-1.37,1.37h-8.85c-.68,0-1.03.38-1.03,1.14s.34,1.14,1.03,1.22l5.66.76c1.19.18,2.23.49,3.12.93.89.44,1.58,1.1,2.07,1.96s.74,2,.74,3.42v3.99c0,2.15-.7,3.81-2.09,4.96-1.39,1.15-3.32,1.73-5.78,1.73Z"/>
        <path class="cls-3" d="M156.94,132.74c-.91,0-1.37-.46-1.37-1.37v-4.52c0-.91.46-1.37,1.37-1.37h3.76v-12.77h-3.76c-.91,0-1.37-.46-1.37-1.37v-4.6c0-.91.46-1.37,1.37-1.37h16.19c.91,0,1.37.46,1.37,1.37v4.6c0,.91-.46,1.37-1.37,1.37h-3.69v12.77h3.69c.91,0,1.37.46,1.37,1.37v4.52c0,.91-.46,1.37-1.37,1.37h-16.19Z"/>
        <path class="cls-3" d="M198.17,132.74h-17.63c-.91,0-1.37-.46-1.37-1.37v-24.62c0-.91.46-1.37,1.37-1.37h17.63c.91,0,1.37.46,1.37,1.37v4.45c0,.91-.46,1.37-1.37,1.37h-10.49v2.93h7.41c.91,0,1.37.46,1.37,1.37v4.07c0,.91-.46,1.37-1.37,1.37h-7.41v3.27h10.49c.91,0,1.37.46,1.37,1.37v4.45c0,.91-.46,1.37-1.37,1.37Z"/>
        <path class="cls-3" d="M211.24,132.74h-5.85c-.91,0-1.37-.46-1.37-1.37v-24.62c0-.91.46-1.37,1.37-1.37h12.65c1.9,0,3.39.27,4.48.8,1.09.53,1.86,1.27,2.32,2.22.46.95.68,2.06.68,3.33v1.75c0,1.06-.15,1.96-.46,2.7-.3.74-.86,1.28-1.67,1.63,1.39.15,2.51.71,3.34,1.67.84.96,1.25,2.24,1.25,3.84v8.06c0,.91-.46,1.37-1.37,1.37h-5.89c-.91,0-1.37-.46-1.37-1.37v-5.81c0-.58-.11-1-.32-1.25-.22-.25-.59-.38-1.12-.38h-5.32v7.45c0,.91-.46,1.37-1.37,1.37ZM212.61,112.22v4.86h2.85c.66,0,1.1-.17,1.33-.51s.34-.77.34-1.27v-1.29c0-.51-.11-.93-.34-1.27s-.67-.51-1.33-.51h-2.85Z"/>
        <path class="cls-3" d="M239.47,132.74h-5.85c-.91,0-1.37-.46-1.37-1.37v-24.62c0-.91.46-1.37,1.37-1.37h12.65c1.9,0,3.39.27,4.48.8,1.09.53,1.86,1.27,2.32,2.22.46.95.68,2.06.68,3.33v1.75c0,1.06-.15,1.96-.46,2.7-.3.74-.86,1.28-1.67,1.63,1.39.15,2.51.71,3.34,1.67.84.96,1.25,2.24,1.25,3.84v8.06c0,.91-.46,1.37-1.37,1.37h-5.89c-.91,0-1.37-.46-1.37-1.37v-5.81c0-.58-.11-1-.32-1.25-.22-.25-.59-.38-1.12-.38h-5.32v7.45c0,.91-.46,1.37-1.37,1.37ZM240.84,112.22v4.86h2.85c.66,0,1.1-.17,1.33-.51s.34-.77.34-1.27v-1.29c0-.51-.11-.93-.34-1.27s-.67-.51-1.33-.51h-2.85Z"/>
        <path class="cls-3" d="M268.24,131.37c0,.91-.46,1.37-1.37,1.37h-5.59c-.91,0-1.37-.46-1.37-1.37v-10.03c0-.76.12-1.63.36-2.62.24-.99.61-2.14,1.12-3.46l3.31-8.63c.28-.84.92-1.25,1.94-1.25h10.22c.99,0,1.62.42,1.9,1.25l3.31,8.63c.51,1.32.88,2.47,1.12,3.46.24.99.36,1.86.36,2.62v10.03c0,.91-.46,1.37-1.37,1.37h-5.74c-.99,0-1.48-.46-1.48-1.37v-5.32h-6.73v5.32ZM270.41,113.36l-1.79,5.78h5.97l-1.79-5.78c-.18-.43-.42-.65-.72-.65h-.95c-.3,0-.55.22-.72.65Z"/>
        <path class="cls-3" d="M300.92,132.74h-12.01c-.91,0-1.37-.46-1.37-1.37v-4.45c0-.91.46-1.37,1.37-1.37h10.22c.33,0,.58-.11.74-.32.16-.21.25-.48.25-.78,0-.43-.08-.75-.25-.95-.17-.2-.41-.32-.74-.34l-5.7-.8c-1.77-.28-3.2-.87-4.27-1.77-1.08-.9-1.62-2.41-1.62-4.54v-3.99c0-2.18.7-3.84,2.09-4.98,1.39-1.14,3.32-1.71,5.78-1.71h10.64c.91,0,1.37.46,1.37,1.37v4.52c0,.91-.46,1.37-1.37,1.37h-8.85c-.68,0-1.03.38-1.03,1.14s.34,1.14,1.03,1.22l5.66.76c1.19.18,2.23.49,3.12.93.89.44,1.58,1.1,2.07,1.96s.74,2,.74,3.42v3.99c0,2.15-.7,3.81-2.09,4.96-1.39,1.15-3.32,1.73-5.78,1.73Z"/>
      </g>
      <g>
        <polygon class="cls-11" points="352.96 48.07 344.06 48.33 357.74 38.53 352.96 48.07"/>
        <polygon class="cls-11" points="344.06 48.33 337.48 49.23 337.48 43.56 344.06 48.33"/>
        <polygon class="cls-5" points="344.06 48.33 357.74 38.53 337.48 43.56 344.06 48.33"/>
        <polygon class="cls-2" points="352.96 48.07 344.06 48.33 352.06 57.23 352.96 48.07"/>
        <polygon class="cls-4" points="352.96 48.07 357.74 38.53 352.06 57.23 352.96 48.07"/>
        <polygon class="cls-1" points="328.46 48.86 337.48 49.23 337.48 43.56 328.46 48.86"/>
        <polygon class="cls-11" points="328.46 48.86 337.48 49.23 328.21 52.37 328.46 48.86"/>
        <polygon class="cls-1" points="346.28 36.86 357.74 38.53 337.48 43.56 346.28 36.86"/>
        <polygon class="cls-4" points="346.28 36.86 338.68 37.21 337.48 43.56 346.28 36.86"/>
        <polygon class="cls-9" points="346.28 36.86 348.46 32.82 338.68 37.21 346.28 36.86"/>
        <polygon class="cls-8" points="331.16 44 338.68 37.21 337.48 43.56 331.16 44"/>
        <polygon class="cls-4" points="331.16 44 328.46 48.86 337.48 43.56 331.16 44"/>
        <polygon class="cls-9" points="331.16 44 327.79 42.19 338.68 37.21 331.16 44"/>
        <polygon class="cls-8" points="331.16 44 328.46 48.86 324.16 43.93 331.16 44"/>
        <polygon class="cls-4" points="346.28 36.86 357.74 38.53 348.46 32.82 346.28 36.86"/>
        <polygon class="cls-8" points="356.21 34.4 357.74 38.53 348.46 32.82 356.21 34.4"/>
        <polygon class="cls-9" points="356.21 34.4 356.56 31.83 348.46 32.82 356.21 34.4"/>
        <polygon class="cls-4" points="356.21 34.4 357.74 38.53 356.56 31.83 356.21 34.4"/>
        <polygon class="cls-1" points="358.38 47.85 357.74 38.53 352.06 57.23 358.38 47.85"/>
        <polygon class="cls-11" points="358.38 47.85 363.49 55.93 352.06 57.23 358.38 47.85"/>
        <polygon class="cls-4" points="347.86 64.96 344.06 48.33 352.06 57.23 347.86 64.96"/>
        <polygon class="cls-1" points="328.46 48.86 324.16 47.33 328.21 52.37 328.46 48.86"/>
        <polygon class="cls-4" points="328.46 48.86 324.16 47.33 324.16 43.93 328.46 48.86"/>
        <polygon class="cls-9" points="318.46 48.44 324.16 47.33 319.12 57.63 318.46 48.44"/>
        <polygon class="cls-9" points="321.38 102.2 320.92 99.97 332.91 108.43 321.38 102.2"/>
        <polygon class="cls-9" points="503.11 118.79 501.25 117.47 515.8 115.53 503.11 118.79"/>
        <polygon class="cls-9" points="449.51 123.13 445.66 118.71 462.19 118.62 449.51 123.13"/>
        <polygon class="cls-9" points="335.42 163.93 337.35 160.08 345.01 162.69 335.42 163.93"/>
        <polygon class="cls-9" points="278.53 188.22 284.31 186.15 286.38 192.67 278.53 188.22"/>
        <polygon class="cls-4" points="325.72 64.15 324.16 47.33 322.73 56.12 325.72 64.15"/>
        <polygon class="cls-8" points="325.72 64.15 323.64 70.37 319.12 57.63 325.72 64.15"/>
        <polygon class="cls-4" points="328.38 59.48 324.16 47.33 328.21 52.37 328.38 59.48"/>
        <polygon class="cls-1" points="328.38 59.48 324.16 47.33 325.72 64.15 328.38 59.48"/>
        <polygon class="cls-4" points="328.38 59.48 329.55 71.68 325.72 64.15 328.38 59.48"/>
        <polygon class="cls-1" points="323.64 70.37 329.55 71.68 325.72 64.15 323.64 70.37"/>
        <polygon class="cls-1" points="323.64 70.37 325.69 76.96 327.27 73.51 323.64 70.37"/>
        <polygon class="cls-8" points="329.55 71.68 325.69 76.96 327.27 73.51 329.55 71.68"/>
        <polygon class="cls-9" points="329.55 71.68 325.69 76.96 335.07 77.56 329.55 71.68"/>
        <polygon class="cls-8" points="325.79 84.07 325.69 76.96 331.52 83.88 325.79 84.07"/>
        <polygon class="cls-4" points="335.07 77.56 325.69 76.96 331.52 83.88 335.07 77.56"/>
        <polygon class="cls-9" points="335.07 77.56 336.95 86.64 331.52 83.88 335.07 77.56"/>
        <polygon class="cls-11" points="328.85 88.22 336.95 86.64 331.52 83.88 328.85 88.22"/>
        <polygon class="cls-8" points="335.07 77.56 336.95 86.64 337.54 82.49 335.07 77.56"/>
        <polygon class="cls-6" points="370.98 63.33 363.49 55.93 352.06 57.23 370.98 63.33"/>
        <polygon class="cls-11" points="370.98 63.33 363.49 55.93 377.26 59.92 370.98 63.33"/>
        <polygon class="cls-2" points="377.26 53.82 363.49 55.93 377.26 59.92 377.26 53.82"/>
        <polygon class="cls-4" points="377.26 53.82 363.49 55.93 368.9 42.89 377.26 53.82"/>
        <polygon class="cls-5" points="358.38 47.85 363.49 55.93 357.74 38.53 358.38 47.85"/>
        <polygon class="cls-6" points="353.53 77.76 347.86 64.96 352.06 57.23 353.53 77.76"/>
        <polygon class="cls-2" points="353.53 77.76 347.86 64.96 349.22 73.48 353.53 77.76"/>
        <polygon class="cls-8" points="357.74 38.53 363.49 55.93 368.9 42.89 357.74 38.53"/>
        <polygon class="cls-9" points="357.74 38.53 356.56 31.83 368.9 42.89 357.74 38.53"/>
        <polygon class="cls-8" points="367.51 32.93 356.56 31.83 368.9 42.89 367.51 32.93"/>
        <polygon class="cls-4" points="367.51 32.93 356.56 31.83 355.51 24.31 367.51 32.93"/>
        <polygon class="cls-1" points="367.51 32.93 368.62 30.54 355.51 24.31 367.51 32.93"/>
        <polygon class="cls-6" points="374.93 30.89 368.62 30.54 364.62 25.72 374.93 30.89"/>
        <polygon class="cls-11" points="374.93 30.89 363.89 20.5 364.62 25.72 374.93 30.89"/>
        <polygon class="cls-11" points="355.51 24.31 368.62 30.54 364.62 25.72 355.51 24.31"/>
        <polygon class="cls-1" points="355.51 24.31 363.89 20.5 364.62 25.72 355.51 24.31"/>
        <polygon class="cls-11" points="355.51 24.31 363.89 20.5 352.23 14.19 355.51 24.31"/>
        <polygon class="cls-9" points="365.47 14.88 363.89 20.5 362.53 13.18 365.47 14.88"/>
        <polygon class="cls-4" points="359.98 15.22 363.89 20.5 362.53 13.18 359.98 15.22"/>
        <polygon class="cls-1" points="359.98 15.22 363.89 20.5 352.23 14.19 359.98 15.22"/>
        <polygon class="cls-4" points="374.93 30.89 363.89 20.5 376.64 25.97 374.93 30.89"/>
        <polygon class="cls-8" points="365.47 14.88 363.89 20.5 376.64 25.97 365.47 14.88"/>
        <polygon class="cls-4" points="365.47 14.88 377.52 22.42 376.64 25.97 365.47 14.88"/>
        <polygon class="cls-9" points="377.12 16.48 377.52 22.42 378.7 22.38 377.12 16.48"/>
        <polygon class="cls-8" points="377.12 16.48 377.52 22.42 373.26 16.48 377.12 16.48"/>
        <polygon class="cls-9" points="365.47 14.88 377.52 22.42 373.26 16.48 365.47 14.88"/>
        <polygon class="cls-8" points="365.47 14.88 369.07 11.26 373.26 16.48 365.47 14.88"/>
        <polygon class="cls-4" points="373.58 13.2 369.07 11.26 373.26 16.48 373.58 13.2"/>
        <polygon class="cls-1" points="373.58 13.2 377.12 16.48 373.26 16.48 373.58 13.2"/>
        <polygon class="cls-6" points="373.58 13.2 377.12 16.48 377 13.44 373.58 13.2"/>
        <polygon class="cls-8" points="373.58 13.2 369.07 11.26 377 13.44 373.58 13.2"/>
        <polygon class="cls-1" points="374.13 9.69 369.07 11.26 377 13.44 374.13 9.69"/>
        <polygon class="cls-8" points="374.13 9.69 376.07 7.21 377 13.44 374.13 9.69"/>
        <polygon class="cls-4" points="374.13 9.69 376.07 7.21 370.5 3.54 374.13 9.69"/>
        <polygon class="cls-11" points="374.13 9.69 369.07 11.26 370.5 3.54 374.13 9.69"/>
        <polygon class="cls-11" points="365.47 14.88 369.07 11.26 362.53 13.18 365.47 14.88"/>
        <polygon class="cls-11" points="359.98 15.22 352.23 14.19 362.53 13.18 359.98 15.22"/>
        <polygon class="cls-1" points="354.63 7.46 352.23 14.19 362.53 13.18 354.63 7.46"/>
        <polygon class="cls-11" points="362.53 13.18 361.67 3.19 359.77 6.98 362.53 13.18"/>
        <polygon class="cls-1" points="369.07 11.26 361.67 3.19 362.53 13.18 369.07 11.26"/>
        <polygon class="cls-11" points="369.07 11.26 361.67 3.19 367.69 6.49 369.07 11.26"/>
        <polygon class="cls-1" points="369.07 11.26 370.5 3.54 367.69 6.49 369.07 11.26"/>
        <polygon class="cls-9" points="361.67 3.19 370.5 3.54 367.69 6.49 361.67 3.19"/>
        <polygon class="cls-2" points="342.37 11.35 352.23 14.19 343.16 16.08 342.37 11.35"/>
        <polygon class="cls-6" points="342.37 11.35 352.23 14.19 352.96 12.13 342.37 11.35"/>
        <polygon class="cls-11" points="342.37 11.35 346.11 8.86 352.96 12.13 342.37 11.35"/>
        <polygon class="cls-11" points="311.69 10.44 315.4 5.11 316.88 6.44 311.69 10.44"/>
        <polygon class="cls-11" points="309.36 48.11 309.32 46.91 312.75 47.11 309.36 48.11"/>
        <polygon class="cls-11" points="325.99 112.5 326 108.18 335.14 112.54 325.99 112.5"/>
        <polygon class="cls-11" points="410.04 122.01 412.39 118.39 417.7 127.02 410.04 122.01"/>
        <polygon class="cls-11" points="294.53 159.92 296.31 150 298.84 159.94 294.53 159.92"/>
        <polygon class="cls-11" points="404.83 142.87 410.2 142.21 414.81 146.5 404.83 142.87"/>
        <polygon class="cls-11" points="346.38 178.15 352.61 178.3 353.64 184.37 346.38 178.15"/>
        <polygon class="cls-6" points="342.37 11.35 332.56 12.99 343.16 16.08 342.37 11.35"/>
        <polygon class="cls-8" points="331.25 20.91 334.83 15.99 343.16 16.08 331.25 20.91"/>
        <polygon class="cls-8" points="318.9 2.81 324.31 3.19 329.05 8.52 318.9 2.81"/>
        <polygon class="cls-8" points="346.46 6.3 347.57 2.52 350.75 8.15 346.46 6.3"/>
        <polygon class="cls-1" points="331.25 20.91 342.98 22.33 343.16 16.08 331.25 20.91"/>
        <polygon class="cls-11" points="352.23 14.19 342.98 22.33 343.16 16.08 352.23 14.19"/>
        <polygon class="cls-4" points="331.25 20.91 334.83 15.99 328.9 11.01 331.25 20.91"/>
        <polygon class="cls-4" points="326.38 12.47 325 8.02 318.19 10.1 326.38 12.47"/>
        <polygon class="cls-4" points="324.29 40.74 319.51 37.46 315.81 39.53 324.29 40.74"/>
        <polygon class="cls-4" points="376.79 124.4 367.57 125 364.9 127.33 376.79 124.4"/>
        <polygon class="cls-4" points="317.73 71.47 311.97 72.34 309.25 70.26 317.73 71.47"/>
        <polygon class="cls-4" points="347.91 76.17 343.96 70.94 342.88 77.26 347.91 76.17"/>
        <polygon class="cls-4" points="321.36 87.66 312.41 88.9 318.08 92.18 321.36 87.66"/>
        <polygon class="cls-4" points="393.03 43.85 388.21 38.59 389.49 43.93 393.03 43.85"/>
        <polygon class="cls-4" points="299.32 18.2 288.77 15.26 290.23 18.59 299.32 18.2"/>
        <polygon class="cls-4" points="363.42 145.41 357.05 138.14 358.38 145.41 363.42 145.41"/>
        <polygon class="cls-4" points="447.34 181.37 437.97 183.74 445.05 185.86 447.34 181.37"/>
        <polygon class="cls-4" points="336.67 2.53 334.13 .19 333.07 2.02 336.67 2.53"/>
        <polygon class="cls-4" points="524.51 118.43 521.97 116.09 520.91 117.92 524.51 118.43"/>
        <polygon class="cls-11" points="337.84 8.9 346.11 8.86 332.56 12.99 337.84 8.9"/>
        <polygon class="cls-1" points="337.84 8.9 330.25 6.54 332.56 12.99 337.84 8.9"/>
        <polygon class="cls-9" points="337.84 8.9 330.25 6.54 346.11 8.86 337.84 8.9"/>
        <polygon class="cls-6" points="352.23 14.19 342.98 22.33 348.43 21 352.23 14.19"/>
        <polygon class="cls-7" points="337.81 25.89 342.98 22.33 348.43 21 337.81 25.89"/>
        <polygon class="cls-6" points="337.81 25.89 342.98 22.33 331.25 20.91 337.81 25.89"/>
        <polygon class="cls-7" points="337.81 25.89 323.62 24.23 331.6 23.36 337.81 25.89"/>
        <polygon class="cls-11" points="337.81 25.89 331.25 20.91 331.6 23.36 337.81 25.89"/>
        <polygon class="cls-1" points="323.62 24.23 331.25 20.91 331.6 23.36 323.62 24.23"/>
        <polygon class="cls-4" points="323.62 24.23 331.25 20.91 321.18 20.06 323.62 24.23"/>
        <polygon class="cls-10" points="320.93 14.37 326.39 18.57 321.18 20.06 320.93 14.37"/>
        <polygon class="cls-10" points="529.3 102.88 534.76 107.08 529.54 108.58 529.3 102.88"/>
        <polygon class="cls-10" points="307.79 34.06 313.25 38.26 307 36.45 307.79 34.06"/>
        <polygon class="cls-10" points="358.83 0 358.1 3.02 352.88 4.51 358.83 0"/>
        <polygon class="cls-10" points="388.56 33.81 389.05 35.97 385.49 34.35 388.56 33.81"/>
        <polygon class="cls-4" points="538.82 100.23 534 94.97 535.28 100.31 538.82 100.23"/>
        <polygon class="cls-10" points="519.19 107.5 519.68 109.66 516.12 108.03 519.19 107.5"/>
        <polygon class="cls-10" points="304.74 12.39 311.47 12.57 308.78 14.85 304.74 12.39"/>
        <polygon class="cls-9" points="377.26 53.82 367.51 32.93 368.9 42.89 377.26 53.82"/>
        <polygon class="cls-6" points="370.98 63.33 371.86 68.82 377.26 59.92 370.98 63.33"/>
        <polygon class="cls-5" points="370.98 63.33 371.86 68.82 352.06 57.23 370.98 63.33"/>
        <polygon class="cls-5" points="353.53 77.76 360.46 68.67 352.06 57.23 353.53 77.76"/>
        <polygon class="cls-4" points="371.86 68.82 360.46 68.67 352.06 57.23 371.86 68.82"/>
        <polygon class="cls-11" points="371.86 68.82 360.46 68.67 353.53 77.76 371.86 68.82"/>
        <polygon class="cls-8" points="353.53 77.76 342.98 92.52 348.81 80.36 353.53 77.76"/>
        <polygon class="cls-4" points="353.53 77.76 342.98 92.52 353.05 93.26 353.53 77.76"/>
        <polygon class="cls-9" points="339.42 96.37 342.98 92.52 353.05 93.26 339.42 96.37"/>
        <polygon class="cls-8" points="339.42 96.37 337.64 102.59 353.05 93.26 339.42 96.37"/>
        <polygon class="cls-2" points="339.72 109.41 337.64 102.59 345.2 110.45 339.72 109.41"/>
        <polygon class="cls-11" points="365.45 115.66 337.64 102.59 345.2 110.45 365.45 115.66"/>
        <polygon class="cls-4" points="357.79 107.78 337.64 102.59 353.05 93.26 357.79 107.78"/>
        <polygon class="cls-2" points="357.79 107.78 337.64 102.59 365.45 115.66 357.79 107.78"/>
        <polygon class="cls-7" points="339.72 109.41 358.99 116.13 345.2 110.45 339.72 109.41"/>
        <polygon class="cls-6" points="339.72 109.41 345.12 115.4 358.99 116.13 339.72 109.41"/>
        <polygon class="cls-7" points="344.34 134.95 345.12 115.4 358.99 116.13 344.34 134.95"/>
        <polygon class="cls-11" points="333.05 121.56 345.12 115.4 338.49 114.12 333.05 121.56"/>
        <polygon class="cls-5" points="333.05 121.56 345.12 115.4 344.34 134.95 333.05 121.56"/>
        <polygon class="cls-8" points="333.05 121.56 327.48 135.24 334.38 130.15 333.05 121.56"/>
        <polygon class="cls-4" points="333.05 121.56 344.34 134.95 334.38 130.15 333.05 121.56"/>
        <polygon class="cls-5" points="337.15 144.91 344.34 134.95 334.38 130.15 337.15 144.91"/>
        <polygon class="cls-11" points="337.15 144.91 325.4 140.37 334.38 130.15 337.15 144.91"/>
        <polygon class="cls-7" points="337.15 144.91 326.98 151.33 335.07 147.98 337.15 144.91"/>
        <polygon class="cls-6" points="337.15 144.91 326.98 151.33 325.4 140.37 337.15 144.91"/>
        <polygon class="cls-8" points="316.8 143.83 315.42 152.52 325.4 140.37 316.8 143.83"/>
        <polygon class="cls-9" points="316.8 143.83 315.42 152.52 306.63 156.96 316.8 143.83"/>
        <polygon class="cls-5" points="326.98 151.33 315.42 152.52 325.4 140.37 326.98 151.33"/>
        <polygon class="cls-11" points="326.98 151.33 315.42 152.52 319.17 159.33 326.98 151.33"/>
        <polygon class="cls-6" points="304.56 165.46 315.42 152.52 319.17 159.33 304.56 165.46"/>
        <polygon class="cls-5" points="304.56 165.46 315.42 152.52 306.63 156.96 304.56 165.46"/>
        <polygon class="cls-8" points="304.56 165.46 295.77 174.84 301.15 165.98 304.56 165.46"/>
        <polygon class="cls-11" points="304.56 165.46 304.26 172.67 319.17 159.33 304.56 165.46"/>
        <polygon class="cls-6" points="304.56 165.46 304.26 172.67 295.77 174.84 304.56 165.46"/>
        <polygon class="cls-7" points="302.34 179.28 304.26 172.67 295.77 174.84 302.34 179.28"/>
        <polygon class="cls-9" points="295.96 169.9 301.15 165.98 295.77 174.84 295.96 169.9"/>
        <polygon class="cls-10" points="295.96 169.9 288.78 171.84 295.77 174.84 295.96 169.9"/>
        <polygon class="cls-11" points="291.22 181.09 288.78 171.84 295.77 174.84 291.22 181.09"/>
        <polygon class="cls-6" points="291.22 181.09 302.34 179.28 295.77 174.84 291.22 181.09"/>
        <polygon class="cls-8" points="295.37 188.73 301.16 179.28 297.74 194.97 295.37 188.73"/>
        <polygon class="cls-11" points="295.37 188.73 302.34 179.28 291.22 181.09 295.37 188.73"/>
        <polygon class="cls-6" points="295.37 188.73 294.86 195.39 291.22 181.09 295.37 188.73"/>
        <polygon class="cls-11" points="295.37 188.73 294.86 195.39 298.93 194.97 295.37 188.73"/>
        <polygon class="cls-6" points="300.43 200.42 294.86 195.39 298.93 194.97 300.43 200.42"/>
        <polygon class="cls-11" points="300.43 200.42 294.86 195.39 298.89 201.66 300.43 200.42"/>
        <polygon class="cls-7" points="294.76 199.17 294.86 195.39 298.89 201.66 294.76 199.17"/>
        <polygon class="cls-6" points="294.76 199.17 294.86 195.39 289.99 190.23 294.76 199.17"/>
        <polygon class="cls-11" points="291.22 181.09 294.86 195.39 289.99 190.23 291.22 181.09"/>
        <polygon class="cls-6" points="285.88 181.09 281.05 179.53 278.5 175.66 285.88 181.09"/>
        <polygon class="cls-4" points="371.86 68.82 368.35 83.32 353.53 77.76 371.86 68.82"/>
        <polygon class="cls-5" points="353.05 93.26 361.31 87.89 353.53 77.76 353.05 93.26"/>
        <polygon class="cls-11" points="368.35 83.32 361.31 87.89 353.53 77.76 368.35 83.32"/>
        <polygon class="cls-5" points="368.35 83.32 361.31 87.89 366.25 93.35 368.35 83.32"/>
        <polygon class="cls-4" points="353.05 93.26 361.31 87.89 366.25 93.35 353.05 93.26"/>
        <polygon class="cls-8" points="357.79 107.78 366.25 93.35 353.05 93.26 357.79 107.78"/>
        <polygon class="cls-9" points="357.79 107.78 366.25 93.35 371.6 95.38 357.79 107.78"/>
        <polygon class="cls-8" points="357.79 107.78 384.4 109.17 371.6 95.38 357.79 107.78"/>
        <polygon class="cls-11" points="357.79 107.78 384.4 109.17 365.45 115.66 357.79 107.78"/>
        <polygon class="cls-9" points="389.08 104.6 384.4 109.17 371.6 95.38 389.08 104.6"/>
        <polygon class="cls-2" points="383.15 117.56 384.4 109.17 365.45 115.66 383.15 117.56"/>
        <polygon class="cls-6" points="383.15 117.56 389.29 122.31 365.45 115.66 383.15 117.56"/>
        <polygon class="cls-11" points="383.15 117.56 384.4 109.17 398.53 124.41 383.15 117.56"/>
        <polygon class="cls-7" points="383.15 117.56 389.29 122.31 398.53 124.41 383.15 117.56"/>
        <polygon class="cls-8" points="400.56 116.36 384.4 109.17 398.53 124.41 400.56 116.36"/>
        <polygon class="cls-9" points="400.56 116.36 384.4 109.17 394.24 107.79 400.56 116.36"/>
        <polygon class="cls-8" points="389.08 104.6 384.4 109.17 394.24 107.79 389.08 104.6"/>
        <polygon class="cls-4" points="400.56 116.36 405.63 118.64 398.53 124.41 400.56 116.36"/>
        <polygon class="cls-10" points="400.56 116.36 405.63 118.64 394.24 107.79 400.56 116.36"/>
        <polygon class="cls-2" points="404.54 123.54 405.63 118.64 398.53 124.41 404.54 123.54"/>
        <polygon class="cls-11" points="404.54 123.54 393.05 135.63 398.53 124.41 404.54 123.54"/>
        <polygon class="cls-6" points="389.29 122.31 393.05 135.63 398.53 124.41 389.29 122.31"/>
        <polygon class="cls-7" points="389.29 122.31 376.39 131.72 388.65 125.94 389.29 122.31"/>
        <polygon class="cls-11" points="393.05 135.63 376.39 131.72 388.65 125.94 393.05 135.63"/>
        <polygon class="cls-4" points="393.05 135.63 376.39 131.72 382.21 141.47 393.05 135.63"/>
        <polygon class="cls-7" points="371.24 143.9 376.39 131.72 376.76 139.54 371.24 143.9"/>
        <polygon class="cls-6" points="382.21 141.47 376.39 131.72 376.76 139.54 382.21 141.47"/>
        <polygon class="cls-2" points="393.05 135.63 385.4 143.35 382.21 141.47 393.05 135.63"/>
        <polygon class="cls-6" points="371.24 143.9 385.4 143.35 382.21 141.47 371.24 143.9"/>
        <polygon class="cls-11" points="371.24 143.9 375.51 147.72 364.75 152.75 371.24 143.9"/>
        <polygon class="cls-2" points="371.24 143.9 375.51 147.72 385.4 143.35 371.24 143.9"/>
        <polygon class="cls-6" points="359.52 163.72 375.51 147.72 364.75 152.75 359.52 163.72"/>
        <polygon class="cls-7" points="359.52 163.72 358.63 158.46 364.75 152.75 359.52 163.72"/>
        <polygon class="cls-2" points="355.96 163.72 355.07 158.46 350.14 161.44 355.96 163.72"/>
        <polygon class="cls-11" points="359.52 163.72 375.51 147.72 385.4 143.35 359.52 163.72"/>
        <polygon class="cls-4" points="359.52 163.72 371.8 157.45 385.4 143.35 359.52 163.72"/>
        <polygon class="cls-2" points="359.52 163.72 371.8 157.45 368.26 163.55 359.52 163.72"/>
        <polygon class="cls-11" points="359.52 163.72 360.7 173.37 368.26 163.55 359.52 163.72"/>
        <polygon class="cls-11" points="348.75 166.56 351.22 164.72 360.7 173.37 348.75 166.56"/>
        <polygon class="cls-7" points="348.75 166.56 349.2 169.7 360.7 173.37 348.75 166.56"/>
        <polygon class="cls-2" points="371.27 176.54 360.7 173.37 368.26 163.55 371.27 176.54"/>
        <polygon class="cls-8" points="371.27 176.54 360.7 173.37 376.27 182.89 371.27 176.54"/>
        <polygon class="cls-4" points="376.79 185.78 360.7 173.37 376.27 182.89 376.79 185.78"/>
        <polygon class="cls-2" points="376.79 185.78 360.7 173.37 370.02 184.72 376.79 185.78"/>
        <polygon class="cls-11" points="363.74 180.75 360.7 173.37 370.02 184.72 363.74 180.75"/>
        <polygon class="cls-7" points="375.12 71.33 371.86 68.82 377.26 59.92 375.12 71.33"/>
        <polygon class="cls-6" points="375.12 71.33 380.53 69.21 382.89 78.06 375.12 71.33"/>
        <polygon class="cls-11" points="375.12 71.33 380.53 69.21 377.26 59.92 375.12 71.33"/>
        <polygon class="cls-4" points="384.64 67.35 380.53 69.21 377.26 59.92 384.64 67.35"/>
        <polygon class="cls-7" points="387.82 77.85 380.53 69.21 382.89 78.06 387.82 77.85"/>
        <polygon class="cls-6" points="387.82 77.85 380.53 69.21 384.64 67.35 387.82 77.85"/>
        <polygon class="cls-7" points="387.82 77.85 394.22 68.8 390.62 66.43 387.82 77.85"/>
        <polygon class="cls-11" points="387.82 77.85 384.64 67.35 390.62 66.43 387.82 77.85"/>
        <polygon class="cls-9" points="394.32 55.72 384.64 67.35 390.62 66.43 394.32 55.72"/>
        <polygon class="cls-4" points="394.32 55.72 399.26 57.37 390.62 66.43 394.32 55.72"/>
        <polygon class="cls-6" points="394.22 68.8 399.26 57.37 390.62 66.43 394.22 68.8"/>
        <polygon class="cls-7" points="394.32 55.72 399.26 57.37 402.04 52.74 394.32 55.72"/>
        <polygon class="cls-6" points="394.32 55.72 397.72 45.12 402.04 52.74 394.32 55.72"/>
        <polygon class="cls-11" points="404.93 49.03 397.72 45.12 402.04 52.74 404.93 49.03"/>
        <polygon class="cls-6" points="404.93 49.03 397.72 45.12 405.34 44.5 404.93 49.03"/>
        <polygon class="cls-4" points="399.67 38.94 397.72 45.12 405.34 44.5 399.67 38.94"/>
        <polygon class="cls-9" points="399.67 38.94 397.72 45.12 395.97 41.93 399.67 38.94"/>
        <polygon class="cls-4" points="393.91 46.35 397.72 45.12 394.32 55.72 393.91 46.35"/>
        <polygon class="cls-1" points="325.72 64.15 319.12 57.63 322.73 56.12 325.72 64.15"/>
        <polygon class="cls-6" points="362.53 13.18 354.63 7.46 359.77 6.98 362.53 13.18"/>
        <polygon class="cls-4" points="302.6 49.95 297.79 50.06 306.72 42.19 302.6 49.95"/>
        <polygon class="cls-4" points="313.05 133.52 308.63 133.4 323.41 125.94 313.05 133.52"/>
        <polygon class="cls-4" points="419.47 158.15 415.04 158.03 429.83 150.57 419.47 158.15"/>
        <polygon class="cls-4" points="273.35 166.89 270.23 168.08 281.05 174.89 273.35 166.89"/>
        <polygon class="cls-10" points="576.44 118.24 575.38 120.87 573.19 117.77 576.44 118.24"/>
        <polygon class="cls-10" points="573.19 117.77 575.38 120.87 574.38 123.17 562.77 115.23 562.77 115.22 573.19 117.77"/>
        <polygon class="cls-10" points="574.38 123.17 573.49 125.21 573.47 125.2 567.59 122.58 574.38 123.17"/>
        <polygon class="cls-10" points="574.38 123.17 567.59 122.58 562.61 122.14 562.6 122.14 562.77 115.23 574.38 123.17"/>
        <polygon class="cls-10" points="573.49 125.21 562.45 128.44 562.6 122.14 562.61 122.14 573.47 125.2 573.49 125.21"/>
        <polygon class="cls-10" points="573.47 125.2 562.61 122.14 567.59 122.58 573.47 125.2"/>
        <polygon class="cls-10" points="577.83 165.36 574.29 166.91 572.41 163.81 577.83 165.36"/>
        <polygon class="cls-10" points="572.41 163.81 574.29 166.91 563.07 165.2 572.41 163.81"/>
        <polygon class="cls-10" points="572.41 163.81 563.07 165.2 563.09 160.48 572.41 163.81"/>
        <polygon class="cls-10" points="568.96 176.44 569.47 181.78 564.68 177.54 568.96 176.44"/>
        <polygon class="cls-10" points="568.96 176.44 564.68 177.54 563.52 171.15 568.96 176.44"/>
        <polygon class="cls-10" points="562.77 115.23 562.6 122.14 562.45 128.44 557.11 122.54 562.76 115.23 562.77 115.23"/>
        <polygon class="cls-10" points="554.13 110.78 562.76 115.23 553.74 114.47 547.3 113.93 547.29 113.92 547.27 113.93 533.75 112.79 541.93 111.03 550.88 109.11 554.13 110.78"/>
        <polygon class="cls-10" points="562.76 115.23 557.11 122.54 552 129.15 551.98 129.13 548.79 118.8 552.45 117.87 552.45 117.86 562.76 115.23"/>
        <polygon class="cls-10" points="562.76 115.23 552.45 117.86 553.74 114.47 562.76 115.23"/>
        <polygon class="cls-10" points="562.45 93.48 554.13 110.78 551.57 98.49 551.57 98.44 562.45 93.48"/>
        <polygon class="cls-10" points="557.11 122.54 562.45 128.44 547.99 134.33 552 129.15 557.11 122.54"/>
        <polygon class="cls-10" points="563.52 171.15 564.68 177.54 559.35 174.53 563.25 171.27 563.27 171.12 563.52 171.15"/>
        <polygon class="cls-10" points="563.27 171.12 563.25 171.27 559.35 174.53 559.21 174.42 553.37 167.8 563.27 171.12"/>
        <polygon class="cls-10" points="563.09 160.48 563.07 165.2 562.81 165.07 553.88 160.66 553.62 160.53 563.09 160.48"/>
        <polygon class="cls-10" points="562.81 165.07 554.06 167.6 554.01 167.44 553.81 161.08 553.74 160.85 553.79 160.84 553.88 160.66 562.81 165.07"/>
        <polygon class="cls-10" points="559.21 174.42 559.04 174.63 540.36 173.19 545.14 168.78 553.37 167.8 559.21 174.42"/>
        <polygon class="cls-10" points="551.57 98.49 554.13 110.78 550.88 109.11 551.57 98.49"/>
        <polygon class="cls-10" points="553.74 114.47 552.45 117.86 552.45 117.87 547.3 113.93 553.74 114.47"/>
        <polygon class="cls-10" points="552.45 117.87 548.79 118.8 547.29 113.93 547.3 113.93 552.45 117.87"/>
        <polygon class="cls-10" points="552.22 88.44 551.57 98.44 551.56 98.45 551.57 98.49 550.88 109.11 541.93 111.03 552.22 88.44"/>
        <polygon class="cls-10" points="552.22 88.44 541.93 111.03 533.75 112.79 533.6 112.67 552.22 88.44"/>
        <polygon class="cls-10" points="554.01 167.44 554.06 167.6 553.56 167.75 537.55 162.49 537.65 162.09 537.67 162.1 553.74 160.85 553.81 161.08 554.01 167.44"/>
        <polygon class="cls-10" points="553.88 160.66 553.79 160.84 553.74 160.85 537.67 162.1 537.65 162.09 539.01 156.63 553.62 160.53 553.88 160.66"/>
        <polygon class="cls-10" points="537.55 162.49 553.56 167.75 553.37 167.8 545.14 168.78 537.4 162.71 537.55 162.49"/>
        <polygon class="cls-10" points="547.55 121.61 547.99 134.33 539.76 139.36 547.55 121.61"/>
        <polygon class="cls-10" points="547.99 134.33 542.73 146.48 539.76 139.36 547.99 134.33"/>
        <polygon class="cls-10" points="547.29 113.93 547.55 121.61 536.41 122.47 536.4 122.47 523.22 123.49 547.27 113.93 547.29 113.93"/>
        <polygon class="cls-10" points="547.55 121.61 539.76 139.36 536.41 122.47 547.55 121.61"/>
        <polygon class="cls-10" points="547.27 113.93 523.22 123.49 522.97 123.59 522.93 123.47 522.93 123.46 533.54 112.75 533.6 112.67 533.75 112.79 547.27 113.93"/>
        <polygon class="cls-10" points="545.14 168.78 540.36 173.19 523.7 172.61 545.14 168.78"/>
        <polygon class="cls-10" points="545.14 168.78 523.7 172.61 537.4 162.71 545.14 168.78"/>
        <polygon class="cls-10" points="542.73 146.48 543.06 150.4 538.73 147.53 515.23 131.97 514.9 131.58 515.06 131.42 526.27 135.02 539.76 139.36 542.73 146.48"/>
        <polygon class="cls-10" points="543.06 150.4 539.01 156.63 538.73 147.53 543.06 150.4"/>
        <polygon class="cls-10" points="536.41 122.47 539.76 139.36 526.27 135.02 526.27 135.02 536.41 122.47"/>
        <polygon class="cls-10" points="538.73 147.53 539.01 156.63 532.98 160.17 535.17 155.35 538.73 147.53"/>
        <polygon class="cls-10" points="539.01 156.63 537.65 162.09 537.55 162.49 532.98 160.17 539.01 156.63"/>
        <polygon class="cls-10" points="538.73 147.53 535.17 155.35 515.23 131.97 538.73 147.53"/>
        <polygon class="cls-10" points="537.55 162.49 537.4 162.71 523.7 172.61 523.43 172.36 531.37 159.35 532.98 160.17 537.55 162.49"/>
        <polygon class="cls-10" points="536.41 122.47 526.27 135.02 524.15 127.73 536.4 122.47 536.41 122.47"/>
        <polygon class="cls-10" points="536.4 122.47 524.15 127.73 522.97 123.59 523.22 123.49 536.4 122.47"/>
        <polygon class="cls-10" points="535.17 155.35 532.98 160.17 531.37 159.35 528 157.64 535.17 155.35"/>
        <polygon class="cls-10" points="515.23 131.97 535.17 155.35 522.01 152.41 514.97 131.8 515.23 131.97"/>
        <polygon class="cls-10" points="535.17 155.35 528 157.64 522.01 152.41 535.17 155.35"/>
        <polygon class="cls-10" points="531.37 159.35 523.43 172.36 508.03 168.12 531.37 159.35"/>
        <polygon class="cls-10" points="531.37 159.35 508.03 168.12 511.73 163.96 522.01 152.41 528 157.64 531.37 159.35"/>
        <polygon class="cls-10" points="514.97 131.8 522.01 152.41 494.24 142.98 514.76 131.66 514.97 131.8"/>
        <polygon class="cls-10" points="522.01 152.41 511.73 163.96 494.24 142.98 522.01 152.41"/>
        <polygon class="cls-10" points="514.72 131.63 514.76 131.66 494.24 142.98 496.41 132.82 508.3 133.5 514.72 131.63"/>
        <polygon class="cls-10" points="502.19 157.69 507.76 168 491.58 160.57 502.19 157.69"/>
        <polygon class="cls-10" points="494.24 142.98 502.19 157.69 491.58 160.57 494.11 143.6 493.88 143.4 494.24 142.98"/>
        <polygon class="cls-10" points="496.41 132.82 494.24 142.98 482.81 128.39 496.41 132.82"/>
        <polygon class="cls-10" points="482.81 128.39 494.24 142.98 472.1 126.52 482.81 128.39"/>
        <polygon class="cls-10" points="494.24 142.98 493.88 143.4 478.56 161.24 472.1 126.52 494.24 142.98"/>
        <polygon class="cls-10" points="494.11 143.6 491.58 160.57 478.56 161.24 493.88 143.4 494.11 143.6"/>
        <polygon class="cls-10" points="491.58 160.57 487.74 170.8 487.27 170.31 478.56 161.24 491.58 160.57"/>
        <polygon class="cls-10" points="487.27 170.31 487.74 170.8 474.93 182.03 474.6 181.37 467.52 167.32 487.04 170.53 487.27 170.31"/>
        <polygon class="cls-10" points="487.27 170.31 487.04 170.53 467.52 167.32 478.56 161.24 487.27 170.31"/>
        <polygon class="cls-10" points="472.1 126.52 478.56 161.24 461.26 130.9 472.1 126.52"/>
        <polygon class="cls-10" points="461.26 130.9 478.56 161.24 458.31 159.11 461.02 131 461.26 130.9"/>
        <polygon class="cls-10" points="478.56 161.24 467.52 167.32 461.46 169.33 457.36 170.68 458.31 159.11 478.56 161.24"/>
        <polygon class="cls-10" points="474.6 181.37 474.93 182.03 460.49 185.86 461.55 169.61 474.12 181.61 474.6 181.37"/>
        <polygon class="cls-10" points="467.52 167.32 474.6 181.37 474.12 181.61 461.55 169.61 461.46 169.33 467.52 167.32"/>
        <polygon class="cls-10" points="472.1 126.52 461.26 130.9 461.21 130.83 466.95 127.11 472.1 126.52"/>
        <polygon class="cls-10" points="466.95 127.11 461.21 130.83 461.06 130.56 461.02 130.95 460.82 131.08 453.93 126.38 466.95 127.11"/>
        <polygon class="cls-10" points="461.02 131 458.31 159.11 448.87 152.18 456.08 139.6 460.82 131.08 461.02 131"/>
        <polygon class="cls-10" points="460.82 131.08 456.08 139.6 441.08 140.02 443.95 138.04 460.82 131.08"/>
        <polygon class="cls-10" points="460.82 131.08 443.95 138.04 453.93 126.38 460.82 131.08"/>
        <polygon class="cls-10" points="458.44 177.77 460.49 185.86 450.78 187.11 458.44 177.77"/>
        <polygon class="cls-10" points="460.49 185.86 455.32 194.44 450.78 187.11 460.49 185.86"/>
        <polygon class="cls-10" points="458.31 159.11 457.36 170.68 452.15 169.8 440.68 168.12 458.31 159.11"/>
        <polygon class="cls-10" points="450.78 187.11 455.32 194.44 448.17 197.58 450.78 187.11"/>
        <polygon class="cls-10" points="455.32 194.44 454.01 200.04 448.02 198.2 448.17 197.58 455.32 194.44"/>
        <polygon class="cls-10" points="454.01 200.04 450.53 201.55 448.02 198.2 454.01 200.04"/>
        <polygon class="cls-10" points="453.93 126.38 443.95 138.04 444.25 123.52 453.93 126.38"/>
        <polygon class="cls-10" points="448.02 198.2 450.53 201.55 444.39 201.11 448.02 198.2"/>
        <polygon class="cls-10" points="437.46 116.12 444.25 123.52 431.69 118.98 431.49 118.27 431.72 118.21 437.46 116.12"/>
        <polygon class="cls-10" points="444.25 123.52 443.95 138.04 433.23 131.55 444.25 123.52"/>
        <polygon class="cls-10" points="444.25 123.52 433.23 131.55 431.69 118.98 444.25 123.52"/>
        <polygon class="cls-10" points="443.95 138.04 429.28 131.74 433.23 131.55 443.95 138.04"/>
        <polygon class="cls-10" points="436.52 157.99 440.68 168.12 431.62 169.45 431.14 169.61 431.07 169.42 436.52 157.99"/>
        <polygon class="cls-10" points="432.76 108.75 437.46 116.12 431.72 118.21 432.76 108.75"/>
        <polygon class="cls-10" points="436.52 157.99 431.07 169.42 431.14 169.61 431.14 169.62 424.26 171.97 436.52 157.99"/>
        <polygon class="cls-10" points="436.52 157.99 424.26 171.97 424.91 162.62 436.52 157.99"/>
        <polygon class="cls-10" points="431.69 118.98 433.23 131.55 426.71 116.82 431.69 118.98"/>
        <polygon class="cls-10" points="432.76 108.75 431.72 118.21 431.49 118.27 427.58 104.39 432.76 108.75"/>
        <polygon class="cls-10" points="424.91 162.62 424.26 171.97 419.6 175.14 424.91 162.62"/>
        <polygon class="cls-10" points="424.91 162.62 419.6 175.14 416.6 172.2 424.91 162.62"/>
        <polygon class="cls-10" points="419.6 175.14 413.06 174.97 416.6 172.2 419.6 175.14"/>
        <polyline class="cls-10" points="533.54 112.75 533.6 112.67 552.22 88.44"/>
        <polyline class="cls-10" points="550.88 109.11 551.57 98.49 551.57 98.44 552.22 88.44"/>
        <polyline class="cls-10" points="562.45 93.48 551.57 98.44 551.56 98.45"/>
        <line class="cls-10" x1="562.45" y1="93.48" x2="554.13" y2="110.78"/>
        <polyline class="cls-10" points="550.88 109.11 554.13 110.78 562.76 115.23"/>
        <polyline class="cls-10" points="576.44 118.24 573.19 117.77 562.77 115.22"/>
        <line class="cls-10" x1="562.45" y1="128.44" x2="573.49" y2="125.21"/>
        <polyline class="cls-10" points="574.38 123.17 575.38 120.87 576.44 118.24"/>
        <polyline class="cls-10" points="562.45 128.44 562.6 122.14 562.77 115.23"/>
        <line class="cls-10" x1="562.45" y1="128.44" x2="547.99" y2="134.33"/>
        <polyline class="cls-10" points="547.99 134.33 552 129.15 557.11 122.54 562.76 115.23"/>
        <polyline class="cls-10" points="562.76 115.23 553.74 114.47 547.3 113.93 547.29 113.93 547.27 113.93 533.75 112.79"/>
        <polyline class="cls-10" points="533.75 112.79 541.93 111.03 550.88 109.11"/>
        <polyline class="cls-10" points="554.13 110.78 551.57 98.49 551.56 98.45"/>
        <line class="cls-10" x1="552.22" y1="88.44" x2="541.93" y2="111.03"/>
        <polyline class="cls-10" points="547.29 113.93 548.79 118.8 551.98 129.13"/>
        <polyline class="cls-10" points="547.99 134.33 547.55 121.61 547.29 113.93 547.29 113.92"/>
        <line class="cls-10" x1="522.93" y1="123.46" x2="533.54" y2="112.75"/>
        <line class="cls-10" x1="536.41" y1="122.47" x2="547.55" y2="121.61"/>
        <line class="cls-10" x1="523.22" y1="123.49" x2="536.4" y2="122.47"/>
        <line class="cls-10" x1="547.55" y1="121.61" x2="539.76" y2="139.36"/>
        <line class="cls-10" x1="539.76" y1="139.36" x2="547.99" y2="134.33"/>
        <line class="cls-10" x1="547.99" y1="134.33" x2="542.73" y2="146.48"/>
        <line class="cls-10" x1="542.73" y1="146.48" x2="539.76" y2="139.36"/>
        <line class="cls-10" x1="542.73" y1="146.48" x2="543.06" y2="150.4"/>
        <polyline class="cls-10" points="543.06 150.4 538.73 147.53 515.23 131.97 514.97 131.8 514.76 131.66 514.72 131.63 514.54 131.51"/>
        <polyline class="cls-10" points="514.47 131.23 515.06 131.42 526.27 135.02 539.76 139.36"/>
        <line class="cls-10" x1="539.76" y1="139.36" x2="536.41" y2="122.47"/>
        <line class="cls-10" x1="526.27" y1="135.02" x2="536.41" y2="122.47"/>
        <polyline class="cls-10" points="526.27 135.02 524.15 127.73 522.97 123.59 522.93 123.47"/>
        <polyline class="cls-10" points="524.15 127.73 536.4 122.47 536.41 122.47"/>
        <polyline class="cls-10" points="538.73 147.53 535.17 155.35 532.98 160.17"/>
        <line class="cls-10" x1="543.06" y1="150.4" x2="539.01" y2="156.63"/>
        <line class="cls-10" x1="539.01" y1="156.63" x2="553.62" y2="160.53"/>
        <line class="cls-10" x1="563.09" y1="160.48" x2="553.62" y2="160.53"/>
        <line class="cls-10" x1="572.41" y1="163.81" x2="563.09" y2="160.48"/>
        <line class="cls-10" x1="574.29" y1="166.91" x2="572.41" y2="163.81"/>
        <line class="cls-10" x1="574.29" y1="166.91" x2="563.07" y2="165.2"/>
        <line class="cls-10" x1="563.07" y1="165.2" x2="572.41" y2="163.81"/>
        <line class="cls-10" x1="563.07" y1="165.2" x2="563.09" y2="160.48"/>
        <polyline class="cls-10" points="563.07 165.2 562.81 165.07 553.88 160.66 553.62 160.53"/>
        <polyline class="cls-10" points="553.37 167.8 553.56 167.75 554.06 167.6 562.81 165.07"/>
        <polyline class="cls-10" points="553.37 167.8 563.27 171.12 563.52 171.15"/>
        <line class="cls-10" x1="563.52" y1="171.15" x2="568.96" y2="176.44"/>
        <line class="cls-10" x1="568.96" y1="176.44" x2="564.68" y2="177.54"/>
        <line class="cls-10" x1="564.68" y1="177.54" x2="563.52" y2="171.15"/>
        <line class="cls-10" x1="564.68" y1="177.54" x2="559.35" y2="174.53"/>
        <polyline class="cls-10" points="559.35 174.53 559.21 174.42 553.37 167.8"/>
        <line class="cls-10" x1="559.35" y1="174.53" x2="563.25" y2="171.27"/>
        <line class="cls-10" x1="559.04" y1="174.63" x2="540.36" y2="173.19"/>
        <polyline class="cls-10" points="540.36 173.19 545.14 168.78 553.37 167.8"/>
        <polyline class="cls-10" points="553.61 167.76 553.56 167.75 537.55 162.49"/>
        <polyline class="cls-10" points="537.55 162.49 532.98 160.17 531.37 159.35 528 157.64"/>
        <line class="cls-10" x1="528" y1="157.64" x2="522.01" y2="152.41"/>
        <line class="cls-10" x1="532.98" y1="160.17" x2="539.01" y2="156.63"/>
        <line class="cls-10" x1="539.01" y1="156.63" x2="538.73" y2="147.53"/>
        <polyline class="cls-10" points="537.55 162.49 537.65 162.09 539.01 156.63"/>
        <polyline class="cls-10" points="537.67 162.1 553.74 160.85 553.79 160.84"/>
        <line class="cls-10" x1="553.81" y1="161.08" x2="554.01" y2="167.44"/>
        <line class="cls-10" x1="540.36" y1="173.19" x2="523.7" y2="172.61"/>
        <line class="cls-10" x1="523.7" y1="172.61" x2="545.14" y2="168.78"/>
        <line class="cls-10" x1="545.14" y1="168.78" x2="537.4" y2="162.71"/>
        <line class="cls-10" x1="537.4" y1="162.71" x2="523.7" y2="172.61"/>
        <line class="cls-10" x1="523.43" y1="172.36" x2="531.37" y2="159.35"/>
        <line class="cls-10" x1="523.43" y1="172.36" x2="508.03" y2="168.12"/>
        <line class="cls-10" x1="508.03" y1="168.12" x2="531.37" y2="159.35"/>
        <line class="cls-10" x1="507.76" y1="168" x2="491.58" y2="160.57"/>
        <polyline class="cls-10" points="575.39 120.88 575.38 120.87 573.19 117.77 573.16 117.71"/>
        <polyline class="cls-10" points="574.38 123.17 567.59 122.58 562.61 122.14"/>
        <line class="cls-10" x1="562.61" y1="122.14" x2="573.47" y2="125.2"/>
        <line class="cls-10" x1="573.49" y1="125.21" x2="574.38" y2="123.17"/>
        <polyline class="cls-10" points="552.45 117.86 562.76 115.23 562.77 115.23"/>
        <line class="cls-10" x1="548.79" y1="118.8" x2="552.45" y2="117.87"/>
        <line class="cls-10" x1="557.11" y1="122.54" x2="562.45" y2="128.44"/>
        <line class="cls-10" x1="458.44" y1="177.77" x2="450.78" y2="187.11"/>
        <polyline class="cls-10" points="450.78 187.11 448.17 197.58 448.02 198.2"/>
        <line class="cls-10" x1="448.02" y1="198.2" x2="444.39" y2="201.11"/>
        <line class="cls-10" x1="450.53" y1="201.55" x2="454.01" y2="200.04"/>
        <line class="cls-10" x1="454.01" y1="200.04" x2="448.02" y2="198.2"/>
        <line class="cls-10" x1="454.01" y1="200.04" x2="455.32" y2="194.44"/>
        <line class="cls-10" x1="455.32" y1="194.44" x2="460.49" y2="185.86"/>
        <line class="cls-10" x1="460.49" y1="185.86" x2="474.93" y2="182.03"/>
        <line class="cls-10" x1="474.93" y1="182.03" x2="487.74" y2="170.8"/>
        <line class="cls-10" x1="487.74" y1="170.8" x2="491.58" y2="160.57"/>
        <polyline class="cls-10" points="457.36 170.68 461.46 169.33 467.52 167.32"/>
        <line class="cls-10" x1="467.52" y1="167.32" x2="478.56" y2="161.24"/>
        <line class="cls-10" x1="478.56" y1="161.24" x2="491.58" y2="160.57"/>
        <line class="cls-10" x1="416.6" y1="172.2" x2="419.6" y2="175.14"/>
        <line class="cls-10" x1="419.6" y1="175.14" x2="424.26" y2="171.97"/>
        <polyline class="cls-10" points="424.26 171.97 431.14 169.62 431.14 169.61 431.62 169.45"/>
        <line class="cls-10" x1="431.62" y1="169.45" x2="440.68" y2="168.12"/>
        <line class="cls-10" x1="440.68" y1="168.12" x2="452.15" y2="169.8"/>
        <line class="cls-10" x1="452.15" y1="169.8" x2="457.36" y2="170.68"/>
        <line class="cls-10" x1="416.6" y1="172.2" x2="424.91" y2="162.62"/>
        <polyline class="cls-10" points="424.91 162.62 436.52 157.99 437.87 157.45"/>
        <line class="cls-10" x1="437.87" y1="157.45" x2="448.87" y2="152.18"/>
        <line class="cls-10" x1="448.87" y1="152.18" x2="456.08" y2="139.6"/>
        <line class="cls-10" x1="456.08" y1="139.6" x2="441.08" y2="140.02"/>
        <line class="cls-10" x1="441.08" y1="140.02" x2="443.95" y2="138.04"/>
        <line class="cls-10" x1="443.95" y1="138.04" x2="429.28" y2="131.74"/>
        <line class="cls-10" x1="429.28" y1="131.74" x2="433.23" y2="131.55"/>
        <line class="cls-10" x1="433.23" y1="131.55" x2="426.71" y2="116.82"/>
        <line class="cls-10" x1="426.71" y1="116.82" x2="431.69" y2="118.98"/>
        <polyline class="cls-10" points="431.69 118.98 431.49 118.27 427.58 104.39"/>
        <line class="cls-10" x1="427.58" y1="104.39" x2="432.76" y2="108.75"/>
        <line class="cls-10" x1="432.76" y1="108.75" x2="437.46" y2="116.12"/>
        <line class="cls-10" x1="437.46" y1="116.12" x2="444.25" y2="123.52"/>
        <line class="cls-10" x1="444.25" y1="123.52" x2="453.93" y2="126.38"/>
        <line class="cls-10" x1="453.93" y1="126.38" x2="466.95" y2="127.11"/>
        <line class="cls-10" x1="466.95" y1="127.11" x2="472.1" y2="126.52"/>
        <line class="cls-10" x1="456.08" y1="139.6" x2="460.82" y2="131.08"/>
        <polyline class="cls-10" points="460.82 131.08 461.02 131 461.26 130.9 472.1 126.52"/>
        <line class="cls-10" x1="472.1" y1="126.52" x2="482.81" y2="128.39"/>
        <line class="cls-10" x1="482.81" y1="128.39" x2="496.41" y2="132.82"/>
        <line class="cls-10" x1="496.41" y1="132.82" x2="508.3" y2="133.5"/>
        <polyline class="cls-10" points="508.3 133.5 514.72 131.63 514.9 131.58"/>
        <polyline class="cls-10" points="514.9 131.58 515.23 131.97 535.17 155.35"/>
        <line class="cls-10" x1="535.17" y1="155.35" x2="528" y2="157.64"/>
        <line class="cls-10" x1="522.01" y1="152.41" x2="535.17" y2="155.35"/>
        <polyline class="cls-10" points="508.03 168.12 511.73 163.96 522.01 152.41"/>
        <line class="cls-10" x1="522.01" y1="152.41" x2="494.24" y2="142.98"/>
        <polyline class="cls-10" points="494.24 142.98 514.76 131.66 514.9 131.58"/>
        <polyline class="cls-10" points="514.9 131.58 514.97 131.8 522.01 152.41"/>
        <line class="cls-10" x1="494.24" y1="142.98" x2="496.41" y2="132.82"/>
        <line class="cls-10" x1="494.24" y1="142.98" x2="511.73" y2="163.96"/>
        <polyline class="cls-10" points="507.76 168 502.19 157.69 494.24 142.98"/>
        <line class="cls-10" x1="491.58" y1="160.57" x2="502.19" y2="157.69"/>
        <polyline class="cls-10" points="494.24 142.98 493.88 143.4 478.56 161.24"/>
        <line class="cls-10" x1="491.58" y1="160.57" x2="494.11" y2="143.6"/>
        <polyline class="cls-10" points="478.56 161.24 487.27 170.31 487.74 170.8"/>
        <polyline class="cls-10" points="474.93 182.03 474.6 181.37 467.52 167.32"/>
        <line class="cls-10" x1="467.52" y1="167.32" x2="487.04" y2="170.53"/>
        <line class="cls-10" x1="461.55" y1="169.61" x2="474.12" y2="181.61"/>
        <line class="cls-10" x1="460.49" y1="185.86" x2="461.55" y2="169.61"/>
        <line class="cls-10" x1="458.44" y1="177.77" x2="460.49" y2="185.86"/>
        <line class="cls-10" x1="460.49" y1="185.86" x2="450.78" y2="187.11"/>
        <line class="cls-10" x1="450.78" y1="187.11" x2="455.32" y2="194.44"/>
        <line class="cls-10" x1="455.32" y1="194.44" x2="448.17" y2="197.58"/>
        <line class="cls-10" x1="444.39" y1="201.11" x2="450.53" y2="201.55"/>
        <line class="cls-10" x1="450.53" y1="201.55" x2="448.02" y2="198.2"/>
        <line class="cls-10" x1="416.6" y1="172.2" x2="413.06" y2="174.97"/>
        <line class="cls-10" x1="413.06" y1="174.97" x2="419.6" y2="175.14"/>
        <line class="cls-10" x1="419.6" y1="175.14" x2="424.91" y2="162.62"/>
        <line class="cls-10" x1="424.91" y1="162.62" x2="424.26" y2="171.97"/>
        <line class="cls-10" x1="424.26" y1="171.97" x2="436.52" y2="157.99"/>
        <line class="cls-10" x1="431.07" y1="169.42" x2="436.52" y2="157.99"/>
        <line class="cls-10" x1="436.52" y1="157.99" x2="440.68" y2="168.12"/>
        <line class="cls-10" x1="440.68" y1="168.12" x2="458.31" y2="159.11"/>
        <line class="cls-10" x1="458.31" y1="159.11" x2="457.36" y2="170.68"/>
        <line class="cls-10" x1="458.31" y1="159.11" x2="448.87" y2="152.18"/>
        <line class="cls-10" x1="458.31" y1="159.11" x2="478.56" y2="161.24"/>
        <polyline class="cls-10" points="458.31 159.11 461.02 131 461.02 130.95 461.06 130.56"/>
        <polyline class="cls-10" points="461.06 130.56 461.21 130.83 461.26 130.9 478.56 161.24"/>
        <line class="cls-10" x1="478.56" y1="161.24" x2="472.1" y2="126.52"/>
        <line class="cls-10" x1="472.1" y1="126.52" x2="494.24" y2="142.98"/>
        <line class="cls-10" x1="494.24" y1="142.98" x2="482.81" y2="128.39"/>
        <line class="cls-10" x1="460.82" y1="131.08" x2="453.93" y2="126.38"/>
        <polyline class="cls-10" points="460.82 131.08 461.02 130.95 461.21 130.83 466.95 127.11"/>
        <line class="cls-10" x1="460.82" y1="131.08" x2="443.95" y2="138.04"/>
        <line class="cls-10" x1="443.95" y1="138.04" x2="433.23" y2="131.55"/>
        <line class="cls-10" x1="433.23" y1="131.55" x2="444.25" y2="123.52"/>
        <line class="cls-10" x1="444.25" y1="123.52" x2="443.95" y2="138.04"/>
        <line class="cls-10" x1="443.95" y1="138.04" x2="453.93" y2="126.38"/>
        <line class="cls-10" x1="444.25" y1="123.52" x2="431.69" y2="118.98"/>
        <line class="cls-10" x1="431.69" y1="118.98" x2="433.23" y2="131.55"/>
        <line class="cls-10" x1="431.72" y1="118.21" x2="437.46" y2="116.12"/>
        <line class="cls-10" x1="431.72" y1="118.21" x2="432.76" y2="108.75"/>
        <polyline class="cls-10" points="547.29 113.92 547.3 113.93 552.45 117.87"/>
        <line class="cls-10" x1="562.77" y1="115.23" x2="574.38" y2="123.17"/>
        <polyline class="cls-10" points="552.45 117.87 552.45 117.86 553.74 114.47"/>
        <polyline class="cls-10" points="573.49 125.21 573.47 125.2 567.59 122.58"/>
        <line class="cls-10" x1="572.41" y1="163.81" x2="577.83" y2="165.36"/>
        <line class="cls-10" x1="577.83" y1="165.36" x2="574.29" y2="166.91"/>
        <line class="cls-10" x1="564.68" y1="177.54" x2="569.47" y2="181.78"/>
        <line class="cls-10" x1="569.47" y1="181.78" x2="568.96" y2="176.44"/>
        <polygon class="cls-7" points="576.44 118.24 575.38 120.87 573.18 117.5 576.44 118.24"/>
        <polygon class="cls-5" points="573.16 117.48 575.38 120.87 574.38 123.17 562.77 115.23 562.77 115.22 573.16 117.48"/>
        <polygon class="cls-11" points="574.38 123.17 573.49 125.21 573.47 125.2 567.59 122.58 574.38 123.17"/>
        <polygon class="cls-4" points="574.38 123.17 567.59 122.58 562.61 122.14 562.6 122.14 562.77 115.23 574.38 123.17"/>
        <polygon class="cls-4" points="573.49 125.21 562.45 128.44 562.6 122.14 562.61 122.14 573.47 125.2 573.49 125.21"/>
        <polygon class="cls-11" points="573.47 125.2 562.61 122.14 567.59 122.58 573.47 125.2"/>
        <polygon class="cls-11" points="577.83 165.36 574.29 166.91 572.41 163.81 577.83 165.36"/>
        <polygon class="cls-1" points="572.41 163.81 574.29 166.91 563.07 165.2 572.41 163.81"/>
        <polygon class="cls-10" points="572.41 163.81 563.07 165.2 563.09 160.48 572.41 163.81"/>
        <polygon class="cls-11" points="568.96 176.44 569.47 181.78 564.68 177.54 568.96 176.44"/>
        <polygon class="cls-11" points="568.96 176.44 564.68 177.54 563.52 171.15 568.96 176.44"/>
        <polygon class="cls-10" points="562.77 115.23 562.6 122.14 562.45 128.44 557.11 122.54 562.76 115.23 562.77 115.23"/>
        <polygon class="cls-4" points="554.13 110.78 562.76 115.23 553.74 114.47 547.3 113.93 547.29 113.92 547.27 113.93 533.75 112.79 541.93 111.03 550.88 109.11 554.13 110.78"/>
        <polygon class="cls-5" points="562.76 115.23 557.11 122.54 552 129.15 551.98 129.13 548.79 118.8 552.45 117.87 552.45 117.86 562.76 115.23"/>
        <polygon class="cls-10" points="562.76 115.23 552.45 117.86 553.74 114.47 562.76 115.23"/>
        <polygon class="cls-7" points="562.45 93.48 554.13 110.78 551.57 98.49 551.57 98.44 562.45 93.48"/>
        <polygon class="cls-4" points="557.11 122.54 562.45 128.44 547.99 134.33 552 129.15 557.11 122.54"/>
        <polygon class="cls-2" points="563.52 171.15 564.68 177.54 559.35 174.53 563.25 171.27 563.27 171.12 563.52 171.15"/>
        <polygon class="cls-1" points="563.27 171.12 563.25 171.27 559.35 174.53 559.21 174.42 553.37 167.8 563.27 171.12"/>
        <polygon class="cls-2" points="563.09 160.48 563.07 165.2 562.81 165.07 553.88 160.66 553.62 160.53 563.09 160.48"/>
        <polygon class="cls-7" points="562.81 165.07 554.06 167.6 554.01 167.44 553.81 161.08 553.74 160.85 553.79 160.84 553.88 160.66 562.81 165.07"/>
        <polygon class="cls-7" points="559.21 174.42 559.04 174.63 540.36 173.19 545.14 168.78 553.37 167.8 559.21 174.42"/>
        <polygon class="cls-10" points="551.57 98.49 554.13 110.78 550.88 109.11 551.57 98.49"/>
        <polygon class="cls-2" points="553.74 114.47 552.45 117.86 552.45 117.87 547.3 113.93 553.74 114.47"/>
        <polygon class="cls-8" points="552.45 117.87 548.79 118.8 547.29 113.93 547.3 113.93 552.45 117.87"/>
        <polygon class="cls-7" points="552.22 88.44 551.57 98.44 551.56 98.45 551.57 98.49 550.88 109.11 541.93 111.03 552.22 88.44"/>
        <polygon class="cls-10" points="552.22 88.44 541.93 111.03 533.75 112.79 533.6 112.67 552.22 88.44"/>
        <polygon class="cls-9" points="500.27 122.01 502.16 126.6 493.63 122.08 488.49 119.35 492.25 120.21 500.24 122.02 500.27 122.01"/>
        <polygon class="cls-5" points="554.01 167.44 554.06 167.6 553.56 167.75 537.55 162.49 537.65 162.09 537.67 162.1 553.74 160.85 553.81 161.08 554.01 167.44"/>
        <polygon class="cls-10" points="553.88 160.66 553.79 160.84 553.74 160.85 537.67 162.1 537.65 162.09 539.01 156.63 553.62 160.53 553.88 160.66"/>
        <polygon class="cls-4" points="537.55 162.49 553.56 167.75 553.37 167.8 545.14 168.78 537.4 162.71 537.55 162.49"/>
        <polygon class="cls-2" points="547.55 121.61 547.99 134.33 539.76 139.36 547.55 121.61"/>
        <polygon class="cls-5" points="547.99 134.33 542.73 146.48 539.76 139.36 547.99 134.33"/>
        <polygon class="cls-11" points="547.29 113.93 547.55 121.61 536.41 122.47 536.4 122.47 523.22 123.49 547.27 113.93 547.29 113.93"/>
        <polygon class="cls-4" points="547.55 121.61 539.76 139.36 536.41 122.47 547.55 121.61"/>
        <polygon class="cls-9" points="547.27 113.93 523.22 123.49 522.97 123.59 522.93 123.47 522.93 123.46 533.54 112.75 533.6 112.67 533.75 112.79 547.27 113.93"/>
        <polygon class="cls-1" points="545.14 168.78 540.36 173.19 523.7 172.61 545.14 168.78"/>
        <polygon class="cls-7" points="545.14 168.78 523.7 172.61 537.4 162.71 545.14 168.78"/>
        <polygon class="cls-4" points="542.73 146.48 543.06 150.4 538.73 147.53 515.23 131.97 514.9 131.58 515.06 131.42 526.27 135.02 539.76 139.36 542.73 146.48"/>
        <polygon class="cls-5" points="543.06 150.4 539.01 156.63 538.73 147.53 543.06 150.4"/>
        <polygon class="cls-11" points="536.41 122.47 539.76 139.36 526.27 135.02 526.27 135.02 536.41 122.47"/>
        <polygon class="cls-2" points="538.73 147.53 539.01 156.63 532.98 160.17 535.17 155.35 538.73 147.53"/>
        <polygon class="cls-7" points="539.01 156.63 537.65 162.09 537.55 162.49 532.98 160.17 539.01 156.63"/>
        <polygon class="cls-5" points="538.73 147.53 535.17 155.35 515.23 131.97 538.73 147.53"/>
        <polygon class="cls-4" points="537.55 162.49 537.4 162.71 523.7 172.61 523.43 172.36 531.37 159.35 532.98 160.17 537.55 162.49"/>
        <polygon class="cls-10" points="536.41 122.47 526.27 135.02 524.15 127.73 536.4 122.47 536.41 122.47"/>
        <polygon class="cls-2" points="536.4 122.47 524.15 127.73 522.97 123.59 523.22 123.49 536.4 122.47"/>
        <polygon class="cls-6" points="535.17 155.35 532.98 160.17 531.37 159.35 528 157.64 535.17 155.35"/>
        <polygon class="cls-7" points="515.23 131.97 535.17 155.35 522.01 152.41 514.97 131.8 515.23 131.97"/>
        <polygon class="cls-7" points="426.99 141.23 444.08 146.42 436.72 149.11 430.39 141.47 426.99 141.23"/>
        <polygon class="cls-5" points="535.17 155.35 528 157.64 522.01 152.41 535.17 155.35"/>
        <polygon class="cls-5" points="531.37 159.35 523.43 172.36 508.03 168.12 531.37 159.35"/>
        <polygon class="cls-7" points="531.37 159.35 508.03 168.12 511.73 163.96 522.01 152.41 528 157.64 531.37 159.35"/>
        <polygon class="cls-5" points="514.97 131.8 522.01 152.41 494.24 142.98 514.76 131.66 514.97 131.8"/>
        <polygon class="cls-11" points="522.01 152.41 511.73 163.96 494.24 142.98 522.01 152.41"/>
        <polygon class="cls-1" points="514.72 131.63 514.76 131.66 494.24 142.98 496.41 132.82 508.3 133.5 514.72 131.63"/>
        <polygon class="cls-11" points="390.05 159.26 413.44 162.04 413.59 166.84 413.35 166.92 403.75 163.76 390.05 159.26"/>
        <polygon class="cls-5" points="502.19 157.69 507.76 168 491.58 160.57 502.19 157.69"/>
        <polygon class="cls-7" points="494.24 142.98 502.19 157.69 491.58 160.57 494.11 143.6 493.88 143.4 494.24 142.98"/>
        <polygon class="cls-11" points="496.41 132.82 494.24 142.98 482.81 128.39 496.41 132.82"/>
        <polygon class="cls-11" points="482.81 128.39 494.24 142.98 472.1 126.52 482.81 128.39"/>
        <polygon class="cls-4" points="494.24 142.98 493.88 143.4 478.56 161.24 472.1 126.52 494.24 142.98"/>
        <polygon class="cls-9" points="494.11 143.6 491.58 160.57 478.56 161.24 493.88 143.4 494.11 143.6"/>
        <polygon class="cls-7" points="491.58 160.57 487.74 170.8 487.27 170.31 478.56 161.24 491.58 160.57"/>
        <polygon class="cls-4" points="487.27 170.31 487.74 170.8 474.93 182.03 474.6 181.37 467.52 167.32 487.04 170.53 487.27 170.31"/>
        <polygon class="cls-11" points="487.27 170.31 487.04 170.53 467.52 167.32 478.56 161.24 487.27 170.31"/>
        <polygon class="cls-11" points="472.1 126.52 478.56 161.24 461.26 130.9 472.1 126.52"/>
        <polygon class="cls-8" points="461.26 130.9 478.56 161.24 458.31 159.11 461.02 131 461.26 130.9"/>
        <polygon class="cls-5" points="478.56 161.24 467.52 167.32 461.46 169.33 457.36 170.68 458.31 159.11 478.56 161.24"/>
        <polygon class="cls-2" points="474.6 181.37 474.93 182.03 460.49 185.86 461.55 169.61 474.6 181.37 474.6 181.37"/>
        <polygon class="cls-7" points="467.52 167.32 474.6 181.37 474.93 182.03 461.55 169.61 461.46 169.33 467.52 167.32"/>
        <polygon class="cls-8" points="472.1 126.52 461.26 130.9 461.21 130.83 466.95 127.11 472.1 126.52"/>
        <polygon class="cls-8" points="466.95 127.11 461.21 130.83 461.06 130.56 461.02 130.95 460.82 131.08 453.93 126.38 466.95 127.11"/>
        <polygon class="cls-11" points="436.2 171.63 447.26 175.71 441.22 175.47 436.2 171.63"/>
        <polygon class="cls-4" points="461.02 131 458.31 159.11 448.87 152.18 456.08 139.6 460.82 131.08 461.02 131"/>
        <polygon class="cls-7" points="460.82 131.08 456.08 139.6 441.08 140.02 443.95 138.04 460.82 131.08"/>
        <polygon class="cls-11" points="460.82 131.08 443.95 138.04 453.93 126.38 460.82 131.08"/>
        <polygon class="cls-2" points="458.44 177.77 460.49 185.86 450.78 187.11 458.44 177.77"/>
        <polygon class="cls-11" points="460.49 185.86 455.32 194.44 450.78 187.11 460.49 185.86"/>
        <polygon class="cls-7" points="458.31 159.11 457.36 170.68 452.15 169.8 440.68 168.12 458.31 159.11"/>
        <polygon class="cls-4" points="450.78 187.11 455.32 194.44 448.17 197.58 450.78 187.11"/>
        <polygon class="cls-11" points="455.32 194.44 454.01 200.04 448.02 198.2 448.17 197.58 455.32 194.44"/>
        <polygon class="cls-7" points="454.01 200.04 450.53 201.55 448.02 198.2 454.01 200.04"/>
        <polygon class="cls-8" points="453.93 126.38 443.95 138.04 444.25 123.52 453.93 126.38"/>
        <polygon class="cls-11" points="448.02 198.2 450.53 201.55 444.39 201.11 448.02 198.2"/>
        <polygon class="cls-8" points="437.46 116.12 444.25 123.52 431.69 118.98 431.49 118.27 431.72 118.21 437.46 116.12"/>
        <polygon class="cls-4" points="444.25 123.52 443.95 138.04 433.23 131.55 444.25 123.52"/>
        <polygon class="cls-11" points="444.25 123.52 433.23 131.55 431.69 118.98 444.25 123.52"/>
        <polygon class="cls-7" points="443.95 138.04 429.28 131.74 433.23 131.55 443.95 138.04"/>
        <polygon class="cls-7" points="436.52 157.99 440.68 168.12 431.62 169.45 431.14 169.61 431.07 169.42 436.52 157.99"/>
        <polygon class="cls-11" points="432.76 108.75 437.46 116.12 431.72 118.21 432.76 108.75"/>
        <polygon class="cls-8" points="436.52 157.99 431.07 169.42 431.14 169.61 431.14 169.62 424.26 171.97 436.52 157.99"/>
        <polygon class="cls-2" points="436.52 157.99 424.26 171.97 424.91 162.62 436.52 157.99"/>
        <polygon class="cls-7" points="431.69 118.98 433.23 131.55 426.71 116.82 431.69 118.98"/>
        <polygon class="cls-7" points="432.76 108.75 431.72 118.21 431.49 118.27 427.58 104.39 432.76 108.75"/>
        <polygon class="cls-8" points="424.91 162.62 424.26 171.97 419.6 175.14 424.91 162.62"/>
        <polygon class="cls-7" points="424.91 162.62 419.6 175.14 416.6 172.2 424.91 162.62"/>
        <polygon class="cls-2" points="419.6 175.14 413.06 174.97 416.6 172.2 419.6 175.14"/>
        <polyline class="cls-7" points="413.06 174.97 411.55 171.37 416.6 172.2"/>
        <polyline class="cls-7" points="444.39 201.11 442.2 200.04 448.02 198.2"/>
        <polygon class="cls-10" points="436.52 157.99 458.31 159.11 440.68 168.12 436.52 157.99"/>
        <polygon class="cls-11" points="448.87 152.18 458.31 159.11 436.52 157.99 448.87 152.18"/>
        <line class="cls-9" x1="519.91" y1="129.52" x2="519.8" y2="129.42"/>
        <polygon class="cls-4" points="524.16 127.73 519.91 129.54 515.27 131.5 515.18 131.47 519.09 127.43 524.15 127.71 524.16 127.73"/>
        <polygon class="cls-8" points="523.09 127.22 518.03 126.94 521.87 122.98 523.09 127.22"/>
        <polygon class="cls-6" points="526.27 135.03 519.91 129.54 524.16 127.73 526.27 135.03"/>
        <polygon class="cls-11" points="526.27 135.03 515.27 131.5 519.91 129.54 526.27 135.03"/>
        <g>
          <polyline class="cls-12" points="543.06 150.4 514.76 131.66 366.25 93.35 353.07 92.51 342.99 91.77"/>
          <polyline class="cls-12" points="539.01 156.63 535.17 155.35 514.76 131.66"/>
        </g>
      </g>
    </g>
  </g>
</svg>