<?xml version="1.0" encoding="UTF-8"?>
<svg id="Capa_2" data-name="Capa 2" xmlns="http://www.w3.org/2000/svg" viewBox="0 0 584.15 208.73">
  <defs>
    <style>
      .cls-1 {
        fill: #6a7624;
      }

      .cls-1, .cls-2, .cls-3, .cls-4, .cls-5, .cls-6, .cls-7, .cls-8, .cls-9, .cls-10, .cls-11, .cls-12 {
        stroke-width: 0px;
      }

      .cls-2 {
        fill: #6d7822;
      }

      .cls-3 {
        fill: #4d4d4d;
      }

      .cls-4 {
        fill: #848c30;
      }

      .cls-5 {
        fill: #6e7924;
      }

      .cls-6 {
        fill: #545a2c;
      }

      .cls-7 {
        fill: #414717;
      }

      .cls-8 {
        fill: #939d4e;
      }

      .cls-9 {
        fill: #abb052;
      }

      .cls-10 {
        fill: #a1a150;
      }

      .cls-13 {
        fill: none;
        stroke: #222221;
        stroke-miterlimit: 10;
      }

      .cls-11 {
        fill: #fff;
      }

      .cls-12 {
        fill: #5f6818;
      }
    </style>
  </defs>
  <g id="triangulos">
    <g>
      <g>
        <polygon class="cls-11" points="313.56 46.1 313.21 46.44 308.07 42.38 299.15 50.25 301.88 57.25 306.69 57.14 310.13 55.01 311.3 52.82 314.49 55.13 317.87 54.14 316.98 46.31 313.56 46.1"/>
        <polygon class="cls-11" points="421.54 146.76 416.92 142.47 413.71 141.43 408.34 142.08 407.46 149.81 417.44 153.45 421.54 146.76"/>
        <polygon class="cls-11" points="313.82 69.49 310.82 76.62 313.53 78.7 316.56 79.48 322.32 78.61 322.29 70.7 313.82 69.49"/>
        <polygon class="cls-11" points="314.41 95.55 320.08 98.83 325.32 97.72 328.6 93.2 324.81 86.88 315.87 88.12 314.41 95.55"/>
        <polygon class="cls-11" points="294.41 25.78 303.49 25.38 304.39 17.53 293.84 14.6 289.11 20.07 290.57 23.39 294.41 25.78"/>
        <path class="cls-11" d="M577.63,163.19l-9.2-3.29-1.37-.23-8.93.05-8.77-2.34,1.04-1.61.63-2.52-.25-2.92,4.21-9.73,12.76-5.2,10.84-3.17,2.54-2.24,1.89-4.35-3.34-1.45h.01s3.38,1.36,3.38,1.36l1.06-2.62-2.81-5.4-3.26-.75h0s-.06-.03-.06-.03l-9.92-2.16-4.66-2.4,6.63-13.79-5.26-5.37-4.79,2.19.22-3.33-7.16-2.7-8.14,10.59-3.96-4.32-6.84,3.64.99,4.13-5.8,3.01.24,5.69,3.69,2.66-3.07,3.1-1.48-1.36-6.17.93-1.06,1.83,2.15,4.43-.6-.15-3.84,3.96.44,1.13-1.91,1.97-7.97-2.06.13-.12-1.07-2.58,12.01-3.09-1.42-7.32,2.63,1.21,5.57-4.51-.49-2.16-4.59-3.06-3.07.53-.98,7.58h.02s-13.75,1.84-13.75,1.84l-1.06,4.28-10.29-2.33-1.87,5.04-50.88-13.13-.49-.77-.8-.91-5.18-4.36-4.84,3.12-54.36-14.02,1.3-6.23,2.01-8.31,6.01,5.2,2.79.97,4.92-.21,3.1-1.69,6.4-9.06.39-.69,4.94-11.2,2.53-4.21,2.73-3.52.83-2.09.41-4.53-1.18-3.22-5.66-5.56-5.31-.26-3.49,2.81-2.17-2.37,1.44-1.17-.49-2.16-4.59-3.06-3.07.53-.98,7.58,1.83.84-1.33.71,1.28,5.33,3.97,3.06h.4s.28,6.43.28,6.43l-5.88,7.06-3.12-3.14v-4.46l-.38-1.69-8.11-17.35,1.93.11,4-2.68,1.71-4.92.1-.35.88-3.56-.3-.07,1.46-1.96-1.47-5.47-.09-2.59-.04-.45-.93-6.22-1.76-2.75-5.57-3.67-2.04-.66-8.82-.35-.94.56-4.48-2.94-5.23,3.97-.13-.23-7.32.84-.87,2.95-5.37-.78,1.89-3.96-2.54-2.34-6.17.93-1.06,1.83,1.25,2.58h-.03s-.82.99-.82.99l-2.72-3.06-2.72-1.33-5.41-.37-1.01,3.39-.09-.08-5.96.69-3.7,5.33.35.33-3.92-.1-2.18,7.42,4.05,2.46,4.67-.37,2.69-2.28-1.1-3.12,1.18,1.12,2.92-2.25.02,2.58.65.19-.79.41.24,5.69,1.18.85-.63,1,2.44,4.16,2.99,1.95,14.19,1.66,2.14-.34,10.62-4.89,1.01-.93.49,1.5.43,3.14-4.06.5-1.16.32-9.8,4.41-10.89,4.98-.05,1.4h-.5s.97-2.5.97-2.5l-4.78-3.28-4.22-.19-1.92,1.08-5.4-4.16-6.23,1.91-.8,2.39,2.68,5.11,6.26,1.81,2.08-4.11,1.03,5.5,4.45.64-2.01.39-3.22,4.22.67,9.19.63.12-.41.93,4.49,12.67,1.85,5.96.09,6.53,4.14,3.94.84-.03,2.85,4.1,8.1-1.58,3.19-3.36.59-4.15-.38-2.35-1.95-3.89,4.55,4.36.29-.06-4.29,8.95.06.03-.05.05-.04-.02-.06.12-3.15,3.41-.91,1.61-1.78,6.22.02,2.26.16.53-10.75-7.59-6.22,4.08.46,2.23,2.01,2.7,3.46,1.87-.94.59v4.31s3.98,4,3.98,4l5.8.02-1.96,2.67-.48.85-3.65,8.98-4.08-6.67-14.78,7.46,1.69,7.57,4.42.12,2.47-.77,10.16-7.44-1.8,4.42,1.26.98-2.02,2.3-7.71,3.1-1.67,1.26-10.17,13.14-.72,1.5-.38,1.55-2.18-8.55-7.81.28-1.78,9.92,3.92,4.71h2.71s-3.05,2.32-3.05,2.32l-6.43,1.73-2.83,4.88.83,3.16-3.13-2.3,1.31-1.61-7.7-8-4.31-.96-3.11,1.19-.71,7.12,8.3,5.23-1.24,1.18,2.55,3.86,2.11,1.6.26.08-2.9,1.04-.62,7.25,7.85,4.44,2.94-2.38,3.89,7.29,1.47,1.54,4.13,2.49,4.57-.31,1.54-1.24,1.35-4.18-1.5-5.44-.38-.92-.1-.17,2.08-9.58,1.17-1.59.62-1.26,1.6-5.51,14.06-12.57.2-.19,7.23-7.41,7.34-3.04,1.78-1.45,2.04-3.01,7.12-9.86,14.38-18.48,2.46.63,4.91,1.37-1.99.13-2.37.98-2.66,2.33,3.59,6.89,7.48-1.85-.63.79-4.97,11.75-2.4,3.28,1.1-2.42-6.37-7.27-6.94,3.35,1.33,7.27,3.93,3.28h3.86l-.5.68-5.85,5.45-.24.72-2.66-1.22-4.93,2.98.33,3.81-2.03,1.51-.67,1.61.61-6.05-7.67-2.62-4.87,2-1.93,3.86,4.09,5.75,9.02-1.17-.16.38.45,3.14,2.74,3.25,2.3.73-3.81-.09-2.7,7.04,7.26,6.22,6.55-3.71-1.04-6.07-2.54-2.19,3.7,1.18,2.33,5.66,1.56,1.86,6.28,3.97,1.52.57,6.77,1.06,4.55-4.67-.53-2.88-.79-1.75-4.45-5.66-2.45-10.58,2.5-4.31,13.23-13.71,7.65-7.72v-.07s.06.01.06.01l11.49-12.09.48-.9,7.59,4.97,5.6-5.44-4.57-7.44,7.01,2.05,4.99,11.28-.83,4.6,12.42,5.33.11.32-6.64-2.02-.11-.14-2.81-1.44-3.4-.23-1.44,7.82,3.13.95,4.68,5.65,4.4,1.19-3.09,1.45-7.6,3.03,4.84-3.54-4.16-6.8-14.78,7.46.85,3.81-.18-.2-23.39-2.78-1.72,7.77,21.31,7.01-2.25,2.85,1.51,3.6,3.58,2.45,6.54.17,2.35-.69,4.21-2.87,6.37-2.18h0s.13-.05.13-.05l2.18-.32-.97,1.77,5.03,3.84,1.24.45-3.04.77-.17,7.71,7.08,2.12,2.37-1.01-1.59,6.38-3.68,1.16-.55,7.41,2.19,1.07,1.47.4,6.14.44,1.88-.32,3.48-1.51,2.3-2.76,1.17-4.99,4.01-6.65,12.88-3.42,1.61-.86,12.81-11.23,1.11-1.6,2.33-6.21,12.28,5.64.59-.63.29.97,15.4,4.24.02-.09,1.17.48,16.58.58,18.27,1.41,3.93,2.22,4.47,3.96,6.63-3.38-.51-5.34-1.19-2.49-3.66-3.56,5.6.85,2.21-.29,3.54-1.55-.5-7.51-5.29-1.51ZM340.31,114.51v.02s0,0,0,0v-.03ZM451.31,181.87l1.08-5.4,3.1.45,5.21.88.52-.04-.07,1.05-1.8-.4-5.47,6.67-2.57-3.22ZM342.97,79.59l-.32-.63-.66-.95-4.59-4.88-1.03-10.69-.1-4.03,6.12-2.07,2.58-.35,2.96,12.93.55,3.45-4.46,1.08-1.06,6.14ZM339.14,111.29l-1.35-.64.77-1.25.58,1.89ZM305.3,165.1l-.76.12-.33.14,1.5-1.92-.41,1.66ZM291.15,184.53l-.39,2.92-1.42-.7,1.58-3.09.23.87ZM384.27,127.13l-2.87,2.09-.47-3.02,3.34.93ZM413.04,119.4l-.34.53-.3-.99-.98-.94,4.91,1.44-3.29-.04ZM449.28,147.09l3.78-.11-3.04,5.3-.59.28-.15-5.47ZM424.27,165.05l-2.73,3.15-.09-2.92,1.92.05.91-.28Z"/>
      </g>
      <g>
        <path class="cls-11" d="M315.51,74.24c-.38-.67-.84-1.27-1.36-1.81.8-.93,1.26-2.16,1.26-3.57v-4.52c0-3.11-2.26-5.37-5.37-5.37h-10.64c-3.39,0-6.19.88-8.31,2.61-.2.17-.41.35-.62.55-.79-1.92-2.63-3.17-4.94-3.17h-10.64c-3.39,0-6.19.88-8.31,2.61-.55.45-1.13,1.04-1.66,1.78-.52-.71-1.14-1.35-1.86-1.93-1.33-1.06-3-1.82-5.12-2.35-1.86-.46-4.1-.69-6.83-.69s-4.97.22-6.83.69c-2.12.52-3.79,1.29-5.11,2.35-1.23.98-2.16,2.17-2.78,3.52-.09-.23-.17-.47-.28-.69-.84-1.75-2.28-3.17-4.17-4.09-1.66-.81-3.7-1.21-6.24-1.21h-12.65c-1.39,0-2.59.47-3.52,1.24-.92-.78-2.13-1.24-3.51-1.24h-9.27c-4.2,0-7.35.92-9.63,2.83-.13.11-.26.24-.39.36-.79-1.93-2.63-3.19-4.95-3.19h-16.19c-1.47,0-2.74.52-3.69,1.38-.94-.86-2.21-1.38-3.69-1.38h-5.7c-2.35,0-4.21,1.28-4.98,3.25l-.72-.82c-1.34-1.57-3.21-2.43-5.29-2.43h-3.95c-3.11,0-5.37,2.26-5.37,5.37v2.96l-1.7-4.44c-.85-2.4-3-3.88-5.66-3.88h-10.22c-2.68,0-4.85,1.49-5.7,3.88l-.75,1.96v-.48c0-3.11-2.26-5.37-5.37-5.37h-9.27c-4.2,0-7.35.92-9.63,2.83-1.7,1.41-3.72,4.12-3.72,8.96v11.82c0,4.82,2.02,7.51,3.72,8.92,2.28,1.9,5.43,2.83,9.63,2.83h9.27c1.25,0,2.35-.38,3.23-1.01.88.64,1.98,1.01,3.23,1.01h5.59c2.13,0,3.86-1.06,4.74-2.72.9,1.67,2.66,2.72,4.84,2.72h5.74c1.48,0,2.76-.52,3.71-1.4.94.87,2.22,1.4,3.71,1.4h5.7c2.04,0,3.71-.97,4.62-2.51.91,1.54,2.58,2.51,4.62,2.51h5.7c1.47,0,2.74-.52,3.69-1.38.94.86,2.21,1.38,3.69,1.38h16.19c2.32,0,4.16-1.26,4.95-3.19.13.12.26.25.39.36,2.28,1.9,5.43,2.83,9.63,2.83h9.27c1.39,0,2.59-.47,3.51-1.24.92.78,2.13,1.24,3.52,1.24h5.85c2.14,0,3.87-1.07,4.75-2.75.88,1.68,2.61,2.75,4.75,2.75h5.89c2.08,0,3.76-1.03,4.66-2.63.08.07.14.14.23.2,1.34,1.06,3.02,1.83,5.15,2.33,1.86.45,4.08.66,6.8.66s4.94-.22,6.8-.66c2.13-.51,3.81-1.27,5.15-2.34.19-.15.36-.32.53-.48.85,1.76,2.6,2.91,4.81,2.91h12.01c3.22,0,5.89-.81,7.97-2.38.93,1.46,2.55,2.38,4.53,2.38h12.01c3.4,0,6.2-.89,8.33-2.65,1.61-1.34,3.54-3.82,3.54-8.04v-3.99c0-2.12-.43-3.94-1.27-5.41ZM206.01,79.07h-5.96v-4.77h5.96c.59,0,1.14-.11,1.66-.26v5.29c-.52-.15-1.07-.26-1.66-.26ZM163.57,73.94c.55.2,1.13.34,1.77.36v4.78c-.63.02-1.22.16-1.77.36v-5.5ZM182.08,79.08v-4.78c.46-.02.89-.11,1.31-.23v5.25c-.42-.12-.85-.21-1.31-.23ZM102.8,79.07h-5.96v-4.77h5.96c.7,0,1.36-.13,1.96-.35-.15.49-.28.96-.39,1.4-.32,1.31-.48,2.48-.48,3.57v.24c-.35-.06-.71-.1-1.09-.1Z"/>
        <path class="cls-11" d="M314.15,118.03c.8-.93,1.26-2.16,1.26-3.57v-4.52c0-3.11-2.26-5.37-5.37-5.37h-10.64c-3.39,0-6.19.88-8.31,2.61-1.18.96-2.51,2.55-3.16,4.97l-1.42-3.7c-.85-2.4-3-3.88-5.66-3.88h-10.22c-2.68,0-4.85,1.49-5.7,3.88l-3.19,8.33s0-.08,0-.12v-1.75c0-1.86-.36-3.57-1.08-5.05-.84-1.75-2.28-3.17-4.17-4.09-1.66-.81-3.7-1.21-6.24-1.21h-12.65c-2.99,0-5.17,2.09-5.34,5.01-.86-1.62-2.22-2.94-4-3.81-1.66-.81-3.7-1.2-6.24-1.2h-12.65c-1.44,0-2.68.5-3.61,1.32-.93-.82-2.17-1.32-3.61-1.32h-17.63c-1.48,0-2.76.52-3.71,1.4-.94-.87-2.22-1.4-3.71-1.4h-16.19c-1.54,0-2.87.56-3.82,1.49-.95-.94-2.28-1.49-3.82-1.49h-10.64c-3.39,0-6.19.88-8.31,2.61-.02.01-.03.03-.05.04-.89-1.62-2.58-2.66-4.68-2.66h-17.63c-2.99,0-5.17,2.09-5.34,5.01-.86-1.62-2.22-2.94-4-3.81-1.66-.81-3.7-1.21-6.24-1.21h-12.65c-1.24,0-2.33.37-3.21,1-.88-.63-1.97-1-3.21-1h-20.06c-1.24,0-2.33.37-3.21,1-.88-.63-1.97-1-3.21-1h-5.7c-2.35,0-4.21,1.28-4.98,3.25l-.72-.82c-1.34-1.57-3.21-2.43-5.29-2.43h-3.95c-1.44,0-2.68.5-3.61,1.32-.93-.82-2.17-1.32-3.61-1.32H5.37c-3.11,0-5.37,2.26-5.37,5.37v24.62c0,3.11,2.26,5.37,5.37,5.37h17.63c1.44,0,2.68-.5,3.61-1.32.93.82,2.17,1.32,3.61,1.32h5.7c2.04,0,3.71-.97,4.62-2.51.91,1.54,2.58,2.51,4.62,2.51h5.7c3.11,0,5.37-2.26,5.37-5.37v-14.75c.34.06.69.1,1.05.1h1.59v14.66c0,3.11,2.26,5.37,5.37,5.37h6.16c3.11,0,5.37-2.26,5.37-5.37v-14.66h1.59c.36,0,.71-.04,1.05-.1v14.75c0,3.11,2.26,5.37,5.37,5.37h5.85c2.14,0,3.87-1.07,4.75-2.75.88,1.68,2.61,2.75,4.75,2.75h5.89c1.38,0,2.57-.46,3.5-1.23.92.77,2.12,1.23,3.5,1.23h17.63c1.27,0,2.38-.39,3.27-1.04.89.65,2,1.04,3.27,1.04h12.01c3.32,0,6.06-.85,8.16-2.52.91,1.54,2.57,2.52,4.61,2.52h16.19c1.48,0,2.76-.52,3.71-1.4.94.87,2.22,1.4,3.71,1.4h17.63c1.44,0,2.68-.5,3.61-1.32.93.82,2.17,1.32,3.61,1.32h5.85c2.14,0,3.87-1.07,4.75-2.75.88,1.68,2.61,2.75,4.75,2.75h5.89c1.38,0,2.57-.46,3.5-1.23.92.77,2.12,1.23,3.5,1.23h5.85c2.14,0,3.87-1.07,4.75-2.75.88,1.68,2.61,2.75,4.75,2.75h5.89c1.24,0,2.33-.37,3.21-1,.88.63,1.97,1,3.21,1h5.59c2.13,0,3.86-1.06,4.74-2.72.9,1.67,2.66,2.72,4.84,2.72h5.74c1.31,0,2.46-.42,3.36-1.12.9.7,2.05,1.12,3.36,1.12h12.01c3.4,0,6.2-.89,8.33-2.65,1.61-1.34,3.54-3.82,3.54-8.04v-3.99c0-2.12-.43-3.94-1.27-5.41-.38-.67-.84-1.27-1.36-1.81ZM158.77,119.84c-.11-.18-.23-.35-.34-.52.68.34,1.44.55,2.28.58v4.78c-.24,0-.46.05-.69.09-.06-1.91-.47-3.57-1.25-4.92ZM177.44,124.68v-4.78c.62-.03,1.19-.17,1.73-.37v5.53c-.53-.2-1.11-.34-1.73-.37ZM131.83,125.17c.04-.25.05-.51.07-.77.22.44.49.85.78,1.23-.27-.17-.54-.33-.85-.46Z"/>
      </g>
      <g>
        <path class="cls-3" d="M102.8,90.33h-9.27c-3.19,0-5.55-.63-7.07-1.9-1.52-1.27-2.28-3.22-2.28-5.85v-11.82c0-2.66.76-4.62,2.28-5.89s3.88-1.9,7.07-1.9h9.27c.91,0,1.37.46,1.37,1.37v4.6c0,.91-.46,1.37-1.37,1.37h-7.64c-1.55,0-2.32.63-2.32,1.9v9.04c0,1.22.77,1.82,2.32,1.82h7.64c.91,0,1.37.46,1.37,1.37v4.52c0,.91-.46,1.37-1.37,1.37Z"/>
        <path class="cls-3" d="M116.21,88.96c0,.91-.46,1.37-1.37,1.37h-5.59c-.91,0-1.37-.46-1.37-1.37v-10.03c0-.76.12-1.63.36-2.62.24-.99.61-2.14,1.12-3.46l3.31-8.63c.28-.84.92-1.25,1.94-1.25h10.22c.99,0,1.62.42,1.9,1.25l3.31,8.63c.51,1.32.88,2.47,1.12,3.46.24.99.36,1.86.36,2.62v10.03c0,.91-.46,1.37-1.37,1.37h-5.74c-.99,0-1.48-.46-1.48-1.37v-5.32h-6.73v5.32ZM118.38,70.95l-1.79,5.78h5.97l-1.79-5.78c-.18-.43-.42-.65-.72-.65h-.95c-.3,0-.55.22-.72.65Z"/>
        <path class="cls-3" d="M143.27,90.33h-5.7c-.91,0-1.37-.46-1.37-1.37v-24.62c0-.91.46-1.37,1.37-1.37h3.95c.91,0,1.66.34,2.24,1.03l7.37,8.44v-8.09c0-.91.46-1.37,1.37-1.37h5.7c.91,0,1.37.46,1.37,1.37v24.62c0,.91-.46,1.37-1.37,1.37h-5.7c-.91,0-1.37-.46-1.37-1.37v-4.67l-6.5-7.87v12.54c0,.91-.46,1.37-1.37,1.37Z"/>
        <path class="cls-3" d="M165.57,90.33c-.91,0-1.37-.46-1.37-1.37v-4.52c0-.91.46-1.37,1.37-1.37h3.76v-12.77h-3.76c-.91,0-1.37-.46-1.37-1.37v-4.6c0-.91.46-1.37,1.37-1.37h16.19c.91,0,1.37.46,1.37,1.37v4.6c0,.91-.46,1.37-1.37,1.37h-3.69v12.77h3.69c.91,0,1.37.46,1.37,1.37v4.52c0,.91-.46,1.37-1.37,1.37h-16.19Z"/>
        <path class="cls-3" d="M206.01,90.33h-9.27c-3.19,0-5.55-.63-7.07-1.9-1.52-1.27-2.28-3.22-2.28-5.85v-11.82c0-2.66.76-4.62,2.28-5.89s3.88-1.9,7.07-1.9h9.27c.91,0,1.37.46,1.37,1.37v4.6c0,.91-.46,1.37-1.37,1.37h-7.64c-1.55,0-2.32.63-2.32,1.9v9.04c0,1.22.77,1.82,2.32,1.82h7.64c.91,0,1.37.46,1.37,1.37v4.52c0,.91-.46,1.37-1.37,1.37Z"/>
        <path class="cls-3" d="M218.89,90.33h-5.85c-.91,0-1.37-.46-1.37-1.37v-24.62c0-.91.46-1.37,1.37-1.37h12.65c1.9,0,3.39.27,4.48.8,1.09.53,1.86,1.27,2.32,2.22.46.95.68,2.06.68,3.33v1.75c0,1.06-.15,1.96-.46,2.7-.3.74-.86,1.28-1.67,1.63,1.39.15,2.51.71,3.34,1.67.84.96,1.25,2.24,1.25,3.84v8.06c0,.91-.46,1.37-1.37,1.37h-5.89c-.91,0-1.37-.46-1.37-1.37v-5.81c0-.58-.11-1-.32-1.25-.22-.25-.59-.38-1.12-.38h-5.32v7.45c0,.91-.46,1.37-1.37,1.37ZM220.26,69.81v4.86h2.85c.66,0,1.1-.17,1.33-.51s.34-.77.34-1.27v-1.29c0-.51-.11-.93-.34-1.27s-.67-.51-1.33-.51h-2.85Z"/>
        <path class="cls-3" d="M262.89,83.15c0,1.17-.17,2.22-.51,3.17-.34.95-.94,1.77-1.81,2.45-.86.68-2.06,1.21-3.59,1.58-1.53.37-3.49.55-5.87.55s-4.34-.18-5.87-.55c-1.53-.37-2.73-.89-3.59-1.58-.86-.68-1.47-1.5-1.82-2.45-.35-.95-.53-2.01-.53-3.17v-12.96c0-1.17.18-2.22.53-3.17.35-.95.96-1.77,1.82-2.45.86-.68,2.06-1.22,3.59-1.6s3.49-.57,5.87-.57,4.34.19,5.87.57c1.53.38,2.73.91,3.59,1.6.86.68,1.46,1.5,1.81,2.45.34.95.51,2.01.51,3.17v12.96ZM247.92,81.78c0,.51.19.93.57,1.27.38.34,1.25.51,2.62.51s2.27-.17,2.64-.51c.37-.34.55-.77.55-1.27v-10.22c0-.51-.18-.92-.55-1.25-.37-.33-1.25-.49-2.64-.49s-2.24.17-2.62.49c-.38.33-.57.75-.57,1.25v10.22Z"/>
        <path class="cls-3" d="M280.41,90.33h-12.01c-.91,0-1.37-.46-1.37-1.37v-4.45c0-.91.46-1.37,1.37-1.37h10.22c.33,0,.58-.11.74-.32.16-.21.25-.48.25-.78,0-.43-.08-.75-.25-.95-.17-.2-.41-.32-.74-.34l-5.7-.8c-1.77-.28-3.2-.87-4.27-1.77-1.08-.9-1.62-2.41-1.62-4.54v-3.99c0-2.18.7-3.84,2.09-4.98,1.39-1.14,3.32-1.71,5.78-1.71h10.64c.91,0,1.37.46,1.37,1.37v4.52c0,.91-.46,1.37-1.37,1.37h-8.85c-.68,0-1.03.38-1.03,1.14s.34,1.14,1.03,1.22l5.66.76c1.19.18,2.23.49,3.12.93.89.44,1.58,1.1,2.07,1.96s.74,2,.74,3.42v3.99c0,2.15-.7,3.81-2.09,4.96-1.39,1.15-3.32,1.73-5.78,1.73Z"/>
        <path class="cls-3" d="M304.92,90.33h-12.01c-.91,0-1.37-.46-1.37-1.37v-4.45c0-.91.46-1.37,1.37-1.37h10.22c.33,0,.58-.11.74-.32.16-.21.25-.48.25-.78,0-.43-.08-.75-.25-.95-.17-.2-.41-.32-.74-.34l-5.7-.8c-1.77-.28-3.2-.87-4.27-1.77-1.08-.9-1.62-2.41-1.62-4.54v-3.99c0-2.18.7-3.84,2.09-4.98,1.39-1.14,3.32-1.71,5.78-1.71h10.64c.91,0,1.37.46,1.37,1.37v4.52c0,.91-.46,1.37-1.37,1.37h-8.85c-.68,0-1.03.38-1.03,1.14s.34,1.14,1.03,1.22l5.66.76c1.19.18,2.23.49,3.12.93.89.44,1.58,1.1,2.07,1.96s.74,2,.74,3.42v3.99c0,2.15-.7,3.81-2.09,4.96-1.39,1.15-3.32,1.73-5.78,1.73Z"/>
        <path class="cls-3" d="M23,135.93H5.37c-.91,0-1.37-.46-1.37-1.37v-24.62c0-.91.46-1.37,1.37-1.37h17.63c.91,0,1.37.46,1.37,1.37v4.45c0,.91-.46,1.37-1.37,1.37h-10.49v2.93h7.41c.91,0,1.37.46,1.37,1.37v4.07c0,.91-.46,1.37-1.37,1.37h-7.41v3.27h10.49c.91,0,1.37.46,1.37,1.37v4.45c0,.91-.46,1.37-1.37,1.37Z"/>
        <path class="cls-3" d="M35.92,135.93h-5.7c-.91,0-1.37-.46-1.37-1.37v-24.62c0-.91.46-1.37,1.37-1.37h3.95c.91,0,1.66.34,2.24,1.03l7.37,8.44v-8.09c0-.91.46-1.37,1.37-1.37h5.7c.91,0,1.37.46,1.37,1.37v24.62c0,.91-.46,1.37-1.37,1.37h-5.7c-.91,0-1.37-.46-1.37-1.37v-4.67l-6.5-7.87v12.54c0,.91-.46,1.37-1.37,1.37Z"/>
        <path class="cls-3" d="M70.39,135.93h-6.16c-.91,0-1.37-.46-1.37-1.37v-18.66h-5.59c-.91,0-1.37-.46-1.37-1.37v-4.6c0-.91.46-1.37,1.37-1.37h20.06c.91,0,1.37.46,1.37,1.37v4.6c0,.91-.46,1.37-1.37,1.37h-5.59v18.66c0,.91-.46,1.37-1.37,1.37Z"/>
        <path class="cls-3" d="M89.61,135.93h-5.85c-.91,0-1.37-.46-1.37-1.37v-24.62c0-.91.46-1.37,1.37-1.37h12.65c1.9,0,3.39.27,4.48.8,1.09.53,1.86,1.27,2.32,2.22.46.95.68,2.06.68,3.33v1.75c0,1.06-.15,1.96-.46,2.7-.3.74-.86,1.28-1.67,1.63,1.39.15,2.51.71,3.34,1.67.84.96,1.25,2.24,1.25,3.84v8.06c0,.91-.46,1.37-1.37,1.37h-5.89c-.91,0-1.37-.46-1.37-1.37v-5.81c0-.58-.11-1-.32-1.25-.22-.25-.59-.38-1.12-.38h-5.32v7.45c0,.91-.46,1.37-1.37,1.37ZM90.98,115.41v4.86h2.85c.66,0,1.1-.17,1.33-.51s.34-.77.34-1.27v-1.29c0-.51-.11-.93-.34-1.27s-.67-.51-1.33-.51h-2.85Z"/>
        <path class="cls-3" d="M129.63,135.93h-17.63c-.91,0-1.37-.46-1.37-1.37v-24.62c0-.91.46-1.37,1.37-1.37h17.63c.91,0,1.37.46,1.37,1.37v4.45c0,.91-.46,1.37-1.37,1.37h-10.49v2.93h7.41c.91,0,1.37.46,1.37,1.37v4.07c0,.91-.46,1.37-1.37,1.37h-7.41v3.27h10.49c.91,0,1.37.46,1.37,1.37v4.45c0,.91-.46,1.37-1.37,1.37Z"/>
        <path class="cls-3" d="M148.17,135.93h-12.01c-.91,0-1.37-.46-1.37-1.37v-4.45c0-.91.46-1.37,1.37-1.37h10.22c.33,0,.58-.11.74-.32.16-.21.25-.48.25-.78,0-.43-.08-.75-.25-.95-.17-.2-.41-.32-.74-.34l-5.7-.8c-1.77-.28-3.2-.87-4.27-1.77-1.08-.9-1.62-2.41-1.62-4.54v-3.99c0-2.18.7-3.84,2.09-4.98,1.39-1.14,3.32-1.71,5.78-1.71h10.64c.91,0,1.37.46,1.37,1.37v4.52c0,.91-.46,1.37-1.37,1.37h-8.85c-.68,0-1.03.38-1.03,1.14s.34,1.14,1.03,1.22l5.66.76c1.19.18,2.23.49,3.12.93.89.44,1.58,1.1,2.07,1.96s.74,2,.74,3.42v3.99c0,2.15-.7,3.81-2.09,4.96-1.39,1.15-3.32,1.73-5.78,1.73Z"/>
        <path class="cls-3" d="M160.94,135.93c-.91,0-1.37-.46-1.37-1.37v-4.52c0-.91.46-1.37,1.37-1.37h3.76v-12.77h-3.76c-.91,0-1.37-.46-1.37-1.37v-4.6c0-.91.46-1.37,1.37-1.37h16.19c.91,0,1.37.46,1.37,1.37v4.6c0,.91-.46,1.37-1.37,1.37h-3.69v12.77h3.69c.91,0,1.37.46,1.37,1.37v4.52c0,.91-.46,1.37-1.37,1.37h-16.19Z"/>
        <path class="cls-3" d="M202.17,135.93h-17.63c-.91,0-1.37-.46-1.37-1.37v-24.62c0-.91.46-1.37,1.37-1.37h17.63c.91,0,1.37.46,1.37,1.37v4.45c0,.91-.46,1.37-1.37,1.37h-10.49v2.93h7.41c.91,0,1.37.46,1.37,1.37v4.07c0,.91-.46,1.37-1.37,1.37h-7.41v3.27h10.49c.91,0,1.37.46,1.37,1.37v4.45c0,.91-.46,1.37-1.37,1.37Z"/>
        <path class="cls-3" d="M215.24,135.93h-5.85c-.91,0-1.37-.46-1.37-1.37v-24.62c0-.91.46-1.37,1.37-1.37h12.65c1.9,0,3.39.27,4.48.8,1.09.53,1.86,1.27,2.32,2.22.46.95.68,2.06.68,3.33v1.75c0,1.06-.15,1.96-.46,2.7-.3.74-.86,1.28-1.67,1.63,1.39.15,2.51.71,3.34,1.67.84.96,1.25,2.24,1.25,3.84v8.06c0,.91-.46,1.37-1.37,1.37h-5.89c-.91,0-1.37-.46-1.37-1.37v-5.81c0-.58-.11-1-.32-1.25-.22-.25-.59-.38-1.12-.38h-5.32v7.45c0,.91-.46,1.37-1.37,1.37ZM216.61,115.41v4.86h2.85c.66,0,1.1-.17,1.33-.51s.34-.77.34-1.27v-1.29c0-.51-.11-.93-.34-1.27s-.67-.51-1.33-.51h-2.85Z"/>
        <path class="cls-3" d="M243.47,135.93h-5.85c-.91,0-1.37-.46-1.37-1.37v-24.62c0-.91.46-1.37,1.37-1.37h12.65c1.9,0,3.39.27,4.48.8,1.09.53,1.86,1.27,2.32,2.22.46.95.68,2.06.68,3.33v1.75c0,1.06-.15,1.96-.46,2.7-.3.74-.86,1.28-1.67,1.63,1.39.15,2.51.71,3.34,1.67.84.96,1.25,2.24,1.25,3.84v8.06c0,.91-.46,1.37-1.37,1.37h-5.89c-.91,0-1.37-.46-1.37-1.37v-5.81c0-.58-.11-1-.32-1.25-.22-.25-.59-.38-1.12-.38h-5.32v7.45c0,.91-.46,1.37-1.37,1.37ZM244.84,115.41v4.86h2.85c.66,0,1.1-.17,1.33-.51s.34-.77.34-1.27v-1.29c0-.51-.11-.93-.34-1.27s-.67-.51-1.33-.51h-2.85Z"/>
        <path class="cls-3" d="M272.24,134.56c0,.91-.46,1.37-1.37,1.37h-5.59c-.91,0-1.37-.46-1.37-1.37v-10.03c0-.76.12-1.63.36-2.62.24-.99.61-2.14,1.12-3.46l3.31-8.63c.28-.84.92-1.25,1.94-1.25h10.22c.99,0,1.62.42,1.9,1.25l3.31,8.63c.51,1.32.88,2.47,1.12,3.46.24.99.36,1.86.36,2.62v10.03c0,.91-.46,1.37-1.37,1.37h-5.74c-.99,0-1.48-.46-1.48-1.37v-5.32h-6.73v5.32ZM274.41,116.55l-1.79,5.78h5.97l-1.79-5.78c-.18-.43-.42-.65-.72-.65h-.95c-.3,0-.55.22-.72.65Z"/>
        <path class="cls-3" d="M304.92,135.93h-12.01c-.91,0-1.37-.46-1.37-1.37v-4.45c0-.91.46-1.37,1.37-1.37h10.22c.33,0,.58-.11.74-.32.16-.21.25-.48.25-.78,0-.43-.08-.75-.25-.95-.17-.2-.41-.32-.74-.34l-5.7-.8c-1.77-.28-3.2-.87-4.27-1.77-1.08-.9-1.62-2.41-1.62-4.54v-3.99c0-2.18.7-3.84,2.09-4.98,1.39-1.14,3.32-1.71,5.78-1.71h10.64c.91,0,1.37.46,1.37,1.37v4.52c0,.91-.46,1.37-1.37,1.37h-8.85c-.68,0-1.03.38-1.03,1.14s.34,1.14,1.03,1.22l5.66.76c1.19.18,2.23.49,3.12.93.89.44,1.58,1.1,2.07,1.96s.74,2,.74,3.42v3.99c0,2.15-.7,3.81-2.09,4.96-1.39,1.15-3.32,1.73-5.78,1.73Z"/>
      </g>
      <g>
        <polygon class="cls-12" points="356.96 51.26 348.06 51.52 361.74 41.71 356.96 51.26"/>
        <polygon class="cls-12" points="348.06 51.52 341.48 52.42 341.48 46.75 348.06 51.52"/>
        <polygon class="cls-5" points="348.06 51.52 361.74 41.71 341.48 46.75 348.06 51.52"/>
        <polygon class="cls-2" points="356.96 51.26 348.06 51.52 356.06 60.42 356.96 51.26"/>
        <polygon class="cls-4" points="356.96 51.26 361.74 41.71 356.06 60.42 356.96 51.26"/>
        <polygon class="cls-1" points="332.46 52.05 341.48 52.42 341.48 46.75 332.46 52.05"/>
        <polygon class="cls-12" points="332.46 52.05 341.48 52.42 332.21 55.56 332.46 52.05"/>
        <polygon class="cls-1" points="350.28 40.05 361.74 41.71 341.48 46.75 350.28 40.05"/>
        <polygon class="cls-4" points="350.28 40.05 342.68 40.4 341.48 46.75 350.28 40.05"/>
        <polygon class="cls-9" points="350.28 40.05 352.46 36 342.68 40.4 350.28 40.05"/>
        <polygon class="cls-8" points="335.16 47.19 342.68 40.4 341.48 46.75 335.16 47.19"/>
        <polygon class="cls-4" points="335.16 47.19 332.46 52.05 341.48 46.75 335.16 47.19"/>
        <polygon class="cls-9" points="335.16 47.19 331.79 45.37 342.68 40.4 335.16 47.19"/>
        <polygon class="cls-8" points="335.16 47.19 332.46 52.05 328.16 47.11 335.16 47.19"/>
        <polygon class="cls-4" points="350.28 40.05 361.74 41.71 352.46 36 350.28 40.05"/>
        <polygon class="cls-8" points="360.21 37.58 361.74 41.71 352.46 36 360.21 37.58"/>
        <polygon class="cls-9" points="360.21 37.58 360.56 35.02 352.46 36 360.21 37.58"/>
        <polygon class="cls-4" points="360.21 37.58 361.74 41.71 360.56 35.02 360.21 37.58"/>
        <polygon class="cls-1" points="362.38 51.04 361.74 41.71 356.06 60.42 362.38 51.04"/>
        <polygon class="cls-12" points="362.38 51.04 367.49 59.11 356.06 60.42 362.38 51.04"/>
        <polygon class="cls-4" points="351.86 68.15 348.06 51.52 356.06 60.42 351.86 68.15"/>
        <polygon class="cls-1" points="332.46 52.05 328.16 50.52 332.21 55.56 332.46 52.05"/>
        <polygon class="cls-4" points="332.46 52.05 328.16 50.52 328.16 47.11 332.46 52.05"/>
        <polygon class="cls-9" points="322.46 51.63 328.16 50.52 323.12 60.82 322.46 51.63"/>
        <polygon class="cls-9" points="325.38 105.39 324.92 103.16 336.91 111.62 325.38 105.39"/>
        <polygon class="cls-9" points="507.11 121.98 505.25 120.66 519.8 118.72 507.11 121.98"/>
        <polygon class="cls-9" points="453.51 126.32 449.66 121.9 466.19 121.81 453.51 126.32"/>
        <polygon class="cls-9" points="339.42 167.12 341.35 163.26 349.01 165.88 339.42 167.12"/>
        <polygon class="cls-9" points="282.53 191.41 288.31 189.34 290.38 195.86 282.53 191.41"/>
        <polygon class="cls-4" points="329.72 67.34 328.16 50.52 326.73 59.31 329.72 67.34"/>
        <polygon class="cls-8" points="329.72 67.34 327.64 73.56 323.12 60.82 329.72 67.34"/>
        <polygon class="cls-4" points="332.38 62.67 328.16 50.52 332.21 55.56 332.38 62.67"/>
        <polygon class="cls-1" points="332.38 62.67 328.16 50.52 329.72 67.34 332.38 62.67"/>
        <polygon class="cls-4" points="332.38 62.67 333.55 74.86 329.72 67.34 332.38 62.67"/>
        <polygon class="cls-1" points="327.64 73.56 333.55 74.86 329.72 67.34 327.64 73.56"/>
        <polygon class="cls-1" points="327.64 73.56 329.69 80.15 331.27 76.69 327.64 73.56"/>
        <polygon class="cls-8" points="333.55 74.86 329.69 80.15 331.27 76.69 333.55 74.86"/>
        <polygon class="cls-9" points="333.55 74.86 329.69 80.15 339.07 80.74 333.55 74.86"/>
        <polygon class="cls-8" points="329.79 87.26 329.69 80.15 335.52 87.07 329.79 87.26"/>
        <polygon class="cls-4" points="339.07 80.74 329.69 80.15 335.52 87.07 339.07 80.74"/>
        <polygon class="cls-9" points="339.07 80.74 340.95 89.83 335.52 87.07 339.07 80.74"/>
        <polygon class="cls-12" points="332.85 91.41 340.95 89.83 335.52 87.07 332.85 91.41"/>
        <polygon class="cls-8" points="339.07 80.74 340.95 89.83 341.54 85.68 339.07 80.74"/>
        <polygon class="cls-6" points="374.98 66.52 367.49 59.11 356.06 60.42 374.98 66.52"/>
        <polygon class="cls-12" points="374.98 66.52 367.49 59.11 381.26 63.11 374.98 66.52"/>
        <polygon class="cls-2" points="381.26 57.01 367.49 59.11 381.26 63.11 381.26 57.01"/>
        <polygon class="cls-4" points="381.26 57.01 367.49 59.11 372.9 46.08 381.26 57.01"/>
        <polygon class="cls-5" points="362.38 51.04 367.49 59.11 361.74 41.71 362.38 51.04"/>
        <polygon class="cls-6" points="357.53 80.95 351.86 68.15 356.06 60.42 357.53 80.95"/>
        <polygon class="cls-2" points="357.53 80.95 351.86 68.15 353.22 76.67 357.53 80.95"/>
        <polygon class="cls-8" points="361.74 41.71 367.49 59.11 372.9 46.08 361.74 41.71"/>
        <polygon class="cls-9" points="361.74 41.71 360.56 35.02 372.9 46.08 361.74 41.71"/>
        <polygon class="cls-8" points="371.51 36.12 360.56 35.02 372.9 46.08 371.51 36.12"/>
        <polygon class="cls-4" points="371.51 36.12 360.56 35.02 359.51 27.5 371.51 36.12"/>
        <polygon class="cls-1" points="371.51 36.12 372.62 33.72 359.51 27.5 371.51 36.12"/>
        <polygon class="cls-6" points="378.93 34.08 372.62 33.72 368.62 28.91 378.93 34.08"/>
        <polygon class="cls-12" points="378.93 34.08 367.89 23.68 368.62 28.91 378.93 34.08"/>
        <polygon class="cls-12" points="359.51 27.5 372.62 33.72 368.62 28.91 359.51 27.5"/>
        <polygon class="cls-1" points="359.51 27.5 367.89 23.68 368.62 28.91 359.51 27.5"/>
        <polygon class="cls-12" points="359.51 27.5 367.89 23.68 356.23 17.38 359.51 27.5"/>
        <polygon class="cls-9" points="369.47 18.07 367.89 23.68 366.53 16.37 369.47 18.07"/>
        <polygon class="cls-4" points="363.98 18.41 367.89 23.68 366.53 16.37 363.98 18.41"/>
        <polygon class="cls-1" points="363.98 18.41 367.89 23.68 356.23 17.38 363.98 18.41"/>
        <polygon class="cls-4" points="378.93 34.08 367.89 23.68 380.64 29.16 378.93 34.08"/>
        <polygon class="cls-8" points="369.47 18.07 367.89 23.68 380.64 29.16 369.47 18.07"/>
        <polygon class="cls-4" points="369.47 18.07 381.52 25.6 380.64 29.16 369.47 18.07"/>
        <polygon class="cls-9" points="381.12 19.67 381.52 25.6 382.7 25.57 381.12 19.67"/>
        <polygon class="cls-8" points="381.12 19.67 381.52 25.6 377.26 19.66 381.12 19.67"/>
        <polygon class="cls-9" points="369.47 18.07 381.52 25.6 377.26 19.66 369.47 18.07"/>
        <polygon class="cls-8" points="369.47 18.07 373.07 14.45 377.26 19.66 369.47 18.07"/>
        <polygon class="cls-4" points="377.58 16.39 373.07 14.45 377.26 19.66 377.58 16.39"/>
        <polygon class="cls-1" points="377.58 16.39 381.12 19.67 377.26 19.66 377.58 16.39"/>
        <polygon class="cls-6" points="377.58 16.39 381.12 19.67 381 16.62 377.58 16.39"/>
        <polygon class="cls-8" points="377.58 16.39 373.07 14.45 381 16.62 377.58 16.39"/>
        <polygon class="cls-1" points="378.13 12.88 373.07 14.45 381 16.62 378.13 12.88"/>
        <polygon class="cls-8" points="378.13 12.88 380.07 10.4 381 16.62 378.13 12.88"/>
        <polygon class="cls-4" points="378.13 12.88 380.07 10.4 374.5 6.73 378.13 12.88"/>
        <polygon class="cls-12" points="378.13 12.88 373.07 14.45 374.5 6.73 378.13 12.88"/>
        <polygon class="cls-12" points="369.47 18.07 373.07 14.45 366.53 16.37 369.47 18.07"/>
        <polygon class="cls-12" points="363.98 18.41 356.23 17.38 366.53 16.37 363.98 18.41"/>
        <polygon class="cls-1" points="358.63 10.65 356.23 17.38 366.53 16.37 358.63 10.65"/>
        <polygon class="cls-12" points="366.53 16.37 365.67 6.38 363.77 10.17 366.53 16.37"/>
        <polygon class="cls-1" points="373.07 14.45 365.67 6.38 366.53 16.37 373.07 14.45"/>
        <polygon class="cls-12" points="373.07 14.45 365.67 6.38 371.69 9.68 373.07 14.45"/>
        <polygon class="cls-1" points="373.07 14.45 374.5 6.73 371.69 9.68 373.07 14.45"/>
        <polygon class="cls-9" points="365.67 6.38 374.5 6.73 371.69 9.68 365.67 6.38"/>
        <polygon class="cls-2" points="346.37 14.54 356.23 17.38 347.16 19.27 346.37 14.54"/>
        <polygon class="cls-6" points="346.37 14.54 356.23 17.38 356.96 15.32 346.37 14.54"/>
        <polygon class="cls-12" points="346.37 14.54 350.11 12.05 356.96 15.32 346.37 14.54"/>
        <polygon class="cls-12" points="315.69 13.63 319.39 8.3 320.88 9.63 315.69 13.63"/>
        <polygon class="cls-12" points="313.36 51.29 313.32 50.1 316.75 50.3 313.36 51.29"/>
        <polygon class="cls-12" points="329.99 115.68 330 111.37 339.14 115.72 329.99 115.68"/>
        <polygon class="cls-12" points="414.04 125.2 416.39 121.58 421.7 130.21 414.04 125.2"/>
        <polygon class="cls-12" points="298.53 163.11 300.31 153.19 302.84 163.13 298.53 163.11"/>
        <polygon class="cls-12" points="408.83 146.06 414.2 145.4 418.81 149.69 408.83 146.06"/>
        <polygon class="cls-12" points="350.38 181.34 356.61 181.49 357.64 187.56 350.38 181.34"/>
        <polygon class="cls-6" points="346.37 14.54 336.56 16.18 347.16 19.27 346.37 14.54"/>
        <polygon class="cls-8" points="335.25 24.1 338.83 19.18 347.16 19.27 335.25 24.1"/>
        <polygon class="cls-8" points="322.9 6 328.31 6.37 333.05 11.71 322.9 6"/>
        <polygon class="cls-8" points="350.46 9.48 351.57 5.71 354.75 11.34 350.46 9.48"/>
        <polygon class="cls-1" points="335.25 24.1 346.98 25.52 347.16 19.27 335.25 24.1"/>
        <polygon class="cls-12" points="356.23 17.38 346.98 25.52 347.16 19.27 356.23 17.38"/>
        <polygon class="cls-4" points="335.25 24.1 338.83 19.18 332.9 14.2 335.25 24.1"/>
        <polygon class="cls-4" points="330.38 15.66 329 11.21 322.19 13.29 330.38 15.66"/>
        <polygon class="cls-4" points="328.29 43.93 323.51 40.65 319.81 42.72 328.29 43.93"/>
        <polygon class="cls-4" points="380.79 127.58 371.57 128.19 368.9 130.52 380.79 127.58"/>
        <polygon class="cls-4" points="321.73 74.66 315.97 75.53 313.25 73.45 321.73 74.66"/>
        <polygon class="cls-4" points="351.91 79.36 347.96 74.13 346.88 80.45 351.91 79.36"/>
        <polygon class="cls-4" points="325.36 90.85 316.41 92.08 322.08 95.37 325.36 90.85"/>
        <polygon class="cls-4" points="397.03 47.04 392.21 41.78 393.49 47.11 397.03 47.04"/>
        <polygon class="cls-4" points="303.32 21.39 292.77 18.45 294.23 21.78 303.32 21.39"/>
        <polygon class="cls-4" points="367.42 148.6 361.05 141.33 362.38 148.6 367.42 148.6"/>
        <polygon class="cls-4" points="451.34 184.56 441.97 186.92 449.05 189.05 451.34 184.56"/>
        <polygon class="cls-4" points="340.67 5.72 338.13 3.38 337.07 5.21 340.67 5.72"/>
        <polygon class="cls-4" points="528.51 121.62 525.97 119.27 524.91 121.1 528.51 121.62"/>
        <polygon class="cls-12" points="341.84 12.08 350.11 12.05 336.56 16.18 341.84 12.08"/>
        <polygon class="cls-1" points="341.84 12.08 334.25 9.73 336.56 16.18 341.84 12.08"/>
        <polygon class="cls-9" points="341.84 12.08 334.25 9.73 350.11 12.05 341.84 12.08"/>
        <polygon class="cls-6" points="356.23 17.38 346.98 25.52 352.43 24.19 356.23 17.38"/>
        <polygon class="cls-7" points="341.81 29.08 346.98 25.52 352.43 24.19 341.81 29.08"/>
        <polygon class="cls-6" points="341.81 29.08 346.98 25.52 335.25 24.1 341.81 29.08"/>
        <polygon class="cls-7" points="341.81 29.08 327.62 27.41 335.6 26.55 341.81 29.08"/>
        <polygon class="cls-12" points="341.81 29.08 335.25 24.1 335.6 26.55 341.81 29.08"/>
        <polygon class="cls-1" points="327.62 27.41 335.25 24.1 335.6 26.55 327.62 27.41"/>
        <polygon class="cls-4" points="327.62 27.41 335.25 24.1 325.18 23.25 327.62 27.41"/>
        <polygon class="cls-10" points="324.93 17.56 330.39 21.76 325.18 23.25 324.93 17.56"/>
        <polygon class="cls-10" points="533.3 106.07 538.76 110.27 533.54 111.76 533.3 106.07"/>
        <polygon class="cls-10" points="311.79 37.25 317.25 41.45 311 39.63 311.79 37.25"/>
        <polygon class="cls-10" points="362.83 3.19 362.1 6.2 356.88 7.7 362.83 3.19"/>
        <polygon class="cls-10" points="392.56 37 393.05 39.16 389.49 37.53 392.56 37"/>
        <polygon class="cls-4" points="542.82 103.42 538 98.16 539.28 103.5 542.82 103.42"/>
        <polygon class="cls-10" points="523.19 110.68 523.68 112.84 520.12 111.22 523.19 110.68"/>
        <polygon class="cls-10" points="308.73 15.58 315.47 15.76 312.78 18.04 308.73 15.58"/>
        <polygon class="cls-9" points="381.26 57.01 371.51 36.12 372.9 46.08 381.26 57.01"/>
        <polygon class="cls-6" points="374.98 66.52 375.86 72 381.26 63.11 374.98 66.52"/>
        <polygon class="cls-5" points="374.98 66.52 375.86 72 356.06 60.42 374.98 66.52"/>
        <polygon class="cls-5" points="357.53 80.95 364.46 71.86 356.06 60.42 357.53 80.95"/>
        <polygon class="cls-4" points="375.86 72 364.46 71.86 356.06 60.42 375.86 72"/>
        <polygon class="cls-12" points="375.86 72 364.46 71.86 357.53 80.95 375.86 72"/>
        <polygon class="cls-8" points="357.53 80.95 346.98 95.71 352.81 83.55 357.53 80.95"/>
        <polygon class="cls-4" points="357.53 80.95 346.98 95.71 357.05 96.45 357.53 80.95"/>
        <polygon class="cls-9" points="343.42 99.56 346.98 95.71 357.05 96.45 343.42 99.56"/>
        <polygon class="cls-8" points="343.42 99.56 341.64 105.78 357.05 96.45 343.42 99.56"/>
        <polygon class="cls-2" points="343.72 112.6 341.64 105.78 349.2 113.63 343.72 112.6"/>
        <polygon class="cls-12" points="369.45 118.85 341.64 105.78 349.2 113.63 369.45 118.85"/>
        <polygon class="cls-4" points="361.79 110.97 341.64 105.78 357.05 96.45 361.79 110.97"/>
        <polygon class="cls-2" points="361.79 110.97 341.64 105.78 369.45 118.85 361.79 110.97"/>
        <polygon class="cls-7" points="343.72 112.6 362.99 119.32 349.2 113.63 343.72 112.6"/>
        <polygon class="cls-6" points="343.72 112.6 349.12 118.59 362.99 119.32 343.72 112.6"/>
        <polygon class="cls-7" points="348.34 138.14 349.12 118.59 362.99 119.32 348.34 138.14"/>
        <polygon class="cls-12" points="337.05 124.74 349.12 118.59 342.49 117.31 337.05 124.74"/>
        <polygon class="cls-5" points="337.05 124.74 349.12 118.59 348.34 138.14 337.05 124.74"/>
        <polygon class="cls-8" points="337.05 124.74 331.48 138.43 338.38 133.34 337.05 124.74"/>
        <polygon class="cls-4" points="337.05 124.74 348.34 138.14 338.38 133.34 337.05 124.74"/>
        <polygon class="cls-5" points="341.15 148.1 348.34 138.14 338.38 133.34 341.15 148.1"/>
        <polygon class="cls-12" points="341.15 148.1 329.4 143.56 338.38 133.34 341.15 148.1"/>
        <polygon class="cls-7" points="341.15 148.1 330.98 154.52 339.07 151.16 341.15 148.1"/>
        <polygon class="cls-6" points="341.15 148.1 330.98 154.52 329.4 143.56 341.15 148.1"/>
        <polygon class="cls-8" points="320.8 147.02 319.42 155.71 329.4 143.56 320.8 147.02"/>
        <polygon class="cls-9" points="320.8 147.02 319.42 155.71 310.63 160.15 320.8 147.02"/>
        <polygon class="cls-5" points="330.98 154.52 319.42 155.71 329.4 143.56 330.98 154.52"/>
        <polygon class="cls-12" points="330.98 154.52 319.42 155.71 323.17 162.52 330.98 154.52"/>
        <polygon class="cls-6" points="308.56 168.65 319.42 155.71 323.17 162.52 308.56 168.65"/>
        <polygon class="cls-5" points="308.56 168.65 319.42 155.71 310.63 160.15 308.56 168.65"/>
        <polygon class="cls-8" points="308.56 168.65 299.77 178.03 305.15 169.17 308.56 168.65"/>
        <polygon class="cls-12" points="308.56 168.65 308.26 175.86 323.17 162.52 308.56 168.65"/>
        <polygon class="cls-6" points="308.56 168.65 308.26 175.86 299.77 178.03 308.56 168.65"/>
        <polygon class="cls-7" points="306.34 182.47 308.26 175.86 299.77 178.03 306.34 182.47"/>
        <polygon class="cls-9" points="299.96 173.09 305.15 169.17 299.77 178.03 299.96 173.09"/>
        <polygon class="cls-10" points="299.96 173.09 292.78 175.03 299.77 178.03 299.96 173.09"/>
        <polygon class="cls-12" points="295.22 184.27 292.78 175.03 299.77 178.03 295.22 184.27"/>
        <polygon class="cls-6" points="295.22 184.27 306.34 182.47 299.77 178.03 295.22 184.27"/>
        <polygon class="cls-8" points="299.37 191.92 305.16 182.47 301.74 198.16 299.37 191.92"/>
        <polygon class="cls-12" points="299.37 191.92 306.34 182.47 295.22 184.27 299.37 191.92"/>
        <polygon class="cls-6" points="299.37 191.92 298.86 198.58 295.22 184.27 299.37 191.92"/>
        <polygon class="cls-12" points="299.37 191.92 298.86 198.58 302.93 198.16 299.37 191.92"/>
        <polygon class="cls-6" points="304.43 203.6 298.86 198.58 302.93 198.16 304.43 203.6"/>
        <polygon class="cls-12" points="304.43 203.6 298.86 198.58 302.89 204.85 304.43 203.6"/>
        <polygon class="cls-7" points="298.76 202.36 298.86 198.58 302.89 204.85 298.76 202.36"/>
        <polygon class="cls-6" points="298.76 202.36 298.86 198.58 293.99 193.41 298.76 202.36"/>
        <polygon class="cls-12" points="295.22 184.27 298.86 198.58 293.99 193.41 295.22 184.27"/>
        <polygon class="cls-6" points="289.88 184.27 285.05 182.71 282.5 178.85 289.88 184.27"/>
        <polygon class="cls-4" points="375.86 72 372.35 86.51 357.53 80.95 375.86 72"/>
        <polygon class="cls-5" points="357.05 96.45 365.31 91.08 357.53 80.95 357.05 96.45"/>
        <polygon class="cls-12" points="372.35 86.51 365.31 91.08 357.53 80.95 372.35 86.51"/>
        <polygon class="cls-5" points="372.35 86.51 365.31 91.08 370.25 96.53 372.35 86.51"/>
        <polygon class="cls-4" points="357.05 96.45 365.31 91.08 370.25 96.53 357.05 96.45"/>
        <polygon class="cls-8" points="361.79 110.97 370.25 96.53 357.05 96.45 361.79 110.97"/>
        <polygon class="cls-9" points="361.79 110.97 370.25 96.53 375.6 98.56 361.79 110.97"/>
        <polygon class="cls-8" points="361.79 110.97 388.4 112.35 375.6 98.56 361.79 110.97"/>
        <polygon class="cls-12" points="361.79 110.97 388.4 112.35 369.45 118.85 361.79 110.97"/>
        <polygon class="cls-9" points="393.08 107.78 388.4 112.35 375.6 98.56 393.08 107.78"/>
        <polygon class="cls-2" points="387.15 120.75 388.4 112.35 369.45 118.85 387.15 120.75"/>
        <polygon class="cls-6" points="387.15 120.75 393.29 125.49 369.45 118.85 387.15 120.75"/>
        <polygon class="cls-12" points="387.15 120.75 388.4 112.35 402.53 127.6 387.15 120.75"/>
        <polygon class="cls-7" points="387.15 120.75 393.29 125.49 402.53 127.6 387.15 120.75"/>
        <polygon class="cls-8" points="404.56 119.55 388.4 112.35 402.53 127.6 404.56 119.55"/>
        <polygon class="cls-9" points="404.56 119.55 388.4 112.35 398.24 110.98 404.56 119.55"/>
        <polygon class="cls-8" points="393.08 107.78 388.4 112.35 398.24 110.98 393.08 107.78"/>
        <polygon class="cls-4" points="404.56 119.55 409.63 121.83 402.53 127.6 404.56 119.55"/>
        <polygon class="cls-10" points="404.56 119.55 409.63 121.83 398.24 110.98 404.56 119.55"/>
        <polygon class="cls-2" points="408.54 126.73 409.63 121.83 402.53 127.6 408.54 126.73"/>
        <polygon class="cls-12" points="408.54 126.73 397.05 138.82 402.53 127.6 408.54 126.73"/>
        <polygon class="cls-6" points="393.29 125.49 397.05 138.82 402.53 127.6 393.29 125.49"/>
        <polygon class="cls-7" points="393.29 125.49 380.39 134.91 392.65 129.13 393.29 125.49"/>
        <polygon class="cls-12" points="397.05 138.82 380.39 134.91 392.65 129.13 397.05 138.82"/>
        <polygon class="cls-4" points="397.05 138.82 380.39 134.91 386.21 144.65 397.05 138.82"/>
        <polygon class="cls-7" points="375.24 147.09 380.39 134.91 380.76 142.73 375.24 147.09"/>
        <polygon class="cls-6" points="386.21 144.65 380.39 134.91 380.76 142.73 386.21 144.65"/>
        <polygon class="cls-2" points="397.05 138.82 389.4 146.54 386.21 144.65 397.05 138.82"/>
        <polygon class="cls-6" points="375.24 147.09 389.4 146.54 386.21 144.65 375.24 147.09"/>
        <polygon class="cls-12" points="375.24 147.09 379.51 150.91 368.75 155.94 375.24 147.09"/>
        <polygon class="cls-2" points="375.24 147.09 379.51 150.91 389.4 146.54 375.24 147.09"/>
        <polygon class="cls-6" points="363.52 166.9 379.51 150.91 368.75 155.94 363.52 166.9"/>
        <polygon class="cls-7" points="363.52 166.9 362.63 161.65 368.75 155.94 363.52 166.9"/>
        <polygon class="cls-2" points="359.96 166.9 359.07 161.65 354.14 164.63 359.96 166.9"/>
        <polygon class="cls-12" points="363.52 166.9 379.51 150.91 389.4 146.54 363.52 166.9"/>
        <polygon class="cls-4" points="363.52 166.9 375.8 160.63 389.4 146.54 363.52 166.9"/>
        <polygon class="cls-2" points="363.52 166.9 375.8 160.63 372.26 166.73 363.52 166.9"/>
        <polygon class="cls-12" points="363.52 166.9 364.7 176.56 372.26 166.73 363.52 166.9"/>
        <polygon class="cls-12" points="352.75 169.74 355.22 167.91 364.7 176.56 352.75 169.74"/>
        <polygon class="cls-7" points="352.75 169.74 353.2 172.88 364.7 176.56 352.75 169.74"/>
        <polygon class="cls-2" points="375.27 179.72 364.7 176.56 372.26 166.73 375.27 179.72"/>
        <polygon class="cls-8" points="375.27 179.72 364.7 176.56 380.27 186.08 375.27 179.72"/>
        <polygon class="cls-4" points="380.79 188.96 364.7 176.56 380.27 186.08 380.79 188.96"/>
        <polygon class="cls-2" points="380.79 188.96 364.7 176.56 374.02 187.91 380.79 188.96"/>
        <polygon class="cls-12" points="367.74 183.94 364.7 176.56 374.02 187.91 367.74 183.94"/>
        <polygon class="cls-7" points="379.12 74.52 375.86 72 381.26 63.11 379.12 74.52"/>
        <polygon class="cls-6" points="379.12 74.52 384.53 72.4 386.89 81.25 379.12 74.52"/>
        <polygon class="cls-12" points="379.12 74.52 384.53 72.4 381.26 63.11 379.12 74.52"/>
        <polygon class="cls-4" points="388.64 70.54 384.53 72.4 381.26 63.11 388.64 70.54"/>
        <polygon class="cls-7" points="391.82 81.04 384.53 72.4 386.89 81.25 391.82 81.04"/>
        <polygon class="cls-6" points="391.82 81.04 384.53 72.4 388.64 70.54 391.82 81.04"/>
        <polygon class="cls-7" points="391.82 81.04 398.22 71.98 394.62 69.62 391.82 81.04"/>
        <polygon class="cls-12" points="391.82 81.04 388.64 70.54 394.62 69.62 391.82 81.04"/>
        <polygon class="cls-9" points="398.32 58.91 388.64 70.54 394.62 69.62 398.32 58.91"/>
        <polygon class="cls-4" points="398.32 58.91 403.26 60.56 394.62 69.62 398.32 58.91"/>
        <polygon class="cls-6" points="398.22 71.98 403.26 60.56 394.62 69.62 398.22 71.98"/>
        <polygon class="cls-7" points="398.32 58.91 403.26 60.56 406.04 55.92 398.32 58.91"/>
        <polygon class="cls-6" points="398.32 58.91 401.72 48.31 406.04 55.92 398.32 58.91"/>
        <polygon class="cls-12" points="408.92 52.22 401.72 48.31 406.04 55.92 408.92 52.22"/>
        <polygon class="cls-6" points="408.92 52.22 401.72 48.31 409.34 47.69 408.92 52.22"/>
        <polygon class="cls-4" points="403.67 42.13 401.72 48.31 409.34 47.69 403.67 42.13"/>
        <polygon class="cls-9" points="403.67 42.13 401.72 48.31 399.97 45.11 403.67 42.13"/>
        <polygon class="cls-4" points="397.91 49.54 401.72 48.31 398.32 58.91 397.91 49.54"/>
        <polygon class="cls-1" points="329.72 67.34 323.12 60.82 326.73 59.31 329.72 67.34"/>
        <polygon class="cls-6" points="366.53 16.37 358.63 10.65 363.77 10.17 366.53 16.37"/>
        <polygon class="cls-4" points="306.6 53.14 301.79 53.25 310.72 45.38 306.6 53.14"/>
        <polygon class="cls-4" points="317.05 136.71 312.63 136.59 327.41 129.13 317.05 136.71"/>
        <polygon class="cls-4" points="423.47 161.34 419.04 161.21 433.83 153.76 423.47 161.34"/>
        <polygon class="cls-4" points="277.35 170.08 274.23 171.26 285.05 178.08 277.35 170.08"/>
        <polygon class="cls-10" points="580.44 121.43 579.38 124.06 577.19 120.96 580.44 121.43"/>
        <polygon class="cls-10" points="577.19 120.96 579.38 124.06 578.38 126.36 566.77 118.42 566.77 118.41 577.19 120.96"/>
        <polygon class="cls-10" points="578.38 126.36 577.49 128.4 577.47 128.39 571.59 125.77 578.38 126.36"/>
        <polygon class="cls-10" points="578.38 126.36 571.59 125.77 566.61 125.33 566.6 125.33 566.77 118.42 578.38 126.36"/>
        <polygon class="cls-10" points="577.49 128.4 566.45 131.63 566.6 125.33 566.61 125.33 577.47 128.39 577.49 128.4"/>
        <polygon class="cls-10" points="577.47 128.39 566.61 125.33 571.59 125.77 577.47 128.39"/>
        <polygon class="cls-10" points="581.83 168.55 578.29 170.1 576.41 167 581.83 168.55"/>
        <polygon class="cls-10" points="576.41 167 578.29 170.1 567.07 168.39 576.41 167"/>
        <polygon class="cls-10" points="576.41 167 567.07 168.39 567.09 163.67 576.41 167"/>
        <polygon class="cls-10" points="572.96 179.63 573.47 184.97 568.68 180.73 572.96 179.63"/>
        <polygon class="cls-10" points="572.96 179.63 568.68 180.73 567.52 174.34 572.96 179.63"/>
        <polygon class="cls-10" points="566.77 118.42 566.6 125.33 566.45 131.63 561.11 125.73 566.76 118.42 566.77 118.42"/>
        <polygon class="cls-10" points="558.13 113.97 566.76 118.42 557.74 117.66 551.3 117.12 551.29 117.11 551.27 117.12 537.75 115.98 545.93 114.22 554.88 112.3 558.13 113.97"/>
        <polygon class="cls-10" points="566.76 118.42 561.11 125.73 556 132.34 555.98 132.32 552.79 121.99 556.45 121.06 556.45 121.05 566.76 118.42"/>
        <polygon class="cls-10" points="566.76 118.42 556.45 121.05 557.74 117.66 566.76 118.42"/>
        <polygon class="cls-10" points="566.45 96.67 558.13 113.97 555.57 101.68 555.57 101.63 566.45 96.67"/>
        <polygon class="cls-10" points="561.11 125.73 566.45 131.63 551.99 137.52 556 132.34 561.11 125.73"/>
        <polygon class="cls-10" points="567.52 174.34 568.68 180.73 563.35 177.72 567.25 174.46 567.27 174.31 567.52 174.34"/>
        <polygon class="cls-10" points="567.27 174.31 567.25 174.46 563.35 177.72 563.21 177.61 557.37 170.99 567.27 174.31"/>
        <polygon class="cls-10" points="567.09 163.67 567.07 168.39 566.81 168.26 557.88 163.85 557.62 163.72 567.09 163.67"/>
        <polygon class="cls-10" points="566.81 168.26 558.06 170.79 558.01 170.63 557.81 164.27 557.74 164.04 557.79 164.03 557.88 163.85 566.81 168.26"/>
        <polygon class="cls-10" points="563.21 177.61 563.04 177.82 544.36 176.38 549.14 171.97 557.37 170.99 563.21 177.61"/>
        <polygon class="cls-10" points="555.57 101.68 558.13 113.97 554.88 112.3 555.57 101.68"/>
        <polygon class="cls-10" points="557.74 117.66 556.45 121.05 556.45 121.06 551.3 117.12 557.74 117.66"/>
        <polygon class="cls-10" points="556.45 121.06 552.79 121.99 551.29 117.12 551.3 117.12 556.45 121.06"/>
        <polygon class="cls-10" points="556.22 91.63 555.57 101.63 555.56 101.64 555.57 101.68 554.88 112.3 545.93 114.22 556.22 91.63"/>
        <polygon class="cls-10" points="556.22 91.63 545.93 114.22 537.75 115.98 537.6 115.86 556.22 91.63"/>
        <polygon class="cls-10" points="558.01 170.63 558.06 170.79 557.56 170.94 541.55 165.68 541.65 165.28 541.67 165.29 557.74 164.04 557.81 164.27 558.01 170.63"/>
        <polygon class="cls-10" points="557.88 163.85 557.79 164.03 557.74 164.04 541.67 165.29 541.65 165.28 543.01 159.82 557.62 163.72 557.88 163.85"/>
        <polygon class="cls-10" points="541.55 165.68 557.56 170.94 557.37 170.99 549.14 171.97 541.4 165.9 541.55 165.68"/>
        <polygon class="cls-10" points="551.55 124.8 551.99 137.52 543.76 142.55 551.55 124.8"/>
        <polygon class="cls-10" points="551.99 137.52 546.73 149.67 543.76 142.55 551.99 137.52"/>
        <polygon class="cls-10" points="551.29 117.12 551.55 124.8 540.41 125.66 540.4 125.66 527.22 126.68 551.27 117.12 551.29 117.12"/>
        <polygon class="cls-10" points="551.55 124.8 543.76 142.55 540.41 125.66 551.55 124.8"/>
        <polygon class="cls-10" points="551.27 117.12 527.22 126.68 526.97 126.78 526.93 126.66 526.93 126.65 537.54 115.94 537.6 115.86 537.75 115.98 551.27 117.12"/>
        <polygon class="cls-10" points="549.14 171.97 544.36 176.38 527.7 175.8 549.14 171.97"/>
        <polygon class="cls-10" points="549.14 171.97 527.7 175.8 541.4 165.9 549.14 171.97"/>
        <polygon class="cls-10" points="546.73 149.67 547.06 153.59 542.73 150.72 519.23 135.16 518.9 134.77 519.06 134.61 530.27 138.21 543.76 142.55 546.73 149.67"/>
        <polygon class="cls-10" points="547.06 153.59 543.01 159.82 542.73 150.72 547.06 153.59"/>
        <polygon class="cls-10" points="540.41 125.66 543.76 142.55 530.27 138.21 530.27 138.21 540.41 125.66"/>
        <polygon class="cls-10" points="542.73 150.72 543.01 159.82 536.98 163.36 539.17 158.54 542.73 150.72"/>
        <polygon class="cls-10" points="543.01 159.82 541.65 165.28 541.55 165.68 536.98 163.36 543.01 159.82"/>
        <polygon class="cls-10" points="542.73 150.72 539.17 158.54 519.23 135.16 542.73 150.72"/>
        <polygon class="cls-10" points="541.55 165.68 541.4 165.9 527.7 175.8 527.43 175.55 535.37 162.54 536.98 163.36 541.55 165.68"/>
        <polygon class="cls-10" points="540.41 125.66 530.27 138.21 528.15 130.92 540.4 125.66 540.41 125.66"/>
        <polygon class="cls-10" points="540.4 125.66 528.15 130.92 526.97 126.78 527.22 126.68 540.4 125.66"/>
        <polygon class="cls-10" points="539.17 158.54 536.98 163.36 535.37 162.54 532 160.83 539.17 158.54"/>
        <polygon class="cls-10" points="519.23 135.16 539.17 158.54 526.01 155.6 518.97 134.99 519.23 135.16"/>
        <polygon class="cls-10" points="539.17 158.54 532 160.83 526.01 155.6 539.17 158.54"/>
        <polygon class="cls-10" points="535.37 162.54 527.43 175.55 512.03 171.31 535.37 162.54"/>
        <polygon class="cls-10" points="535.37 162.54 512.03 171.31 515.73 167.15 526.01 155.6 532 160.83 535.37 162.54"/>
        <polygon class="cls-10" points="518.97 134.99 526.01 155.6 498.24 146.17 518.76 134.85 518.97 134.99"/>
        <polygon class="cls-10" points="526.01 155.6 515.73 167.15 498.24 146.17 526.01 155.6"/>
        <polygon class="cls-10" points="518.72 134.82 518.76 134.85 498.24 146.17 500.41 136.01 512.3 136.69 518.72 134.82"/>
        <polygon class="cls-10" points="506.19 160.88 511.76 171.19 495.58 163.76 506.19 160.88"/>
        <polygon class="cls-10" points="498.24 146.17 506.19 160.88 495.58 163.76 498.11 146.79 497.88 146.59 498.24 146.17"/>
        <polygon class="cls-10" points="500.41 136.01 498.24 146.17 486.81 131.58 500.41 136.01"/>
        <polygon class="cls-10" points="486.81 131.58 498.24 146.17 476.1 129.71 486.81 131.58"/>
        <polygon class="cls-10" points="498.24 146.17 497.88 146.59 482.56 164.43 476.1 129.71 498.24 146.17"/>
        <polygon class="cls-10" points="498.11 146.79 495.58 163.76 482.56 164.43 497.88 146.59 498.11 146.79"/>
        <polygon class="cls-10" points="495.58 163.76 491.74 173.99 491.27 173.5 482.56 164.43 495.58 163.76"/>
        <polygon class="cls-10" points="491.27 173.5 491.74 173.99 478.93 185.22 478.6 184.56 471.52 170.51 491.04 173.72 491.27 173.5"/>
        <polygon class="cls-10" points="491.27 173.5 491.04 173.72 471.52 170.51 482.56 164.43 491.27 173.5"/>
        <polygon class="cls-10" points="476.1 129.71 482.56 164.43 465.26 134.09 476.1 129.71"/>
        <polygon class="cls-10" points="465.26 134.09 482.56 164.43 462.31 162.3 465.02 134.19 465.26 134.09"/>
        <polygon class="cls-10" points="482.56 164.43 471.52 170.51 465.46 172.52 461.36 173.87 462.31 162.3 482.56 164.43"/>
        <polygon class="cls-10" points="478.6 184.56 478.93 185.22 464.49 189.05 465.55 172.8 478.12 184.8 478.6 184.56"/>
        <polygon class="cls-10" points="471.52 170.51 478.6 184.56 478.12 184.8 465.55 172.8 465.46 172.52 471.52 170.51"/>
        <polygon class="cls-10" points="476.1 129.71 465.26 134.09 465.21 134.02 470.95 130.3 476.1 129.71"/>
        <polygon class="cls-10" points="470.95 130.3 465.21 134.02 465.06 133.75 465.02 134.14 464.82 134.27 457.93 129.57 470.95 130.3"/>
        <polygon class="cls-10" points="465.02 134.19 462.31 162.3 452.87 155.37 460.08 142.79 464.82 134.27 465.02 134.19"/>
        <polygon class="cls-10" points="464.82 134.27 460.08 142.79 445.08 143.21 447.95 141.23 464.82 134.27"/>
        <polygon class="cls-10" points="464.82 134.27 447.95 141.23 457.93 129.57 464.82 134.27"/>
        <polygon class="cls-10" points="462.44 180.96 464.49 189.05 454.78 190.3 462.44 180.96"/>
        <polygon class="cls-10" points="464.49 189.05 459.32 197.63 454.78 190.3 464.49 189.05"/>
        <polygon class="cls-10" points="462.31 162.3 461.36 173.87 456.15 172.99 444.68 171.31 462.31 162.3"/>
        <polygon class="cls-10" points="454.78 190.3 459.32 197.63 452.17 200.77 454.78 190.3"/>
        <polygon class="cls-10" points="459.32 197.63 458.01 203.23 452.02 201.39 452.17 200.77 459.32 197.63"/>
        <polygon class="cls-10" points="458.01 203.23 454.53 204.74 452.02 201.39 458.01 203.23"/>
        <polygon class="cls-10" points="457.93 129.57 447.95 141.23 448.25 126.71 457.93 129.57"/>
        <polygon class="cls-10" points="452.02 201.39 454.53 204.74 448.39 204.3 452.02 201.39"/>
        <polygon class="cls-10" points="441.46 119.31 448.25 126.71 435.69 122.17 435.49 121.46 435.72 121.4 441.46 119.31"/>
        <polygon class="cls-10" points="448.25 126.71 447.95 141.23 437.23 134.74 448.25 126.71"/>
        <polygon class="cls-10" points="448.25 126.71 437.23 134.74 435.69 122.17 448.25 126.71"/>
        <polygon class="cls-10" points="447.95 141.23 433.28 134.93 437.23 134.74 447.95 141.23"/>
        <polygon class="cls-10" points="440.52 161.18 444.68 171.31 435.62 172.64 435.14 172.8 435.07 172.61 440.52 161.18"/>
        <polygon class="cls-10" points="436.76 111.94 441.46 119.31 435.72 121.4 436.76 111.94"/>
        <polygon class="cls-10" points="440.52 161.18 435.07 172.61 435.14 172.8 435.14 172.81 428.26 175.16 440.52 161.18"/>
        <polygon class="cls-10" points="440.52 161.18 428.26 175.16 428.91 165.81 440.52 161.18"/>
        <polygon class="cls-10" points="435.69 122.17 437.23 134.74 430.71 120.01 435.69 122.17"/>
        <polygon class="cls-10" points="436.76 111.94 435.72 121.4 435.49 121.46 431.58 107.58 436.76 111.94"/>
        <polygon class="cls-10" points="428.91 165.81 428.26 175.16 423.6 178.33 428.91 165.81"/>
        <polygon class="cls-10" points="428.91 165.81 423.6 178.33 420.6 175.39 428.91 165.81"/>
        <polygon class="cls-10" points="423.6 178.33 417.06 178.16 420.6 175.39 423.6 178.33"/>
        <polyline class="cls-10" points="537.54 115.94 537.6 115.86 556.22 91.63"/>
        <polyline class="cls-10" points="554.88 112.3 555.57 101.68 555.57 101.63 556.22 91.63"/>
        <polyline class="cls-10" points="566.45 96.67 555.57 101.63 555.56 101.64"/>
        <line class="cls-10" x1="566.45" y1="96.67" x2="558.13" y2="113.97"/>
        <polyline class="cls-10" points="554.88 112.3 558.13 113.97 566.76 118.42"/>
        <polyline class="cls-10" points="580.44 121.43 577.19 120.96 566.77 118.41"/>
        <line class="cls-10" x1="566.45" y1="131.63" x2="577.49" y2="128.4"/>
        <polyline class="cls-10" points="578.38 126.36 579.38 124.06 580.44 121.43"/>
        <polyline class="cls-10" points="566.45 131.63 566.6 125.33 566.77 118.42"/>
        <line class="cls-10" x1="566.45" y1="131.63" x2="551.99" y2="137.52"/>
        <polyline class="cls-10" points="551.99 137.52 556 132.34 561.11 125.73 566.76 118.42"/>
        <polyline class="cls-10" points="566.76 118.42 557.74 117.66 551.3 117.12 551.29 117.12 551.27 117.12 537.75 115.98"/>
        <polyline class="cls-10" points="537.75 115.98 545.93 114.22 554.88 112.3"/>
        <polyline class="cls-10" points="558.13 113.97 555.57 101.68 555.56 101.64"/>
        <line class="cls-10" x1="556.22" y1="91.63" x2="545.93" y2="114.22"/>
        <polyline class="cls-10" points="551.29 117.12 552.79 121.99 555.98 132.32"/>
        <polyline class="cls-10" points="551.99 137.52 551.55 124.8 551.29 117.12 551.29 117.11"/>
        <line class="cls-10" x1="526.93" y1="126.65" x2="537.54" y2="115.94"/>
        <line class="cls-10" x1="540.41" y1="125.66" x2="551.55" y2="124.8"/>
        <line class="cls-10" x1="527.22" y1="126.68" x2="540.4" y2="125.66"/>
        <line class="cls-10" x1="551.55" y1="124.8" x2="543.76" y2="142.55"/>
        <line class="cls-10" x1="543.76" y1="142.55" x2="551.99" y2="137.52"/>
        <line class="cls-10" x1="551.99" y1="137.52" x2="546.73" y2="149.67"/>
        <line class="cls-10" x1="546.73" y1="149.67" x2="543.76" y2="142.55"/>
        <line class="cls-10" x1="546.73" y1="149.67" x2="547.06" y2="153.59"/>
        <polyline class="cls-10" points="547.06 153.59 542.73 150.72 519.23 135.16 518.97 134.99 518.76 134.85 518.72 134.82 518.54 134.7"/>
        <polyline class="cls-10" points="518.47 134.42 519.06 134.61 530.27 138.21 543.76 142.55"/>
        <line class="cls-10" x1="543.76" y1="142.55" x2="540.41" y2="125.66"/>
        <line class="cls-10" x1="530.27" y1="138.21" x2="540.41" y2="125.66"/>
        <polyline class="cls-10" points="530.27 138.21 528.15 130.92 526.97 126.78 526.93 126.66"/>
        <polyline class="cls-10" points="528.15 130.92 540.4 125.66 540.41 125.66"/>
        <polyline class="cls-10" points="542.73 150.72 539.17 158.54 536.98 163.36"/>
        <line class="cls-10" x1="547.06" y1="153.59" x2="543.01" y2="159.82"/>
        <line class="cls-10" x1="543.01" y1="159.82" x2="557.62" y2="163.72"/>
        <line class="cls-10" x1="567.09" y1="163.67" x2="557.62" y2="163.72"/>
        <line class="cls-10" x1="576.41" y1="167" x2="567.09" y2="163.67"/>
        <line class="cls-10" x1="578.29" y1="170.1" x2="576.41" y2="167"/>
        <line class="cls-10" x1="578.29" y1="170.1" x2="567.07" y2="168.39"/>
        <line class="cls-10" x1="567.07" y1="168.39" x2="576.41" y2="167"/>
        <line class="cls-10" x1="567.07" y1="168.39" x2="567.09" y2="163.67"/>
        <polyline class="cls-10" points="567.07 168.39 566.81 168.26 557.88 163.85 557.62 163.72"/>
        <polyline class="cls-10" points="557.37 170.99 557.56 170.94 558.06 170.79 566.81 168.26"/>
        <polyline class="cls-10" points="557.37 170.99 567.27 174.31 567.52 174.34"/>
        <line class="cls-10" x1="567.52" y1="174.34" x2="572.96" y2="179.63"/>
        <line class="cls-10" x1="572.96" y1="179.63" x2="568.68" y2="180.73"/>
        <line class="cls-10" x1="568.68" y1="180.73" x2="567.52" y2="174.34"/>
        <line class="cls-10" x1="568.68" y1="180.73" x2="563.35" y2="177.72"/>
        <polyline class="cls-10" points="563.35 177.72 563.21 177.61 557.37 170.99"/>
        <line class="cls-10" x1="563.35" y1="177.72" x2="567.25" y2="174.46"/>
        <line class="cls-10" x1="563.04" y1="177.82" x2="544.36" y2="176.38"/>
        <polyline class="cls-10" points="544.36 176.38 549.14 171.97 557.37 170.99"/>
        <polyline class="cls-10" points="557.61 170.95 557.56 170.94 541.55 165.68"/>
        <polyline class="cls-10" points="541.55 165.68 536.98 163.36 535.37 162.54 532 160.83"/>
        <line class="cls-10" x1="532" y1="160.83" x2="526.01" y2="155.6"/>
        <line class="cls-10" x1="536.98" y1="163.36" x2="543.01" y2="159.82"/>
        <line class="cls-10" x1="543.01" y1="159.82" x2="542.73" y2="150.72"/>
        <polyline class="cls-10" points="541.55 165.68 541.65 165.28 543.01 159.82"/>
        <polyline class="cls-10" points="541.67 165.29 557.74 164.04 557.79 164.03"/>
        <line class="cls-10" x1="557.81" y1="164.27" x2="558.01" y2="170.63"/>
        <line class="cls-10" x1="544.36" y1="176.38" x2="527.7" y2="175.8"/>
        <line class="cls-10" x1="527.7" y1="175.8" x2="549.14" y2="171.97"/>
        <line class="cls-10" x1="549.14" y1="171.97" x2="541.4" y2="165.9"/>
        <line class="cls-10" x1="541.4" y1="165.9" x2="527.7" y2="175.8"/>
        <line class="cls-10" x1="527.43" y1="175.55" x2="535.37" y2="162.54"/>
        <line class="cls-10" x1="527.43" y1="175.55" x2="512.03" y2="171.31"/>
        <line class="cls-10" x1="512.03" y1="171.31" x2="535.37" y2="162.54"/>
        <line class="cls-10" x1="511.76" y1="171.19" x2="495.58" y2="163.76"/>
        <polyline class="cls-10" points="579.39 124.07 579.38 124.06 577.19 120.96 577.16 120.9"/>
        <polyline class="cls-10" points="578.38 126.36 571.59 125.77 566.61 125.33"/>
        <line class="cls-10" x1="566.61" y1="125.33" x2="577.47" y2="128.39"/>
        <line class="cls-10" x1="577.49" y1="128.4" x2="578.38" y2="126.36"/>
        <polyline class="cls-10" points="556.45 121.05 566.76 118.42 566.77 118.42"/>
        <line class="cls-10" x1="552.79" y1="121.99" x2="556.45" y2="121.06"/>
        <line class="cls-10" x1="561.11" y1="125.73" x2="566.45" y2="131.63"/>
        <line class="cls-10" x1="462.44" y1="180.96" x2="454.78" y2="190.3"/>
        <polyline class="cls-10" points="454.78 190.3 452.17 200.77 452.02 201.39"/>
        <line class="cls-10" x1="452.02" y1="201.39" x2="448.39" y2="204.3"/>
        <line class="cls-10" x1="454.53" y1="204.74" x2="458.01" y2="203.23"/>
        <line class="cls-10" x1="458.01" y1="203.23" x2="452.02" y2="201.39"/>
        <line class="cls-10" x1="458.01" y1="203.23" x2="459.32" y2="197.63"/>
        <line class="cls-10" x1="459.32" y1="197.63" x2="464.49" y2="189.05"/>
        <line class="cls-10" x1="464.49" y1="189.05" x2="478.93" y2="185.22"/>
        <line class="cls-10" x1="478.93" y1="185.22" x2="491.74" y2="173.99"/>
        <line class="cls-10" x1="491.74" y1="173.99" x2="495.58" y2="163.76"/>
        <polyline class="cls-10" points="461.36 173.87 465.46 172.52 471.52 170.51"/>
        <line class="cls-10" x1="471.52" y1="170.51" x2="482.56" y2="164.43"/>
        <line class="cls-10" x1="482.56" y1="164.43" x2="495.58" y2="163.76"/>
        <line class="cls-10" x1="420.6" y1="175.39" x2="423.6" y2="178.33"/>
        <line class="cls-10" x1="423.6" y1="178.33" x2="428.26" y2="175.16"/>
        <polyline class="cls-10" points="428.26 175.16 435.14 172.81 435.14 172.8 435.62 172.64"/>
        <line class="cls-10" x1="435.62" y1="172.64" x2="444.68" y2="171.31"/>
        <line class="cls-10" x1="444.68" y1="171.31" x2="456.15" y2="172.99"/>
        <line class="cls-10" x1="456.15" y1="172.99" x2="461.36" y2="173.87"/>
        <line class="cls-10" x1="420.6" y1="175.39" x2="428.91" y2="165.81"/>
        <polyline class="cls-10" points="428.91 165.81 440.52 161.18 441.87 160.64"/>
        <line class="cls-10" x1="441.87" y1="160.64" x2="452.87" y2="155.37"/>
        <line class="cls-10" x1="452.87" y1="155.37" x2="460.08" y2="142.79"/>
        <line class="cls-10" x1="460.08" y1="142.79" x2="445.08" y2="143.21"/>
        <line class="cls-10" x1="445.08" y1="143.21" x2="447.95" y2="141.23"/>
        <line class="cls-10" x1="447.95" y1="141.23" x2="433.28" y2="134.93"/>
        <line class="cls-10" x1="433.28" y1="134.93" x2="437.23" y2="134.74"/>
        <line class="cls-10" x1="437.23" y1="134.74" x2="430.71" y2="120.01"/>
        <line class="cls-10" x1="430.71" y1="120.01" x2="435.69" y2="122.17"/>
        <polyline class="cls-10" points="435.69 122.17 435.49 121.46 431.58 107.58"/>
        <line class="cls-10" x1="431.58" y1="107.58" x2="436.76" y2="111.94"/>
        <line class="cls-10" x1="436.76" y1="111.94" x2="441.46" y2="119.31"/>
        <line class="cls-10" x1="441.46" y1="119.31" x2="448.25" y2="126.71"/>
        <line class="cls-10" x1="448.25" y1="126.71" x2="457.93" y2="129.57"/>
        <line class="cls-10" x1="457.93" y1="129.57" x2="470.95" y2="130.3"/>
        <line class="cls-10" x1="470.95" y1="130.3" x2="476.1" y2="129.71"/>
        <line class="cls-10" x1="460.08" y1="142.79" x2="464.82" y2="134.27"/>
        <polyline class="cls-10" points="464.82 134.27 465.02 134.19 465.26 134.09 476.1 129.71"/>
        <line class="cls-10" x1="476.1" y1="129.71" x2="486.81" y2="131.58"/>
        <line class="cls-10" x1="486.81" y1="131.58" x2="500.41" y2="136.01"/>
        <line class="cls-10" x1="500.41" y1="136.01" x2="512.3" y2="136.69"/>
        <polyline class="cls-10" points="512.3 136.69 518.72 134.82 518.9 134.77"/>
        <polyline class="cls-10" points="518.9 134.77 519.23 135.16 539.17 158.54"/>
        <line class="cls-10" x1="539.17" y1="158.54" x2="532" y2="160.83"/>
        <line class="cls-10" x1="526.01" y1="155.6" x2="539.17" y2="158.54"/>
        <polyline class="cls-10" points="512.03 171.31 515.73 167.15 526.01 155.6"/>
        <line class="cls-10" x1="526.01" y1="155.6" x2="498.24" y2="146.17"/>
        <polyline class="cls-10" points="498.24 146.17 518.76 134.85 518.9 134.77"/>
        <polyline class="cls-10" points="518.9 134.77 518.97 134.99 526.01 155.6"/>
        <line class="cls-10" x1="498.24" y1="146.17" x2="500.41" y2="136.01"/>
        <line class="cls-10" x1="498.24" y1="146.17" x2="515.73" y2="167.15"/>
        <polyline class="cls-10" points="511.76 171.19 506.19 160.88 498.24 146.17"/>
        <line class="cls-10" x1="495.58" y1="163.76" x2="506.19" y2="160.88"/>
        <polyline class="cls-10" points="498.24 146.17 497.88 146.59 482.56 164.43"/>
        <line class="cls-10" x1="495.58" y1="163.76" x2="498.11" y2="146.79"/>
        <polyline class="cls-10" points="482.56 164.43 491.27 173.5 491.74 173.99"/>
        <polyline class="cls-10" points="478.93 185.22 478.6 184.56 471.52 170.51"/>
        <line class="cls-10" x1="471.52" y1="170.51" x2="491.04" y2="173.72"/>
        <line class="cls-10" x1="465.55" y1="172.8" x2="478.12" y2="184.8"/>
        <line class="cls-10" x1="464.49" y1="189.05" x2="465.55" y2="172.8"/>
        <line class="cls-10" x1="462.44" y1="180.96" x2="464.49" y2="189.05"/>
        <line class="cls-10" x1="464.49" y1="189.05" x2="454.78" y2="190.3"/>
        <line class="cls-10" x1="454.78" y1="190.3" x2="459.32" y2="197.63"/>
        <line class="cls-10" x1="459.32" y1="197.63" x2="452.17" y2="200.77"/>
        <line class="cls-10" x1="448.39" y1="204.3" x2="454.53" y2="204.74"/>
        <line class="cls-10" x1="454.53" y1="204.74" x2="452.02" y2="201.39"/>
        <line class="cls-10" x1="420.6" y1="175.39" x2="417.06" y2="178.16"/>
        <line class="cls-10" x1="417.06" y1="178.16" x2="423.6" y2="178.33"/>
        <line class="cls-10" x1="423.6" y1="178.33" x2="428.91" y2="165.81"/>
        <line class="cls-10" x1="428.91" y1="165.81" x2="428.26" y2="175.16"/>
        <line class="cls-10" x1="428.26" y1="175.16" x2="440.52" y2="161.18"/>
        <line class="cls-10" x1="435.07" y1="172.61" x2="440.52" y2="161.18"/>
        <line class="cls-10" x1="440.52" y1="161.18" x2="444.68" y2="171.31"/>
        <line class="cls-10" x1="444.68" y1="171.31" x2="462.31" y2="162.3"/>
        <line class="cls-10" x1="462.31" y1="162.3" x2="461.36" y2="173.87"/>
        <line class="cls-10" x1="462.31" y1="162.3" x2="452.87" y2="155.37"/>
        <line class="cls-10" x1="462.31" y1="162.3" x2="482.56" y2="164.43"/>
        <polyline class="cls-10" points="462.31 162.3 465.02 134.19 465.02 134.14 465.06 133.75"/>
        <polyline class="cls-10" points="465.06 133.75 465.21 134.02 465.26 134.09 482.56 164.43"/>
        <line class="cls-10" x1="482.56" y1="164.43" x2="476.1" y2="129.71"/>
        <line class="cls-10" x1="476.1" y1="129.71" x2="498.24" y2="146.17"/>
        <line class="cls-10" x1="498.24" y1="146.17" x2="486.81" y2="131.58"/>
        <line class="cls-10" x1="464.82" y1="134.27" x2="457.93" y2="129.57"/>
        <polyline class="cls-10" points="464.82 134.27 465.02 134.14 465.21 134.02 470.95 130.3"/>
        <line class="cls-10" x1="464.82" y1="134.27" x2="447.95" y2="141.23"/>
        <line class="cls-10" x1="447.95" y1="141.23" x2="437.23" y2="134.74"/>
        <line class="cls-10" x1="437.23" y1="134.74" x2="448.25" y2="126.71"/>
        <line class="cls-10" x1="448.25" y1="126.71" x2="447.95" y2="141.23"/>
        <line class="cls-10" x1="447.95" y1="141.23" x2="457.93" y2="129.57"/>
        <line class="cls-10" x1="448.25" y1="126.71" x2="435.69" y2="122.17"/>
        <line class="cls-10" x1="435.69" y1="122.17" x2="437.23" y2="134.74"/>
        <line class="cls-10" x1="435.72" y1="121.4" x2="441.46" y2="119.31"/>
        <line class="cls-10" x1="435.72" y1="121.4" x2="436.76" y2="111.94"/>
        <polyline class="cls-10" points="551.29 117.11 551.3 117.12 556.45 121.06"/>
        <line class="cls-10" x1="566.77" y1="118.42" x2="578.38" y2="126.36"/>
        <polyline class="cls-10" points="556.45 121.06 556.45 121.05 557.74 117.66"/>
        <polyline class="cls-10" points="577.49 128.4 577.47 128.39 571.59 125.77"/>
        <line class="cls-10" x1="576.41" y1="167" x2="581.83" y2="168.55"/>
        <line class="cls-10" x1="581.83" y1="168.55" x2="578.29" y2="170.1"/>
        <line class="cls-10" x1="568.68" y1="180.73" x2="573.47" y2="184.97"/>
        <line class="cls-10" x1="573.47" y1="184.97" x2="572.96" y2="179.63"/>
        <polygon class="cls-7" points="580.44 121.43 579.38 124.06 577.18 120.68 580.44 121.43"/>
        <polygon class="cls-5" points="577.16 120.66 579.38 124.06 578.38 126.36 566.77 118.42 566.77 118.41 577.16 120.66"/>
        <polygon class="cls-12" points="578.38 126.36 577.49 128.4 577.47 128.39 571.59 125.77 578.38 126.36"/>
        <polygon class="cls-4" points="578.38 126.36 571.59 125.77 566.61 125.33 566.6 125.33 566.77 118.42 578.38 126.36"/>
        <polygon class="cls-4" points="577.49 128.4 566.45 131.63 566.6 125.33 566.61 125.33 577.47 128.39 577.49 128.4"/>
        <polygon class="cls-12" points="577.47 128.39 566.61 125.33 571.59 125.77 577.47 128.39"/>
        <polygon class="cls-12" points="581.83 168.55 578.29 170.1 576.41 167 581.83 168.55"/>
        <polygon class="cls-1" points="576.41 167 578.29 170.1 567.07 168.39 576.41 167"/>
        <polygon class="cls-10" points="576.41 167 567.07 168.39 567.09 163.67 576.41 167"/>
        <polygon class="cls-12" points="572.96 179.63 573.47 184.97 568.68 180.73 572.96 179.63"/>
        <polygon class="cls-12" points="572.96 179.63 568.68 180.73 567.52 174.34 572.96 179.63"/>
        <polygon class="cls-10" points="566.77 118.42 566.6 125.33 566.45 131.63 561.11 125.73 566.76 118.42 566.77 118.42"/>
        <polygon class="cls-4" points="558.13 113.97 566.76 118.42 557.74 117.66 551.3 117.12 551.29 117.11 551.27 117.12 537.75 115.98 545.93 114.22 554.88 112.3 558.13 113.97"/>
        <polygon class="cls-5" points="566.76 118.42 561.11 125.73 556 132.34 555.98 132.32 552.79 121.99 556.45 121.06 556.45 121.05 566.76 118.42"/>
        <polygon class="cls-10" points="566.76 118.42 556.45 121.05 557.74 117.66 566.76 118.42"/>
        <polygon class="cls-7" points="566.45 96.67 558.13 113.97 555.57 101.68 555.57 101.63 566.45 96.67"/>
        <polygon class="cls-4" points="561.11 125.73 566.45 131.63 551.99 137.52 556 132.34 561.11 125.73"/>
        <polygon class="cls-2" points="567.52 174.34 568.68 180.73 563.35 177.72 567.25 174.46 567.27 174.31 567.52 174.34"/>
        <polygon class="cls-1" points="567.27 174.31 567.25 174.46 563.35 177.72 563.21 177.61 557.37 170.99 567.27 174.31"/>
        <polygon class="cls-2" points="567.09 163.67 567.07 168.39 566.81 168.26 557.88 163.85 557.62 163.72 567.09 163.67"/>
        <polygon class="cls-7" points="566.81 168.26 558.06 170.79 558.01 170.63 557.81 164.27 557.74 164.04 557.79 164.03 557.88 163.85 566.81 168.26"/>
        <polygon class="cls-7" points="563.21 177.61 563.04 177.82 544.36 176.38 549.14 171.97 557.37 170.99 563.21 177.61"/>
        <polygon class="cls-10" points="555.57 101.68 558.13 113.97 554.88 112.3 555.57 101.68"/>
        <polygon class="cls-2" points="557.74 117.66 556.45 121.05 556.45 121.06 551.3 117.12 557.74 117.66"/>
        <polygon class="cls-8" points="556.45 121.06 552.79 121.99 551.29 117.12 551.3 117.12 556.45 121.06"/>
        <polygon class="cls-7" points="556.22 91.63 555.57 101.63 555.56 101.64 555.57 101.68 554.88 112.3 545.93 114.22 556.22 91.63"/>
        <polygon class="cls-10" points="556.22 91.63 545.93 114.22 537.75 115.98 537.6 115.86 556.22 91.63"/>
        <polygon class="cls-9" points="504.27 125.2 506.16 129.79 497.63 125.27 492.49 122.54 496.25 123.4 504.24 125.2 504.27 125.2"/>
        <polygon class="cls-5" points="558.01 170.63 558.06 170.79 557.56 170.94 541.55 165.68 541.65 165.28 541.67 165.29 557.74 164.04 557.81 164.27 558.01 170.63"/>
        <polygon class="cls-10" points="557.88 163.85 557.79 164.03 557.74 164.04 541.67 165.29 541.65 165.28 543.01 159.82 557.62 163.72 557.88 163.85"/>
        <polygon class="cls-4" points="541.55 165.68 557.56 170.94 557.37 170.99 549.14 171.97 541.4 165.9 541.55 165.68"/>
        <polygon class="cls-2" points="551.55 124.8 551.99 137.52 543.76 142.55 551.55 124.8"/>
        <polygon class="cls-5" points="551.99 137.52 546.73 149.67 543.76 142.55 551.99 137.52"/>
        <polygon class="cls-12" points="551.29 117.12 551.55 124.8 540.41 125.66 540.4 125.66 527.22 126.68 551.27 117.12 551.29 117.12"/>
        <polygon class="cls-4" points="551.55 124.8 543.76 142.55 540.41 125.66 551.55 124.8"/>
        <polygon class="cls-9" points="551.27 117.12 527.22 126.68 526.97 126.78 526.93 126.66 526.93 126.65 537.54 115.94 537.6 115.86 537.75 115.98 551.27 117.12"/>
        <polygon class="cls-1" points="549.14 171.97 544.36 176.38 527.7 175.8 549.14 171.97"/>
        <polygon class="cls-7" points="549.14 171.97 527.7 175.8 541.4 165.9 549.14 171.97"/>
        <polygon class="cls-4" points="546.73 149.67 547.06 153.59 542.73 150.72 519.23 135.16 518.9 134.77 519.06 134.61 530.27 138.21 543.76 142.55 546.73 149.67"/>
        <polygon class="cls-5" points="547.06 153.59 543.01 159.82 542.73 150.72 547.06 153.59"/>
        <polygon class="cls-12" points="540.41 125.66 543.76 142.55 530.27 138.21 530.27 138.21 540.41 125.66"/>
        <polygon class="cls-2" points="542.73 150.72 543.01 159.82 536.98 163.36 539.17 158.54 542.73 150.72"/>
        <polygon class="cls-7" points="543.01 159.82 541.65 165.28 541.55 165.68 536.98 163.36 543.01 159.82"/>
        <polygon class="cls-5" points="542.73 150.72 539.17 158.54 519.23 135.16 542.73 150.72"/>
        <polygon class="cls-4" points="541.55 165.68 541.4 165.9 527.7 175.8 527.43 175.55 535.37 162.54 536.98 163.36 541.55 165.68"/>
        <polygon class="cls-10" points="540.41 125.66 530.27 138.21 528.15 130.92 540.4 125.66 540.41 125.66"/>
        <polygon class="cls-2" points="540.4 125.66 528.15 130.92 526.97 126.78 527.22 126.68 540.4 125.66"/>
        <polygon class="cls-6" points="539.17 158.54 536.98 163.36 535.37 162.54 532 160.83 539.17 158.54"/>
        <polygon class="cls-7" points="519.23 135.16 539.17 158.54 526.01 155.6 518.97 134.99 519.23 135.16"/>
        <polygon class="cls-7" points="430.99 144.42 448.08 149.61 440.72 152.3 434.39 144.65 430.99 144.42"/>
        <polygon class="cls-5" points="539.17 158.54 532 160.83 526.01 155.6 539.17 158.54"/>
        <polygon class="cls-5" points="535.37 162.54 527.43 175.55 512.03 171.31 535.37 162.54"/>
        <polygon class="cls-7" points="535.37 162.54 512.03 171.31 515.73 167.15 526.01 155.6 532 160.83 535.37 162.54"/>
        <polygon class="cls-5" points="518.97 134.99 526.01 155.6 498.24 146.17 518.76 134.85 518.97 134.99"/>
        <polygon class="cls-12" points="526.01 155.6 515.73 167.15 498.24 146.17 526.01 155.6"/>
        <polygon class="cls-1" points="518.72 134.82 518.76 134.85 498.24 146.17 500.41 136.01 512.3 136.69 518.72 134.82"/>
        <polygon class="cls-12" points="394.05 162.45 417.44 165.23 417.59 170.03 417.35 170.11 407.75 166.95 394.05 162.45"/>
        <polygon class="cls-5" points="506.19 160.88 511.76 171.19 495.58 163.76 506.19 160.88"/>
        <polygon class="cls-7" points="498.24 146.17 506.19 160.88 495.58 163.76 498.11 146.79 497.88 146.59 498.24 146.17"/>
        <polygon class="cls-12" points="500.41 136.01 498.24 146.17 486.81 131.58 500.41 136.01"/>
        <polygon class="cls-12" points="486.81 131.58 498.24 146.17 476.1 129.71 486.81 131.58"/>
        <polygon class="cls-4" points="498.24 146.17 497.88 146.59 482.56 164.43 476.1 129.71 498.24 146.17"/>
        <polygon class="cls-9" points="498.11 146.79 495.58 163.76 482.56 164.43 497.88 146.59 498.11 146.79"/>
        <polygon class="cls-7" points="495.58 163.76 491.74 173.99 491.27 173.5 482.56 164.43 495.58 163.76"/>
        <polygon class="cls-4" points="491.27 173.5 491.74 173.99 478.93 185.22 478.6 184.56 471.52 170.51 491.04 173.72 491.27 173.5"/>
        <polygon class="cls-12" points="491.27 173.5 491.04 173.72 471.52 170.51 482.56 164.43 491.27 173.5"/>
        <polygon class="cls-12" points="476.1 129.71 482.56 164.43 465.26 134.09 476.1 129.71"/>
        <polygon class="cls-8" points="465.26 134.09 482.56 164.43 462.31 162.3 465.02 134.19 465.26 134.09"/>
        <polygon class="cls-5" points="482.56 164.43 471.52 170.51 465.46 172.52 461.36 173.87 462.31 162.3 482.56 164.43"/>
        <polygon class="cls-2" points="478.6 184.56 478.93 185.22 464.49 189.05 465.55 172.8 478.6 184.56 478.6 184.56"/>
        <polygon class="cls-7" points="471.52 170.51 478.6 184.56 478.93 185.22 465.55 172.8 465.46 172.52 471.52 170.51"/>
        <polygon class="cls-8" points="476.1 129.71 465.26 134.09 465.21 134.02 470.95 130.3 476.1 129.71"/>
        <polygon class="cls-8" points="470.95 130.3 465.21 134.02 465.06 133.75 465.02 134.14 464.82 134.27 457.93 129.57 470.95 130.3"/>
        <polygon class="cls-12" points="440.2 174.81 451.26 178.9 445.22 178.65 440.2 174.81"/>
        <polygon class="cls-4" points="465.02 134.19 462.31 162.3 452.87 155.37 460.08 142.79 464.82 134.27 465.02 134.19"/>
        <polygon class="cls-7" points="464.82 134.27 460.08 142.79 445.08 143.21 447.95 141.23 464.82 134.27"/>
        <polygon class="cls-12" points="464.82 134.27 447.95 141.23 457.93 129.57 464.82 134.27"/>
        <polygon class="cls-2" points="462.44 180.96 464.49 189.05 454.78 190.3 462.44 180.96"/>
        <polygon class="cls-12" points="464.49 189.05 459.32 197.63 454.78 190.3 464.49 189.05"/>
        <polygon class="cls-7" points="462.31 162.3 461.36 173.87 456.15 172.99 444.68 171.31 462.31 162.3"/>
        <polygon class="cls-4" points="454.78 190.3 459.32 197.63 452.17 200.77 454.78 190.3"/>
        <polygon class="cls-12" points="459.32 197.63 458.01 203.23 452.02 201.39 452.17 200.77 459.32 197.63"/>
        <polygon class="cls-7" points="458.01 203.23 454.53 204.74 452.02 201.39 458.01 203.23"/>
        <polygon class="cls-8" points="457.93 129.57 447.95 141.23 448.25 126.71 457.93 129.57"/>
        <polygon class="cls-12" points="452.02 201.39 454.53 204.74 448.39 204.3 452.02 201.39"/>
        <polygon class="cls-8" points="441.46 119.31 448.25 126.71 435.69 122.17 435.49 121.46 435.72 121.4 441.46 119.31"/>
        <polygon class="cls-4" points="448.25 126.71 447.95 141.23 437.23 134.74 448.25 126.71"/>
        <polygon class="cls-12" points="448.25 126.71 437.23 134.74 435.69 122.17 448.25 126.71"/>
        <polygon class="cls-7" points="447.95 141.23 433.28 134.93 437.23 134.74 447.95 141.23"/>
        <polygon class="cls-7" points="440.52 161.18 444.68 171.31 435.62 172.64 435.14 172.8 435.07 172.61 440.52 161.18"/>
        <polygon class="cls-12" points="436.76 111.94 441.46 119.31 435.72 121.4 436.76 111.94"/>
        <polygon class="cls-8" points="440.52 161.18 435.07 172.61 435.14 172.8 435.14 172.81 428.26 175.16 440.52 161.18"/>
        <polygon class="cls-2" points="440.52 161.18 428.26 175.16 428.91 165.81 440.52 161.18"/>
        <polygon class="cls-7" points="435.69 122.17 437.23 134.74 430.71 120.01 435.69 122.17"/>
        <polygon class="cls-7" points="436.76 111.94 435.72 121.4 435.49 121.46 431.58 107.58 436.76 111.94"/>
        <polygon class="cls-8" points="428.91 165.81 428.26 175.16 423.6 178.33 428.91 165.81"/>
        <polygon class="cls-7" points="428.91 165.81 423.6 178.33 420.6 175.39 428.91 165.81"/>
        <polygon class="cls-2" points="423.6 178.33 417.06 178.16 420.6 175.39 423.6 178.33"/>
        <polyline class="cls-7" points="417.06 178.16 415.55 174.56 420.6 175.39"/>
        <polyline class="cls-7" points="448.39 204.3 446.2 203.23 452.02 201.39"/>
        <polygon class="cls-10" points="440.52 161.18 462.31 162.3 444.68 171.31 440.52 161.18"/>
        <polygon class="cls-12" points="452.87 155.37 462.31 162.3 440.52 161.18 452.87 155.37"/>
        <line class="cls-9" x1="523.91" y1="132.71" x2="523.8" y2="132.61"/>
        <polygon class="cls-4" points="528.16 130.92 523.91 132.73 519.27 134.69 519.18 134.66 523.09 130.62 528.15 130.9 528.16 130.92"/>
        <polygon class="cls-8" points="527.09 130.41 522.03 130.13 525.87 126.17 527.09 130.41"/>
        <polygon class="cls-6" points="530.27 138.22 523.91 132.73 528.16 130.92 530.27 138.22"/>
        <polygon class="cls-12" points="530.27 138.22 519.27 134.69 523.91 132.73 530.27 138.22"/>
        <g>
          <polyline class="cls-13" points="547.06 153.59 518.76 134.85 370.25 96.53 357.07 95.69 346.99 94.95"/>
          <polyline class="cls-13" points="543.01 159.82 539.17 158.54 518.76 134.85"/>
        </g>
      </g>
    </g>
  </g>
</svg>