<?xml version="1.0" encoding="UTF-8"?>
<svg id="Capa_2" data-name="Capa 2" xmlns="http://www.w3.org/2000/svg" viewBox="0 0 545.37 385.58">
  <defs>
    <style>
      .cls-1 {
        fill: #e4a97e;
      }

      .cls-1, .cls-2, .cls-3, .cls-4, .cls-5, .cls-6, .cls-7, .cls-8, .cls-9, .cls-10, .cls-11, .cls-12, .cls-13, .cls-14, .cls-15, .cls-16, .cls-17, .cls-18 {
        stroke-width: 0px;
      }

      .cls-2, .cls-19, .cls-6, .cls-20, .cls-9, .cls-11, .cls-13, .cls-14, .cls-21, .cls-15, .cls-18 {
        fill-rule: evenodd;
      }

      .cls-2, .cls-12 {
        fill: #161621;
      }

      .cls-19 {
        stroke-width: 2.84px;
      }

      .cls-19, .cls-22, .cls-23, .cls-24, .cls-25, .cls-20, .cls-26, .cls-21, .cls-27, .cls-28, .cls-29 {
        fill: none;
        stroke: #161621;
        stroke-miterlimit: 10;
      }

      .cls-3 {
        fill: #716171;
      }

      .cls-22 {
        stroke-width: 5.63px;
      }

      .cls-4 {
        fill: #ffddb9;
      }

      .cls-5 {
        fill: #81573c;
      }

      .cls-6, .cls-17 {
        fill: #a7ceff;
      }

      .cls-23 {
        stroke-width: 4.16px;
      }

      .cls-24 {
        stroke-width: 4.49px;
      }

      .cls-25 {
        stroke-width: 4.54px;
      }

      .cls-7 {
        fill: #939d4e;
      }

      .cls-8 {
        fill: #eeca9c;
      }

      .cls-20 {
        stroke-width: 4.97px;
      }

      .cls-9 {
        fill: #eca673;
      }

      .cls-10 {
        fill: #956649;
      }

      .cls-11 {
        fill: #7b8422;
      }

      .cls-26 {
        stroke-width: 4.33px;
      }

      .cls-13 {
        fill: #fff;
      }

      .cls-14 {
        fill: #6196cb;
      }

      .cls-21, .cls-28 {
        stroke-width: 4.66px;
      }

      .cls-27 {
        stroke-width: 4.95px;
      }

      .cls-15 {
        fill: #393f0f;
      }

      .cls-16 {
        fill: #5c465b;
      }

      .cls-18 {
        fill: #231a24;
      }

      .cls-29 {
        stroke-width: 3.99px;
      }
    </style>
  </defs>
  <g id="triangulos">
    <g>
      <polygon class="cls-7" points="0 275.84 545.37 275.84 215.49 385.58 0 275.84"/>
      <g>
        <g>
          <g>
            <path class="cls-5" d="M174.73,299.32l-16.73.18c-1.97.02-3.66-1.42-3.93-3.37-.88-6.46-.63-19.99,16.39-21.78,22.46-2.36,4.27,24.97,4.27,24.97Z"/>
            <path class="cls-25" d="M174.73,299.32l-16.73.18c-1.97.02-3.66-1.42-3.93-3.37-.88-6.46-.63-19.99,16.39-21.78,22.46-2.36,4.27,24.97,4.27,24.97Z"/>
          </g>
          <g>
            <path class="cls-5" d="M267.83,207.09c-40.04-55.17-97.17-31.62-97.55,2.8-.38,34.42,19.66,57.05,19.66,57.05,0,0-28.03.71-26.26,32.45h109.6s10.85-17.74,0-40.28c0,0,27.21-11.91-5.45-52.02Z"/>
            <path class="cls-10" d="M226.46,271.55s-28.23-3.88-47.72-22.76c5.32,11.53,11.18,18.16,11.18,18.16,0,0-.37.01-1.01.07l37.54,4.53Z"/>
            <polygon class="cls-12" points="190.22 264.69 229.48 271.93 189.65 269.2 190.22 264.69 190.22 264.69"/>
            <path class="cls-12" d="M181.19,299.69c-3.91-13.15,3.78-26.6,18.54-23.76-2.83.47-5.47,1.33-7.71,2.68-7.3,4.17-7.56,12.65-6.39,20.11,0,0-4.43.97-4.43.97h0Z"/>
            <path class="cls-12" d="M252.63,188.46c-11.93-6.29-24.31-12.91-38.1-12.69-19.15-.41-40.73,12.77-41.65,33.27-.06,3.26.06,6.71.37,10.04,1.85,18.32,9.31,36.28,21.49,50.13,0,0-4.77,0-4.77,0-1.65.08-3.61.44-5.27.88-13.95,3.54-19.75,15.47-18.78,29.17,0,0-2.26-2.14-2.26-2.14h109.6s-1.94,1.08-1.94,1.08c6.66-12.41,5.5-27.81-1.05-40.06,9.53-4.52,13.78-13.46,12.47-23.86-.29-3.15-1-6.32-1.73-9.58,8.79,11.86,7.44,29.57-6.82,36.47,0,0,1.11-3.05,1.11-3.05,3.15,6.54,5.01,13.8,5.04,21.13.01,7.79-1.74,15.67-5.78,22.4,0,0-1.3,0-1.3,0h-111.75c-.35-4.81-.32-9.66.83-14.47,2.73-13.13,14.41-21.76,27.52-22.52,0,0-1.64,3.77-1.64,3.77-1.27-1.45-2.31-2.83-3.38-4.29-11.37-16.03-17.65-35.61-17.13-55.33.58-15.23,12.04-27.94,25.61-33.46,19.61-8.2,45.49-3.41,59.3,13.1h0Z"/>
            <path class="cls-12" d="M252.02,173.9c-9.84-1.28-12.92,5.48-12.92,5.48l-7.88-2.66s5.04-9.3,20.81-2.82Z"/>
          </g>
        </g>
        <g>
          <g>
            <path class="cls-1" d="M95.96,294.03h-18.23c-2.15,0-3.97-1.59-4.24-3.72-.88-7.05-.45-21.8,18.12-23.55,24.51-2.31,4.35,27.27,4.35,27.27Z"/>
            <path class="cls-27" d="M95.96,294.03h-18.23c-2.15,0-3.97-1.59-4.24-3.72-.88-7.05-.45-21.8,18.12-23.55,24.51-2.31,4.35,27.27,4.35,27.27Z"/>
          </g>
          <path class="cls-4" d="M107.83,258.5l-2.04-90.96c-.37-16.42,13.68-29.49,30.03-27.94h0c15.7,1.49,26.91,15.86,24.54,31.45-6.13,40.27-16.64,109.27-17.47,114.9-.68,4.64-4.67,8.08-9.36,8.08h-45.14s-8.28-26.42,19.45-35.53Z"/>
          <path class="cls-1" d="M105.79,167.54l.44,19.53c9.23,33.09,30.5,47.24,43.62,52.99,3.45-22.68,7.5-49.29,10.51-69.01.69-4.55.22-8.99-1.17-13.04l-52.58,2.22c-.58,2.33-.87,4.78-.82,7.31Z"/>
          <path class="cls-27" d="M107.83,258.5l-2.04-90.96c-.37-16.42,13.68-29.49,30.03-27.94h0c15.7,1.49,26.91,15.86,24.54,31.45-6.13,40.27-16.64,109.27-17.47,114.9-.68,4.64-4.67,8.08-9.36,8.08h-45.14s-8.28-26.42,19.45-35.53Z"/>
          <path class="cls-12" d="M105.15,294.53c-4.09-14.43,4.39-28.91,20.48-25.68-3.09.47-5.98,1.38-8.43,2.83-8.03,4.5-8.37,13.66-7.21,21.84,0,0-4.84,1.01-4.84,1.01h0Z"/>
          <path class="cls-12" d="M170.74,163.36c-3.07,10.37-11.17,10.45-11.17,10.45l-.84,9.03s11.5-.91,12.01-19.48Z"/>
        </g>
        <g>
          <path class="cls-4" d="M106.75,162.49c-9.85-50.55,35.4-94.89,85.97-85.17,111.13,21.36,179.96,113.45,146.82,161.19-37.25,53.67-101.05,37.4-131.02-32.82,0,0-87.75,19.64-101.25-40.7-.19-.84-.36-1.67-.52-2.5Z"/>
          <path class="cls-8" d="M228.25,108.23v7.62c0,2.9,1.88,5.46,4.64,6.32,12.64,3.94,49.13,16.62,84.68,41.19,0,0-23.4-39.84-80.31-61.31-4.35-1.64-9,1.54-9,6.19Z"/>
          <path class="cls-1" d="M232.13,214.74c-13.06-14.57-32.4-22.03-51.83-19.79-22.66,2.61-51.79,1.01-69.38-18.97,21.15,46.81,97.61,29.71,97.61,29.71,29.97,70.22,93.77,86.5,131.02,32.82,3.5-5.05,5.86-10.6,7.15-16.51-30.07,37.27-78.12,33.42-114.57-7.26Z"/>
          <path class="cls-1" d="M185.87,103.54l-75.25,18.33c-5,12.3-6.68,26.2-3.87,40.62.16.83.34,1.66.52,2.5,3.37,15.06,11.37,25.14,21.47,31.78,57.6-12.6,57.13-93.23,57.13-93.23Z"/>
          <path class="cls-22" d="M106.75,162.49c-9.85-50.55,35.4-94.89,85.97-85.17,111.13,21.36,179.96,113.45,146.82,161.19-37.25,53.67-101.05,37.4-131.02-32.82,0,0-87.75,19.64-101.25-40.7-.19-.84-.36-1.67-.52-2.5Z"/>
        </g>
        <g>
          <g>
            <path class="cls-1" d="M154.27,301.11h-18.23c-2.15,0-3.97-1.59-4.24-3.72-.88-7.05-.45-21.8,18.12-23.55,24.51-2.31,4.35,27.27,4.35,27.27Z"/>
            <path class="cls-27" d="M154.27,301.11h-18.23c-2.15,0-3.97-1.59-4.24-3.72-.88-7.05-.45-21.8,18.12-23.55,24.51-2.31,4.35,27.27,4.35,27.27Z"/>
          </g>
          <path class="cls-4" d="M166.14,265.58l-2.04-90.96c-.37-16.42,13.68-29.49,30.03-27.94h0c15.7,1.49,26.91,15.86,24.54,31.45-6.13,40.27-16.64,109.27-17.47,114.9-.68,4.64-4.67,8.08-9.36,8.08h-45.14s-8.28-26.42,19.45-35.53Z"/>
          <path class="cls-12" d="M218.04,166.85c4.35,6.97,2.29,15.74,1.33,23.42-3,21.48-6.75,47.66-9.94,69.11-1.15,7.55-3.98,26.5-5.15,33.79-.63,5.45-5.15,10.12-10.59,10.83-1.82.27-4.41.09-6.27.12,0,0-5.82-.05-5.82-.05-11.29-.13-23.7-.21-34.93-.48,0,0-1.86-.03-1.86-.03l-.5-1.7c-4.67-17.71,3.46-33.13,21.02-38.61.07-.05-1.69,2.4-1.68,2.4-1.41-21.17-1.84-42.81-2.12-64.05-.01-4.02-.08-15.28-.08-19.23-.07-6.53,0-13.93,4.75-19-.59,6.48.63,12.47.84,18.87,1.19,28.18,2.15,56.93,1.5,85.11-3.9,1.28-7.83,2.88-11.05,5.29-8.75,6.07-11.2,17.87-8.46,27.74.01,0-2.41-1.75-2.34-1.73,14.72-.3,30.35-.46,45.09-.55,3,.03,5.81-2.27,6.29-5.23,0,0,1.71-11.38,1.71-11.38,4.43-29.37,9.76-62.68,14.58-91.96.95-7.76,3.64-14.6,3.66-22.66h0Z"/>
          <path class="cls-12" d="M163.46,301.61c-4.09-14.43,4.39-28.91,20.48-25.68-3.09.47-5.98,1.38-8.43,2.83-8.03,4.5-8.37,13.66-7.21,21.84,0,0-4.84,1.01-4.84,1.01h0Z"/>
          <path class="cls-12" d="M229.04,170.44c-3.07,10.38-11.17,10.45-11.17,10.45l-.84,9.03s11.5-.91,12.01-19.48Z"/>
        </g>
        <g>
          <path class="cls-15" d="M196.27,130.93c-.29-1.28-.71-2.52-1.22-3.7l-5.58-16.89c-4.34-19.25-35.31-27.87-69.18-19.24-33.87,8.63-57.81,31.23-53.47,50.48.29,1.28.71,2.52,1.22,3.7l5.58,16.89c4.34,19.25,35.31,27.87,69.18,19.24,33.87-8.63,57.81-31.23,53.47-50.48ZM172.6,132.91c-9.35,8.83-23,15.85-38.44,19.78-2.97.76-5.98,1.39-8.94,1.88-27.95,4.61-49.34-3.88-51.77-14.69-2.84-12.63,17.36-32.7,48.66-40.67,2.97-.76,5.97-1.39,8.94-1.88,27.95-4.61,49.34,3.88,51.77,14.69,1.31,5.8-2.52,13.61-10.23,20.89Z"/>
          <path class="cls-11" d="M67.34,143.45c.14.42.3.83.46,1.24.08.19.16.39.24.58,7.26,16.62,36.34,23.59,67.95,15.53,33.87-8.63,57.81-31.23,53.47-50.48-4.34-19.25-35.31-27.87-69.18-19.24-33.87,8.63-57.81,31.23-53.47,50.48.12.53.27,1.04.42,1.56.03.11.06.22.1.32ZM122.12,99.2c2.97-.76,5.97-1.39,8.94-1.88,27.95-4.61,49.34,3.88,51.77,14.69,1.31,5.8-2.52,13.61-10.23,20.89-9.35,8.83-23,15.85-38.44,19.78-2.97.76-5.98,1.39-8.94,1.88-27.95,4.61-49.34-3.88-51.77-14.69-2.84-12.63,17.36-32.7,48.66-40.67Z"/>
          <path class="cls-20" d="M196.27,130.93c-.29-1.28-.71-2.52-1.22-3.7l-5.58-16.89c-4.34-19.25-35.31-27.87-69.18-19.24-33.87,8.63-57.81,31.23-53.47,50.48.29,1.28.71,2.52,1.22,3.7l5.58,16.89c4.34,19.25,35.31,27.87,69.18,19.24,33.87-8.63,57.81-31.23,53.47-50.48ZM172.6,132.91c-9.35,8.83-23,15.85-38.44,19.78-2.97.76-5.98,1.39-8.94,1.88-27.95,4.61-49.34-3.88-51.77-14.69-2.84-12.63,17.36-32.7,48.66-40.67,2.97-.76,5.97-1.39,8.94-1.88,27.95-4.61,49.34,3.88,51.77,14.69,1.31,5.8-2.52,13.61-10.23,20.89Z"/>
        </g>
        <g>
          <g>
            <path class="cls-5" d="M78.15,5.88c-.02-1.03-.42-2.05-1.24-2.74-6.3-5.29-22.08,12.33-36.69,16.43-15.73,4.41-23.96,8.27-24.99,20.6-.77,9.29,6.72,89.26,11.21,95.56,4.49,6.31,35.27-5.89,44.26-40.78,8.24-31.99,7.6-81.13,7.44-89.07Z"/>
            <path class="cls-10" d="M23.74,124.11c5.1,7.15,40-6.67,50.19-46.24.16-.64.32-1.28.48-1.93-.97,6.68-2.19,13.15-3.7,19.03-8.99,34.89-39.77,47.08-44.26,40.78-.94-1.32-2.02-5.89-3.12-12.36.14.3.27.55.4.74Z"/>
            <path class="cls-26" d="M78.15,5.88c-.02-1.03-.42-2.05-1.24-2.74-6.3-5.29-22.08,12.33-36.69,16.43-15.73,4.41-23.96,8.27-24.99,20.6-.77,9.29,6.72,89.26,11.21,95.56,4.49,6.31,35.27-5.89,44.26-40.78,8.24-31.99,7.6-81.13,7.44-89.07Z"/>
          </g>
          <g>
            <g>
              <path class="cls-4" d="M195.42,92.74c9.01-43.05-21.03-73.57-64.78-82.5C86.88,1.3,45.26,19.88,35.61,60.41c-2,8.41-2.39,16.8-1.37,24.9-3.87,4.07-6.58,8.75-7.81,13.95-5.77,24.23,16.07,50,62.78,57.26,52.08,8.1,95.92-11.3,106.21-63.78Z"/>
              <path class="cls-1" d="M186.86,122.36c3.9-7.94,6.87-16.99,8.73-27.23,5.14-26.53-2.44-48.65-18.03-64.54-11.68,52.54-3.15,78.76,9.3,91.77Z"/>
              <path class="cls-9" d="M150.01,122.74c.06,4.16-3.27,7.58-7.43,7.63-4.16.06-7.58-3.27-7.63-7.43-.06-4.16,3.19-13.79,7.35-13.84,4.16-.06,7.66,9.48,7.71,13.64Z"/>
              <g>
                <path class="cls-14" d="M148.1,114.99c.04,3.16-2.49,5.76-5.65,5.81-3.16.04-5.76-2.49-5.81-5.65-.04-3.16,2.43-10.49,5.59-10.53,3.16-.04,5.83,7.22,5.87,10.38Z"/>
                <path class="cls-6" d="M146.58,113.32c.03,2.31-1.82,4.21-4.13,4.25-2.31.03-4.21-1.82-4.25-4.13-.03-2.31,1.77-7.67,4.09-7.7,2.31-.03,4.26,5.28,4.29,7.59Z"/>
                <path class="cls-13" d="M145.08,113.85c0,.91-1.21,1.66-2.71,1.66s-2.71-.74-2.71-1.66,1.21-1.66,2.71-1.66,2.71.74,2.71,1.66Z"/>
                <path class="cls-19" d="M148.1,114.99c.04,3.16-2.49,5.76-5.65,5.81-3.16.04-5.76-2.49-5.81-5.65-.04-3.16,2.43-10.49,5.59-10.53,3.16-.04,5.83,7.22,5.87,10.38Z"/>
              </g>
              <path class="cls-1" d="M91.2,140.28c43.58,7.51,74.86-4.92,97.73-26.93-16.63,36.86-55.15,50.1-99.73,43.17-45.74-7.11-67.61-31.95-63.09-55.73,10.19,16.55,20.78,31.86,65.09,39.5Z"/>
              <path class="cls-24" d="M195.42,92.74c9.01-43.05-21.03-73.57-64.78-82.5C86.88,1.3,45.26,19.88,35.61,60.41c-2,8.41-2.39,16.8-1.37,24.9-3.87,4.07-6.58,8.75-7.81,13.95-5.77,24.23,16.07,50,62.78,57.26,52.08,8.1,95.92-11.3,106.21-63.78Z"/>
            </g>
            <g>
              <circle class="cls-17" cx="74.26" cy="70.95" r="27.83" transform="translate(-10.71 128.65) rotate(-77.87)"/>
              <path class="cls-13" d="M53.53,67.39c-2.79,12.64,5.63,25.24,18.8,28.14,13.17,2.9,26.11-4.99,28.89-17.63,2.79-12.64-5.63-25.24-18.8-28.14-13.17-2.9-26.11,4.99-28.89,17.63Z"/>
              <path class="cls-2" d="M87.73,81.48c-1.14,5.16-4.9,8.71-8.4,7.94-3.5-.77-5.42-5.58-4.28-10.73,1.14-5.16,4.9-8.71,8.4-7.94,3.5.77,5.42,5.58,4.28,10.73Z"/>
              <path class="cls-13" d="M71.01,82.49c-.37,1.69.69,3.36,2.38,3.73,1.69.37,3.36-.69,3.73-2.38.37-1.69-.69-3.36-2.38-3.73-1.69-.37-3.36.69-3.73,2.38Z"/>
              <circle class="cls-28" cx="74.26" cy="70.95" r="27.83" transform="translate(-10.71 128.65) rotate(-77.87)"/>
            </g>
            <g>
              <path class="cls-4" d="M101.37,42.4c-2.82,14.95-9.02,16.95-60.88,13.65,0,0,20.47-50.68,60.88-13.65Z"/>
              <path class="cls-1" d="M93.91,47.04c-18.54-11.37-37.66-3.81-45.96,7.2,0,0,25.68-11.32,45.96-7.2Z"/>
              <path class="cls-2" d="M91.37,33.43c-10.14,16.4-30.43,12.27-38.18,5.42,0,0,17,2.7,28.07-11.39l10.11,5.97Z"/>
              <path class="cls-12" d="M101.37,42.4c1.76,15.58-14.81,17.68-26.56,17.73-5.81.04-11.57-.18-17.29-.8-5.79-.8-11.54-.83-17.03-3.28,5.61-1.73,11.47-1.1,17.24-1.36,5.71-.11,11.39.05,17.01-.02,6.62-.26,13.78.2,19.78-2.71,3.62-2.05,4.8-5.77,6.85-9.56h0Z"/>
            </g>
            <g>
              <path class="cls-4" d="M89.44,79.53l-74.88,6.5s-12.31,40.51,26.39,48.66c39.23,8.26,75.23-19.2,75.23-19.2l-26.75-35.97Z"/>
              <path class="cls-8" d="M52.93,86.71l31.35-1.55s-5.55,7.48-30.77,9.03c0,0,1.1-4.71-.58-7.48Z"/>
              <path class="cls-1" d="M12.02,85.67c-.72,6.01-1.19,16.55,2.29,26.43,19.62,14.51,30.16-6.74,30.16-15.68,0-6.65-18.45-9.52-32.46-10.75Z"/>
              <g>
                <path class="cls-23" d="M91.37,80.02l-77.45,4.77s-11.36,40.41,27.04,49.9c27.46,6.79,52.06-17.13,71.58-1.25"/>
                <path class="cls-2" d="M105.16,124.92l9.03,14.92s6.56-12.99-9.03-14.92Z"/>
              </g>
            </g>
            <g>
              <path class="cls-16" d="M8.58,86.15c-1.33,8.72,6.37,17.13,17.21,18.78,10.83,1.65,20.7-4.08,22.03-12.8,1.33-8.72-7.26-11.34-18.09-12.99-10.83-1.65-19.81-1.72-21.14,7Z"/>
              <path class="cls-18" d="M46.7,95.76c-2.94,6.2-10.62,10.07-19.19,9.37-1.62-6.79,12.57-17.65,19.19-9.37Z"/>
              <path class="cls-3" d="M10.6,82.3c-.79,5.17,5.2,10.38,13.38,11.62,8.18,1.25,15.44-1.94,16.23-7.11.79-5.17-5.72-6.94-13.9-8.19-8.18-1.25-14.92-1.5-15.71,3.67Z"/>
              <path class="cls-29" d="M8.58,86.15c-1.33,8.72,6.37,17.13,17.21,18.78,10.83,1.65,20.7-4.08,22.03-12.8,1.33-8.72-7.26-11.34-18.09-12.99-10.83-1.65-19.81-1.72-21.14,7Z"/>
            </g>
            <g>
              <g>
                <g>
                  <path class="cls-6" d="M90.08,74.44c-3.31,15.01,6.18,29.86,21.19,33.17,15.01,3.31,29.86-6.18,33.17-21.19,3.31-15.01-6.18-29.86-21.19-33.17-15.01-3.31-29.86,6.18-33.17,21.19Z"/>
                  <path class="cls-13" d="M97.84,76.15c-2.84,12.87,5.3,25.6,18.17,28.44,12.87,2.84,25.6-5.3,28.44-18.17,2.84-12.87-5.3-25.6-18.17-28.44-12.87-2.84-25.6,5.3-28.44,18.17Z"/>
                  <path class="cls-21" d="M90.08,74.44c-3.31,15.01,6.18,29.86,21.19,33.17,15.01,3.31,29.86-6.18,33.17-21.19,3.31-15.01-6.18-29.86-21.19-33.17-15.01-3.31-29.86,6.18-33.17,21.19Z"/>
                </g>
                <path class="cls-2" d="M130.47,90.86c-1.14,5.16-4.9,8.71-8.4,7.94-3.5-.77-5.42-5.58-4.28-10.73,1.14-5.16,4.9-8.71,8.4-7.94,3.5.77,5.42,5.58,4.28,10.73Z"/>
                <path class="cls-13" d="M113.13,91.77c-.37,1.69.69,3.36,2.38,3.73,1.69.37,3.36-.69,3.73-2.38.37-1.69-.69-3.36-2.38-3.73-1.69-.37-3.36.69-3.73,2.38Z"/>
              </g>
              <g>
                <path class="cls-4" d="M107.4,45.02c-7.97,14.05-4.06,19.78,42.61,51.4,0,0,17.7-54.84-42.61-51.4Z"/>
                <path class="cls-1" d="M114.26,55.03c21.75-.25,34.27,16.06,35.75,29.77,0,0-16.23-22.89-35.75-29.77Z"/>
                <path class="cls-2" d="M125.48,42.01c2.03,19.17,22.11,24.25,32.05,21.44,0,0-16.49-4.93-20.36-22.43l-11.7,1Z"/>
                <path class="cls-12" d="M107.4,45.02c-.73,3.1-1.72,6.01-1.68,8.71-.11,7.47,10.61,14.6,15.95,19.16,8.15,6.44,17.38,13.01,25.2,19.95,1.12,1.08,2.19,2.23,3.14,3.58-6.2-1.66-11.12-5.4-16.52-8.56-7.87-4.97-15.52-10.42-22.32-16.88-7.83-7.44-12.87-17.08-3.77-25.96h0Z"/>
              </g>
            </g>
          </g>
          <g>
            <path class="cls-5" d="M161.87,14.48c.02-1.03.42-2.05,1.24-2.74,6.3-5.29,22.08,12.33,36.69,16.43,15.73,4.41,23.96,8.27,24.99,20.6.77,9.29-6.72,89.26-11.21,95.56-4.49,6.31-35.27-5.89-44.26-40.78-8.24-31.99-7.6-81.13-7.44-89.07Z"/>
            <path class="cls-10" d="M206.34,128.6c-9.67,1.02-30.05-2.58-40.24-42.15-.16-.64-.32-1.28-.48-1.93.97,6.68,2.19,13.15,3.7,19.03,8.99,34.89,39.77,47.08,44.26,40.78.94-1.32,5.22-20.92,6.32-27.39-.14.3-5.57,10.82-13.56,11.67Z"/>
            <path class="cls-26" d="M161.87,14.48c.02-1.03.42-2.05,1.24-2.74,6.3-5.29,22.08,12.33,36.69,16.43,15.73,4.41,23.96,8.27,24.99,20.6.77,9.29-6.72,89.26-11.21,95.56-4.49,6.31-35.27-5.89-44.26-40.78-8.24-31.99-7.6-81.13-7.44-89.07Z"/>
          </g>
        </g>
        <g>
          <g>
            <path class="cls-1" d="M228.08,302.85l-16.73.18c-1.97.02-3.66-1.42-3.93-3.37-.88-6.46-.63-19.99,16.39-21.78,22.46-2.36,4.27,24.97,4.27,24.97Z"/>
            <path class="cls-25" d="M228.08,302.85l-16.73.18c-1.97.02-3.66-1.42-3.93-3.37-.88-6.46-.63-19.99,16.39-21.78,22.46-2.36,4.27,24.97,4.27,24.97Z"/>
          </g>
          <g>
            <path class="cls-4" d="M321.18,210.63c-40.04-55.17-97.17-31.62-97.55,2.8-.38,34.42,19.66,57.05,19.66,57.05,0,0-28.03.71-26.26,32.45h109.6s10.85-17.74,0-40.28c0,0,27.21-11.91-5.45-52.02Z"/>
            <path class="cls-8" d="M305.09,207.55c-2.02,6.7-14.6,3.23-28.16-.87-13.56-4.1-22.97-7.27-20.94-13.97,2.02-6.7,14.66-8.81,28.21-4.71,13.56,4.1,22.91,12.85,20.88,19.55Z"/>
            <path class="cls-1" d="M331.37,285.59c.28-4.94-.23-10.69-2.31-16.94-67.7-5.47-99.71-30.86-105.43-54.29-.01,33.9,19.65,56.12,19.65,56.12,0,0-1.27.04-3.23.39,34.25,1.94,72.56,10.23,91.32,14.72Z"/>
            <polygon class="cls-12" points="243.56 268.23 282.83 275.46 243 272.73 243.56 268.23 243.56 268.23"/>
            <path class="cls-12" d="M234.54,303.22c-3.92-13.15,3.78-26.6,18.53-23.76-2.83.47-5.47,1.33-7.71,2.68-7.28,4.13-7.57,12.69-6.39,20.11,0,0-4.43.97-4.43.97h0Z"/>
            <path class="cls-12" d="M305.98,192c-11.93-6.29-24.31-12.91-38.1-12.69-19.15-.41-40.73,12.77-41.64,33.27-.06,3.26.06,6.71.37,10.04,1.85,18.32,9.31,36.27,21.49,50.13,0,0-4.77,0-4.77,0-1.65.08-3.61.44-5.27.88-13.95,3.54-19.75,15.47-18.78,29.17,0,0-2.26-2.14-2.26-2.14h109.6s-1.94,1.08-1.94,1.08c6.66-12.41,5.5-27.81-1.05-40.06,9.53-4.52,13.78-13.46,12.47-23.86-.29-3.15-1-6.32-1.73-9.58,8.79,11.86,7.44,29.57-6.82,36.47,0,0,1.11-3.05,1.11-3.05,3.15,6.54,5.01,13.8,5.04,21.13.01,7.79-1.74,15.67-5.78,22.4,0,0-1.3,0-1.3,0h-109.6s-2.14,0-2.14,0c-.35-4.81-.32-9.66.83-14.47,2.73-13.13,14.41-21.76,27.52-22.52,0,0-1.64,3.77-1.64,3.77-1.27-1.45-2.31-2.83-3.38-4.29-11.37-16.03-17.65-35.61-17.13-55.33.58-15.23,12.04-27.94,25.61-33.46,19.61-8.2,45.49-3.41,59.3,13.1h0Z"/>
            <path class="cls-12" d="M305.37,177.43c-9.84-1.28-12.92,5.48-12.92,5.48l-7.88-2.66s5.04-9.3,20.81-2.82Z"/>
          </g>
        </g>
        <g>
          <path class="cls-5" d="M347.58,204.52c59.6,2.38,59.03,70.28,32.13,98.51-26.9,28.23-100.26,25.57-100.26,25.57,0,0-.68-30.4,45.73-41.76,46.4-11.35,57.72-60.24,22.18-68.47l.22-13.85Z"/>
          <path class="cls-10" d="M380.82,216.34c10.86,21.15,19.21,51.12-4.18,72.12-31.76,28.51-87.3,30.52-83.81,14.14-13.68,12.4-13.38,26-13.38,26,0,0,73.35,2.66,100.26-25.57,20.37-21.38,25.63-65.5,1.11-86.69Z"/>
          <path class="cls-22" d="M347.58,204.52c59.6,2.38,59.03,70.28,32.13,98.51-26.9,28.23-100.26,25.57-100.26,25.57,0,0-.68-30.4,45.73-41.76,46.4-11.35,57.72-60.24,22.18-68.47l.22-13.85Z"/>
        </g>
      </g>
    </g>
  </g>
</svg>